<svg xmlns="http://www.w3.org/2000/svg" data-name="S_ProjectEdit_24_N@2x" height="48" id="S_ProjectEdit_24_N_2x" viewBox="0 0 48 48" width="48">
  <defs>
    <style>
	.fill {
        fill: #707070;
      }</style>
  </defs>
  <title>S_ProjectEdit_24_N@2x</title>
  <rect id="ToDelete" fill="#ff13dc" opacity="0" width="48" height="48" /><path class="fill" d="M16.959,34.7a5.013,5.013,0,0,1,1.256-2.105L18.81,32H6V8H42v4.27a5.093,5.093,0,0,1,2.59,1.384L46,15.064V5a1,1,0,0,0-1-1H3A1,1,0,0,0,2,5V35a1,1,0,0,0,1,1H16.571Z" />
  <path class="fill" d="M47.526,22.247l-5.765-5.765a1.214,1.214,0,0,0-.866-.353h-.038a1.371,1.371,0,0,0-.927.406L21.043,35.423a1,1,0,0,0-.251.421l-2.777,9.306c-.114.376.459.851.783.851a.274.274,0,0,0,.061-.006c.276-.063,7.867-2.344,9.312-2.779a.98.98,0,0,0,.414-.249L47.472,24.079a1.374,1.374,0,0,0,.4-.883A1.222,1.222,0,0,0,47.526,22.247Zm-26.9,21.142,2.009-6.73,4.72,4.708C25.2,42.016,22.494,42.832,20.627,43.389Z" />
  </svg>