<svg xmlns="http://www.w3.org/2000/svg" data-name="S_StraightenOutline_24_N@2x" height="48" id="S_StraightenOutline_24_N_2x" viewBox="0 0 48 48" width="48">
  <defs>
    <style>
	.fill {
        fill: #707070;
      }</style>
  </defs>
  <title>S_StraightenOutline_24_N@2x</title>
  <rect id="ToDelete" fill="#ff13dc" opacity="0" width="48" height="48" /><circle class="fill" cx="10" cy="13.8" r="2.2" />
  <circle class="fill" cx="38" cy="13.8" r="2.2" />
  <circle class="fill" cx="24" cy="5.8" r="2.2" />
  <circle class="fill" cx="16" cy="7.8" r="2.2" />
  <circle class="fill" cx="32" cy="7.8" r="2.2" />
  <path class="fill" d="M46,20H2a2,2,0,0,0-2,2V38a2,2,0,0,0,2,2H46a2,2,0,0,0,2-2V22A2,2,0,0,0,46,20ZM30.128,24A6.868,6.868,0,0,1,24,28.2,6.868,6.868,0,0,1,17.872,24ZM4,36V24H8V36Zm8,0V24h2.2a10,10,0,0,0,19.6,0H36V36Zm32,0H40V24h4Z" />
  </svg>