<svg xmlns="http://www.w3.org/2000/svg" viewBox="0 0 151.71 168.27"><title>Asset 1</title><g id="Layer_2" data-name="Layer 2"><g id="Layer_1-2" data-name="Layer 1"><path d="M87.93,70.47h16.32c.14-1.25.37-2.41.39-3.57.06-3.2,0-6.41,0-9.61.09-5.77,1.24-6.9,7-6.91q16.7,0,33.41,0a24.55,24.55,0,0,1,2.74,0c2.83.32,3.63,1.2,3.83,4.08,0,.46,0,.92,0,1.37q0,19,0,38c0,4.94-.65,5.62-5.47,5.63q-17.85.05-35.7,0c-4.36,0-5.61-1.21-5.82-5.71-.15-3.2,0-6.41-.05-9.61,0-1.49-.14-3-.25-5.08H87.88c-.1,2-.24,3.63-.26,5.25,0,3.66.06,7.32,0,11-.09,3.1-1,4-4.16,4.16-.91.06-1.83,0-2.75,0H48.54c-1,4.77-.51,9.12-.39,13.84,9.39,2.22,16.75,7.11,20.86,16.11a27.59,27.59,0,0,1,1.64,17.82c-2.69,12.26-14.38,21.56-27.94,21-12.35-.55-23.43-9.67-25.74-22.07a26.89,26.89,0,0,1,4.32-20.92c4.37-6.33,10.57-9.94,18.1-11.77V99.75c-1.82-.09-3.44-.23-5.07-.23-9.46,0-18.92,0-28.37,0-4.8,0-5.88-1-5.91-5.95Q0,75,0,56.48c0-5,1.21-6.08,6.31-6.1,9.15,0,18.31,0,27.46,0h5.61a141.61,141.61,0,0,0,0-16.82c-1.94-.09-3.57-.23-5.2-.23-7.63,0-15.26,0-22.88,0-4.48,0-5.78-1.26-5.84-5.68q-.15-11,0-22C5.6,1.24,6.88,0,11.41,0Q43.68,0,75.94,0c4.5,0,5.23.84,5.25,5.43q.05,11.21,0,22.42c0,4.43-.91,5.35-5.38,5.39-7.32.07-14.64,0-22,0H48.21a141.06,141.06,0,0,0,0,16.82c1.93.09,3.55.23,5.18.24,9,0,18,0,27,0,1.07,0,2.14-.06,3.2,0,3.1.28,4,1.15,4,4.33.09,3.81,0,7.63,0,11.44C87.64,67.51,87.81,68.84,87.93,70.47ZM79.37,58.91c-5.73-1.06-67.71-.8-70.95.21-1,6-.65,29,.47,32.12H79.37ZM44,121.48c-10.47,0-19.74,8.78-19.47,19.05.31,12.12,9.28,19.52,19.38,19.66,10.58.15,19.6-9.1,19.46-19.57A19.53,19.53,0,0,0,44,121.48Zm99.14-30.12c1.07-5.71.83-29.44-.34-33-9.7-.07-19.52-.12-29.23,0-1,6.05-.77,29.58.31,33ZM73,8.56c-6.12-1.11-56-.81-59.23.27V24.49c6.3,1,55.86.7,59.23-.39Z"/></g></g></svg>