<?xml version="1.0" encoding="utf-8"?>
<!-- Generator: Adobe Illustrator 21.1.0, SVG Export Plug-In . SVG Version: 6.00 Build 0)  -->
<svg version="1.1" id="Layer_1" xmlns="http://www.w3.org/2000/svg" xmlns:xlink="http://www.w3.org/1999/xlink" x="0px" y="0px"
	 viewBox="0 0 100 100" style="enable-background:new 0 0 100 100;" xml:space="preserve">
<style type="text/css">
	.st0{fill:#707070;}
	.st1{fill:#FFFFFF;}
</style>
<g>
	<circle class="st0" cx="50" cy="50" r="50"/>
	<g>
		<path class="st1" d="M45.2,53.7c0-2.8-0.6-4.7-4.9-5.9c-0.9-0.2-0.9-0.5-0.9-0.9v-1c0-0.4,0.2-0.6,0.7-0.8
			c1.3-0.6,10.7-3.9,12.3-4.5c0.9-0.4,1.7-0.6,2.3-0.6c0.6,0,0.9,0.4,0.8,1.1c-0.2,1.5-0.2,7.6-0.2,15.4v10.2c0,3.6,0,7,0.2,8.1
			c0.2,1.7,0.6,2.5,1.5,2.5h3.8c0.8,0,0.9,0.2,0.9,0.7V80c0,0.6-0.2,0.9-0.8,0.9c-0.8,0-5.1-0.3-11.4-0.3c-5.5,0-9.1,0.3-10.2,0.3
			c-0.5,0-0.8-0.2-0.8-0.9v-1.8c0-0.6,0.4-0.8,0.9-0.8h4.2c0.9,0,1.4-0.4,1.5-1.9c0.1-2.8,0.2-5.9,0.2-8.5V53.7z M48.4,30.6
			c-3,0-6-2.4-6-5.7c0-2.8,2.7-5.9,6.6-5.9c4,0,5.9,3.2,5.9,5.5C54.9,27.4,52.9,30.6,48.4,30.6z"/>
	</g>
</g>
</svg>
