<svg xmlns="http://www.w3.org/2000/svg" data-name="Layer 1" height="48" id="Layer_1" viewBox="0 0 48 48" width="48">
  <defs>
    <style>
      .\.fill {
        fill: #707070;
      }
    </style>
  </defs>
  <title>S_PublicDisplay_24_N@2x</title>
  <rect id="ToDelete" fill="#ff13dc" opacity="0" width="48" height="48" /><path class=".fill" d="M32.721,34.036a.825.825,0,0,1-.678-.845v-1.22a.878.878,0,0,1,.2-.548,6.743,6.743,0,0,0,1.358-4.014c0-3.041-1.5-4.74-3.769-4.74s-3.812,1.766-3.812,4.74a6.784,6.784,0,0,0,1.45,4.045.812.812,0,0,1,.182.5V33.19a.821.821,0,0,1-.679.845,6.284,6.284,0,0,0-3.468,1.278,6.412,6.412,0,0,0-3.384-1.277.824.824,0,0,1-.677-.845v-1.22a.877.877,0,0,1,.2-.548,6.737,6.737,0,0,0,1.358-4.014c0-3.041-1.5-4.74-3.769-4.74s-3.812,1.766-3.812,4.74a6.79,6.79,0,0,0,1.45,4.045.813.813,0,0,1,.183.5V33.19a.821.821,0,0,1-.68.845,6.277,6.277,0,0,0-3.467,1.277,6.419,6.419,0,0,0-3.384-1.276.824.824,0,0,1-.678-.845v-1.22a.883.883,0,0,1,.2-.548,6.73,6.73,0,0,0,1.358-4.014c0-3.041-1.5-4.74-3.768-4.74S.835,24.435.835,27.409a6.8,6.8,0,0,0,1.45,4.045.813.813,0,0,1,.183.5V33.19a.821.821,0,0,1-.68.845A7.47,7.47,0,0,0,0,34.427V40H37.986s.014-.726.014-.873C38,37.862,37.2,34.522,32.721,34.036Z" />
  <path class=".fill" d="M44,2H4A2,2,0,0,0,2,4V20.856a6.021,6.021,0,0,1,2.648-.588A6.276,6.276,0,0,1,6,20.414V6H42V30H35.613a9.115,9.115,0,0,1-.857,1.982A7.73,7.73,0,0,1,38.251,34H44a2,2,0,0,0,2-2V4A2,2,0,0,0,44,2Z" />
</svg>