<svg xmlns="http://www.w3.org/2000/svg" data-name="S_DocumentOutline_24_N@2x" height="48" id="S_DocumentOutline_24_N_2x" viewBox="0 0 48 48" width="48">
  <defs>
    <style>
	.fill {
        fill: #707070;
      }</style>
  </defs>
  <title>S_DocumentOutline_24_N@2x</title>
  <rect id="ToDelete" fill="#ff13dc" opacity="0" width="48" height="48" /><path class="fill" d="M25.343,4H8A2,2,0,0,0,6,6V42a2,2,0,0,0,2,2H38a2,2,0,0,0,2-2V18.657a4,4,0,0,0-1.172-2.828L28.172,5.172A4,4,0,0,0,25.343,4ZM34.5,17H27V9.5ZM36,40H10V8H23V19a2,2,0,0,0,2,2H36Z" />
  </svg>