<svg xmlns="http://www.w3.org/2000/svg" viewBox="0 0 108.13 162.35"><title>Asset 2</title><g id="Layer_2" data-name="Layer 2"><g id="Layer_1-2" data-name="Layer 1"><path d="M108.12,83.07q0,36.53,0,73.06c0,1,0,1.94,0,2.91-.14,2.19-.9,3-3.08,3.27a14.41,14.41,0,0,1-1.82,0H64.67l-1.82,0a3.34,3.34,0,0,1-3.47-3.07,18.09,18.09,0,0,1-.25-3.25q0-73.06,0-146.12a21.79,21.79,0,0,1,0-2.18c.31-3.09,1.3-4.12,4.36-4.13q20.35-.06,40.71,0c3.35,0,3.88.73,3.88,4.6q0,34.89,0,69.79Q108.12,80.53,108.12,83.07Zm-6.85,72.45c.91-4.07.73-142.73-.14-145.32-4.52-.67-32.47-.46-35.16.29V21c1.4.08,2.58.19,3.77.2,4.85,0,9.69,0,14.54,0a14.77,14.77,0,0,1,2.88.21,2.89,2.89,0,0,1,2.53,3.06,3.09,3.09,0,0,1-2.82,3.23,15.69,15.69,0,0,1-2.54.07c-5.09,0-10.18,0-15.27,0-1,0-2.07.18-3.2.29A53,53,0,0,0,66,38c2.64,0,4.93-.09,7.22,0s3.41,1,3.6,2.78c.25,2.32-.79,3.57-3.34,3.73s-5,.13-7.46.19V55.24c1.36.07,2.43.17,3.51.17,4.85,0,9.69,0,14.54,0a15.82,15.82,0,0,1,3.24.26,2.83,2.83,0,0,1,2.37,3.18,3,3,0,0,1-2.61,3,13.23,13.23,0,0,1-2.53.11c-5.09,0-10.18,0-15.27,0-1.05,0-2.1.16-3.4.26A73.83,73.83,0,0,0,66,74.66c1.48.07,2.55.14,3.63.16,1.45,0,2.91,0,4.36,0,2.83.09,4,1,4,3.09S76.93,81,74.16,81.11c-1.57,0-3.15,0-4.73,0-1.15,0-2.3.15-3.45.23V94.46h6.69c4.48,0,9-.07,13.45,0,2.9.07,4.33,2.23,3.25,4.57-.75,1.61-2.18,1.7-3.68,1.69q-7.82,0-15.63,0c-1.3,0-2.59.11-4,.17v11.51c1.47.07,2.66.16,3.85.18,1.57,0,3.15-.06,4.72,0,2.44.15,3.54,1.24,3.45,3.28-.08,1.88-1.12,2.83-3.37,3-1.09.07-2.18,0-3.27,0-1.77,0-3.55.11-5.64.18.09,4.55-.35,8.7.3,13.15,6.37,0,12.41,0,18.45,0a13.36,13.36,0,0,1,3.23.28,2.62,2.62,0,0,1,1.93,2.76,2.8,2.8,0,0,1-2,3.06,11,11,0,0,1-2.88.18c-5.09,0-10.18,0-15.27,0-1.16,0-2.32.14-3.49.21v16.73Z"/><path d="M41,139.53c0-1.63,0-3,0-4.47q0-38,0-76a22.94,22.94,0,0,1,.12-3.63,3.2,3.2,0,0,1,6.37.12,25.34,25.34,0,0,1,.1,3.63c0,27.87-.17,55.73.1,83.6.09,8.84-4.47,14.49-12.26,17.22a31.87,31.87,0,0,1-20.34.2A21.7,21.7,0,0,1,.23,139.92c0-6.18,0-12.36,0-18.54Q.13,90,0,58.52A22.19,22.19,0,0,1,.1,55.25a2.87,2.87,0,0,1,3.25-2.7,2.72,2.72,0,0,1,2.93,3c.1,3.63,0,7.27,0,10.9,0,5,0,9.93,0,14.9q.23,27.6.52,55.2c0,.94.14,1.87.23,3Zm-.31,6.82c-10.63,0-21-.12-31.75.13a11.27,11.27,0,0,0,7.53,7.38,27.2,27.2,0,0,0,17.07,0,14.36,14.36,0,0,0,3.82-2A7.16,7.16,0,0,0,40.65,146.35Z"/><path d="M8.64,42H37a16.59,16.59,0,0,0-.63-2.43c-1.15-2.66-2.41-5.27-3.55-7.93A10.17,10.17,0,0,1,32,28.93,2.6,2.6,0,0,1,34,25.84a3.11,3.11,0,0,1,3.8,1.32,27.31,27.31,0,0,1,1.74,3.58c1.59,3.52,3.16,7.05,4.75,10.57,2.63,5.78,1.44,7.64-5,7.58-3.86,0-7.71-.42-11.56-.46-7.25-.08-14.51,0-21.77,0-.85,0-1.7,0-2.54,0C.59,48.15-.45,46.51.48,43.89a11.75,11.75,0,0,1,.59-1.32Q4.71,35.27,8.37,28a9.72,9.72,0,0,1,1.36-2.12A2.83,2.83,0,0,1,13.32,25,2.92,2.92,0,0,1,15,28.63a16.32,16.32,0,0,1-1.25,3C12.21,34.84,10.61,38,8.64,42Z"/><path d="M23.8,22.71c-2.42,0-4.85.14-7.26,0-3.94-.29-5.08-2.28-3.46-5.89C15.16,12.16,17.32,7.57,19.44,3,20.12,1.5,20.9.09,22.75,0s2.81,1.17,3.62,2.59c2.68,4.73,5.4,9.44,8,14.21,1.83,3.35.53,5.65-3.31,5.89-2.41.15-4.84,0-7.26,0Zm-.43-12.16L20.7,15.85h5.5Z"/></g></g></svg>