<svg xmlns="http://www.w3.org/2000/svg" data-name="S_CoverImage_24_N@2x" height="48" id="S_CoverImage_24_N_2x" viewBox="0 0 48 48" width="48">
  <defs>
    <style>
	.fill {
        fill: #707070;
      }</style>
  </defs>
  <title>S_CoverImage_24_N@2x</title>
  <rect id="ToDelete" fill="#ff13dc" opacity="0" width="48" height="48" /><circle class="fill" cx="31.5" cy="16.404" r="3.094" />
  <path class="fill" d="M46,6H2A2,2,0,0,0,0,8V36a2,2,0,0,0,2,2H5.545A16.5,16.5,0,0,1,10,36.409,14.753,14.753,0,0,1,7.317,28.2a15.489,15.489,0,0,1,.116-1.806A25.1,25.1,0,0,0,4,29.7V10H44V31.311c-1.919-2.034-7.22-5.908-8.762-5.847-1.116.083-4.42,3.017-6.769,4.47a14.964,14.964,0,0,1-2.455,6.507A17.036,17.036,0,0,1,30.345,38H46a2,2,0,0,0,2-2V8A2,2,0,0,0,46,6Z" />
  <path class="fill" d="M32,45.5a3.97,3.97,0,0,0-1.333-2.994,12.872,12.872,0,0,0-7.3-2.844A1.456,1.456,0,0,1,22.1,38.2V36.094a1.416,1.416,0,0,1,.351-.918A11.133,11.133,0,0,0,25.009,28.2c0-5.261-2.79-8.2-7.006-8.2s-7.086,3.055-7.086,8.2a11.266,11.266,0,0,0,2.679,6.98,1.406,1.406,0,0,1,.348.913v2.1a1.449,1.449,0,0,1-1.264,1.462A12.337,12.337,0,0,0,5.286,42.5,3.979,3.979,0,0,0,4,45.45V48H32Z" />
  </svg>