<svg xmlns="http://www.w3.org/2000/svg" viewBox="0 0 151.19 159.45"><title>Asset 3</title><g id="Layer_2" data-name="Layer 2"><g id="Layer_1-2" data-name="Layer 1"><path d="M91.34,79.95c5.33-.16,5.33-.16,7.19,4.81,1.49,4,3,8,4.46,12,1.08,3,.89,4.11-2.05,5.42-3.67,1.62-5,4.08-4.36,7.89a9.61,9.61,0,0,1,0,2.35,3.76,3.76,0,0,0,1.68,3.76c1,.69,1.87,1.6,2.81,2.39a3.74,3.74,0,0,1,1.15,4.8c-2,4.5-4.07,9-6,13.51a3.62,3.62,0,0,1-4,2.4c-1.67-.11-3.34-.27-5-.46a5.37,5.37,0,0,0-4.83,1.75,15.68,15.68,0,0,1-2,1.8,3.06,3.06,0,0,0-1.15,3.56c.31,1.19.51,2.41.75,3.62a3.08,3.08,0,0,1-2,3.81c-5.22,2-10.48,3.95-15.74,5.89a3.18,3.18,0,0,1-3.89-1.14c-1.18-1.49-2.41-3-3.54-4.48A3.09,3.09,0,0,0,52,152.25c-3.84.21-7.38.55-10,4.24s-3.58,3.56-7.72,1.76c-3.18-1.38-6.37-2.75-9.55-4.16-2.83-1.26-3.33-2.21-2.9-5.2a17.38,17.38,0,0,1,.22-2c1.11-4.13-1.57-6.76-3.84-9.48a3.18,3.18,0,0,0-2.39-.63c-1.89.16-3.76.6-5.64.86-2.34.33-3.34-.13-4.2-2.33Q3.08,127.8.39,120.2c-.79-2.23-.47-3.61,1.68-4.43,4.45-1.69,5.26-4.92,4.7-9a1.13,1.13,0,0,1,0-.34c.66-3.89-.51-6.73-4-9-3.09-2-3-3.09-1.42-6.54C3.2,86.93,5.16,83,6.92,79c.91-2.05,2.24-3,4.45-2.63a6.06,6.06,0,0,1,1.33.16c5.92,2.42,9-2.06,12.56-5.23a2.81,2.81,0,0,0,.56-2.09c-.12-1.33-.54-2.63-.75-4-.38-2.49.14-3.52,2.49-4.43Q34.93,58,42.36,55.31c2.31-.84,3.18-.52,4.52,1.47,1,1.49,1.93,3,2.83,4.58A3.18,3.18,0,0,0,53,63.12a29.86,29.86,0,0,0,4-.27,8.47,8.47,0,0,0,3.16-1.59A34.86,34.86,0,0,0,63,58.34c2.56-2.57,3-2.67,6.14-1.23,3.57,1.62,7.08,3.37,10.65,5A3.7,3.7,0,0,1,82.25,66a9,9,0,0,1-.1,2.34c-1.66,4.48,1.06,7.47,3.55,10.49a3.9,3.9,0,0,0,2.29,1A22,22,0,0,0,91.34,79.95ZM96,122.32a29.61,29.61,0,0,0-3.12-2.77,4.69,4.69,0,0,1-2.2-4.55q.17-5.38,0-10.76c-.07-2.14.5-3.66,2.58-4.57a29.3,29.3,0,0,0,3.53-2.18l-4.26-11.3c-2.21,0-4-.15-5.77,0a4.91,4.91,0,0,1-5.15-2.35A58.15,58.15,0,0,0,78.13,79c-1.89-2.36-3.28-4.79-2.23-8A14.9,14.9,0,0,0,76,69a2.2,2.2,0,0,0-1.49-2.64c-2.43-1.09-4.85-2.23-7.74-3.56-1,1.2-2.1,2.35-3.08,3.56a6.38,6.38,0,0,1-5,2.37c-2.45.12-4.91.32-7.35.64s-4.31-.34-5.52-2.73a51.53,51.53,0,0,0-3.32-5L31.37,65.88A23.5,23.5,0,0,0,32,69.54c.86,2.51,0,4.28-2,5.85a58.4,58.4,0,0,0-5.52,4.9c-2.54,2.6-5.31,4-9,2.65a8.74,8.74,0,0,0-2-.21,2.14,2.14,0,0,0-2.39,1.42C9.78,87.1,8.44,90,7,93.14c1.17,1,2.15,1.86,3.24,2.61a5.89,5.89,0,0,1,2.69,5.43c-.11,4.15-.13,8.3,0,12.45a4.21,4.21,0,0,1-2.34,4.1c-1.24.71-2.44,1.49-3.85,2.37L11,131.33c2.36-.35,4.34-.59,6.31-1,2.21-.41,3.92.09,5.15,2.14a30.59,30.59,0,0,0,3.32,4.64c2.42,2.72,3.43,5.67,2.3,9.25-.53,1.68.25,2.76,1.86,3.39a38.79,38.79,0,0,1,4.61,2c1.74,1,3.14.9,4.41-.72.55-.7,1.29-1.25,1.88-1.92A5.81,5.81,0,0,1,45.12,147c3-.13,6-.65,9-1a4,4,0,0,1,3.8,1.68,33.76,33.76,0,0,0,3.19,3.89,2.79,2.79,0,0,0,2.27.77c3.38-1.13,6.68-2.48,10.21-3.83-.27-1.65-.42-3.08-.74-4.47a4,4,0,0,1,1.25-4.25c2.38-2,4.77-4.07,7.12-6.15a4.7,4.7,0,0,1,4.05-1.06c2,.27,4,.33,6,.5Z"/><path d="M139,13.13a12.67,12.67,0,0,1-.68,2,4.12,4.12,0,0,0,.53,5.47c1.29,1.39,2.2,3.11,4.52,2.88a16.42,16.42,0,0,1,2,.31,3,3,0,0,1,3.12,2.5c.88,3.58,1.8,7.16,2.6,10.77A3.79,3.79,0,0,1,149,41.62a25.21,25.21,0,0,0-2.55,1.62,4.6,4.6,0,0,0-.45,7.38c2.69,2.47,2.84,3.23,1,6.27s-3.72,5.86-5.54,8.82c-1.09,1.77-2.49,2.51-4.52,1.71a7.44,7.44,0,0,0-1-.2c-4.54-1.08-7.38,1-7.8,5.79-.38,4.38-.73,4.76-5.07,5.73-2.4.54-4.81,1.06-7.19,1.69a3.41,3.41,0,0,1-4.26-1.72c-.51-.87-1.06-1.72-1.63-2.55-2-2.87-5.44-3.15-7.71-.64-3,3.32-3.93,3.46-7.71,1.12-2.67-1.65-5.35-3.27-8-5-2.34-1.54-2.9-2.72-1.65-5s.67-4.06-.85-6c-1.73-2.21-3.31-3.95-6.57-3.61-2.72.28-3.57-.68-4.2-3.33-.79-3.37-1.41-6.79-2.2-10.16a3.59,3.59,0,0,1,2.06-4.43,3.35,3.35,0,0,1,.59-.31c3.74-1.09,4.33-4.22,4.52-7.4.05-.87-.83-2-1.56-2.68-2.7-2.6-2.87-3.39-.89-6.6,1.7-2.76,3.39-5.54,5.16-8.26,1.67-2.56,2.5-2.8,5.31-1.83.42.15.83.33,1.25.48,3.38,1.18,6.12-.32,7-3.84a12.83,12.83,0,0,0,.25-2c.27-3.47.72-4,4-4.75,2.62-.57,5.29-1,7.87-1.66a3.75,3.75,0,0,1,4.76,2,15.91,15.91,0,0,1,1.07,1.7c1.08,2.6,3.5,2.89,5.78,3.3a2.81,2.81,0,0,0,1.78-.65c.91-.64,1.71-1.44,2.58-2.15A3.45,3.45,0,0,1,127,4c3.42,2.13,6.9,4.18,10.22,6.46C138.08,11.07,138.5,12.36,139,13.13ZM81.24,24.87c.68.44,1.18.72,1.62,1.07a4.47,4.47,0,0,1,1.7,5.32,53.48,53.48,0,0,0-1.4,6.9A5,5,0,0,1,80.34,42c-3.09,1.66-3,1.74-2.27,5.27.14.66.27,1.32.41,2A1.84,1.84,0,0,0,80.6,51c3-.3,4.81,1.34,6.37,3.57a34.52,34.52,0,0,0,3.08,4c2.32,2.45,3.23,5.05,1.48,8.2-.08.15,0,.42.12.9l6,3.75a35.26,35.26,0,0,1,3.27-3.08c.84-.62,2.11-1.45,2.91-1.22,4.38,1.26,9.56,1.19,11.81,6.41.07.17.35.25.77.54,1.33-.3,2.84-.67,4.36-1a1.81,1.81,0,0,0,1.66-2.13c-.31-3.22,1.61-5.21,3.79-7.08a18.21,18.21,0,0,0,2.25-2c1.42-1.71,3.21-1.87,5.18-1.48,3.65.71,3.66.72,5.54-2.29.7-1.13,1.34-2.3,2.16-3.71-3.89-2.1-3.81-5.29-2.71-8.77a6.45,6.45,0,0,0,.23-1.32,6.75,6.75,0,0,1,4.15-6,9.9,9.9,0,0,0,1.89-1.53l-1.94-7.43c-4.4,1.3-6.4-1.48-8.34-4.36-.25-.37-.54-.72-.81-1.08-3.32-4.4-3.32-4.4-1.92-9.73l-6.35-3.95A15.17,15.17,0,0,0,123.2,12c-1.84,2.06-3.92,2.29-6.38,1.28A26.58,26.58,0,0,0,112.64,12a6.53,6.53,0,0,1-4.2-3.08c-1.7-2.63-1.89-2.66-4.9-1.91-.86.21-1.69.51-2.72.83a19.81,19.81,0,0,1-.44,3,8.48,8.48,0,0,1-1.43,3.31c-1.59,1.72-3.49,3.15-5.22,4.73a3.69,3.69,0,0,1-4.32.76c-1.21-.52-2.49-.86-3.95-1.36Z"/></g></g></svg>