<?xml version="1.0" standalone="no"?>
<!DOCTYPE svg PUBLIC "-//W3C//DTD SVG 1.1//EN" "http://www.w3.org/Graphics/SVG/1.1/DTD/svg11.dtd" >
<svg xmlns="http://www.w3.org/2000/svg" xmlns:xlink="http://www.w3.org/1999/xlink" version="1.1">
<metadata>
Created by FontForge 20161003 at Mon Aug 27 21:55:05 2018
 By www-data
Copyright 2008 Adobe Systems Incorporated. All rights reserved.
</metadata>
<defs>
<font id="AdobeClean-Regular" horiz-adv-x="389" >
  <font-face 
    font-family="Adobe Clean"
    font-weight="400"
    font-stretch="normal"
    units-per-em="1000"
    panose-1="2 11 5 3 2 4 4 2 2 4"
    ascent="730"
    descent="-270"
    x-height="486"
    cap-height="661"
    bbox="-163 -243 1128 976"
    underline-thickness="50"
    underline-position="-100"
    stemh="76"
    stemv="83"
    unicode-range="U+0020-FB04"
  />
<missing-glyph horiz-adv-x="500" 
d="M0 0v700h500v-700h-500zM80 50h340l-170 255zM279 350l171 -255v510zM50 605v-510l170 255zM80 650l170 -255l170 255h-340z" />
    <glyph glyph-name="T_h" unicode="Th" horiz-adv-x="1036" 
d="M222 7v578h-213c-4 0 -6 2 -5 7l11 67c1 4 3 6 8 6h493c5 0 7 -2 8 -7v-66c1 -4 -1 -7 -6 -7h-212v-577c0 -6 -2 -8 -7 -8h-69c-5 0 -8 2 -8 7zM654 367v-361c0 -5 -1 -6 -6 -6h-71c-5 0 -6 2 -6 7v704c0 4 0 6 6 6h71c5 0 6 -1 6 -5v-274c42 38 90 58 149 58
c70 0 162 -35 162 -193v-296c0 -5 -2 -7 -7 -7h-69c-5 0 -7 2 -7 8v286c0 77 -34 128 -104 128c-48 0 -92 -20 -124 -55z" />
    <glyph glyph-name="Tcaron_h" unicode="&#x164;h" horiz-adv-x="1036" 
d="M222 7v578h-213c-4 0 -6 2 -5 7l11 67c1 4 3 6 8 6h493c5 0 7 -2 8 -7v-66c1 -4 -1 -7 -6 -7h-212v-577c0 -6 -2 -8 -7 -8h-69c-5 0 -8 2 -8 7zM654 367v-361c0 -5 -1 -6 -6 -6h-71c-5 0 -6 2 -6 7v704c0 4 0 6 6 6h71c5 0 6 -1 6 -5v-274c42 38 90 58 149 58
c70 0 162 -35 162 -193v-296c0 -5 -2 -7 -7 -7h-69c-5 0 -7 2 -7 8v286c0 77 -34 128 -104 128c-48 0 -92 -20 -124 -55zM172 837l74 -75l72 75c2 2 5 5 9 5h65c3 0 4 -5 2 -8l-108 -111c-2 -3 -4 -3 -7 -3h-68c-5 0 -9 1 -10 4l-112 113c-3 3 -1 5 3 5h70c5 0 8 -2 10 -5z
" />
    <glyph glyph-name="uni021A_h" unicode="&#x21a;h" horiz-adv-x="1036" 
d="M222 7v578h-213c-4 0 -6 2 -5 7l11 67c1 4 3 6 8 6h493c5 0 7 -2 8 -7v-66c1 -4 -1 -7 -6 -7h-212v-577c0 -6 -2 -8 -7 -8h-69c-5 0 -8 2 -8 7zM654 367v-361c0 -5 -1 -6 -6 -6h-71c-5 0 -6 2 -6 7v704c0 4 0 6 6 6h71c5 0 6 -1 6 -5v-274c42 38 90 58 149 58
c70 0 162 -35 162 -193v-296c0 -5 -2 -7 -7 -7h-69c-5 0 -7 2 -7 8v286c0 77 -34 128 -104 128c-48 0 -92 -20 -124 -55zM249 -225h-62c-4 0 -5 3 -3 6c27 46 37 78 37 115c0 19 -5 38 -13 59c-2 4 0 6 3 6h68c3 0 6 -1 8 -5c7 -11 13 -35 13 -54c0 -53 -16 -87 -43 -124
c-1 -2 -4 -3 -8 -3z" />
    <glyph glyph-name="f_b" unicode="fb" horiz-adv-x="790" 
d="M79 414h-65c-4 0 -5 2 -5 7v59c0 4 2 6 5 6h65v44c0 53 7 92 22 122c25 50 69 75 129 75c23 0 35 -2 45 -6c4 -2 5 -5 5 -8v-61c0 -4 -2 -6 -6 -5c-12 5 -25 6 -36 6c-45 0 -76 -22 -76 -118v-49h96c5 0 6 -2 6 -5v-60c0 -5 -2 -6 -6 -7h-96v-407c0 -4 -1 -7 -6 -7h-71
c-4 0 -6 2 -6 7v407zM341 717h70c5 0 7 0 7 -6v-235c32 13 68 20 108 20c138 0 229 -99 229 -234c0 -180 -137 -272 -278 -272c-50 0 -93 6 -137 20c-3 1 -5 5 -5 9v692c0 5 1 6 6 6zM669 255c1 102 -60 168 -156 168c-43 0 -70 -7 -95 -17v-336c20 -6 39 -8 66 -8
c96 0 185 64 185 193z" />
    <glyph glyph-name="f_f" unicode="ff" horiz-adv-x="508" 
d="M9 419v62c0 3 3 5 5 5h65v44c0 53 7 92 22 122c26 50 69 75 129 75c23 0 36 -2 45 -6c4 -2 5 -5 5 -8v-61c0 -4 -2 -6 -6 -5c-12 5 -25 6 -36 6c-45 0 -76 -22 -76 -118v-49h172v53c1 140 70 188 150 188c25 0 41 -3 51 -8c4 -2 4 -4 4 -8v-59c0 -4 -1 -7 -6 -5
c-10 4 -23 6 -38 6c-36 0 -77 -10 -77 -116v-51h96c5 0 6 -2 6 -5v-60c0 -5 -2 -7 -6 -7h-96v-407c0 -4 -1 -7 -6 -7h-71c-4 0 -6 2 -6 7v407h-173v-407c0 -4 -1 -7 -6 -7h-71c-4 0 -6 2 -6 7v407h-66c-3 0 -4 1 -4 5z" />
    <glyph glyph-name="f_h" unicode="fh" horiz-adv-x="800" 
d="M79 414h-65c-4 0 -5 2 -5 7v59c0 4 2 6 5 6h65v44c0 53 7 92 22 122c26 50 69 75 129 75c23 0 36 -2 45 -6c4 -2 5 -5 5 -8v-61c0 -4 -2 -6 -6 -5c-12 5 -25 6 -36 6c-45 0 -76 -22 -76 -118v-49h96c5 0 6 -2 6 -5v-60c0 -5 -2 -6 -6 -7h-96v-407c0 -4 -1 -7 -6 -7h-71
c-4 0 -6 2 -6 7v407zM417 367v-361c0 -5 -1 -6 -6 -6h-71c-4 0 -6 2 -6 7v704c0 4 1 6 6 6h72c4 0 5 -1 5 -5l1 -274c41 38 89 58 148 58c71 0 163 -35 163 -193v-296c0 -5 -3 -7 -7 -7h-70c-5 0 -7 2 -7 8v286c0 77 -33 128 -104 128c-48 0 -92 -20 -124 -55z" />
    <glyph glyph-name="f_i" unicode="fi" horiz-adv-x="488" 
d="M335 8v471c0 5 2 7 6 7h71c5 0 7 -1 7 -6v-473c0 -5 -2 -7 -7 -7h-69c-6 0 -8 2 -8 8zM377 583c-30 0 -49 20 -49 49s20 50 49 50c31 0 49 -21 49 -50c0 -28 -20 -49 -49 -49zM79 414h-65c-4 0 -5 2 -5 7v59c0 4 2 6 5 6h65v44c0 53 7 92 22 122c26 50 69 75 129 75
c23 0 36 -2 45 -6c4 -2 5 -5 5 -8v-61c0 -4 -2 -6 -6 -5c-12 5 -25 6 -36 6c-45 0 -76 -22 -76 -118v-49h96c5 0 6 -2 6 -5v-60c0 -5 -2 -6 -6 -7h-96v-407c0 -4 -1 -7 -6 -7h-71c-4 0 -6 2 -6 7v407z" />
    <glyph glyph-name="f_j" unicode="fj" horiz-adv-x="486" 
d="M79 414h-65c-4 0 -5 2 -5 7v59c0 4 2 6 5 6h65v44c0 53 7 92 22 122c26 50 69 75 129 75c23 0 36 -2 45 -6c4 -2 5 -5 5 -8v-61c0 -4 -2 -6 -6 -5c-12 5 -25 6 -36 6c-45 0 -76 -22 -76 -118v-49h96c5 0 6 -2 6 -5v-60c0 -5 -2 -6 -6 -7h-96v-407c0 -4 -1 -7 -6 -7h-71
c-4 0 -6 2 -6 7v407zM341 486h71c4 0 6 -2 6 -6v-485c0 -109 -20 -148 -49 -181c-30 -33 -81 -43 -113 -43c-7 0 -11 0 -17 1c-5 1 -6 3 -6 7v60c0 4 1 6 6 6c52 2 96 18 96 130v505c0 4 2 6 6 6zM377 582c-31 0 -51 21 -51 51s21 51 51 51c32 0 50 -22 50 -51
c0 -30 -20 -51 -50 -51z" />
    <glyph glyph-name="f_k" unicode="fk" horiz-adv-x="730" 
d="M79 486v44c0 53 7 92 22 122c26 50 69 75 129 75c23 0 36 -2 45 -6c4 -2 5 -5 5 -8v-61c0 -4 -2 -6 -6 -5c-12 5 -25 6 -36 6c-45 0 -76 -22 -76 -118v-49h96c5 0 6 -2 6 -5v-60c0 -5 -2 -6 -6 -7h-96v-407c0 -4 -1 -7 -6 -7h-71c-4 0 -6 2 -6 7v407h-65c-4 0 -5 2 -5 7
v59c0 4 2 6 5 6h65zM639 486h79c6 0 7 -4 4 -8c-29 -31 -179 -177 -216 -213c-1 -1 -1 -3 0 -4c64 -68 174 -181 247 -254c3 -3 1 -7 -4 -7h-95c-6 0 -8 2 -10 5c-52 53 -178 185 -226 237v-235c0 -5 -1 -7 -6 -7h-71c-5 0 -7 2 -7 7v704c0 4 2 6 7 6h71c4 0 6 -2 6 -6v-448
c47 47 185 190 211 218c3 4 5 5 10 5z" />
    <glyph glyph-name="f_l" unicode="fl" horiz-adv-x="506" 
d="M79 414h-65c-4 0 -5 2 -5 7v59c0 4 2 6 5 6h65v44c0 53 7 92 22 122c26 50 69 75 129 75c23 0 36 -2 45 -6c4 -2 5 -5 5 -8v-61c0 -4 -2 -6 -6 -5c-12 5 -25 6 -36 6c-45 0 -76 -22 -76 -118v-49h96c5 0 6 -2 6 -5v-60c0 -5 -2 -6 -6 -7h-96v-407c0 -4 -1 -7 -6 -7h-71
c-4 0 -6 2 -6 7v407zM335 101v610c0 5 2 6 7 6h70c5 0 7 -2 7 -6v-603c0 -39 15 -48 39 -48c7 0 11 1 20 3c3 0 4 -2 4 -6v-52c0 -5 -1 -6 -5 -8c-9 -4 -25 -7 -46 -7c-49 0 -96 17 -96 111z" />
    <glyph glyph-name="f_t" unicode="ft" horiz-adv-x="548" 
d="M162 486h174c0 37 4 105 9 128c1 4 3 6 6 7l68 10c4 1 7 1 7 -3c-4 -35 -6 -93 -7 -142h106c5 0 6 -2 6 -7v-59c0 -4 -2 -6 -6 -6h-106v-281c0 -46 17 -72 61 -72c16 0 31 3 50 10c3 1 6 1 6 -4v-51c0 -5 -1 -8 -5 -10c-23 -12 -49 -16 -76 -16c-72 0 -120 35 -120 131
v293h-173v-407c0 -4 -1 -7 -6 -7h-71c-4 0 -6 2 -6 7v407h-64c-5 0 -6 2 -6 6v61c0 3 3 5 6 5h64v44c0 53 7 92 22 122c26 50 69 75 130 75c26 0 38 -3 47 -7c5 -2 5 -5 5 -8v-61c0 -4 -2 -6 -6 -5c-12 5 -27 7 -38 7c-46 0 -77 -22 -77 -117v-50z" />
    <glyph glyph-name="f_f_b" unicode="ffb" horiz-adv-x="1046" 
d="M162 486h172v53c1 140 70 188 150 188c25 0 41 -3 51 -8c4 -2 4 -4 4 -8v-59c0 -4 -1 -7 -6 -5c-10 4 -23 6 -38 6c-36 0 -77 -10 -77 -116v-51h96c5 0 6 -2 6 -5v-60c0 -5 -2 -7 -6 -7h-96v-407c0 -4 -1 -7 -6 -7h-71c-4 0 -6 2 -6 7v407h-173v-407c0 -4 -1 -7 -6 -7
h-71c-4 0 -6 2 -6 7v407h-66c-3 0 -4 1 -4 5v62c0 3 3 5 5 5h65v44c0 53 7 92 22 122c26 50 69 75 129 75c23 0 36 -2 45 -6c4 -2 5 -5 5 -8v-61c0 -4 -2 -6 -6 -5c-12 5 -25 6 -36 6c-45 0 -76 -22 -76 -118v-49zM597 717h70c5 0 7 -1 7 -6l1 -236c31 13 67 20 107 20
c139 0 229 -99 229 -234c0 -179 -137 -271 -278 -271c-50 0 -93 6 -137 20c-3 1 -5 5 -5 8v693c0 4 1 6 6 6zM926 254c0 103 -61 168 -157 168c-43 0 -70 -7 -94 -17v-336c19 -5 38 -8 65 -8c96 0 186 64 186 193z" />
    <glyph glyph-name="f_f_h" unicode="ffh" horiz-adv-x="1056" 
d="M162 486h172v53c1 140 70 188 150 188c25 0 41 -3 51 -8c4 -2 4 -4 4 -8v-59c0 -4 -1 -7 -6 -5c-10 4 -23 6 -38 6c-36 0 -77 -10 -77 -116v-51h96c5 0 6 -2 6 -5v-60c0 -5 -2 -7 -6 -7h-96v-407c0 -4 -1 -7 -6 -7h-71c-4 0 -6 2 -6 7v407h-173v-407c0 -4 -1 -7 -6 -7
h-71c-4 0 -6 2 -6 7v407h-66c-3 0 -4 1 -4 5v62c0 3 3 5 5 5h65v44c0 53 7 92 22 122c26 50 69 75 129 75c23 0 36 -2 45 -6c4 -2 5 -5 5 -8v-61c0 -4 -2 -6 -6 -5c-12 5 -25 6 -36 6c-45 0 -76 -22 -76 -118v-49zM674 367v-361c0 -5 -1 -6 -6 -6h-71c-5 0 -7 2 -7 7v704
c0 4 1 6 6 6h72c5 0 6 -1 6 -5v-274c42 38 90 58 149 58c70 0 162 -35 162 -193v-296c0 -5 -2 -7 -7 -7h-69c-6 0 -8 2 -8 8v286c0 77 -33 128 -103 128c-48 0 -93 -20 -124 -55z" />
    <glyph glyph-name="f_f_i" unicode="ffi" horiz-adv-x="745" 
d="M162 486h171v53c1 140 70 188 149 188c26 0 42 -3 52 -8c4 -2 4 -4 4 -8v-59c0 -4 -2 -7 -6 -5c-11 4 -24 6 -39 6c-36 0 -77 -10 -77 -116l1 -51h96c4 0 5 -2 5 -5v-60c0 -5 -1 -7 -5 -7h-96v-407c0 -4 -1 -7 -7 -7h-70c-5 0 -7 2 -7 7v407h-171v-407c0 -4 -1 -7 -6 -7
h-71c-4 0 -6 2 -6 7v407h-66c-3 0 -4 1 -4 5v62c0 3 3 5 5 5h65v44c0 53 7 92 22 122c26 50 69 75 129 75c23 0 36 -2 45 -6c4 -2 5 -5 5 -8v-61c0 -4 -2 -6 -6 -5c-12 5 -25 6 -36 6c-45 0 -76 -22 -76 -118v-49zM590 8v471c0 5 2 7 6 7h72c4 0 6 -1 6 -6v-473
c0 -5 -1 -7 -7 -7h-69c-6 0 -8 2 -8 8zM632 582c-31 0 -50 21 -50 51s21 51 51 51c32 0 50 -22 50 -51c0 -30 -20 -51 -51 -51z" />
    <glyph glyph-name="f_f_j" unicode="ffj" horiz-adv-x="744" 
d="M162 486h172v53c1 140 70 188 150 188c25 0 41 -3 51 -8c4 -2 4 -4 4 -8v-59c0 -4 -1 -7 -6 -5c-10 4 -23 6 -38 6c-36 0 -77 -10 -77 -116v-51h96c5 0 6 -2 6 -5v-60c0 -5 -2 -7 -6 -7h-96v-407c0 -4 -1 -7 -6 -7h-71c-4 0 -6 2 -6 7v407h-173v-407c0 -4 -1 -7 -6 -7
h-71c-4 0 -6 2 -6 7v407h-66c-3 0 -4 1 -4 5v62c0 3 3 5 5 5h65v44c0 53 7 92 22 122c26 50 69 75 129 75c23 0 36 -2 45 -6c4 -2 5 -5 5 -8v-61c0 -4 -2 -6 -6 -5c-12 5 -25 6 -36 6c-45 0 -76 -22 -76 -118v-49zM597 486h71c4 0 6 -2 6 -6v-485c0 -109 -21 -148 -50 -181
s-81 -43 -113 -43c-6 0 -10 0 -16 1c-5 1 -6 3 -6 7v60c0 4 0 6 6 6c51 2 95 18 95 130v505c0 4 2 6 7 6zM632 582c-31 0 -50 21 -50 51s21 51 51 51c31 0 50 -22 50 -51c0 -30 -20 -51 -51 -51z" />
    <glyph glyph-name="f_f_k" unicode="ffk" horiz-adv-x="986" 
d="M334 486v53c1 140 70 188 150 188c25 0 41 -3 51 -8c4 -2 4 -4 4 -8v-59c0 -4 -1 -7 -6 -5c-10 4 -23 6 -38 6c-36 0 -77 -10 -77 -116v-51h96c5 0 6 -2 6 -5v-60c0 -5 -2 -7 -6 -7h-96v-407c0 -4 -1 -7 -6 -7h-71c-4 0 -6 2 -6 7v407h-173v-407c0 -4 -1 -7 -6 -7h-71
c-4 0 -6 2 -6 7v407h-66c-3 0 -4 1 -4 5v62c0 3 3 5 5 5h65v44c0 53 7 92 22 122c26 50 69 75 129 75c23 0 36 -2 45 -6c4 -2 5 -5 5 -8v-61c0 -4 -2 -6 -6 -5c-12 5 -25 6 -36 6c-45 0 -76 -22 -76 -118v-49h172zM895 486h79c6 0 7 -4 4 -8c-29 -31 -179 -177 -216 -213
c-1 -1 -1 -3 0 -4c64 -68 174 -181 247 -254c3 -3 1 -7 -4 -7h-95c-6 0 -8 2 -10 5c-52 53 -178 185 -226 237v-235c0 -5 -1 -7 -6 -7h-71c-5 0 -7 2 -7 7v704c0 4 2 6 7 6h71c4 0 6 -2 6 -6v-448c47 47 185 190 211 218c3 4 5 5 10 5z" />
    <glyph glyph-name="f_f_l" unicode="ffl" horiz-adv-x="761" 
d="M162 486h171v53c1 140 70 188 150 188c25 0 41 -3 51 -8c4 -2 4 -4 4 -8v-59c0 -4 -2 -7 -6 -5c-11 4 -24 6 -38 6c-37 0 -77 -10 -77 -116v-51h96c5 0 6 -2 6 -5v-60c0 -5 -2 -7 -6 -7h-96v-407c0 -4 -1 -7 -6 -7h-71c-4 0 -6 2 -6 7v407h-172v-407c0 -4 -1 -7 -6 -7
h-71c-4 0 -6 2 -6 7v407h-66c-3 0 -4 1 -4 5v62c0 3 3 5 5 5h65v44c0 53 7 92 22 122c26 50 69 75 129 75c23 0 36 -2 45 -6c4 -2 5 -5 5 -8v-61c0 -4 -2 -6 -6 -5c-12 5 -25 6 -36 6c-45 0 -76 -22 -76 -118v-49zM590 101v610c0 5 2 6 8 6h69c5 0 7 -2 7 -6v-603
c0 -39 15 -48 39 -48c7 0 11 1 20 3c4 0 4 -2 4 -6v-52c0 -5 0 -6 -5 -8c-9 -4 -25 -7 -46 -7c-49 0 -96 17 -96 111z" />
    <glyph glyph-name="f_f_t" unicode="fft" horiz-adv-x="796" 
d="M668 414v-281c0 -46 17 -72 61 -72c15 0 30 2 47 8c3 1 6 1 6 -4v-51c0 -4 -1 -8 -5 -10c-24 -10 -49 -14 -76 -14c-73 0 -117 35 -117 131v293h-48h-20h-99v-407c0 -4 -1 -7 -6 -7h-71c-4 0 -6 2 -6 7v407h-172v-407c0 -4 -1 -7 -6 -7h-71c-4 0 -6 2 -6 7v407h-66
c-3 0 -4 1 -4 5v62c0 3 3 5 5 5h65v44c0 53 7 92 22 122c26 50 69 75 129 75c23 0 36 -2 45 -6c4 -2 5 -5 5 -8v-61c0 -4 -2 -6 -6 -5c-12 5 -25 6 -36 6c-45 0 -76 -22 -76 -118v-49h171v53c1 140 70 188 150 188c25 0 41 -3 51 -8c4 -2 4 -4 4 -8v-59c0 -4 -2 -7 -6 -5
c-11 4 -24 6 -38 6c-37 0 -77 -10 -77 -116v-51h99h20h49c0 37 4 106 8 128c1 4 3 6 7 7l68 11c4 1 7 0 7 -4c-4 -35 -6 -93 -7 -142h106c4 0 6 -2 6 -7v-59c0 -4 -2 -6 -6 -6h-106z" />
    <glyph glyph-name="t_t" unicode="tt" horiz-adv-x="577" 
d="M365 414h-204v-281c0 -46 17 -72 61 -72c16 0 31 3 51 10c3 1 5 1 5 -4v-51c0 -5 0 -8 -5 -10c-23 -12 -52 -16 -79 -16c-73 0 -117 35 -117 131v293h-66c-5 1 -6 3 -6 8v57c0 5 1 7 6 7h67c0 37 4 105 9 128c1 4 3 6 6 7l68 10c4 1 7 1 7 -3c-4 -35 -6 -93 -7 -142h204
c1 37 5 105 10 128c1 4 2 6 6 7l68 10c4 1 6 1 6 -3c-3 -35 -6 -93 -6 -142h106c5 0 6 -2 6 -7v-59c0 -4 -2 -6 -6 -6h-107v-281c0 -46 17 -72 62 -72c15 0 31 3 50 10c3 1 6 1 6 -4v-51c0 -5 -1 -8 -5 -10c-24 -12 -53 -16 -80 -16c-72 0 -116 35 -116 131v293z" />
    <glyph glyph-name=".notdef" horiz-adv-x="500" 
d="M0 0v700h500v-700h-500zM80 50h340l-170 255zM279 350l171 -255v510zM50 605v-510l170 255zM80 650l170 -255l170 255h-340z" />
    <glyph glyph-name="space" unicode=" " horiz-adv-x="231" 
 />
    <glyph glyph-name="exclam" unicode="!" horiz-adv-x="266" 
d="M159 672c14 0 34 -3 41 -7c4 -2 5 -5 5 -8v-75c0 -84 -11 -344 -13 -374c0 -3 -1 -5 -6 -5h-55c-2 0 -5 1 -5 5c-2 28 -12 287 -12 370v77c0 3 0 7 4 8c8 5 29 9 41 9zM158 -7c-30 0 -51 20 -51 49s22 50 51 50c32 0 53 -21 53 -50c0 -31 -22 -49 -53 -49z" />
    <glyph glyph-name="quotedbl" unicode="&#x22;" horiz-adv-x="316" 
d="M43 472v239c0 4 2 6 7 6h67c4 0 6 -2 5 -6l-12 -240c0 -4 -2 -6 -5 -6h-55c-5 0 -7 3 -7 7zM195 472v238c0 5 2 7 7 7h67c5 0 6 -2 5 -7l-12 -239c0 -5 -3 -6 -6 -6h-55c-4 0 -6 3 -6 7z" />
    <glyph glyph-name="numbersign" unicode="#" horiz-adv-x="503" 
d="M126 40h-46c-4 0 -6 1 -4 6l38 168h-83c-3 0 -5 1 -5 6v51c0 4 2 5 5 5h96l28 125h-75c-2 0 -4 0 -4 4v53c0 3 1 4 5 4h88l34 151c2 4 3 6 7 6h46c4 0 5 -2 4 -7l-34 -150h111l34 152c0 3 1 5 4 5h47c4 0 6 -2 5 -6l-35 -151h82c4 0 6 -1 6 -5v-52c0 -3 -1 -4 -5 -4h-96
l-28 -125h72c4 0 5 -1 5 -5v-52c0 -4 -2 -5 -5 -5h-84l-38 -169c-2 -3 -2 -5 -7 -5h-45c-4 0 -6 2 -5 6l38 168h-111l-40 -169c-1 -3 -1 -5 -5 -5zM211 401l-28 -125h112l28 125h-112z" />
    <glyph glyph-name="dollar" unicode="$" horiz-adv-x="483" 
d="M274 5v-86c0 -5 -1 -6 -5 -6h-59c-4 0 -5 2 -5 7v81c-56 0 -120 16 -158 38c-4 2 -6 7 -6 13v71c0 4 4 7 7 4c54 -41 125 -54 174 -54c83 0 131 37 131 89c0 50 -28 79 -136 124c-136 55 -172 105 -172 185c0 83 63 149 161 163v82c0 3 1 5 5 5h60c4 0 5 -1 5 -5l1 -80
c52 -2 103 -15 128 -34c3 -2 4 -4 4 -8v-69c0 -4 -3 -6 -7 -4c-37 28 -85 45 -154 45c-89 0 -126 -46 -126 -88c0 -45 23 -72 133 -118c146 -59 179 -115 179 -192c0 -101 -82 -153 -160 -163z" />
    <glyph glyph-name="percent" unicode="%" horiz-adv-x="816" 
d="M658 631l-436 -626c-2 -4 -5 -5 -10 -5h-56c-3 0 -5 4 -2 7l437 625c3 4 5 5 10 5h55c4 0 4 -4 2 -6zM197 647c105 0 155 -79 155 -183c0 -91 -46 -185 -156 -185c-108 0 -156 85 -156 183c0 114 71 185 157 185zM106 463c0 -68 31 -124 92 -124c55 0 88 46 88 125
c0 74 -32 124 -89 124c-51 0 -91 -43 -91 -125zM620 358c105 0 156 -79 156 -183c0 -88 -47 -185 -157 -185c-107 0 -156 86 -156 183c0 114 70 185 157 185zM529 174c0 -68 31 -124 92 -124c55 0 88 44 88 125c0 74 -31 124 -89 124c-51 0 -91 -44 -91 -125z" />
    <glyph glyph-name="ampersand" unicode="&#x26;" horiz-adv-x="678" 
d="M604 325h-243c37 -33 99 -105 142 -168c44 -65 73 -89 118 -89c10 0 21 1 29 3c4 1 5 0 5 -5v-59c0 -6 0 -8 -5 -10c-11 -5 -25 -7 -46 -7c-59 0 -100 17 -169 122c-74 113 -157 196 -187 210c-43 -1 -119 -40 -119 -126c0 -67 51 -128 145 -128c44 0 76 8 101 20
c4 1 5 -1 5 -5v-65c0 -5 -2 -6 -6 -8c-19 -10 -54 -20 -112 -20c-124 0 -217 75 -217 199c0 102 72 166 152 191c-30 29 -68 73 -68 135c0 100 78 157 184 157c48 0 85 -7 110 -21c3 -2 4 -6 4 -10v-64c0 -5 -3 -6 -7 -4c-21 13 -58 25 -105 25c-64 0 -104 -27 -104 -83
c0 -44 39 -84 84 -116h322c5 0 6 -2 5 -6l-11 -62c-1 -5 -3 -6 -7 -6z" />
    <glyph glyph-name="quoteright" unicode="&#x2019;" horiz-adv-x="163" 
d="M84 465h-58c-4 0 -6 2 -4 6c25 66 37 118 37 177c0 23 -2 46 -5 63c0 4 1 6 4 6h60c4 0 7 -2 8 -6c5 -17 6 -40 6 -64c0 -56 -13 -117 -42 -178c-2 -3 -3 -4 -6 -4z" />
    <glyph glyph-name="parenleft" unicode="(" horiz-adv-x="334" 
d="M49 296c0 217 89 373 164 460c3 4 4 5 8 5h71c5 0 7 -3 4 -7c-109 -134 -169 -282 -169 -458s60 -324 169 -458c3 -5 1 -7 -4 -7h-71c-4 0 -5 1 -8 4c-76 88 -164 244 -164 461z" />
    <glyph glyph-name="parenright" unicode=")" horiz-adv-x="329" 
d="M283 295c0 -217 -89 -372 -163 -460c-3 -3 -5 -4 -9 -4h-70c-5 0 -8 2 -4 7c108 134 169 282 169 457c0 177 -61 325 -169 459c-4 4 -1 7 4 7h70c4 0 6 -1 9 -5c76 -88 163 -243 163 -461z" />
    <glyph glyph-name="asterisk" unicode="*" 
d="M226 479l94 -131c3 -3 4 -5 0 -9l-45 -28c-4 -2 -6 -1 -7 3l-84 141l-108 -115c-2 -2 -4 -3 -7 0l-34 35c-3 3 -3 6 0 8l117 104l-131 56c-3 0 -5 3 -3 7l25 49c1 4 3 4 7 2l121 -73l12 152c0 3 2 5 6 5l59 -7c4 -1 5 -2 4 -7l-34 -150l139 37c2 1 5 1 7 -3l9 -54
c0 -3 0 -5 -4 -6z" />
    <glyph glyph-name="plus" unicode="+" horiz-adv-x="556" 
d="M251 512h55c3 0 5 -1 5 -6v-215h207c4 0 5 -1 5 -6v-50c0 -5 -2 -6 -6 -6h-206v-217c0 -4 -1 -5 -6 -5h-54c-4 0 -5 2 -5 5v217h-208c-3 0 -6 2 -6 6v51c0 4 3 5 6 5h208v216c0 3 1 5 5 5z" />
    <glyph glyph-name="comma" unicode="," horiz-adv-x="171" 
d="M66 -146h-59c-5 0 -7 2 -5 6c45 92 56 168 51 256c0 3 2 5 4 5h67c5 0 6 -2 7 -7c6 -92 -13 -185 -57 -255c-1 -2 -3 -5 -8 -5z" />
    <glyph glyph-name="hyphen" unicode="-" horiz-adv-x="310" 
d="M267 216h-224c-4 0 -5 1 -5 5v63c0 3 1 5 5 5h224c3 0 5 -1 5 -5v-63c0 -4 -1 -5 -5 -5z" />
    <glyph glyph-name="period" unicode="." horiz-adv-x="171" 
d="M86 -10c-32 0 -54 21 -54 55c0 31 22 54 54 54s53 -23 53 -54c0 -33 -20 -55 -53 -55z" />
    <glyph glyph-name="slash" unicode="/" horiz-adv-x="351" 
d="M311 698l-203 -736c-1 -2 -2 -3 -6 -3h-58c-4 0 -5 1 -4 5l203 736c1 3 3 4 6 4h58c4 0 5 -2 4 -6z" />
    <glyph glyph-name="zero" unicode="0" horiz-adv-x="527" 
d="M263 574c-77 0 -134 -80 -134 -252c0 -151 44 -258 138 -258s131 100 131 255c0 170 -48 255 -135 255zM266 -10c-156 0 -221 148 -221 330c0 181 75 327 220 327c178 0 217 -185 217 -327c0 -162 -50 -330 -216 -330z" />
    <glyph glyph-name="one" unicode="1" horiz-adv-x="320" 
d="M218 0h-72c-6 0 -6 2 -6 6v545c-33 -20 -87 -40 -119 -48c-5 -1 -7 1 -7 6v58c0 4 0 6 5 7c49 14 104 41 138 63c4 4 10 4 14 4h48c3 0 4 -2 4 -6v-629c0 -4 -1 -6 -5 -6z" />
    <glyph glyph-name="two" unicode="2" horiz-adv-x="472" 
d="M420 0h-394c-5 0 -6 3 -6 7v45c0 5 1 7 4 10c42 33 115 93 183 160c96 92 119 154 119 218c0 72 -39 130 -132 130c-61 0 -105 -19 -148 -44c-4 -3 -7 -1 -7 3v64c0 5 0 6 4 9c47 27 103 45 167 45c138 0 200 -94 200 -198c0 -77 -27 -151 -119 -242
c-60 -62 -112 -106 -149 -137c34 3 67 3 157 3h138c5 0 7 -1 6 -5l-15 -62c-2 -5 -3 -6 -8 -6z" />
    <glyph glyph-name="three" unicode="3" horiz-adv-x="484" 
d="M186 298h-42c-5 0 -7 2 -7 6v63c0 4 1 7 6 7h37c88 0 142 34 142 98c0 56 -37 99 -125 99c-52 0 -96 -12 -144 -40c-5 -2 -6 -1 -6 3v64c0 4 0 6 4 9c43 24 100 39 160 39c125 0 193 -69 193 -164c0 -80 -60 -124 -105 -139c58 -13 137 -58 137 -161
c0 -123 -101 -192 -236 -192c-65 0 -120 12 -162 36c-4 2 -4 6 -4 10v69c0 4 3 6 6 4c52 -30 101 -44 159 -44c108 0 152 54 152 117c0 80 -66 116 -165 116z" />
    <glyph glyph-name="four" unicode="4" horiz-adv-x="502" 
d="M322 166h-291c-5 0 -6 1 -6 4v55c0 5 1 6 3 10l272 396c3 4 5 6 11 6h85c4 0 6 -2 6 -6v-396h81c4 0 5 -2 4 -6l-9 -59c-1 -3 -3 -4 -8 -4h-68v-160c0 -4 -2 -6 -6 -6h-68c-4 0 -6 3 -6 6v160zM322 235v123c0 101 3 169 5 202h-1c-22 -44 -182 -276 -213 -325h209z" />
    <glyph glyph-name="five" unicode="5" horiz-adv-x="480" 
d="M385 562h-214c-11 -37 -31 -119 -38 -149c207 -21 298 -94 298 -221c0 -118 -90 -202 -232 -202c-66 0 -115 12 -153 31c-3 2 -4 5 -4 10v69c0 4 3 5 5 4c46 -25 95 -39 152 -39c108 0 148 61 148 121c0 94 -80 144 -287 161c-4 0 -7 1 -7 6l-1 34c4 18 64 239 65 244
c2 5 3 6 7 6h283c4 0 6 -1 4 -6l-18 -63c-1 -4 -3 -6 -8 -6z" />
    <glyph glyph-name="six" unicode="6" horiz-adv-x="527" 
d="M266 337c-54 0 -100 -21 -135 -49c-1 -6 -3 -28 -3 -44c0 -112 59 -180 143 -180c83 0 129 61 129 136c0 83 -50 136 -134 137zM429 641v-62c0 -3 0 -5 -4 -5c-134 -24 -240 -99 -278 -215c31 23 81 46 142 46c112 0 196 -78 196 -201c0 -110 -75 -214 -217 -214
c-141 0 -223 111 -223 255c0 217 168 369 380 402c4 0 4 -3 4 -6z" />
    <glyph glyph-name="seven" unicode="7" horiz-adv-x="435" 
d="M21 637h397c3 0 4 -1 4 -5v-47c0 -3 -1 -7 -2 -12c-70 -156 -182 -401 -261 -568c-2 -4 -4 -5 -7 -5h-79c-3 0 -5 2 -4 6c137 279 240 501 266 556h-326c-4 0 -5 2 -5 6l11 65c1 3 2 4 6 4z" />
    <glyph glyph-name="eight" unicode="8" horiz-adv-x="510" 
d="M255 575c-72 0 -110 -46 -110 -105c0 -40 16 -72 42 -94c7 -6 14 -8 23 -8h92c8 0 16 2 25 10c20 19 37 45 37 89c0 70 -47 108 -109 108zM257 62c83 0 126 52 127 117c1 57 -28 91 -57 109c-8 5 -13 8 -24 8h-93c-8 0 -12 -1 -20 -6c-35 -19 -64 -57 -64 -107
c0 -76 59 -121 131 -121zM256 646c124 0 187 -84 187 -172c0 -72 -41 -116 -70 -139c44 -25 94 -74 94 -160c0 -111 -89 -185 -215 -185c-132 0 -209 83 -209 187c0 68 40 122 95 154c-39 28 -74 75 -74 144c0 88 67 171 192 171z" />
    <glyph glyph-name="nine" unicode="9" horiz-adv-x="519" 
d="M108 -3v61c0 4 1 5 5 6c133 33 220 112 255 204c-38 -22 -79 -32 -124 -32c-120 0 -203 77 -203 198c0 111 81 213 216 213c128 0 215 -100 215 -258c0 -225 -171 -368 -357 -399c-6 -1 -7 3 -7 7zM264 305c51 0 89 13 121 37c1 12 3 33 3 48c0 111 -50 184 -135 184
c-82 0 -128 -63 -128 -136c0 -94 63 -133 139 -133z" />
    <glyph glyph-name="colon" unicode=":" horiz-adv-x="227" 
d="M113 337c-31 0 -53 21 -53 54c0 31 21 55 53 55c33 0 54 -24 54 -55c0 -32 -20 -54 -54 -54zM113 -10c-31 0 -53 21 -53 55c0 31 21 54 53 54c33 0 54 -23 54 -54c0 -33 -20 -55 -54 -55z" />
    <glyph glyph-name="semicolon" unicode=";" horiz-adv-x="227" 
d="M113 337c-31 0 -53 21 -53 55c0 30 21 54 53 54c33 0 54 -24 54 -54c0 -33 -20 -55 -54 -55zM88 -146h-59c-5 0 -7 2 -5 6c45 92 56 168 51 256c0 3 2 5 4 5h67c5 0 6 -2 7 -7c6 -92 -13 -185 -57 -255c-1 -2 -3 -5 -8 -5z" />
    <glyph glyph-name="less" unicode="&#x3c;" horiz-adv-x="544" 
d="M57 236v49c0 5 1 5 4 7l419 219c4 2 7 1 7 -3v-57c0 -3 -3 -5 -6 -7l-353 -183v-1l354 -184c3 -1 5 -2 5 -7v-55c0 -5 -2 -6 -6 -5l-420 220c-3 2 -4 3 -4 7z" />
    <glyph glyph-name="equal" unicode="=" horiz-adv-x="548" 
d="M30 380c0 4 3 5 7 5h475c4 0 5 -1 5 -5v-50c0 -6 -1 -7 -8 -7h-473c-3 0 -6 1 -6 6v51zM30 191c0 5 2 6 6 6h475c4 0 6 -1 6 -6v-49c0 -6 -2 -6 -8 -6h-473c-4 0 -6 1 -6 6v49z" />
    <glyph glyph-name="greater" unicode="&#x3e;" horiz-adv-x="544" 
d="M487 285v-47c0 -4 -1 -6 -5 -8l-420 -221c-3 -1 -5 0 -5 4v55c0 5 1 6 4 7l353 184v2l-352 184c-4 1 -5 2 -5 6v57c0 3 2 5 5 3l420 -219c4 -2 5 -4 5 -7z" />
    <glyph glyph-name="question" unicode="?" horiz-adv-x="402" 
d="M202 671c110 0 171 -67 171 -154c0 -64 -29 -104 -65 -141c-39 -39 -78 -74 -78 -109c0 -20 7 -41 20 -61c2 -3 1 -6 -4 -6h-60c-3 0 -6 0 -10 3c-18 22 -24 50 -24 72c0 48 35 82 82 130c36 37 54 62 54 102c0 50 -32 85 -99 85c-52 0 -91 -15 -123 -34c-3 -2 -6 0 -6 3
v67c0 4 0 6 3 8c22 14 72 35 139 35zM211 -10c-30 0 -51 19 -51 51c0 30 21 51 51 51c31 0 51 -21 51 -51s-19 -51 -51 -51z" />
    <glyph glyph-name="at" unicode="@" horiz-adv-x="831" 
d="M489 61l18 313c-7 2 -18 5 -41 5c-92 0 -150 -73 -150 -165c0 -87 46 -156 142 -156c15 0 22 1 31 3zM581 421l-21 -353c49 10 152 61 152 219c0 168 -113 269 -269 269c-177 0 -321 -119 -321 -336c0 -151 68 -255 187 -316c4 -3 5 -5 5 -9l-2 -66c0 -5 -1 -5 -5 -4
c-158 62 -261 204 -261 391c0 236 164 406 400 406c188 0 339 -122 339 -329c0 -203 -149 -302 -319 -302c-132 0 -223 74 -223 217c0 142 105 235 233 235c34 0 73 -4 100 -16c4 -1 5 -2 5 -6z" />
    <glyph glyph-name="A" unicode="A" horiz-adv-x="586" 
d="M416 208h-254l-72 -202c-1 -4 -3 -6 -8 -6h-68c-5 0 -7 3 -6 8l218 607c3 8 6 15 7 41c0 3 2 5 5 5h98c4 0 5 -1 6 -5l235 -649c2 -4 1 -7 -4 -7h-76c-4 0 -6 2 -8 5zM185 285h208c-22 65 -85 240 -104 308h-1c-17 -64 -65 -198 -103 -308z" />
    <glyph glyph-name="B" unicode="B" horiz-adv-x="558" 
d="M80 7v645c0 5 0 7 5 8c37 1 115 3 173 3c200 0 228 -111 228 -171c0 -76 -43 -119 -71 -138c41 -18 105 -63 105 -158c0 -132 -115 -198 -266 -198c-68 0 -130 1 -168 2c-5 1 -6 3 -6 7zM162 312v-240c22 -1 54 -2 85 -2c111 -2 187 38 187 124c0 54 -30 95 -91 111
c-22 6 -50 7 -79 7h-102zM162 589v-204h93c39 0 78 -3 94 -6c29 19 55 50 55 102c0 75 -55 110 -151 110c-33 0 -72 -1 -91 -2z" />
    <glyph glyph-name="C" unicode="C" horiz-adv-x="551" 
d="M518 80v-61c0 -5 -1 -9 -5 -10c-33 -14 -79 -19 -135 -19c-167 0 -338 97 -338 342c0 200 138 339 351 339c67 0 106 -7 128 -18c3 -1 5 -4 5 -8v-67c0 -6 -4 -6 -7 -5c-28 15 -73 23 -128 23c-157 0 -264 -102 -264 -262c0 -209 157 -268 262 -268c51 0 88 4 125 18
c4 1 6 1 6 -4z" />
    <glyph glyph-name="D" unicode="D" horiz-adv-x="649" 
d="M80 8v644c0 5 1 7 6 8c25 1 76 3 175 3c226 0 348 -131 348 -321c0 -253 -190 -344 -358 -344c-56 0 -131 1 -166 2c-4 0 -5 3 -5 8zM163 587v-513c20 -1 54 -2 85 -2c161 0 275 88 276 269c0 166 -114 248 -265 248c-35 0 -67 -1 -96 -2z" />
    <glyph glyph-name="E" unicode="E" horiz-adv-x="509" 
d="M486 70l-11 -64c-1 -5 -3 -6 -7 -6h-380c-7 0 -8 2 -8 8v646c0 5 2 7 7 7h365c5 0 6 -1 7 -6l8 -63c1 -4 0 -7 -5 -7h-299v-209h270c4 0 6 -2 6 -6v-64c0 -5 -3 -6 -6 -6h-270v-224h318c5 0 6 -2 5 -6z" />
    <glyph glyph-name="F" unicode="F" horiz-adv-x="487" 
d="M163 288v-281c0 -5 -2 -7 -6 -7h-72c-4 0 -5 3 -5 7v648c0 4 1 6 6 6h367c4 0 6 -2 7 -6l7 -63c1 -5 -1 -7 -6 -7h-298v-221h266c5 0 7 -2 7 -6v-64c0 -4 -3 -6 -7 -6h-266z" />
    <glyph glyph-name="G" unicode="G" horiz-adv-x="636" 
d="M494 279l-139 2c-5 1 -7 2 -7 7v61c0 4 3 5 6 5h217c6 0 7 -2 7 -6v-317c1 -4 -1 -6 -5 -8c-65 -26 -131 -33 -186 -33c-227 0 -347 147 -347 337c0 210 147 344 360 344c68 0 123 -8 159 -25c4 -2 5 -5 5 -10v-66c0 -5 -3 -6 -6 -4c-45 23 -100 29 -156 29
c-170 2 -276 -99 -276 -265c0 -147 91 -266 265 -266c45 0 77 5 103 16v199z" />
    <glyph glyph-name="H" unicode="H" horiz-adv-x="659" 
d="M573 0h-71c-5 0 -7 1 -7 6v302h-331v-301c0 -4 -2 -7 -7 -7h-70c-5 0 -7 2 -7 7v647c0 5 2 7 7 7h70c5 0 7 -2 7 -6v-271h331v271c0 4 2 6 6 6h73c3 0 5 -2 5 -6v-649c0 -5 -2 -6 -6 -6z" />
    <glyph glyph-name="I" unicode="I" horiz-adv-x="244" 
d="M163 655v-648c0 -5 -1 -7 -6 -7h-70c-5 0 -7 2 -7 7v647c0 5 2 7 6 7h71c4 0 6 -2 6 -6z" />
    <glyph glyph-name="J" unicode="J" horiz-adv-x="289" 
d="M131 166v489c0 4 2 6 7 6h71c4 0 6 -1 6 -6v-481c0 -33 -2 -65 -7 -90c-23 -101 -96 -137 -178 -137c-13 0 -28 1 -39 4c-5 1 -5 4 -5 9v62c0 5 2 7 7 6c12 -2 22 -2 29 -2c70 0 109 34 109 140z" />
    <glyph glyph-name="K" unicode="K" horiz-adv-x="560" 
d="M473 661h79c7 0 8 -5 5 -9l-293 -307c-2 -2 -2 -4 0 -7l316 -329c3 -4 1 -9 -4 -9h-88c-5 0 -8 1 -13 6l-307 319c-6 6 -6 10 0 15l295 316c3 3 5 5 10 5zM163 654v-647c0 -5 -2 -7 -6 -7h-70c-5 0 -7 2 -7 8v647c0 4 1 6 6 6h71c4 0 6 -2 6 -7z" />
    <glyph glyph-name="L" unicode="L" horiz-adv-x="479" 
d="M458 0h-370c-6 0 -8 3 -8 8v646c0 4 1 7 6 7h72c4 0 5 -2 5 -6v-579h310c5 0 6 -3 5 -6l-12 -64c-1 -5 -4 -6 -8 -6z" />
    <glyph glyph-name="M" unicode="M" horiz-adv-x="828" 
d="M112 655c1 6 3 6 7 6h111c5 0 6 -2 8 -6c34 -103 155 -462 176 -549h1c23 83 156 447 190 549c1 4 2 6 7 6h108c5 0 5 -1 6 -5l34 -650c1 -4 -2 -6 -6 -6h-74c-5 0 -7 1 -7 5c-9 230 -19 537 -19 597h-1c-24 -90 -158 -468 -200 -596c-1 -5 -4 -6 -8 -6h-70
c-6 0 -8 1 -9 6c-53 166 -158 496 -185 597h-2c-1 -87 -19 -387 -30 -597c0 -5 -2 -6 -7 -6h-68c-5 0 -6 1 -6 6z" />
    <glyph glyph-name="N" unicode="N" horiz-adv-x="671" 
d="M153 0h-66c-4 0 -7 1 -7 7v648c0 4 1 6 6 6h99c5 0 6 -2 9 -6c87 -147 279 -472 319 -550h1c-2 27 -3 65 -3 152v397c0 5 2 7 7 7h66c5 0 7 -3 7 -8v-646c0 -5 -2 -7 -9 -7h-89c-6 0 -9 1 -11 6c-45 84 -294 497 -326 571h-1c2 -39 4 -88 4 -176v-394c0 -5 -2 -7 -6 -7z
" />
    <glyph glyph-name="O" unicode="O" horiz-adv-x="683" 
d="M341 671c188 0 300 -148 301 -337c1 -215 -126 -344 -299 -344c-191 0 -303 145 -303 342c0 201 127 339 301 339zM125 332c0 -145 76 -267 220 -267c133 0 212 108 211 267c0 155 -85 264 -216 264c-120 0 -215 -93 -215 -264z" />
    <glyph glyph-name="P" unicode="P" horiz-adv-x="541" 
d="M80 6v647c0 4 1 7 5 7c32 1 98 3 165 3c177 0 255 -100 255 -212c0 -152 -120 -223 -265 -223c-42 0 -55 1 -77 1v-222c0 -5 -1 -7 -6 -7h-71c-4 0 -6 2 -6 6zM163 587v-283c17 -1 34 -1 76 -1c98 0 183 37 183 146c0 91 -70 140 -171 140c-41 0 -72 -1 -88 -2z" />
    <glyph glyph-name="Q" unicode="Q" horiz-adv-x="683" 
d="M128 332c0 -145 76 -267 220 -267c133 0 212 108 211 267c0 155 -85 264 -216 264c-120 0 -215 -93 -215 -264zM669 -137h-108c-5 0 -9 3 -12 5c-30 25 -83 71 -146 127c-18 -3 -37 -5 -57 -5c-191 0 -303 145 -303 342c0 201 127 339 301 339c188 0 300 -148 301 -337
c1 -148 -59 -255 -153 -308c52 -46 135 -120 179 -157c2 -2 2 -6 -2 -6z" />
    <glyph glyph-name="R" unicode="R" horiz-adv-x="564" 
d="M156 0h-70c-4 0 -6 1 -6 6v646c0 5 1 8 6 8c56 2 107 3 174 3c147 0 245 -63 245 -191c0 -94 -64 -152 -138 -177c34 -47 168 -244 194 -287c2 -4 2 -8 -3 -8h-84c-6 0 -8 1 -11 4c-31 47 -114 175 -164 252c-8 12 -13 16 -23 16h-114v-266c0 -4 -2 -6 -6 -6zM162 345
h107c95 0 153 49 153 123c0 76 -58 121 -165 121c-38 0 -75 -1 -95 -2v-242z" />
    <glyph glyph-name="S" unicode="S" horiz-adv-x="478" 
d="M212 -10c-69 0 -130 15 -169 38c-5 2 -6 6 -6 12v72c0 4 3 6 7 3c52 -35 116 -49 171 -49c96 0 140 43 140 103c0 47 -27 82 -118 123l-44 18c-124 53 -152 116 -152 183c0 104 80 178 215 178c63 0 117 -10 148 -27c4 -2 5 -5 5 -10v-67c0 -4 -3 -7 -8 -4
c-35 22 -90 33 -147 33c-104 0 -132 -54 -132 -96c0 -45 26 -79 115 -117l43 -18c123 -52 159 -114 159 -189c0 -108 -81 -186 -227 -186z" />
    <glyph glyph-name="T" unicode="T" horiz-adv-x="518" 
d="M217 7v578h-214c-4 0 -6 2 -5 7l10 63c1 4 3 6 8 6h489c5 0 7 -2 8 -7l7 -62c1 -5 -1 -7 -5 -7h-214v-577c0 -6 -2 -8 -7 -8h-69c-5 0 -8 2 -8 7z" />
    <glyph glyph-name="U" unicode="U" horiz-adv-x="641" 
d="M154 655v-411c0 -110 60 -179 169 -179c84 0 164 37 164 181v408c0 5 2 7 6 7h71c5 0 7 -2 7 -7v-409c0 -184 -109 -255 -251 -255c-151 0 -249 82 -249 249v415c0 4 1 7 6 7h71c4 0 6 -2 6 -6z" />
    <glyph glyph-name="V" unicode="V" horiz-adv-x="593" 
d="M302 82h2c21 71 72 230 196 573c1 4 3 6 8 6h73c4 0 6 -2 5 -7l-238 -648c-2 -5 -4 -6 -9 -6h-79c-5 0 -7 1 -9 5l-243 649c-2 4 -1 7 5 7h77c5 0 6 -1 7 -5c115 -306 187 -509 205 -574z" />
    <glyph glyph-name="W" unicode="W" horiz-adv-x="852" 
d="M483 655c45 -185 97 -391 135 -559h1c12 55 44 192 133 559c1 4 3 6 8 6h71c5 0 7 -2 6 -7l-174 -649c-1 -4 -3 -5 -8 -5h-80c-6 0 -7 1 -9 5c-29 124 -116 480 -134 566h-1c-17 -88 -118 -449 -150 -563c-1 -5 -2 -8 -8 -8h-77c-5 0 -7 2 -9 7l-171 647c-1 5 0 7 5 7h75
c5 0 7 -1 9 -5c101 -407 127 -512 135 -560h1c11 56 47 175 144 559c2 5 5 6 9 6h82c5 0 6 -2 7 -6z" />
    <glyph glyph-name="X" unicode="X" horiz-adv-x="522" 
d="M511 653l-198 -313l213 -331c2 -5 1 -9 -4 -9h-83c-6 0 -9 2 -12 6c-58 92 -116 184 -174 278h-1c-54 -93 -109 -186 -164 -278c-3 -5 -5 -6 -10 -6h-79c-6 0 -6 5 -4 8l204 326l-199 320c-3 4 -1 7 4 7h82c5 0 7 -1 10 -5c53 -91 109 -181 163 -271h1
c53 90 108 180 162 270c2 4 4 6 10 6h76c5 0 6 -3 3 -8z" />
    <glyph glyph-name="Y" unicode="Y" horiz-adv-x="517" 
d="M209 271l-220 383c-3 4 1 7 5 7h81c5 0 6 -2 8 -4c124 -224 164 -295 179 -329c17 34 56 107 176 328c2 4 4 5 8 5h79c4 0 5 -3 3 -6l-221 -386c-6 -9 -8 -15 -8 -26v-236c0 -5 -2 -7 -7 -7h-68c-7 0 -9 2 -9 7v239c0 11 0 16 -6 25z" />
    <glyph glyph-name="Z" unicode="Z" horiz-adv-x="530" 
d="M499 0h-479c-4 0 -7 1 -7 6v46c0 4 1 6 3 10l383 523h-368c-4 0 -6 1 -5 7l11 63c1 5 3 6 8 6h455c5 0 6 -2 6 -5v-48c0 -4 -1 -8 -5 -12l-379 -520h392c5 0 6 -2 5 -7l-13 -63c-1 -4 -2 -6 -7 -6z" />
    <glyph glyph-name="bracketleft" unicode="[" horiz-adv-x="300" 
d="M133 691v-791l133 -3c3 0 4 -1 4 -5v-52c-1 -4 -2 -5 -5 -5h-193c-4 0 -7 2 -7 8v903c0 5 2 7 8 7h191c4 0 5 -1 5 -4v-52c0 -3 -2 -4 -5 -4z" />
    <glyph glyph-name="backslash" unicode="\" horiz-adv-x="347" 
d="M237 -36l-197 734c-1 3 1 6 5 6h56c4 0 6 -2 7 -5l199 -733c2 -6 0 -7 -5 -7h-57c-5 0 -6 1 -8 5z" />
    <glyph glyph-name="bracketright" unicode="]" horiz-adv-x="309" 
d="M175 -102v791l-133 3c-3 0 -4 1 -4 4v53c1 3 2 4 5 4h193c4 0 7 -1 7 -7v-903c0 -6 -2 -8 -8 -8h-191c-4 0 -5 1 -5 5v52c0 4 2 5 5 5z" />
    <glyph glyph-name="asciicircum" unicode="^" horiz-adv-x="492" 
d="M455 260h-58c-5 0 -6 1 -9 5l-143 312h-1l-137 -311c-2 -4 -2 -6 -8 -6h-55c-4 0 -7 2 -5 7l166 366c2 2 3 4 6 4h67c4 0 5 -1 7 -5l172 -365c3 -5 1 -7 -2 -7z" />
    <glyph glyph-name="underscore" unicode="_" horiz-adv-x="517" 
d="M0 -74h517v-49h-517v49z" />
    <glyph glyph-name="quoteleft" unicode="&#x2018;" horiz-adv-x="162" 
d="M79 717h58c3 0 5 -2 3 -6c-24 -66 -37 -118 -37 -176c0 -23 3 -46 6 -64c0 -3 -1 -6 -5 -6h-60c-4 0 -6 2 -8 7c-4 17 -6 40 -6 64c0 55 14 117 42 177c2 3 3 4 7 4z" />
    <glyph glyph-name="a" unicode="a" horiz-adv-x="474" 
d="M323 75v157c-14 2 -36 4 -66 4c-97 0 -144 -33 -144 -89c0 -45 31 -89 119 -89c32 0 62 5 91 17zM404 308v-223c0 -17 0 -32 2 -48c0 -2 0 -3 -2 -4c-72 -34 -129 -43 -187 -43c-106 0 -186 52 -186 157c0 106 99 153 223 153c37 0 58 -1 69 -2v24c0 31 -15 100 -113 100
c-48 0 -92 -11 -127 -30c-3 -1 -7 0 -7 5v61c0 4 2 6 5 8c39 19 89 30 142 30c128 0 181 -84 181 -188z" />
    <glyph glyph-name="b" unicode="b" horiz-adv-x="525" 
d="M77 717h70c5 0 7 0 7 -6v-235c32 13 68 20 108 20c138 0 228 -99 228 -234c0 -180 -136 -272 -277 -272c-50 0 -94 6 -137 20c-4 1 -6 5 -6 9v692c0 5 2 6 7 6zM405 255c0 102 -60 168 -156 168c-43 0 -70 -7 -95 -17v-336c19 -6 39 -8 66 -8c96 0 185 64 185 193z" />
    <glyph glyph-name="c" unicode="c" horiz-adv-x="420" 
d="M395 75v-62c0 -4 0 -6 -4 -7c-33 -13 -72 -16 -109 -16c-163 0 -247 116 -247 251c0 146 104 255 261 255c51 0 79 -6 95 -13c4 -2 4 -4 4 -9v-63c0 -5 -3 -5 -7 -4c-25 10 -51 15 -92 15c-103 0 -176 -69 -176 -178c0 -120 83 -179 176 -179c37 0 68 4 93 14
c5 1 6 -1 6 -4z" />
    <glyph glyph-name="d" unicode="d" horiz-adv-x="524" 
d="M282 -10c-139 0 -247 84 -247 249c0 147 109 257 272 257c28 0 44 -3 63 -6v221c0 5 2 6 6 6h72c5 0 6 -2 6 -5v-630c0 -14 0 -31 2 -48c0 -4 -1 -5 -5 -7c-57 -27 -113 -37 -169 -37zM370 76v338c-16 7 -40 10 -65 10c-114 0 -185 -77 -185 -181
c0 -130 82 -180 170 -180c26 0 57 3 80 13z" />
    <glyph glyph-name="e" unicode="e" horiz-adv-x="482" 
d="M337 233h-218c-1 -95 54 -170 167 -170c44 0 86 8 125 27c3 2 5 0 5 -4v-57c0 -6 -2 -8 -5 -10c-34 -17 -78 -29 -141 -29c-173 0 -235 127 -235 249c0 140 82 257 221 257c143 0 195 -116 195 -201c0 -25 -2 -43 -4 -52c0 -3 -3 -6 -7 -6c-15 -3 -59 -4 -103 -4z
M120 295h186c49 0 61 1 64 2c1 3 1 8 1 11c0 36 -24 119 -118 119c-83 0 -124 -65 -133 -132z" />
    <glyph glyph-name="f" unicode="f" horiz-adv-x="251" 
d="M79 414h-65c-4 0 -6 2 -6 7v59c0 4 2 6 6 6h65v36c0 58 8 96 23 126c26 50 69 79 131 79c21 0 35 -2 46 -7c5 -1 5 -4 5 -8v-59c0 -4 -2 -6 -6 -5c-11 4 -25 5 -35 5c-48 0 -81 -26 -81 -122v-45h96c4 0 6 -2 6 -5v-60c0 -5 -2 -6 -6 -7h-96v-407c0 -4 -1 -7 -6 -7h-71
c-4 0 -6 2 -6 7v407z" />
    <glyph glyph-name="g" unicode="g" horiz-adv-x="490" 
d="M279 10l-106 5c-41 -29 -67 -71 -67 -93c0 -46 55 -93 147 -93c110 0 159 52 159 102c0 59 -62 75 -133 79zM236 432c-63 0 -104 -41 -104 -105c0 -61 36 -105 103 -105c63 0 102 38 102 103c0 58 -31 107 -101 107zM194 87l102 -5c124 -6 194 -51 194 -139
c0 -100 -95 -179 -242 -179c-148 0 -221 78 -221 152c0 34 29 79 98 137c-16 22 -24 48 -24 75c0 22 6 44 17 63c-41 27 -68 72 -68 135c0 93 69 170 187 170c31 0 57 -4 75 -8c9 -2 15 -2 21 -2h141c5 0 6 -2 6 -6v-57c0 -4 -1 -6 -6 -6c-26 0 -68 2 -92 4
c18 -19 35 -51 35 -97c0 -110 -82 -165 -181 -165c-19 0 -37 2 -55 6c-5 -12 -7 -25 -5 -37c2 -15 8 -29 18 -41z" />
    <glyph glyph-name="h" unicode="h" horiz-adv-x="536" 
d="M153 367v-361c0 -5 -1 -6 -6 -6h-70c-5 0 -7 2 -7 7v704c0 4 1 6 6 6h72c4 0 5 -1 5 -5l1 -274c41 38 89 58 148 58c71 0 163 -35 163 -193v-296c0 -5 -2 -7 -7 -7h-70c-5 0 -7 2 -7 8v286c0 77 -33 128 -103 128c-49 0 -93 -20 -125 -55z" />
    <glyph glyph-name="i" unicode="i" horiz-adv-x="225" 
d="M70 8v471c0 5 2 7 7 7h71c4 0 6 -1 6 -6v-473c0 -5 -1 -7 -7 -7h-69c-5 0 -8 2 -8 8zM112 582c-31 0 -50 21 -50 51s21 51 51 51c32 0 50 -22 50 -51c0 -30 -20 -51 -51 -51z" />
    <glyph glyph-name="j" unicode="j" horiz-adv-x="226" 
d="M78 486h71c4 0 6 -2 6 -6v-485c0 -109 -20 -148 -49 -181c-30 -33 -81 -43 -113 -43c-7 0 -11 0 -17 1c-5 1 -6 3 -6 7v60c0 4 1 6 6 6c52 2 96 18 96 130v505c0 4 2 6 6 6zM114 582c-31 0 -50 21 -50 51s20 51 50 51c32 0 50 -22 50 -51c0 -30 -20 -51 -50 -51z" />
    <glyph glyph-name="k" unicode="k" horiz-adv-x="465" 
d="M374 486h80c5 0 7 -4 3 -8c-28 -31 -179 -177 -216 -213c-1 -1 0 -3 0 -4c65 -68 174 -181 247 -254c3 -3 1 -7 -4 -7h-95c-5 0 -7 2 -10 5c-52 53 -178 185 -226 237v-235c0 -5 -1 -7 -6 -7h-70c-6 0 -7 2 -7 7v704c0 4 1 6 7 6h70c4 0 6 -2 6 -6v-448
c47 47 185 190 211 218c4 4 6 5 10 5z" />
    <glyph glyph-name="l" unicode="l" horiz-adv-x="241" 
d="M70 101v610c0 5 2 6 7 6h70c5 0 6 -2 6 -6v-603c0 -39 16 -48 40 -48c7 0 11 1 20 3c3 0 4 -2 4 -6v-52c0 -5 -1 -6 -5 -8c-9 -4 -25 -7 -46 -7c-49 0 -96 17 -96 111z" />
    <glyph glyph-name="m" unicode="m" horiz-adv-x="832" 
d="M147 0h-71c-5 0 -6 2 -6 7v374c0 44 -2 80 -4 99c0 4 1 6 6 6h63c4 0 6 -2 8 -5c3 -10 5 -32 6 -48c46 43 95 63 150 63c60 0 105 -23 133 -73c42 41 94 73 167 73c74 0 162 -39 162 -191v-299c0 -4 -2 -6 -7 -6h-69c-5 0 -7 2 -7 7v292c0 68 -31 123 -102 123
c-50 0 -91 -22 -123 -58c3 -12 5 -40 5 -64v-293c0 -5 -2 -7 -7 -7h-70c-5 0 -7 2 -7 7v295c0 76 -35 120 -100 120c-47 0 -83 -18 -121 -56v-360c0 -4 -1 -6 -6 -6z" />
    <glyph glyph-name="n" unicode="n" horiz-adv-x="535" 
d="M70 7v366c0 34 -2 90 -4 107c0 4 1 6 6 6h62c5 0 7 -2 9 -6c3 -9 4 -28 6 -50c44 44 95 66 153 66c71 0 163 -35 163 -193v-296c0 -5 -2 -7 -7 -7h-70c-5 0 -7 2 -7 8v287c0 76 -33 127 -103 127c-51 0 -93 -23 -125 -61v-354c0 -5 -1 -7 -6 -7h-71c-4 0 -6 2 -6 7z" />
    <glyph glyph-name="o" unicode="o" horiz-adv-x="527" 
d="M265 496c141 0 228 -108 228 -252c0 -152 -94 -254 -228 -254c-161 0 -230 130 -230 253c0 141 90 253 230 253zM261 424c-84 0 -142 -72 -142 -179c0 -102 53 -183 148 -183c71 0 141 56 141 180c0 93 -43 182 -147 182z" />
    <glyph glyph-name="p" unicode="p" horiz-adv-x="525" 
d="M256 496c148 0 234 -102 234 -236c0 -182 -144 -270 -286 -270c-23 0 -37 2 -51 4v-200c0 -4 0 -6 -5 -7c-23 -2 -69 -7 -73 -8c-4 0 -5 1 -5 6v623c0 9 -1 31 -2 44c0 1 0 3 2 4c35 13 101 40 186 40zM246 423c-35 0 -65 -6 -93 -16v-339c17 -5 38 -6 57 -6
c97 0 195 60 195 193c0 102 -58 168 -159 168z" />
    <glyph glyph-name="q" unicode="q" horiz-adv-x="526" 
d="M275 -10c-130 0 -240 87 -240 247c0 149 107 259 272 259c65 0 116 -13 148 -27c3 -1 3 -2 3 -5c-2 -17 -3 -39 -3 -47v-624c0 -4 -2 -5 -6 -6c-25 -3 -69 -8 -73 -8c-3 0 -5 2 -5 6v221c-32 -11 -64 -16 -96 -16zM371 78v336c-21 7 -45 10 -72 10
c-111 0 -179 -74 -179 -182c0 -122 85 -178 167 -178c34 0 60 4 84 14z" />
    <glyph glyph-name="r" unicode="r" horiz-adv-x="318" 
d="M70 486h64c6 0 7 -2 9 -7c4 -12 7 -47 8 -69c35 48 97 86 161 86c5 0 7 -1 7 -7v-72c0 -5 -1 -6 -7 -6c-69 1 -132 -33 -157 -73l-1 -332c0 -5 -2 -6 -6 -6h-71c-5 0 -7 2 -7 7v345c0 42 -2 100 -5 128c0 4 1 6 5 6z" />
    <glyph glyph-name="s" unicode="s" horiz-adv-x="378" 
d="M317 398c-28 17 -74 29 -116 29c-66 0 -88 -32 -88 -62s18 -51 93 -81c101 -39 142 -80 142 -151c0 -92 -75 -143 -179 -143c-55 0 -105 12 -134 29c-3 2 -5 4 -5 9v67c0 5 3 7 6 5c40 -28 91 -40 135 -40c64 0 95 28 95 65s-22 59 -91 86c-100 38 -142 79 -142 150
c0 72 61 135 170 135c55 0 96 -10 117 -22c5 -2 5 -6 5 -10v-61c0 -5 -3 -8 -8 -5z" />
    <glyph glyph-name="t" unicode="t" horiz-adv-x="293" 
d="M279 65v-51c0 -4 -1 -8 -6 -10c-23 -10 -48 -14 -75 -14c-73 0 -117 35 -117 131v293h-68c-6 1 -7 3 -7 8v57c0 5 2 7 7 7h68c1 37 5 106 9 128c1 4 3 6 7 7l68 11c4 1 6 0 6 -4c-3 -35 -6 -93 -6 -142h106c4 0 6 -2 6 -7v-59c0 -4 -2 -6 -6 -6h-106v-281
c0 -46 17 -72 61 -72c15 0 30 2 47 8c3 1 6 1 6 -4z" />
    <glyph glyph-name="u" unicode="u" horiz-adv-x="528" 
d="M457 480v-374c0 -53 3 -78 6 -100c0 -4 -1 -6 -6 -6h-64c-5 0 -6 1 -8 5c-3 11 -5 29 -6 43c-42 -43 -95 -58 -145 -58c-85 0 -165 43 -165 188v302c0 5 2 6 7 6h71c4 0 5 -2 5 -6v-292c0 -77 36 -124 106 -124c48 0 86 18 116 51v365c0 4 2 6 7 6h70c6 0 6 -2 6 -6z" />
    <glyph glyph-name="v" unicode="v" horiz-adv-x="457" 
d="M267 0h-81c-6 0 -7 2 -9 5c-21 61 -144 407 -168 474c-1 4 -1 7 4 7h77c5 0 6 -2 8 -6c84 -253 120 -362 131 -403h2c12 41 49 148 137 404c2 4 4 5 8 5h69c3 0 6 -2 4 -7c-29 -78 -151 -413 -173 -473c-2 -4 -4 -6 -9 -6z" />
    <glyph glyph-name="w" unicode="w" horiz-adv-x="715" 
d="M548 0h-79c-6 0 -8 2 -9 7c-74 265 -93 348 -104 395h-1c-18 -80 -54 -202 -111 -395c-2 -6 -5 -7 -10 -7h-77c-8 0 -10 2 -11 7l-130 472c-2 4 0 7 5 7h75c3 0 6 -1 7 -5c74 -275 91 -367 98 -402h2c8 34 26 117 111 400c1 5 2 7 7 7h81c4 0 6 -2 7 -6
c81 -290 95 -363 103 -402h2c11 47 26 132 104 403c1 3 3 5 7 5h70c4 0 6 -2 5 -6l-143 -474c-2 -4 -3 -6 -9 -6z" />
    <glyph glyph-name="x" unicode="x" horiz-adv-x="428" 
d="M158 243l-155 235c-3 4 -1 8 3 8h82c6 0 8 -2 10 -6l117 -188h1l122 189c2 4 4 5 8 5h74c4 0 6 -3 3 -7c-39 -58 -115 -172 -159 -232c40 -60 131 -192 166 -240c3 -3 1 -7 -4 -7h-84c-5 0 -8 2 -10 6l-123 192h-1l-124 -193c-2 -4 -3 -5 -8 -5h-74c-5 0 -7 3 -4 7
c46 66 114 171 160 236z" />
    <glyph glyph-name="y" unicode="y" horiz-adv-x="459" 
d="M11 486h79c4 0 6 -2 7 -5c83 -220 124 -334 138 -379c32 92 74 207 135 379c2 3 4 5 8 5h71c5 0 6 -3 4 -7c-74 -217 -177 -473 -272 -687c-2 -4 -5 -6 -11 -7l-75 -6c-5 0 -5 3 -3 8c29 61 66 142 99 221c2 4 2 7 0 13c-24 60 -124 303 -185 459c-2 4 1 6 5 6z" />
    <glyph glyph-name="z" unicode="z" horiz-adv-x="396" 
d="M374 0h-359c-3 0 -4 3 -4 7v39c0 4 1 6 2 9c68 99 233 314 265 360c-18 -1 -50 -1 -102 -1h-152c-6 0 -7 2 -6 8l11 58c1 4 3 6 7 6h337c4 0 5 -2 5 -6v-42c0 -4 -1 -7 -4 -12c-101 -147 -232 -317 -260 -355c31 1 73 0 122 0h152c5 0 7 -1 5 -6l-12 -59
c-1 -5 -4 -6 -7 -6z" />
    <glyph glyph-name="braceleft" unicode="{" horiz-adv-x="368" 
d="M29 258c-4 0 -4 2 -4 5v58c0 4 1 5 4 5c97 0 121 34 122 99c0 43 -7 103 -7 145c0 71 32 164 187 179c3 0 5 0 5 -4v-51c0 -4 -1 -5 -4 -6c-101 -17 -117 -70 -117 -122c0 -44 6 -97 6 -141c0 -72 -26 -115 -93 -132v-3c78 -16 96 -73 96 -135c0 -51 -9 -106 -9 -156
c0 -63 32 -101 118 -116c4 -1 4 -2 4 -6v-52c0 -3 -2 -4 -5 -4c-136 12 -188 83 -188 172c0 51 10 104 10 154c0 64 -22 111 -125 111z" />
    <glyph glyph-name="bar" unicode="|" horiz-adv-x="205" 
d="M138 -196h-72v980h72v-980z" />
    <glyph glyph-name="braceright" unicode="}" horiz-adv-x="368" 
d="M335 325c3 0 4 -2 4 -5v-59c0 -3 -2 -4 -4 -4c-97 0 -121 -34 -122 -99c0 -43 6 -115 6 -158c0 -67 -29 -159 -186 -178c-3 -1 -5 0 -5 3v53c0 3 0 4 4 5c104 19 117 73 117 122c0 43 -6 109 -6 153c0 72 26 115 93 132v3c-78 16 -96 73 -96 135c0 50 9 93 9 142
c0 62 -30 103 -118 115c-4 1 -4 2 -4 6v53c0 4 1 5 4 5c137 -11 188 -83 188 -173c0 -54 -9 -91 -9 -140c0 -64 22 -111 125 -111z" />
    <glyph glyph-name="asciitilde" unicode="~" horiz-adv-x="553" 
d="M93 186h-51c-3 0 -5 2 -5 6c-5 119 49 170 118 170c46 0 75 -15 132 -60c52 -42 77 -58 111 -58c40 0 59 31 56 107c0 3 1 5 6 5h50c4 0 6 -2 6 -5c8 -131 -56 -170 -115 -170c-45 0 -76 12 -135 58c-50 39 -73 61 -107 61c-33 0 -64 -22 -61 -108c0 -4 -1 -6 -5 -6z" />
    <glyph glyph-name="exclamdown" unicode="&#xa1;" horiz-adv-x="226" 
d="M101 -188c-14 0 -33 2 -41 6c-4 2 -4 6 -4 8v76c0 84 10 344 13 374c0 2 1 5 5 5h55c2 0 5 -2 5 -5c2 -28 12 -287 12 -371v-76c0 -3 0 -7 -4 -9c-8 -4 -29 -8 -41 -8zM102 491c31 0 52 -20 52 -49s-22 -51 -52 -51c-32 0 -53 21 -53 51c0 31 22 49 53 49z" />
    <glyph glyph-name="cent" unicode="&#xa2;" horiz-adv-x="467" 
d="M328 84v-93c0 -4 -2 -5 -5 -5h-59c-3 0 -5 2 -5 6v93c-128 18 -200 111 -200 231c0 133 93 218 201 235v92c0 3 1 4 5 4h58c3 0 5 -1 5 -5v-87c31 1 67 -6 85 -15c4 -2 4 -4 4 -8v-66c0 -4 -2 -6 -6 -4c-26 13 -59 19 -98 19c-100 0 -169 -63 -169 -161
c0 -116 92 -162 170 -162c32 0 68 4 98 16c4 2 5 0 5 -4v-62c0 -4 -2 -6 -5 -8c-24 -12 -59 -16 -84 -16z" />
    <glyph glyph-name="sterling" unicode="&#xa3;" horiz-adv-x="464" 
d="M444 0h-421c-4 0 -5 2 -5 4v54c0 3 2 5 5 6c80 30 107 106 107 199c0 9 1 14 0 29h-86c-4 0 -5 1 -5 6v49c0 4 1 5 6 5h83c0 26 -1 38 -1 54c0 160 82 241 201 241c39 0 72 -6 90 -16c5 -3 7 -5 7 -11v-63c0 -5 -2 -7 -7 -5c-25 13 -50 19 -85 19
c-80 0 -122 -50 -122 -160c0 -11 0 -35 1 -59h147c3 0 5 0 5 -5v-50c0 -4 -1 -5 -5 -5h-148c1 -105 -19 -168 -76 -216h321c5 0 6 -2 5 -6l-11 -65c-1 -4 -3 -5 -6 -5z" />
    <glyph glyph-name="fraction" unicode="&#x2044;" horiz-adv-x="102" 
d="M-107 -10h-51c-3 0 -5 2 -3 6l361 646c2 3 4 3 6 3h52c3 0 4 -2 2 -4l-360 -646c-2 -3 -3 -5 -7 -5z" />
    <glyph glyph-name="yen" unicode="&#xa5;" horiz-adv-x="483" 
d="M274 0h-68c-6 1 -7 3 -7 7v161h-131c-3 0 -6 1 -6 6v44c0 4 3 5 6 5h131v68h-130c-4 0 -7 1 -7 7v41c0 5 3 6 7 6h115l-178 287c-1 3 0 5 4 5h81c3 0 5 0 7 -4c114 -198 134 -235 146 -264h2c11 28 31 61 141 263c1 3 3 5 8 5h78c3 0 5 -2 3 -6l-175 -286h115
c4 0 5 -3 5 -5v-44c0 -3 -1 -5 -5 -5h-135v-68h134c4 0 6 -1 6 -4v-45c0 -5 -3 -6 -7 -6h-133v-162c-1 -5 -2 -6 -7 -6z" />
    <glyph glyph-name="florin" unicode="&#x192;" horiz-adv-x="457" 
d="M84 348v48c0 5 1 6 6 6h95l11 72c16 110 60 219 181 219c31 0 49 -3 66 -11c4 -2 4 -3 4 -8v-60c0 -4 -2 -5 -6 -4c-16 9 -31 12 -58 12c-63 0 -91 -58 -104 -151l-9 -69h112c4 0 5 -1 5 -5v-49c0 -5 -1 -5 -4 -5h-121l-34 -259c-17 -138 -65 -209 -168 -209
c-33 1 -58 6 -81 19c-4 2 -5 6 -5 10v64c0 3 3 6 7 4c25 -15 49 -21 70 -21c59 0 83 38 94 136l33 256h-88c-4 0 -6 1 -6 5z" />
    <glyph glyph-name="section" unicode="&#xa7;" horiz-adv-x="490" 
d="M324 -12c34 32 54 78 54 131c0 61 -25 126 -123 228c-109 113 -122 147 -121 196c-27 -37 -40 -77 -39 -123c1 -69 36 -119 128 -224c76 -85 112 -144 101 -208zM57 -82v67c0 4 3 5 6 3c51 -36 100 -42 135 -42c41 0 66 12 66 40c0 41 -12 64 -99 161
c-95 108 -134 173 -134 262c0 145 108 262 246 262c58 0 92 -11 112 -25c3 -3 3 -4 3 -7v-64c0 -5 -4 -5 -7 -3c-35 22 -75 31 -114 31c-51 0 -77 -19 -77 -49c0 -25 6 -43 102 -141c83 -86 149 -162 149 -279c0 -148 -115 -261 -248 -261c-63 0 -115 19 -135 35
c-3 2 -5 4 -5 10z" />
    <glyph glyph-name="currency" unicode="&#xa4;" horiz-adv-x="521" 
d="M141 318c0 -95 66 -132 119 -132c58 0 119 31 119 130c0 66 -39 134 -121 134c-72 0 -117 -56 -117 -132zM75 317c0 51 17 86 36 112l-70 69c-2 2 -3 5 0 8l34 34c2 3 5 2 8 0l69 -68c27 21 62 36 107 36c46 0 82 -15 110 -36l71 67c2 3 5 3 8 0l32 -34c3 -3 2 -5 0 -7
l-70 -69c20 -26 36 -66 36 -113c0 -51 -14 -84 -34 -110l68 -68c2 -2 3 -5 0 -7l-33 -33c-3 -3 -6 -3 -9 0l-65 67c-24 -19 -65 -37 -113 -37c-51 0 -88 17 -112 36l-64 -66c-3 -3 -5 -4 -8 -1l-33 33c-4 3 -3 5 -1 8l67 67c-20 27 -34 61 -34 112z" />
    <glyph glyph-name="quotesingle" unicode="'" horiz-adv-x="164" 
d="M42 471l1 240c0 4 1 6 6 6h69c4 0 5 -2 4 -5l-13 -241c0 -5 -3 -5 -6 -5h-55c-4 0 -6 2 -6 5z" />
    <glyph glyph-name="quotedblleft" unicode="&#x201c;" horiz-adv-x="302" 
d="M222 717h54c4 0 5 -2 4 -6c-25 -66 -37 -118 -37 -176c0 -23 2 -46 5 -64c0 -3 -1 -6 -5 -6h-55c-5 0 -7 2 -8 7c-5 17 -7 40 -7 64c0 55 14 117 43 177c1 3 2 4 6 4zM79 717h54c4 0 5 -2 4 -6c-25 -66 -37 -118 -37 -176c0 -23 2 -46 5 -64c0 -3 -1 -6 -5 -6h-55
c-4 0 -7 2 -8 7c-5 17 -7 40 -7 64c0 55 14 117 43 177c1 3 2 4 6 4z" />
    <glyph glyph-name="guillemotleft" unicode="&#xab;" horiz-adv-x="540" 
d="M55 223v43c0 4 1 6 4 7l201 174c5 2 8 1 8 -5v-65c0 -4 -1 -6 -5 -9l-139 -124l140 -125c3 -2 4 -5 4 -9v-68c0 -5 -3 -7 -8 -4l-201 177c-3 2 -4 4 -4 8zM270 223v43c0 4 2 5 5 6l201 175c4 2 7 1 7 -5v-65c0 -4 -1 -6 -5 -9l-139 -124l139 -124c4 -4 4 -5 4 -10v-68
c0 -5 -2 -7 -7 -4l-201 177c-2 2 -4 4 -4 8z" />
    <glyph glyph-name="guilsinglleft" unicode="&#x2039;" horiz-adv-x="325" 
d="M55 223v43c0 4 1 6 4 7l201 174c5 2 8 1 8 -5v-65c0 -4 -1 -6 -5 -9l-139 -124l140 -125c3 -2 4 -5 4 -9v-68c0 -5 -3 -7 -8 -4l-201 177c-3 2 -4 4 -4 8z" />
    <glyph glyph-name="guilsinglright" unicode="&#x203a;" horiz-adv-x="325" 
d="M271 262v-44c0 -3 -2 -5 -5 -7l-201 -173c-4 -3 -7 -1 -7 4v65c0 5 0 7 5 10l139 124l-140 124c-3 3 -4 5 -4 9v68c0 6 2 7 7 5l202 -177c2 -2 4 -5 4 -8z" />
    <glyph glyph-name="endash" unicode="&#x2013;" horiz-adv-x="570" 
d="M79 278c0 4 1 5 5 5h404c3 0 5 -1 5 -5v-53c0 -4 -2 -5 -6 -5h-403c-4 0 -5 1 -5 5v53z" />
    <glyph glyph-name="dagger" unicode="&#x2020;" horiz-adv-x="400" 
d="M219 -78h-50c-4 0 -5 2 -5 7v421h-143c-3 0 -5 1 -5 4v47c0 4 1 4 5 4h143v182c0 5 1 7 6 7h49c4 0 6 -1 6 -6v-183h139c4 0 6 -1 6 -5v-43c0 -5 0 -7 -7 -7h-138v-422c0 -5 -1 -6 -6 -6z" />
    <glyph glyph-name="daggerdbl" unicode="&#x2021;" horiz-adv-x="400" 
d="M219 -78h-50c-4 0 -5 2 -5 6v226h-142c-4 0 -6 1 -6 5v46c0 3 2 4 6 4h142v149h-142c-4 0 -6 1 -6 5v46c0 3 1 4 6 4h142v174c0 5 1 7 5 7h50c4 0 6 -1 6 -6v-175h139c5 0 6 -1 6 -6v-42c0 -6 -1 -7 -6 -7h-139v-149h139c4 0 6 -1 6 -5v-43c0 -5 -1 -7 -6 -7h-139v-227
c0 -4 -2 -5 -6 -5z" />
    <glyph glyph-name="periodcentered" unicode="&#xb7;" horiz-adv-x="221" 
d="M111 198c-32 0 -54 21 -54 55c0 31 22 54 54 54s54 -23 54 -54c0 -33 -21 -55 -54 -55z" />
    <glyph glyph-name="paragraph" unicode="&#xb6;" horiz-adv-x="576" 
d="M310 661h169c3 0 5 -2 5 -5c-2 -12 -3 -35 -3 -53l-2 -484c0 -116 0 -154 5 -186c1 -4 -1 -5 -5 -5h-39c-4 0 -6 1 -7 4c-5 24 -7 70 -7 218v451l-71 -1v-451c0 -140 -2 -193 -8 -218c-1 -3 -2 -4 -6 -4h-40c-3 0 -5 2 -4 6c4 36 5 111 5 185v196
c-134 -6 -271 39 -271 175c0 112 85 172 279 172z" />
    <glyph glyph-name="bullet" unicode="&#x2022;" horiz-adv-x="320" 
d="M72 252c0 48 32 87 88 87c55 0 87 -40 87 -87c0 -48 -31 -86 -87 -86c-55 0 -88 38 -88 86z" />
    <glyph glyph-name="quotesinglbase" unicode="&#x201a;" horiz-adv-x="171" 
d="M84 -137h-57c-4 0 -6 2 -4 6c24 66 37 118 37 176c0 23 -2 46 -5 64c0 3 0 6 4 6h60c4 0 7 -2 8 -7c4 -17 6 -39 6 -64c0 -55 -13 -116 -42 -177c-2 -3 -3 -4 -7 -4z" />
    <glyph glyph-name="quotedblbase" unicode="&#x201e;" horiz-adv-x="305" 
d="M76 -137h-54c-4 0 -5 2 -4 6c25 66 37 118 37 176c0 23 -2 46 -5 64c0 3 1 6 5 6h55c4 0 7 -2 8 -7c5 -17 7 -39 7 -64c0 -55 -14 -116 -43 -177c-1 -3 -2 -4 -6 -4zM219 -137h-54c-4 0 -5 2 -4 6c25 66 37 118 37 176c0 23 -2 46 -5 64c0 3 1 6 5 6h55c4 0 7 -2 8 -7
c5 -17 7 -39 7 -64c0 -55 -14 -116 -43 -177c-1 -3 -2 -4 -6 -4z" />
    <glyph glyph-name="quotedblright" unicode="&#x201d;" horiz-adv-x="302" 
d="M80 465h-54c-4 0 -6 2 -4 6c25 66 37 118 37 177c0 23 -2 46 -5 63c0 4 1 6 4 6h56c4 0 7 -2 8 -6c4 -17 6 -40 6 -64c0 -56 -13 -117 -42 -178c-2 -3 -2 -4 -6 -4zM223 465h-54c-4 0 -6 2 -4 6c24 66 37 118 37 177c0 23 -2 46 -5 63c0 4 1 6 4 6h56c4 0 7 -2 8 -6
c4 -17 6 -40 6 -64c0 -56 -13 -117 -42 -178c-2 -3 -3 -4 -6 -4z" />
    <glyph glyph-name="guillemotright" unicode="&#xbb;" horiz-adv-x="540" 
d="M485 262v-44c0 -3 -1 -5 -4 -7l-201 -173c-5 -3 -8 -1 -8 4v65c0 5 1 7 5 10l139 124l-139 124c-3 3 -5 5 -5 9v68c0 6 3 7 8 5l201 -177c3 -2 4 -5 4 -8zM270 262v-44c0 -3 -2 -4 -5 -5l-201 -175c-4 -3 -6 -1 -6 4v65c0 5 0 7 4 10l139 124l-139 124c-3 3 -4 4 -4 9v68
c0 6 2 7 7 5l201 -177c2 -2 4 -5 4 -8z" />
    <glyph glyph-name="ellipsis" unicode="&#x2026;" horiz-adv-x="799" 
d="M647 -10c-32 0 -54 21 -54 55c0 31 22 54 54 54s54 -23 54 -54c0 -33 -21 -55 -54 -55zM111 -10c-31 0 -53 21 -53 55c0 31 21 54 53 54c33 0 54 -23 54 -54c0 -33 -20 -55 -54 -55zM381 -10c-32 0 -54 21 -54 55c0 31 22 54 54 54s54 -23 54 -54c0 -33 -20 -55 -54 -55z
" />
    <glyph glyph-name="perthousand" unicode="&#x2030;" horiz-adv-x="1168" 
d="M972 358c105 0 156 -79 156 -183c0 -88 -47 -185 -157 -185c-107 0 -156 86 -156 183c0 114 71 185 157 185zM881 174c0 -68 31 -124 92 -124c55 0 88 44 88 125c0 74 -31 124 -89 124c-51 0 -91 -44 -91 -125zM658 631l-436 -626c-2 -4 -5 -5 -10 -5h-56c-3 0 -5 4 -2 7
l437 625c3 4 5 5 10 5h55c4 0 4 -4 2 -6zM197 647c105 0 155 -79 155 -183c0 -91 -46 -185 -156 -185c-108 0 -156 85 -156 183c0 114 71 185 157 185zM106 463c0 -68 31 -124 92 -124c55 0 88 46 88 125c0 74 -32 124 -89 124c-51 0 -91 -43 -91 -125zM620 358
c105 0 156 -79 156 -183c0 -88 -47 -185 -157 -185c-107 0 -156 86 -156 183c0 114 70 185 157 185zM529 174c0 -68 31 -124 92 -124c55 0 88 44 88 125c0 74 -31 124 -89 124c-51 0 -91 -44 -91 -125z" />
    <glyph glyph-name="questiondown" unicode="&#xbf;" horiz-adv-x="353" 
d="M196 -190c-110 0 -171 67 -171 154c0 64 29 105 65 141c39 39 78 74 78 109c0 20 -7 41 -20 61c-2 3 -1 7 4 7h60c3 0 6 0 10 -4c18 -22 24 -50 24 -71c0 -49 -35 -82 -82 -131c-36 -37 -54 -62 -54 -102c0 -50 32 -85 99 -85c52 0 91 15 123 35c3 1 6 0 6 -4v-67
c0 -3 0 -6 -3 -8c-22 -13 -72 -35 -139 -35zM187 491c30 0 51 -19 51 -51c0 -30 -21 -51 -51 -51c-31 0 -51 22 -51 51c0 31 19 51 51 51z" />
    <glyph glyph-name="grave" unicode="`" 
d="M149 705l107 -144c2 -3 0 -6 -4 -6h-67c-4 0 -6 3 -8 5l-122 142c-2 4 -1 7 2 7h84c4 0 6 -1 8 -4z" />
    <glyph glyph-name="acute" unicode="&#xb4;" 
d="M152 561l104 142c2 5 5 7 8 7h80c5 0 7 -3 4 -7l-118 -143c-2 -3 -5 -4 -9 -4h-66c-3 0 -4 2 -3 5z" />
    <glyph glyph-name="circumflex" unicode="&#x2c6;" 
d="M261 559l-70 102l-70 -103c-1 -2 -3 -3 -7 -3h-55c-4 0 -5 4 -3 7l97 138c3 4 4 4 7 4h65c5 0 6 -1 8 -4l100 -139c2 -3 0 -6 -4 -6h-59c-5 0 -7 1 -9 4z" />
    <glyph glyph-name="tilde" unicode="&#x2dc;" 
d="M85 568h-47c-5 0 -6 3 -6 7c3 72 41 110 94 110c61 0 104 -54 139 -54c25 0 34 19 37 47c0 3 1 5 5 5h48c4 0 5 -1 5 -4c-4 -83 -40 -113 -89 -113c-56 0 -96 55 -140 55c-22 0 -37 -15 -42 -48c0 -1 -1 -5 -4 -5z" />
    <glyph glyph-name="macron" unicode="&#xaf;" 
d="M66 661h259c4 0 5 -1 5 -6v-51c0 -4 -2 -5 -5 -5h-259c-4 0 -5 2 -5 6v51c0 4 2 5 5 5z" />
    <glyph glyph-name="breve" unicode="&#x2d8;" 
d="M50 685h56c3 0 5 -1 5 -4c13 -35 38 -59 83 -59c39 0 72 18 85 58c1 4 2 5 5 5h56c3 0 4 -2 3 -5c-13 -73 -67 -121 -149 -121c-77 0 -133 40 -148 121c-1 4 1 5 4 5z" />
    <glyph glyph-name="dotaccent" unicode="&#x2d9;" 
d="M194 582c-31 0 -50 21 -50 51s21 51 51 51c31 0 50 -22 50 -51c0 -30 -20 -51 -51 -51z" />
    <glyph glyph-name="dieresis" unicode="&#xa8;" 
d="M102 587c-26 0 -45 18 -45 46c0 29 20 47 47 47c25 0 43 -19 43 -47s-20 -46 -45 -46zM285 587c-26 0 -45 18 -45 46c0 29 21 47 46 47c26 0 44 -19 44 -47c0 -27 -19 -46 -45 -46z" />
    <glyph glyph-name="ring" unicode="&#x2da;" 
d="M96 637c0 54 40 90 98 90s100 -36 100 -90c0 -56 -43 -92 -100 -92c-58 0 -98 34 -98 92zM144 637c0 -31 22 -49 50 -49c27 0 50 17 50 49c0 30 -23 49 -50 49c-28 0 -50 -18 -50 -49z" />
    <glyph glyph-name="cedilla" unicode="&#xb8;" 
d="M178 5h55l-35 -50c61 -17 86 -48 86 -91c0 -53 -45 -88 -106 -88c-27 0 -53 6 -69 14c-3 2 -4 3 -4 8v37c0 4 2 6 6 5c19 -10 43 -14 62 -14c30 0 49 11 49 36c0 27 -30 46 -94 55c-3 2 -3 15 -1 19z" />
    <glyph glyph-name="hungarumlaut" unicode="&#x2dd;" 
d="M80 564l75 139c2 5 5 7 11 7h61c5 0 6 -5 4 -8l-86 -141c-3 -4 -4 -6 -11 -6h-50c-6 0 -6 5 -4 9zM240 565l76 139c2 5 5 6 9 6h63c5 0 7 -5 4 -8l-86 -140c-3 -4 -5 -7 -13 -7h-47c-7 0 -9 5 -6 10z" />
    <glyph glyph-name="ogonek" unicode="&#x2db;" 
d="M87 -127c0 62 61 116 134 156h69c-86 -48 -125 -93 -125 -134c0 -32 23 -53 64 -53c22 0 43 3 56 8c4 2 6 0 6 -4v-45c0 -6 -2 -9 -6 -11c-19 -10 -50 -16 -78 -16c-56 0 -120 27 -120 99z" />
    <glyph glyph-name="caron" unicode="&#x2c7;" 
d="M128 701l71 -102l69 103c1 2 3 3 7 3h55c4 0 5 -4 3 -7l-97 -138c-3 -4 -4 -4 -7 -4h-65c-4 0 -6 1 -8 4l-99 139c-3 3 -1 6 3 6h59c5 0 7 -1 9 -4z" />
    <glyph glyph-name="emdash" unicode="&#x2014;" horiz-adv-x="996" 
d="M79 275c0 4 1 6 5 6h828c4 0 5 -1 5 -6v-52c0 -5 -1 -5 -5 -5h-826c-5 0 -7 0 -7 4v53z" />
    <glyph glyph-name="AE" unicode="&#xc6;" horiz-adv-x="799" 
d="M71 0h-77c-4 0 -6 3 -4 7l317 610c2 5 7 14 15 40c1 3 3 4 6 4h415c4 0 6 -2 6 -6l5 -65c1 -4 -1 -5 -5 -5h-287l16 -210h257c3 0 5 -1 4 -5l-2 -67c-1 -4 -3 -4 -6 -4h-247l18 -223h280c4 0 5 -2 5 -6l-13 -65c-2 -4 -3 -5 -7 -5h-338c-3 0 -5 0 -4 4l-18 222h-215
l-113 -221c-3 -4 -4 -5 -8 -5zM226 301h176l-15 194c-3 36 -6 75 -8 109h-2c-15 -36 -38 -82 -54 -117z" />
    <glyph glyph-name="ordfeminine" unicode="&#xaa;" horiz-adv-x="338" 
d="M160 584c86 0 131 -51 130 -122v-174c0 -4 -2 -6 -5 -7c-39 -13 -86 -21 -123 -21c-75 0 -139 30 -139 101c0 89 106 110 205 102v8c0 24 -12 59 -77 59c-28 0 -61 -6 -91 -21c-3 -1 -6 0 -6 4v44c0 2 1 3 3 4c31 15 71 23 103 23zM85 363c0 -33 28 -53 81 -53
c26 0 49 5 62 9v99c-75 5 -143 -4 -143 -55z" />
    <glyph glyph-name="Lslash" unicode="&#x141;" horiz-adv-x="479" 
d="M163 76h310c5 0 6 -3 5 -6l-12 -64c-1 -5 -4 -6 -8 -6h-370c-6 0 -8 3 -8 8v265l-79 -37c-3 -2 -5 -1 -5 3v52c0 3 1 5 4 6l80 38v319c0 4 1 7 6 7h72c4 0 5 -2 5 -6v-281l152 71c3 1 6 0 6 -5v-49c0 -4 -1 -7 -5 -8l-153 -71v-236z" />
    <glyph glyph-name="Oslash" unicode="&#xd8;" horiz-adv-x="683" 
d="M505 517l-288 -414c34 -25 77 -40 128 -40c136 0 216 109 216 269c0 75 -20 139 -56 185zM179 141l289 415c-35 27 -78 42 -128 42c-122 0 -219 -94 -219 -266c0 -74 20 -142 58 -191zM601 655l-49 -71c58 -61 89 -150 90 -250c1 -215 -126 -344 -299 -344
c-67 0 -124 18 -170 49l-25 -35c-2 -3 -4 -4 -7 -4h-53c-4 0 -5 3 -3 6l47 68c-60 61 -92 152 -92 258c0 201 127 339 301 339c67 0 125 -19 171 -52l27 39c2 2 4 3 7 3h51c5 0 6 -2 4 -6z" />
    <glyph glyph-name="OE" unicode="&#x152;" horiz-adv-x="895" 
d="M465 72v514c-18 3 -40 3 -76 3c-159 0 -264 -92 -264 -258c0 -178 107 -262 266 -262c41 0 55 0 74 3zM495 660h342c5 0 7 -1 8 -5l8 -63c0 -4 -1 -8 -6 -8h-298v-209h269c4 0 6 -1 6 -6v-64c0 -5 -3 -6 -6 -6h-269v-223h317c5 0 6 -2 5 -7l-10 -63c-1 -5 -3 -6 -12 -6
h-346c-35 -3 -69 -4 -121 -4c-208 0 -342 123 -342 333c0 217 154 334 354 334c47 0 78 -1 101 -3z" />
    <glyph glyph-name="ordmasculine" unicode="&#xba;" horiz-adv-x="370" 
d="M187 584c95 0 157 -68 157 -163c0 -100 -66 -161 -157 -161c-111 0 -161 83 -161 162c0 95 64 162 161 162zM186 531c-57 0 -91 -44 -91 -108c0 -55 30 -110 93 -110c47 0 90 33 90 108c0 50 -25 110 -92 110z" />
    <glyph glyph-name="ae" unicode="&#xe6;" horiz-adv-x="771" 
d="M114 145c0 -55 42 -86 106 -86c45 0 91 15 131 54c-10 24 -21 60 -21 118h-75c-83 0 -141 -24 -141 -86zM31 140c0 99 87 152 224 152h75v28c0 38 -16 102 -113 102c-44 0 -90 -11 -135 -37c-4 -2 -6 0 -6 5v63c0 4 1 5 3 7c46 23 100 36 152 36c75 0 127 -32 148 -88
c36 53 92 88 169 88c136 0 191 -111 191 -197c0 -33 -4 -61 -8 -63c-15 -5 -56 -6 -107 -6h-216c1 -98 55 -166 166 -167c50 0 86 7 125 28c3 2 6 0 6 -4v-60c0 -3 -1 -6 -5 -8c-39 -22 -84 -29 -138 -29c-77 0 -132 23 -174 71c-64 -54 -124 -71 -185 -71
c-86 0 -172 45 -172 150zM541 426c-76 0 -130 -53 -132 -135h204c33 0 43 2 45 3c2 3 2 11 2 19c0 42 -27 113 -119 113z" />
    <glyph glyph-name="dotlessi" unicode="&#x131;" horiz-adv-x="225" 
d="M70 8v471c0 5 2 7 7 7h71c4 0 6 -1 6 -6v-473c0 -5 -1 -7 -7 -7h-69c-5 0 -8 2 -8 8z" />
    <glyph glyph-name="lslash" unicode="&#x142;" horiz-adv-x="251" 
d="M163 465l74 39c4 2 6 1 6 -3v-39c0 -5 0 -13 -4 -15l-76 -40v-299c0 -39 16 -48 40 -48c7 0 11 1 20 3c3 0 4 -2 4 -6v-52c0 -5 -1 -6 -5 -8c-9 -4 -25 -7 -46 -7c-49 0 -96 17 -96 111v262l-56 -30c-4 -1 -7 0 -7 3v47c0 4 2 6 5 7l58 31v290c0 5 2 6 7 6h70
c5 0 6 -2 6 -6v-246z" />
    <glyph glyph-name="oslash" unicode="&#xf8;" horiz-adv-x="527" 
d="M382 359l-201 -271c23 -18 52 -28 86 -28c73 0 143 57 143 182c0 42 -9 84 -28 117zM148 124l203 272c-23 19 -53 30 -90 30c-86 0 -145 -74 -145 -181c0 -46 11 -88 32 -121zM472 480l-41 -55c40 -45 62 -108 62 -181c0 -152 -94 -254 -228 -254c-53 0 -96 14 -130 37
l-20 -27c-3 -4 -6 -4 -9 -4h-46c-4 0 -5 3 -2 7l42 56c-45 49 -65 118 -65 184c0 141 90 253 230 253c51 0 96 -14 131 -40l20 27c2 2 4 4 7 4h46c4 0 6 -3 3 -7z" />
    <glyph glyph-name="oe" unicode="&#x153;" horiz-adv-x="855" 
d="M35 240c0 148 94 252 228 252c85 0 153 -40 187 -118c42 94 119 118 182 118c138 0 192 -110 192 -199c0 -37 -4 -52 -8 -54c-15 -6 -34 -6 -108 -6h-215c-2 -95 50 -170 166 -170c40 0 83 6 125 27c3 2 5 -1 5 -5v-54c0 -6 0 -9 -4 -12c-37 -21 -82 -28 -141 -29
c-68 0 -155 22 -195 116c-43 -94 -122 -116 -186 -116c-161 0 -228 131 -228 250zM262 420c-85 0 -143 -68 -143 -177c0 -99 50 -181 148 -181c69 0 141 48 141 178c0 94 -41 180 -146 180zM494 294h201c40 0 48 2 49 6v14c0 35 -24 109 -119 109c-79 0 -123 -56 -131 -129z
" />
    <glyph glyph-name="germandbls" unicode="&#xdf;" horiz-adv-x="553" 
d="M157 0h-73c-4 0 -5 2 -5 6v408h-66c-3 0 -4 3 -4 7v59c0 5 2 6 5 6h65v12c0 126 68 229 211 229c144 0 201 -112 189 -223c-107 -26 -133 -70 -133 -98c0 -24 20 -42 67 -75c94 -68 110 -115 110 -176c0 -94 -75 -165 -197 -165c-48 0 -83 8 -107 22c-4 2 -5 6 -5 11v64
c0 4 2 5 5 3c31 -18 68 -27 109 -27c62 0 112 31 113 84c1 37 -15 71 -88 122c-67 47 -91 79 -91 126c0 64 62 117 137 145c0 58 -38 116 -110 116c-71 0 -126 -41 -126 -172l-1 -478c0 -4 -2 -6 -5 -6z" />
    <glyph glyph-name="logicalnot" unicode="&#xac;" horiz-adv-x="551" 
d="M34 386h479c4 0 6 -1 6 -6v-257c0 -4 -1 -5 -5 -5h-55c-4 0 -5 1 -5 5v200h-419c-4 0 -5 2 -5 6v52c0 4 2 5 4 5z" />
    <glyph glyph-name="uni00B5" unicode="&#xb5;" horiz-adv-x="546" 
d="M475 -10c-37 0 -83 9 -90 87v24c-31 -78 -87 -111 -150 -111c-30 0 -65 9 -86 38c2 -38 3 -148 2 -235c0 -5 -1 -6 -5 -7c-20 -3 -63 -7 -70 -7c-4 0 -6 1 -6 7v694c0 5 2 6 7 6h70c5 0 6 -1 6 -6v-322c0 -58 33 -95 86 -95c78 0 136 68 136 201v216c0 5 1 6 5 6h73
c4 0 5 -2 5 -6v-361c0 -47 14 -59 40 -59c7 0 11 1 20 3c3 0 3 -2 3 -6v-52c0 -5 0 -6 -4 -8c-10 -4 -25 -7 -42 -7z" />
    <glyph glyph-name="trademark" unicode="&#x2122;" horiz-adv-x="330" 
d="M65 493h-30c-3 0 -3 1 -3 3v136h-53c-2 0 -3 2 -3 3l3 24c2 2 2 2 4 2h136c1 0 2 0 2 -1l3 -25c1 -1 0 -3 -3 -3h-55v-136c0 -2 0 -3 -1 -3zM249 496h-28c-3 0 -4 1 -5 3c-19 65 -36 126 -38 139h-2c1 -21 0 -64 -5 -142c0 -2 0 -3 -2 -3h-27c-3 0 -4 1 -4 3l11 162
c0 2 1 3 4 3h44c1 0 2 0 3 -3c16 -50 34 -111 36 -125h2c1 10 22 75 40 126c1 2 2 2 4 2h41c3 0 4 -1 4 -3l6 -162c0 -2 0 -3 -2 -3h-29c-2 0 -3 0 -3 3c-2 106 -2 100 -1 141h-2c-2 -11 -25 -81 -44 -138c-1 -2 -1 -3 -3 -3z" />
    <glyph glyph-name="Eth" unicode="&#xd0;" horiz-adv-x="659" 
d="M171 311v-237c20 -1 55 -2 85 -2c161 0 275 88 276 269c0 166 -114 248 -265 248c-34 0 -67 -1 -96 -2v-214h179c4 0 5 0 5 -5v-52c0 -5 -2 -5 -6 -5h-178zM88 373v279c0 5 1 7 6 8c25 1 76 3 175 3c226 0 348 -131 348 -321c0 -253 -190 -344 -358 -344
c-56 0 -131 1 -166 2c-3 0 -5 3 -5 8v303h-74c-3 0 -5 1 -5 5v52c0 4 2 5 5 5h74z" />
    <glyph glyph-name="onehalf" unicode="&#xbd;" horiz-adv-x="733" 
d="M163 -10h-50c-4 0 -5 2 -4 6l362 646c2 3 4 3 6 3h52c3 0 4 -2 2 -4l-360 -646c-2 -3 -4 -5 -8 -5zM175 266h-57c-4 0 -5 1 -5 5v303c-26 -11 -48 -18 -70 -24c-3 -1 -5 1 -5 4v44c0 3 1 5 3 5c31 9 64 22 85 31c3 2 5 3 8 3h42c2 0 3 -2 3 -4v-362c0 -4 -1 -5 -4 -5z
M686 0h-257c-3 0 -4 1 -4 4v36c0 3 1 4 2 5c88 63 188 129 188 202c0 39 -20 71 -78 71c-38 0 -68 -8 -98 -27c-3 -2 -6 -1 -6 3v48c0 3 1 5 4 7c31 18 66 28 112 28c88 0 130 -57 130 -121c0 -80 -68 -136 -150 -198h169c3 0 3 -1 3 -4l-9 -50c-1 -3 -3 -4 -6 -4z" />
    <glyph glyph-name="plusminus" unicode="&#xb1;" horiz-adv-x="556" 
d="M251 609h55c3 0 5 -2 5 -6v-206h207c4 0 5 -1 5 -6v-50c0 -5 -2 -6 -6 -6h-206v-211c0 -3 -1 -5 -6 -5h-54c-4 0 -5 2 -5 5v211h-208c-3 0 -6 1 -6 6v51c0 4 3 5 6 5h208v207c0 3 1 5 5 5zM38 62h480c4 0 5 -1 5 -6v-50c0 -5 -2 -6 -6 -6h-479c-3 0 -6 1 -6 6v51
c0 4 3 5 6 5z" />
    <glyph glyph-name="Thorn" unicode="&#xde;" horiz-adv-x="521" 
d="M79 6v663c0 4 1 5 5 5h73c5 0 5 -2 5 -5v-129h94c141 0 229 -69 229 -196c0 -135 -97 -205 -250 -205h-73v-133c0 -3 -1 -6 -5 -6h-73c-3 0 -5 2 -5 6zM162 466v-254h75c116 0 165 48 165 128c0 77 -49 126 -154 126h-86z" />
    <glyph glyph-name="onequarter" unicode="&#xbc;" horiz-adv-x="697" 
d="M173 -10h-50c-4 0 -6 2 -4 5l362 647c2 3 3 3 5 3h52c3 0 4 -2 3 -4l-361 -646c-1 -3 -3 -5 -7 -5zM173 266h-57c-4 0 -4 1 -4 5v303c-26 -11 -49 -18 -70 -24c-4 -1 -5 1 -5 4v44c0 3 1 5 3 5c30 9 64 22 84 31c3 2 6 3 9 3h41c2 0 4 -2 4 -4v-362c0 -4 -2 -5 -5 -5z
M597 0h-49c-3 0 -4 2 -4 5v89h-172c-4 0 -5 2 -5 4v32c0 3 1 5 3 8c31 42 135 184 168 229c2 2 4 4 8 4h51c3 0 4 -1 4 -5v-223h63c3 0 4 -2 4 -5l-6 -40c-1 -3 -2 -4 -5 -4h-56v-89c0 -3 -1 -5 -4 -5zM427 142h117c0 123 1 148 2 168h-1c-16 -28 -101 -144 -118 -168z" />
    <glyph glyph-name="divide" unicode="&#xf7;" horiz-adv-x="551" 
d="M274 386c-25 0 -43 19 -42 46c0 25 17 45 44 45c26 0 43 -20 43 -45c0 -27 -16 -46 -45 -46zM274 41c-25 0 -43 20 -42 45c0 27 17 46 44 46c26 0 43 -19 43 -46c0 -25 -16 -45 -45 -45zM30 285c0 6 2 6 5 6h480c4 0 5 -1 5 -5v-50c0 -6 -1 -7 -5 -7h-479c-4 0 -6 2 -6 6
v50z" />
    <glyph glyph-name="brokenbar" unicode="&#xa6;" horiz-adv-x="205" 
d="M138 -196h-72v392h72v-392zM138 784v-392h-72v392h72z" />
    <glyph glyph-name="degree" unicode="&#xb0;" horiz-adv-x="272" 
d="M137 647c68 0 119 -52 119 -123s-49 -125 -119 -125s-121 55 -121 125c0 68 51 123 121 123zM137 601c-40 0 -71 -34 -71 -77c0 -45 31 -78 71 -78c41 0 71 33 71 78c0 43 -32 77 -71 77z" />
    <glyph glyph-name="thorn" unicode="&#xfe;" horiz-adv-x="538" 
d="M154 474c31 11 66 22 120 22c142 0 226 -104 226 -241c0 -175 -131 -265 -263 -265c-37 0 -65 6 -83 11v-220c0 -4 0 -6 -5 -7c-23 -3 -69 -7 -73 -8c-4 0 -5 1 -5 6v952c0 5 2 6 6 6h71c5 0 6 -1 6 -6v-250zM259 422c-50 0 -76 -9 -105 -19v-326c26 -10 56 -15 87 -15
c92 0 174 60 174 188c0 105 -60 172 -156 172z" />
    <glyph glyph-name="threequarters" unicode="&#xbe;" horiz-adv-x="730" 
d="M229 -10h-50c-4 0 -6 2 -4 6l362 646c2 3 3 3 5 3h52c3 0 4 -2 3 -4l-361 -646c-2 -3 -3 -5 -7 -5zM635 0h-48c-3 0 -4 2 -4 5v89h-173c-3 0 -4 2 -4 4v32c0 3 1 5 3 8c31 42 134 184 168 229c2 2 4 4 7 4h51c4 0 5 -1 5 -5v-223h63c3 0 4 -2 3 -5l-6 -40
c-1 -3 -2 -4 -5 -4h-55v-89c0 -3 -1 -5 -5 -5zM466 142h117c0 123 1 148 2 168h-1c-16 -28 -102 -144 -118 -168zM103 436v43c0 3 1 4 4 4h34c57 0 74 25 74 52c0 32 -26 52 -76 52c-29 0 -61 -7 -92 -26c-4 -2 -5 0 -5 3v47c0 3 1 4 3 6c29 17 67 26 107 26
c79 0 123 -42 123 -96c0 -43 -24 -69 -54 -82v-1c34 -10 72 -37 72 -92c0 -74 -67 -111 -146 -111c-44 0 -80 9 -107 24c-4 2 -4 5 -4 7v50c0 3 2 4 4 3c34 -20 69 -29 105 -29c59 0 85 26 85 57c0 40 -32 59 -90 59h-33c-2 0 -4 1 -4 4z" />
    <glyph glyph-name="registered" unicode="&#xae;" horiz-adv-x="227" 
d="M123 413c-74 0 -129 56 -129 129c0 72 55 129 129 129c73 0 128 -57 128 -129c0 -74 -55 -129 -128 -129zM125 439c61 0 99 44 99 103c0 58 -42 104 -102 104c-58 0 -100 -43 -100 -104c0 -58 42 -103 103 -103zM100 530v-47c0 -1 0 -3 -2 -3h-20c-3 0 -3 2 -3 3v125
c0 2 1 3 3 3h42c37 0 53 -14 53 -39c0 -18 -11 -29 -28 -35c5 -9 32 -41 39 -53c2 -1 1 -4 -1 -4h-23c-3 0 -5 1 -6 3c-7 9 -20 26 -33 44c-1 2 -3 3 -6 3h-15zM100 589v-38h17c23 0 29 8 29 19s-6 19 -27 19h-19z" />
    <glyph glyph-name="minus" unicode="&#x2212;" horiz-adv-x="551" 
d="M30 285c0 6 2 6 5 6h480c4 0 5 -1 5 -5v-50c0 -6 -1 -7 -5 -7h-479c-4 0 -6 2 -6 6v50z" />
    <glyph glyph-name="eth" unicode="&#xf0;" horiz-adv-x="533" 
d="M266 62c74 0 141 54 141 189c0 35 -4 51 -9 69c-2 6 -8 14 -11 17c-25 31 -65 49 -115 49c-88 0 -150 -55 -150 -161c0 -87 51 -163 144 -163zM441 650l-84 -47c86 -81 135 -197 135 -337c0 -176 -93 -276 -232 -276c-155 0 -223 122 -223 235c0 140 94 230 231 230
c46 0 86 -11 113 -35c-17 58 -52 105 -96 143l-144 -80c-3 -1 -6 0 -6 3v38c0 4 2 6 5 7l106 60c-46 29 -100 50 -157 62c-4 0 -6 2 -6 7v61c0 5 2 6 6 6s17 -1 25 -2c80 -16 150 -47 208 -91l119 67c3 1 4 0 4 -3v-40c0 -4 -1 -6 -4 -8z" />
    <glyph glyph-name="multiply" unicode="&#xd7;" horiz-adv-x="555" 
d="M44 464l32 33c3 3 6 3 10 0l192 -199l192 198c3 3 7 5 10 1l33 -35c3 -4 2 -6 -1 -9l-193 -196l194 -197c2 -2 4 -6 -1 -10l-32 -32c-5 -4 -7 -3 -10 0l-193 197l-191 -197c-2 -2 -4 -6 -8 -1l-35 34c-3 4 -3 6 1 10l193 195l-194 198c-2 3 -3 5 1 10z" />
    <glyph glyph-name="copyright" unicode="&#xa9;" horiz-adv-x="768" 
d="M52 331c0 190 143 335 332 335s331 -145 331 -335c0 -196 -141 -336 -331 -336c-191 0 -332 143 -332 336zM102 331c0 -169 123 -288 282 -288c169 0 282 121 281 288c-2 168 -125 289 -282 289c-168 0 -281 -127 -281 -289zM515 220v-48c0 -3 -1 -4 -5 -7
c-28 -15 -69 -22 -103 -22c-129 0 -197 89 -197 187c0 109 82 191 203 191c47 0 76 -9 94 -18c4 -1 4 -5 4 -8v-48c0 -3 -2 -6 -6 -4c-22 12 -52 20 -87 20c-86 0 -141 -53 -141 -130c0 -87 64 -131 140 -131c34 0 66 7 92 21c3 1 6 -1 6 -3z" />
    <glyph glyph-name="Aacute" unicode="&#xc1;" horiz-adv-x="586" 
d="M416 208h-254l-72 -202c-1 -4 -3 -6 -8 -6h-68c-5 0 -7 3 -6 8l218 607c3 8 6 15 7 41c0 3 2 5 5 5h98c4 0 5 -1 6 -5l235 -649c2 -4 1 -7 -4 -7h-76c-4 0 -6 2 -8 5zM185 285h208c-22 65 -85 240 -104 308h-1c-17 -64 -65 -198 -103 -308zM234 727l124 111c3 3 5 3 9 3
h88c5 0 5 -4 3 -7l-135 -108c-3 -4 -6 -5 -11 -5h-75c-4 0 -5 3 -3 6z" />
    <glyph glyph-name="Acircumflex" unicode="&#xc2;" horiz-adv-x="586" 
d="M416 208h-254l-72 -202c-1 -4 -3 -6 -8 -6h-68c-5 0 -7 3 -6 8l218 607c3 8 6 15 7 41c0 3 2 5 5 5h98c4 0 5 -1 6 -5l235 -649c2 -4 1 -7 -4 -7h-76c-4 0 -6 2 -8 5zM185 285h208c-22 65 -85 240 -104 308h-1c-17 -64 -65 -198 -103 -308zM360 717l-74 75l-72 -75
c-2 -3 -5 -5 -9 -5h-64c-4 0 -4 5 -2 8l107 111c3 2 4 3 8 3h68c5 0 8 -2 10 -4l112 -113c2 -3 0 -5 -4 -5h-69c-5 0 -8 2 -11 5z" />
    <glyph glyph-name="Adieresis" unicode="&#xc4;" horiz-adv-x="586" 
d="M416 208h-254l-72 -202c-1 -4 -3 -6 -8 -6h-68c-5 0 -7 3 -6 8l218 607c3 8 6 15 7 41c0 3 2 5 5 5h98c4 0 5 -1 6 -5l235 -649c2 -4 1 -7 -4 -7h-76c-4 0 -6 2 -8 5zM185 285h208c-22 65 -85 240 -104 308h-1c-17 -64 -65 -198 -103 -308zM192 725c-28 0 -47 18 -47 45
s21 46 49 46c29 0 47 -21 47 -46c0 -27 -20 -45 -49 -45zM384 725c-27 0 -47 18 -47 45c0 26 22 46 49 46s47 -20 47 -46c0 -28 -19 -45 -49 -45z" />
    <glyph glyph-name="Agrave" unicode="&#xc0;" horiz-adv-x="586" 
d="M416 208h-254l-72 -202c-1 -4 -3 -6 -8 -6h-68c-5 0 -7 3 -6 8l218 607c3 8 6 15 7 41c0 3 2 5 5 5h98c4 0 5 -1 6 -5l235 -649c2 -4 1 -7 -4 -7h-76c-4 0 -6 2 -8 5zM185 285h208c-22 65 -85 240 -104 308h-1c-17 -64 -65 -198 -103 -308zM214 838l120 -108
c3 -5 1 -7 -4 -7h-72c-5 0 -8 1 -12 4l-134 108c-4 3 -2 7 3 7h89c4 0 7 -1 10 -4z" />
    <glyph glyph-name="Aring" unicode="&#xc5;" horiz-adv-x="586" 
d="M416 208h-254l-72 -202c-1 -4 -3 -6 -8 -6h-68c-5 0 -7 3 -6 8l218 607c3 8 6 15 7 41c0 3 2 5 5 5h98c4 0 5 -1 6 -5l235 -649c2 -4 1 -7 -4 -7h-76c-4 0 -6 2 -8 5zM185 285h208c-22 65 -85 240 -104 308h-1c-17 -64 -65 -198 -103 -308zM185 780c0 53 44 86 103 86
c61 0 103 -36 103 -86c0 -53 -43 -88 -103 -88c-62 0 -103 35 -103 88zM235 780c0 -28 22 -47 53 -47c32 0 54 18 54 47c0 28 -23 46 -54 46c-32 0 -53 -18 -53 -46z" />
    <glyph glyph-name="Atilde" unicode="&#xc3;" horiz-adv-x="586" 
d="M416 208h-254l-72 -202c-1 -4 -3 -6 -8 -6h-68c-5 0 -7 3 -6 8l218 607c3 8 6 15 7 41c0 3 2 5 5 5h98c4 0 5 -1 6 -5l235 -649c2 -4 1 -7 -4 -7h-76c-4 0 -6 2 -8 5zM185 285h208c-22 65 -85 240 -104 308h-1c-17 -64 -65 -198 -103 -308zM189 719h-48c-5 0 -6 2 -6 5
c1 68 41 109 92 109c62 0 89 -54 126 -54c21 0 32 18 35 46c0 3 1 5 5 5h48c4 0 6 -1 6 -5c-5 -82 -44 -108 -88 -108c-59 0 -87 54 -126 54c-19 0 -36 -16 -39 -48c0 -2 -2 -4 -5 -4z" />
    <glyph glyph-name="Ccedilla" unicode="&#xc7;" horiz-adv-x="551" 
d="M278 -64l43 58c-147 20 -281 121 -281 338c0 200 138 339 351 339c67 0 106 -7 128 -18c3 -1 5 -4 5 -8v-67c0 -6 -4 -6 -7 -5c-28 15 -73 23 -128 23c-157 0 -264 -102 -264 -262c0 -209 157 -268 262 -268c51 0 88 4 125 18c4 1 6 1 6 -4v-61c0 -5 -1 -9 -5 -10
c-33 -14 -79 -19 -135 -19h-4l-25 -35c60 -17 86 -48 86 -91c0 -54 -45 -88 -106 -88c-27 0 -53 6 -69 14c-3 1 -4 3 -4 7v39c0 3 1 5 5 4c19 -10 44 -14 63 -14c30 0 49 11 49 36c0 27 -31 46 -94 55c-3 2 -3 15 -1 19z" />
    <glyph glyph-name="Eacute" unicode="&#xc9;" horiz-adv-x="509" 
d="M486 70l-11 -64c-1 -5 -3 -6 -7 -6h-380c-7 0 -8 2 -8 8v646c0 5 2 7 7 7h365c5 0 6 -1 7 -6l8 -63c1 -4 0 -7 -5 -7h-299v-209h270c4 0 6 -2 6 -6v-64c0 -5 -3 -6 -6 -6h-270v-224h318c5 0 6 -2 5 -6zM206 728l124 110c3 3 6 4 10 4h88c4 0 5 -4 2 -7l-134 -109
c-4 -3 -6 -4 -11 -4h-75c-5 0 -6 3 -4 6z" />
    <glyph glyph-name="Ecircumflex" unicode="&#xca;" horiz-adv-x="509" 
d="M486 70l-11 -64c-1 -5 -3 -6 -7 -6h-380c-7 0 -8 2 -8 8v646c0 5 2 7 7 7h365c5 0 6 -1 7 -6l8 -63c1 -4 0 -7 -5 -7h-299v-209h270c4 0 6 -2 6 -6v-64c0 -5 -3 -6 -6 -6h-270v-224h318c5 0 6 -2 5 -6zM338 723l-74 75l-72 -75c-2 -3 -5 -5 -9 -5h-65c-3 0 -4 5 -2 8
l107 111c3 2 5 3 8 3h68c5 0 9 -2 10 -4l112 -113c2 -3 1 -5 -3 -5h-70c-5 0 -8 2 -10 5z" />
    <glyph glyph-name="Edieresis" unicode="&#xcb;" horiz-adv-x="509" 
d="M486 70l-11 -64c-1 -5 -3 -6 -7 -6h-380c-7 0 -8 2 -8 8v646c0 5 2 7 7 7h365c5 0 6 -1 7 -6l8 -63c1 -4 0 -7 -5 -7h-299v-209h270c4 0 6 -2 6 -6v-64c0 -5 -3 -6 -6 -6h-270v-224h318c5 0 6 -2 5 -6zM169 733c-28 0 -48 18 -48 45c0 26 22 45 49 45c29 0 48 -20 48 -45
c0 -27 -21 -45 -49 -45zM361 733c-28 0 -47 18 -47 45c0 26 21 45 48 45c28 0 48 -19 48 -45c0 -28 -20 -45 -49 -45z" />
    <glyph glyph-name="Egrave" unicode="&#xc8;" horiz-adv-x="509" 
d="M486 70l-11 -64c-1 -5 -3 -6 -7 -6h-380c-7 0 -8 2 -8 8v646c0 5 2 7 7 7h365c5 0 6 -1 7 -6l8 -63c1 -4 0 -7 -5 -7h-299v-209h270c4 0 6 -2 6 -6v-64c0 -5 -3 -6 -6 -6h-270v-224h318c5 0 6 -2 5 -6zM206 836l120 -107c3 -5 1 -7 -4 -7h-72c-5 0 -8 1 -12 4l-134 108
c-4 3 -2 7 3 7h89c4 0 7 -1 10 -5z" />
    <glyph glyph-name="Iacute" unicode="&#xcd;" horiz-adv-x="244" 
d="M163 655v-648c0 -5 -1 -7 -6 -7h-70c-5 0 -7 2 -7 7v647c0 5 2 7 6 7h71c4 0 6 -2 6 -6zM72 728l124 110c3 4 5 4 9 4h88c5 0 5 -4 3 -7l-135 -108c-3 -4 -6 -5 -11 -5h-75c-4 0 -6 3 -3 6z" />
    <glyph glyph-name="Icircumflex" unicode="&#xce;" horiz-adv-x="244" 
d="M163 655v-648c0 -5 -1 -7 -6 -7h-70c-5 0 -7 2 -7 7v647c0 5 2 7 6 7h71c4 0 6 -2 6 -6zM191 713l-74 75l-72 -75c-2 -3 -5 -5 -9 -5h-64c-4 0 -5 5 -2 8l107 111c2 2 4 3 7 3h69c4 0 8 -1 10 -4l111 -113c3 -2 1 -5 -3 -5h-70c-5 0 -8 2 -10 5z" />
    <glyph glyph-name="Idieresis" unicode="&#xcf;" horiz-adv-x="244" 
d="M163 655v-648c0 -5 -1 -7 -6 -7h-70c-5 0 -7 2 -7 7v647c0 5 2 7 6 7h71c4 0 6 -2 6 -6zM25 727c-28 0 -48 18 -48 45c0 26 22 45 49 45c29 0 48 -20 48 -45c0 -27 -21 -45 -49 -45zM217 727c-28 0 -47 17 -47 45c0 26 21 45 48 45c28 0 48 -19 48 -45
c0 -28 -20 -45 -49 -45z" />
    <glyph glyph-name="Igrave" unicode="&#xcc;" horiz-adv-x="244" 
d="M163 655v-648c0 -5 -1 -7 -6 -7h-70c-5 0 -7 2 -7 7v647c0 5 2 7 6 7h71c4 0 6 -2 6 -6zM48 837l119 -108c4 -4 1 -7 -4 -7h-71c-5 0 -8 1 -12 5l-135 107c-3 4 -1 7 3 7h89c5 0 7 0 11 -4z" />
    <glyph glyph-name="Ntilde" unicode="&#xd1;" horiz-adv-x="671" 
d="M153 0h-66c-4 0 -7 1 -7 7v648c0 4 1 6 6 6h99c5 0 6 -2 9 -6c87 -147 279 -472 319 -550h1c-2 27 -3 65 -3 152v397c0 5 2 7 7 7h66c5 0 7 -3 7 -8v-646c0 -5 -2 -7 -9 -7h-89c-6 0 -9 1 -11 6c-45 84 -294 497 -326 571h-1c2 -39 4 -88 4 -176v-394c0 -5 -2 -7 -6 -7z
M239 725h-48c-5 0 -6 2 -6 5c1 69 42 109 92 109c62 0 90 -54 126 -54c21 0 32 19 35 47c1 3 2 4 6 4h48c3 0 5 -1 5 -4c-5 -82 -44 -108 -88 -108c-58 0 -86 53 -126 53c-19 0 -36 -15 -39 -47c0 -3 -1 -5 -5 -5z" />
    <glyph glyph-name="Oacute" unicode="&#xd3;" horiz-adv-x="683" 
d="M341 671c188 0 300 -148 301 -337c1 -215 -126 -344 -299 -344c-191 0 -303 145 -303 342c0 201 127 339 301 339zM125 332c0 -145 76 -267 220 -267c133 0 212 108 211 267c0 155 -85 264 -216 264c-120 0 -215 -93 -215 -264zM277 734l123 110c4 3 6 3 10 3h88
c4 0 5 -4 2 -7l-134 -108c-3 -4 -6 -5 -11 -5h-75c-4 0 -6 4 -3 7z" />
    <glyph glyph-name="Ocircumflex" unicode="&#xd4;" horiz-adv-x="683" 
d="M341 671c188 0 300 -148 301 -337c1 -215 -126 -344 -299 -344c-191 0 -303 145 -303 342c0 201 127 339 301 339zM125 332c0 -145 76 -267 220 -267c133 0 212 108 211 267c0 155 -85 264 -216 264c-120 0 -215 -93 -215 -264zM410 727l-74 75l-72 -75
c-2 -3 -5 -5 -9 -5h-64c-4 0 -4 5 -2 8l107 111c3 2 4 3 8 3h68c5 0 8 -1 10 -4l111 -113c3 -3 1 -5 -3 -5h-69c-5 0 -8 2 -11 5z" />
    <glyph glyph-name="Odieresis" unicode="&#xd6;" horiz-adv-x="683" 
d="M341 671c188 0 300 -148 301 -337c1 -215 -126 -344 -299 -344c-191 0 -303 145 -303 342c0 201 127 339 301 339zM125 332c0 -145 76 -267 220 -267c133 0 212 108 211 267c0 155 -85 264 -216 264c-120 0 -215 -93 -215 -264zM244 738c-28 0 -47 18 -47 45
c0 26 21 45 49 45s47 -20 47 -45c0 -27 -20 -45 -49 -45zM436 738c-27 0 -47 18 -47 45c0 26 22 45 49 45s47 -19 47 -45c0 -28 -20 -45 -49 -45z" />
    <glyph glyph-name="Ograve" unicode="&#xd2;" horiz-adv-x="683" 
d="M341 671c188 0 300 -148 301 -337c1 -215 -126 -344 -299 -344c-191 0 -303 145 -303 342c0 201 127 339 301 339zM125 332c0 -145 76 -267 220 -267c133 0 212 108 211 267c0 155 -85 264 -216 264c-120 0 -215 -93 -215 -264zM280 846l120 -108c3 -4 1 -7 -4 -7h-72
c-4 0 -7 1 -12 5l-134 107c-3 4 -1 7 3 7h89c5 0 7 0 10 -4z" />
    <glyph glyph-name="Otilde" unicode="&#xd5;" horiz-adv-x="683" 
d="M341 671c188 0 300 -148 301 -337c1 -215 -126 -344 -299 -344c-191 0 -303 145 -303 342c0 201 127 339 301 339zM125 332c0 -145 76 -267 220 -267c133 0 212 108 211 267c0 155 -85 264 -216 264c-120 0 -215 -93 -215 -264zM240 732h-48c-5 0 -6 2 -6 5
c1 68 42 109 92 109c62 0 90 -54 126 -54c21 0 32 18 35 46c1 3 2 5 6 5h48c3 0 5 -1 5 -5c-5 -82 -44 -108 -88 -108c-58 0 -86 54 -126 54c-19 0 -36 -16 -39 -48c0 -2 -2 -4 -5 -4z" />
    <glyph glyph-name="Scaron" unicode="&#x160;" horiz-adv-x="478" 
d="M212 -10c-69 0 -130 15 -169 38c-5 2 -6 6 -6 12v72c0 4 3 6 7 3c52 -35 116 -49 171 -49c96 0 140 43 140 103c0 47 -27 82 -118 123l-44 18c-124 53 -152 116 -152 183c0 104 80 178 215 178c63 0 117 -10 148 -27c4 -2 5 -5 5 -10v-67c0 -4 -3 -7 -8 -4
c-35 22 -90 33 -147 33c-104 0 -132 -54 -132 -96c0 -45 26 -79 115 -117l43 -18c123 -52 159 -114 159 -189c0 -108 -81 -186 -227 -186zM168 844l74 -75l72 75c2 2 5 5 9 5h64c4 0 4 -6 2 -8l-107 -111c-3 -3 -4 -3 -8 -3h-68c-5 0 -8 1 -10 4l-112 113c-2 2 0 5 3 5h70
c5 0 8 -2 11 -5z" />
    <glyph glyph-name="Uacute" unicode="&#xda;" horiz-adv-x="641" 
d="M154 655v-411c0 -110 60 -179 169 -179c84 0 164 37 164 181v408c0 5 2 7 6 7h71c5 0 7 -2 7 -7v-409c0 -184 -109 -255 -251 -255c-151 0 -249 82 -249 249v415c0 4 1 7 6 7h71c4 0 6 -2 6 -6zM255 729l123 110c4 3 6 3 10 3h88c4 0 5 -4 2 -7l-134 -108
c-3 -4 -6 -5 -11 -5h-75c-4 0 -6 4 -3 7z" />
    <glyph glyph-name="Ucircumflex" unicode="&#xdb;" horiz-adv-x="641" 
d="M154 655v-411c0 -110 60 -179 169 -179c84 0 164 37 164 181v408c0 5 2 7 6 7h71c5 0 7 -2 7 -7v-409c0 -184 -109 -255 -251 -255c-151 0 -249 82 -249 249v415c0 4 1 7 6 7h71c4 0 6 -2 6 -6zM392 724l-74 75l-72 -75c-2 -3 -5 -4 -9 -4h-64c-4 0 -4 5 -2 7l107 111
c3 3 4 3 8 3h68c5 0 8 -1 10 -4l111 -112c3 -3 1 -5 -3 -5h-69c-6 0 -8 1 -11 4z" />
    <glyph glyph-name="Udieresis" unicode="&#xdc;" horiz-adv-x="641" 
d="M154 655v-411c0 -110 60 -179 169 -179c84 0 164 37 164 181v408c0 5 2 7 6 7h71c5 0 7 -2 7 -7v-409c0 -184 -109 -255 -251 -255c-151 0 -249 82 -249 249v415c0 4 1 7 6 7h71c4 0 6 -2 6 -6zM224 732c-28 0 -47 18 -47 45c0 26 21 45 49 45c29 0 47 -20 47 -45
c0 -27 -20 -45 -49 -45zM416 732c-27 0 -47 17 -47 45c0 26 22 45 49 45s48 -19 48 -45c0 -28 -20 -45 -50 -45z" />
    <glyph glyph-name="Ugrave" unicode="&#xd9;" horiz-adv-x="641" 
d="M154 655v-411c0 -110 60 -179 169 -179c84 0 164 37 164 181v408c0 5 2 7 6 7h71c5 0 7 -2 7 -7v-409c0 -184 -109 -255 -251 -255c-151 0 -249 82 -249 249v415c0 4 1 7 6 7h71c4 0 6 -2 6 -6zM264 841l120 -108c3 -4 1 -7 -4 -7h-72c-4 0 -7 1 -12 5l-134 107
c-3 4 -1 7 3 7h89c5 0 7 0 10 -4z" />
    <glyph glyph-name="Yacute" unicode="&#xdd;" horiz-adv-x="517" 
d="M209 271l-220 383c-3 4 1 7 5 7h81c5 0 6 -2 8 -4c124 -224 164 -295 179 -329c17 34 56 107 176 328c2 4 4 5 8 5h79c4 0 5 -3 3 -6l-221 -386c-6 -9 -8 -15 -8 -26v-236c0 -5 -2 -7 -7 -7h-68c-7 0 -9 2 -9 7v239c0 11 0 16 -6 25zM197 728l124 110c3 4 6 4 9 4h89
c4 0 4 -4 2 -7l-134 -108c-4 -4 -6 -5 -11 -5h-75c-5 0 -6 3 -4 6z" />
    <glyph glyph-name="Ydieresis" unicode="&#x178;" horiz-adv-x="517" 
d="M209 271l-220 383c-3 4 1 7 5 7h81c5 0 6 -2 8 -4c124 -224 164 -295 179 -329c17 34 56 107 176 328c2 4 4 5 8 5h79c4 0 5 -3 3 -6l-221 -386c-6 -9 -8 -15 -8 -26v-236c0 -5 -2 -7 -7 -7h-68c-7 0 -9 2 -9 7v239c0 11 0 16 -6 25zM166 720c-28 0 -47 18 -47 45
c0 26 21 45 49 45c29 0 47 -20 47 -45c0 -27 -20 -45 -49 -45zM358 720c-27 0 -47 18 -47 45c0 26 22 45 49 45s47 -19 47 -45c0 -28 -19 -45 -49 -45z" />
    <glyph glyph-name="Zcaron" unicode="&#x17d;" horiz-adv-x="530" 
d="M499 0h-479c-4 0 -7 1 -7 6v46c0 4 1 6 3 10l383 523h-368c-4 0 -6 1 -5 7l11 63c1 5 3 6 8 6h455c5 0 6 -2 6 -5v-48c0 -4 -1 -8 -5 -12l-379 -520h392c5 0 6 -2 5 -7l-13 -63c-1 -4 -2 -6 -7 -6zM191 842l73 -76l72 75c3 3 5 5 9 5h65c4 0 4 -5 2 -7l-107 -112
c-3 -2 -4 -3 -8 -3h-68c-5 0 -9 2 -10 4l-112 113c-2 3 0 5 3 5h70c5 0 8 -2 11 -4z" />
    <glyph glyph-name="aacute" unicode="&#xe1;" horiz-adv-x="474" 
d="M323 75v157c-14 2 -36 4 -66 4c-97 0 -144 -33 -144 -89c0 -45 31 -89 119 -89c32 0 62 5 91 17zM404 308v-223c0 -17 0 -32 2 -48c0 -2 0 -3 -2 -4c-72 -34 -129 -43 -187 -43c-106 0 -186 52 -186 157c0 106 99 153 223 153c37 0 58 -1 69 -2v24c0 31 -15 100 -113 100
c-48 0 -92 -11 -127 -30c-3 -1 -7 0 -7 5v61c0 4 2 6 5 8c39 19 89 30 142 30c128 0 181 -84 181 -188zM177 561l104 142c2 5 5 7 8 7h80c5 0 7 -3 4 -7l-118 -143c-2 -3 -5 -4 -9 -4h-66c-3 0 -4 2 -3 5z" />
    <glyph glyph-name="acircumflex" unicode="&#xe2;" horiz-adv-x="474" 
d="M323 75v157c-14 2 -36 4 -66 4c-97 0 -144 -33 -144 -89c0 -45 31 -89 119 -89c32 0 62 5 91 17zM404 308v-223c0 -17 0 -32 2 -48c0 -2 0 -3 -2 -4c-72 -34 -129 -43 -187 -43c-106 0 -186 52 -186 157c0 106 99 153 223 153c37 0 58 -1 69 -2v24c0 31 -15 100 -113 100
c-48 0 -92 -11 -127 -30c-3 -1 -7 0 -7 5v61c0 4 2 6 5 8c39 19 89 30 142 30c128 0 181 -84 181 -188zM298 559l-71 102l-69 -103c-1 -2 -3 -3 -8 -3h-54c-5 0 -5 4 -3 7l97 138c2 4 4 4 6 4h65c5 0 7 -1 8 -4l100 -139c2 -3 0 -6 -3 -6h-60c-4 0 -6 1 -8 4z" />
    <glyph glyph-name="adieresis" unicode="&#xe4;" horiz-adv-x="474" 
d="M323 75v157c-14 2 -36 4 -66 4c-97 0 -144 -33 -144 -89c0 -45 31 -89 119 -89c32 0 62 5 91 17zM404 308v-223c0 -17 0 -32 2 -48c0 -2 0 -3 -2 -4c-72 -34 -129 -43 -187 -43c-106 0 -186 52 -186 157c0 106 99 153 223 153c37 0 58 -1 69 -2v24c0 31 -15 100 -113 100
c-48 0 -92 -11 -127 -30c-3 -1 -7 0 -7 5v61c0 4 2 6 5 8c39 19 89 30 142 30c128 0 181 -84 181 -188zM145 588c-26 0 -45 18 -45 46c0 29 20 47 47 47c25 0 43 -19 43 -47s-20 -46 -45 -46zM328 588c-26 0 -45 18 -45 46c0 29 21 47 46 47c26 0 44 -19 44 -47
c0 -27 -19 -46 -45 -46z" />
    <glyph glyph-name="agrave" unicode="&#xe0;" horiz-adv-x="474" 
d="M323 75v157c-14 2 -36 4 -66 4c-97 0 -144 -33 -144 -89c0 -45 31 -89 119 -89c32 0 62 5 91 17zM404 308v-223c0 -17 0 -32 2 -48c0 -2 0 -3 -2 -4c-72 -34 -129 -43 -187 -43c-106 0 -186 52 -186 157c0 106 99 153 223 153c37 0 58 -1 69 -2v24c0 31 -15 100 -113 100
c-48 0 -92 -11 -127 -30c-3 -1 -7 0 -7 5v61c0 4 2 6 5 8c39 19 89 30 142 30c128 0 181 -84 181 -188zM183 705l107 -144c2 -3 0 -6 -4 -6h-68c-4 0 -6 3 -7 5l-123 142c-2 4 -1 7 3 7h84c4 0 5 -1 8 -4z" />
    <glyph glyph-name="aring" unicode="&#xe5;" horiz-adv-x="474" 
d="M323 75v157c-14 2 -36 4 -66 4c-97 0 -144 -33 -144 -89c0 -45 31 -89 119 -89c32 0 62 5 91 17zM404 308v-223c0 -17 0 -32 2 -48c0 -2 0 -3 -2 -4c-72 -34 -129 -43 -187 -43c-106 0 -186 52 -186 157c0 106 99 153 223 153c37 0 58 -1 69 -2v24c0 31 -15 100 -113 100
c-48 0 -92 -11 -127 -30c-3 -1 -7 0 -7 5v61c0 4 2 6 5 8c39 19 89 30 142 30c128 0 181 -84 181 -188zM137 634c0 54 40 90 98 90s100 -36 100 -90c0 -56 -43 -92 -100 -92c-58 0 -98 34 -98 92zM185 634c0 -31 22 -49 50 -49c27 0 50 17 50 49c0 30 -23 49 -50 49
c-28 0 -50 -18 -50 -49z" />
    <glyph glyph-name="atilde" unicode="&#xe3;" horiz-adv-x="474" 
d="M323 75v157c-14 2 -36 4 -66 4c-97 0 -144 -33 -144 -89c0 -45 31 -89 119 -89c32 0 62 5 91 17zM404 308v-223c0 -17 0 -32 2 -48c0 -2 0 -3 -2 -4c-72 -34 -129 -43 -187 -43c-106 0 -186 52 -186 157c0 106 99 153 223 153c37 0 58 -1 69 -2v24c0 31 -15 100 -113 100
c-48 0 -92 -11 -127 -30c-3 -1 -7 0 -7 5v61c0 4 2 6 5 8c39 19 89 30 142 30c128 0 181 -84 181 -188zM124 568h-47c-5 0 -6 3 -6 7c3 72 41 110 94 110c61 0 104 -54 139 -54c25 0 35 19 37 47c0 3 2 6 5 6h48c4 0 5 -2 5 -5c-4 -83 -40 -113 -88 -113
c-57 0 -97 55 -140 55c-23 0 -38 -15 -42 -48c0 -1 -1 -5 -5 -5z" />
    <glyph glyph-name="ccedilla" unicode="&#xe7;" horiz-adv-x="420" 
d="M395 474v-63c0 -5 -3 -5 -7 -4c-25 10 -51 15 -92 15c-103 0 -176 -69 -176 -178c0 -120 83 -179 176 -179c37 0 68 4 93 14c5 1 6 -1 6 -4v-62c0 -4 0 -6 -4 -7c-31 -12 -67 -16 -102 -16l-25 -35c61 -17 86 -48 86 -91c0 -53 -45 -88 -106 -88c-27 0 -53 6 -69 14
c-3 2 -4 3 -4 8v37c0 4 2 6 6 5c19 -10 43 -14 62 -14c30 0 49 11 49 36c0 27 -30 46 -94 55c-3 2 -3 15 -1 19l42 57c-132 20 -200 127 -200 248c0 146 104 255 261 255c51 0 79 -6 95 -13c4 -2 4 -4 4 -9z" />
    <glyph glyph-name="eacute" unicode="&#xe9;" horiz-adv-x="482" 
d="M337 233h-218c-1 -95 54 -170 167 -170c44 0 86 8 125 27c3 2 5 0 5 -4v-57c0 -6 -2 -8 -5 -10c-34 -17 -78 -29 -141 -29c-173 0 -235 127 -235 249c0 140 82 257 221 257c143 0 195 -116 195 -201c0 -25 -2 -43 -4 -52c0 -3 -3 -6 -7 -6c-15 -3 -59 -4 -103 -4z
M120 295h186c49 0 61 1 64 2c1 3 1 8 1 11c0 36 -24 119 -118 119c-83 0 -124 -65 -133 -132zM197 561l104 142c2 5 5 7 8 7h80c5 0 7 -3 4 -7l-118 -143c-2 -3 -5 -4 -9 -4h-66c-3 0 -4 2 -3 5z" />
    <glyph glyph-name="ecircumflex" unicode="&#xea;" horiz-adv-x="482" 
d="M337 233h-218c-1 -95 54 -170 167 -170c44 0 86 8 125 27c3 2 5 0 5 -4v-57c0 -6 -2 -8 -5 -10c-34 -17 -78 -29 -141 -29c-173 0 -235 127 -235 249c0 140 82 257 221 257c143 0 195 -116 195 -201c0 -25 -2 -43 -4 -52c0 -3 -3 -6 -7 -6c-15 -3 -59 -4 -103 -4z
M120 295h186c49 0 61 1 64 2c1 3 1 8 1 11c0 36 -24 119 -118 119c-83 0 -124 -65 -133 -132zM317 559l-71 102l-70 -103c-1 -2 -3 -3 -7 -3h-55c-4 0 -5 4 -2 7l96 138c3 4 4 4 7 4h65c5 0 6 -1 8 -4l100 -139c2 -3 0 -6 -4 -6h-59c-5 0 -7 1 -8 4z" />
    <glyph glyph-name="edieresis" unicode="&#xeb;" horiz-adv-x="482" 
d="M337 233h-218c-1 -95 54 -170 167 -170c44 0 86 8 125 27c3 2 5 0 5 -4v-57c0 -6 -2 -8 -5 -10c-34 -17 -78 -29 -141 -29c-173 0 -235 127 -235 249c0 140 82 257 221 257c143 0 195 -116 195 -201c0 -25 -2 -43 -4 -52c0 -3 -3 -6 -7 -6c-15 -3 -59 -4 -103 -4z
M120 295h186c49 0 61 1 64 2c1 3 1 8 1 11c0 36 -24 119 -118 119c-83 0 -124 -65 -133 -132zM155 587c-26 0 -45 18 -45 46c0 29 20 47 47 47c25 0 43 -19 43 -47s-20 -46 -45 -46zM338 587c-26 0 -45 18 -45 46c0 29 21 47 46 47c26 0 44 -19 44 -47
c0 -27 -19 -46 -45 -46z" />
    <glyph glyph-name="egrave" unicode="&#xe8;" horiz-adv-x="482" 
d="M337 233h-218c-1 -95 54 -170 167 -170c44 0 86 8 125 27c3 2 5 0 5 -4v-57c0 -6 -2 -8 -5 -10c-34 -17 -78 -29 -141 -29c-173 0 -235 127 -235 249c0 140 82 257 221 257c143 0 195 -116 195 -201c0 -25 -2 -43 -4 -52c0 -3 -3 -6 -7 -6c-15 -3 -59 -4 -103 -4z
M120 295h186c49 0 61 1 64 2c1 3 1 8 1 11c0 36 -24 119 -118 119c-83 0 -124 -65 -133 -132zM202 705l107 -144c2 -3 0 -6 -4 -6h-67c-4 0 -7 3 -8 5l-123 142c-2 4 0 7 3 7h84c4 0 6 -1 8 -4z" />
    <glyph glyph-name="iacute" unicode="&#xed;" horiz-adv-x="225" 
d="M70 8v471c0 5 2 7 7 7h71c4 0 6 -1 6 -6v-473c0 -5 -1 -7 -7 -7h-69c-5 0 -8 2 -8 8zM70 561l104 142c2 5 5 7 8 7h80c5 0 7 -3 4 -7l-118 -143c-2 -3 -5 -4 -9 -4h-66c-3 0 -4 2 -3 5z" />
    <glyph glyph-name="icircumflex" unicode="&#xee;" horiz-adv-x="225" 
d="M70 8v471c0 5 2 7 7 7h71c4 0 6 -1 6 -6v-473c0 -5 -1 -7 -7 -7h-69c-5 0 -8 2 -8 8zM180 559l-71 102l-69 -103c-1 -2 -3 -3 -7 -3h-55c-4 0 -5 4 -3 7l97 138c3 4 4 4 7 4h65c4 0 6 -1 8 -4l99 -139c3 -3 1 -6 -3 -6h-59c-5 0 -7 1 -9 4z" />
    <glyph glyph-name="idieresis" unicode="&#xef;" horiz-adv-x="225" 
d="M70 8v471c0 5 2 7 7 7h71c4 0 6 -1 6 -6v-473c0 -5 -1 -7 -7 -7h-69c-5 0 -8 2 -8 8zM21 587c-26 0 -45 18 -45 46c0 29 20 47 47 47c25 0 43 -19 43 -47s-20 -46 -45 -46zM204 587c-26 0 -45 18 -45 46c0 29 21 47 46 47c26 0 44 -19 44 -47c0 -27 -19 -46 -45 -46z" />
    <glyph glyph-name="igrave" unicode="&#xec;" horiz-adv-x="225" 
d="M70 8v471c0 5 2 7 7 7h71c4 0 6 -1 6 -6v-473c0 -5 -1 -7 -7 -7h-69c-5 0 -8 2 -8 8zM51 705l107 -144c2 -3 0 -6 -4 -6h-67c-4 0 -6 3 -8 5l-123 142c-1 4 0 7 3 7h84c4 0 6 -1 8 -4z" />
    <glyph glyph-name="ntilde" unicode="&#xf1;" horiz-adv-x="535" 
d="M70 7v366c0 34 -2 90 -4 107c0 4 1 6 6 6h62c5 0 7 -2 9 -6c3 -9 4 -28 6 -50c44 44 95 66 153 66c71 0 163 -35 163 -193v-296c0 -5 -2 -7 -7 -7h-70c-5 0 -7 2 -7 8v287c0 76 -33 127 -103 127c-51 0 -93 -23 -125 -61v-354c0 -5 -1 -7 -6 -7h-71c-4 0 -6 2 -6 7z
M152 568h-47c-5 0 -6 3 -6 7c3 72 41 110 94 110c61 0 104 -54 139 -54c25 0 34 19 37 47c0 3 1 5 5 5h48c4 0 5 -1 5 -4c-4 -83 -40 -113 -89 -113c-56 0 -96 55 -140 55c-22 0 -37 -15 -42 -48c0 -1 -1 -5 -4 -5z" />
    <glyph glyph-name="oacute" unicode="&#xf3;" horiz-adv-x="527" 
d="M265 496c141 0 228 -108 228 -252c0 -152 -94 -254 -228 -254c-161 0 -230 130 -230 253c0 141 90 253 230 253zM261 424c-84 0 -142 -72 -142 -179c0 -102 53 -183 148 -183c71 0 141 56 141 180c0 93 -43 182 -147 182zM208 561l104 142c2 5 5 7 8 7h80c5 0 7 -3 4 -7
l-118 -143c-2 -3 -5 -4 -9 -4h-66c-3 0 -4 2 -3 5z" />
    <glyph glyph-name="ocircumflex" unicode="&#xf4;" horiz-adv-x="527" 
d="M265 496c141 0 228 -108 228 -252c0 -152 -94 -254 -228 -254c-161 0 -230 130 -230 253c0 141 90 253 230 253zM261 424c-84 0 -142 -72 -142 -179c0 -102 53 -183 148 -183c71 0 141 56 141 180c0 93 -43 182 -147 182zM330 559l-71 102l-70 -103c-1 -2 -3 -3 -7 -3
h-55c-4 0 -5 4 -2 7l96 138c3 4 4 4 7 4h65c5 0 6 -1 8 -4l100 -139c2 -3 0 -6 -4 -6h-59c-5 0 -6 1 -8 4z" />
    <glyph glyph-name="odieresis" unicode="&#xf6;" horiz-adv-x="527" 
d="M265 496c141 0 228 -108 228 -252c0 -152 -94 -254 -228 -254c-161 0 -230 130 -230 253c0 141 90 253 230 253zM261 424c-84 0 -142 -72 -142 -179c0 -102 53 -183 148 -183c71 0 141 56 141 180c0 93 -43 182 -147 182zM170 587c-26 0 -45 18 -45 46c0 29 20 47 47 47
c25 0 43 -19 43 -47s-20 -46 -45 -46zM353 587c-26 0 -45 18 -45 46c0 29 21 47 46 47c26 0 44 -19 44 -47c0 -27 -19 -46 -45 -46z" />
    <glyph glyph-name="ograve" unicode="&#xf2;" horiz-adv-x="527" 
d="M265 496c141 0 228 -108 228 -252c0 -152 -94 -254 -228 -254c-161 0 -230 130 -230 253c0 141 90 253 230 253zM261 424c-84 0 -142 -72 -142 -179c0 -102 53 -183 148 -183c71 0 141 56 141 180c0 93 -43 182 -147 182zM211 705l107 -144c2 -3 1 -6 -3 -6h-68
c-4 0 -6 3 -8 5l-122 142c-2 4 -1 7 3 7h84c3 0 5 -1 7 -4z" />
    <glyph glyph-name="otilde" unicode="&#xf5;" horiz-adv-x="527" 
d="M265 496c141 0 228 -108 228 -252c0 -152 -94 -254 -228 -254c-161 0 -230 130 -230 253c0 141 90 253 230 253zM261 424c-84 0 -142 -72 -142 -179c0 -102 53 -183 148 -183c71 0 141 56 141 180c0 93 -43 182 -147 182zM153 568h-47c-5 0 -6 3 -6 7c3 72 41 110 94 110
c61 0 104 -54 139 -54c25 0 34 19 37 47c0 3 1 5 5 5h48c4 0 5 -1 5 -4c-4 -83 -40 -113 -89 -113c-56 0 -96 55 -140 55c-22 0 -37 -15 -42 -48c0 -1 -1 -5 -4 -5z" />
    <glyph glyph-name="scaron" unicode="&#x161;" horiz-adv-x="378" 
d="M317 398c-28 17 -74 29 -116 29c-66 0 -88 -32 -88 -62s18 -51 93 -81c101 -39 142 -80 142 -151c0 -92 -75 -143 -179 -143c-55 0 -105 12 -134 29c-3 2 -5 4 -5 9v67c0 5 3 7 6 5c40 -28 91 -40 135 -40c64 0 95 28 95 65s-22 59 -91 86c-100 38 -142 79 -142 150
c0 72 61 135 170 135c55 0 96 -10 117 -22c5 -2 5 -6 5 -10v-61c0 -5 -3 -8 -8 -5zM118 701l71 -102l69 103c1 2 3 3 7 3h55c4 0 5 -4 3 -7l-97 -138c-3 -4 -4 -4 -7 -4h-65c-4 0 -6 1 -8 4l-99 139c-3 3 -1 6 3 6h59c5 0 7 -1 9 -4z" />
    <glyph glyph-name="uacute" unicode="&#xfa;" horiz-adv-x="528" 
d="M457 480v-374c0 -53 3 -78 6 -100c0 -4 -1 -6 -6 -6h-64c-5 0 -6 1 -8 5c-3 11 -5 29 -6 43c-42 -43 -95 -58 -145 -58c-85 0 -165 43 -165 188v302c0 5 2 6 7 6h71c4 0 5 -2 5 -6v-292c0 -77 36 -124 106 -124c48 0 86 18 116 51v365c0 4 2 6 7 6h70c6 0 6 -2 6 -6z
M215 561l104 142c2 5 5 7 8 7h80c5 0 7 -3 4 -7l-118 -143c-2 -3 -5 -4 -9 -4h-66c-3 0 -4 2 -3 5z" />
    <glyph glyph-name="ucircumflex" unicode="&#xfb;" horiz-adv-x="528" 
d="M457 480v-374c0 -53 3 -78 6 -100c0 -4 -1 -6 -6 -6h-64c-5 0 -6 1 -8 5c-3 11 -5 29 -6 43c-42 -43 -95 -58 -145 -58c-85 0 -165 43 -165 188v302c0 5 2 6 7 6h71c4 0 5 -2 5 -6v-292c0 -77 36 -124 106 -124c48 0 86 18 116 51v365c0 4 2 6 7 6h70c6 0 6 -2 6 -6z
M332 560l-71 102l-70 -103c-1 -1 -3 -3 -7 -3h-55c-4 0 -5 5 -3 7l97 139c3 3 4 4 7 4h65c5 0 6 -2 8 -5l100 -139c2 -3 0 -6 -4 -6h-59c-5 0 -7 2 -8 4z" />
    <glyph glyph-name="udieresis" unicode="&#xfc;" horiz-adv-x="528" 
d="M457 480v-374c0 -53 3 -78 6 -100c0 -4 -1 -6 -6 -6h-64c-5 0 -6 1 -8 5c-3 11 -5 29 -6 43c-42 -43 -95 -58 -145 -58c-85 0 -165 43 -165 188v302c0 5 2 6 7 6h71c4 0 5 -2 5 -6v-292c0 -77 36 -124 106 -124c48 0 86 18 116 51v365c0 4 2 6 7 6h70c6 0 6 -2 6 -6z
M175 587c-26 0 -45 18 -45 46c0 29 20 47 47 47c25 0 43 -19 43 -47s-20 -46 -45 -46zM358 587c-26 0 -45 18 -45 46c0 29 21 47 46 47c26 0 44 -19 44 -47c0 -27 -19 -46 -45 -46z" />
    <glyph glyph-name="ugrave" unicode="&#xf9;" horiz-adv-x="528" 
d="M457 480v-374c0 -53 3 -78 6 -100c0 -4 -1 -6 -6 -6h-64c-5 0 -6 1 -8 5c-3 11 -5 29 -6 43c-42 -43 -95 -58 -145 -58c-85 0 -165 43 -165 188v302c0 5 2 6 7 6h71c4 0 5 -2 5 -6v-292c0 -77 36 -124 106 -124c48 0 86 18 116 51v365c0 4 2 6 7 6h70c6 0 6 -2 6 -6z
M213 705l107 -144c2 -3 1 -6 -3 -6h-68c-4 0 -6 3 -8 5l-122 142c-2 4 -1 7 3 7h84c3 0 5 -1 7 -4z" />
    <glyph glyph-name="yacute" unicode="&#xfd;" horiz-adv-x="459" 
d="M11 486h79c4 0 6 -2 7 -5c83 -220 124 -334 138 -379c32 92 74 207 135 379c2 3 4 5 8 5h71c5 0 6 -3 4 -7c-74 -217 -177 -473 -272 -687c-2 -4 -5 -6 -11 -7l-75 -6c-5 0 -5 3 -3 8c29 61 66 142 99 221c2 4 2 7 0 13c-24 60 -124 303 -185 459c-2 4 1 6 5 6zM182 561
l104 142c2 5 5 7 8 7h80c5 0 7 -3 4 -7l-118 -143c-2 -3 -5 -4 -9 -4h-66c-3 0 -4 2 -3 5z" />
    <glyph glyph-name="ydieresis" unicode="&#xff;" horiz-adv-x="459" 
d="M11 486h79c4 0 6 -2 7 -5c83 -220 124 -334 138 -379c32 92 74 207 135 379c2 3 4 5 8 5h71c5 0 6 -3 4 -7c-74 -217 -177 -473 -272 -687c-2 -4 -5 -6 -11 -7l-75 -6c-5 0 -5 3 -3 8c29 61 66 142 99 221c2 4 2 7 0 13c-24 60 -124 303 -185 459c-2 4 1 6 5 6zM141 588
c-27 0 -45 18 -45 46c0 29 20 47 46 47c25 0 44 -19 44 -47s-20 -46 -45 -46zM323 588c-25 0 -44 18 -44 46c0 29 20 47 45 47c27 0 45 -19 45 -47c0 -27 -19 -46 -46 -46z" />
    <glyph glyph-name="zcaron" unicode="&#x17e;" horiz-adv-x="396" 
d="M374 0h-359c-3 0 -4 3 -4 7v39c0 4 1 6 2 9c68 99 233 314 265 360c-18 -1 -50 -1 -102 -1h-152c-6 0 -7 2 -6 8l11 58c1 4 3 6 7 6h337c4 0 5 -2 5 -6v-42c0 -4 -1 -7 -4 -12c-101 -147 -232 -317 -260 -355c31 1 73 0 122 0h152c5 0 7 -1 5 -6l-12 -59
c-1 -5 -4 -6 -7 -6zM132 701l71 -102l69 103c1 2 3 3 7 3h55c4 0 5 -4 3 -7l-97 -138c-3 -4 -4 -4 -7 -4h-65c-4 0 -6 1 -8 4l-99 139c-3 3 -1 6 3 6h59c5 0 7 -1 9 -4z" />
    <glyph glyph-name="uni2113" unicode="&#x2113;" horiz-adv-x="379" 
d="M341 95v-56c0 -5 0 -9 -5 -13c-24 -21 -64 -32 -112 -32c-109 0 -144 76 -144 165v9c-15 -12 -37 -28 -54 -39c-4 -2 -7 -1 -7 3v57c0 5 1 6 4 7c16 12 35 26 56 45v213c0 176 71 227 140 227c79 0 117 -66 117 -151c0 -106 -49 -197 -184 -313v-22
c0 -90 31 -129 91 -129c42 0 70 15 91 32c4 4 7 2 7 -3zM152 467v-168c81 80 119 147 119 231c0 57 -19 88 -54 88c-37 0 -65 -40 -65 -151z" />
    <glyph glyph-name="uni2116" unicode="&#x2116;" horiz-adv-x="951" 
d="M136 0h-62c-4 0 -6 2 -6 6v625c0 4 2 6 6 6h89c4 0 6 -1 8 -6c90 -173 204 -374 276 -527h1c-1 24 -4 78 -4 153v375c0 4 2 5 6 5h64c3 0 4 -2 4 -5v-625c0 -4 -1 -7 -6 -7h-90c-4 0 -6 2 -8 6c-90 180 -204 381 -278 541h-1c4 -32 7 -94 7 -174v-368c0 -4 -2 -5 -6 -5z
M746 606c103 0 169 -84 169 -200c0 -124 -70 -201 -170 -201c-127 0 -175 104 -175 200c0 118 72 201 176 201zM742 543c-61 0 -100 -51 -100 -135c0 -73 32 -139 105 -139c49 0 97 35 97 135c0 68 -27 139 -102 139zM603 157h285c4 0 5 -1 5 -5v-43c0 -5 -1 -6 -6 -6h-284
c-3 0 -6 1 -6 5v44c0 4 2 5 6 5z" />
    <glyph glyph-name="uni2117" unicode="&#x2117;" horiz-adv-x="768" 
d="M336 150h-50c-3 0 -4 2 -4 4v352c0 2 1 4 4 4h108c98 0 142 -55 142 -120c0 -83 -66 -125 -148 -125h-49v-111c0 -2 0 -4 -3 -4zM339 460v-145h45c47 0 93 11 93 74c0 51 -36 71 -87 71h-51zM52 331c0 190 143 335 332 335s331 -145 331 -335c0 -196 -141 -336 -331 -336
c-191 0 -332 143 -332 336zM102 331c0 -169 123 -288 282 -288c169 0 282 121 281 288c-2 168 -125 289 -282 289c-168 0 -281 -127 -281 -289z" />
    <glyph glyph-name="uni2120" unicode="&#x2120;" horiz-adv-x="352" 
d="M1 508v26c0 2 2 3 4 2c16 -9 38 -16 56 -16c22 0 30 9 30 17c0 10 -6 17 -34 27c-37 13 -54 27 -54 53c0 28 21 47 64 47c17 0 35 -3 47 -10c2 -2 2 -3 2 -5v-25c0 -2 -2 -4 -4 -2c-13 7 -29 13 -47 13c-23 0 -28 -8 -28 -16c0 -10 7 -16 38 -26c34 -12 50 -26 50 -54
c0 -36 -35 -49 -67 -49c-21 0 -42 6 -54 13c-3 2 -3 3 -3 5zM260 496h-29c-3 0 -4 1 -4 3c-19 65 -36 126 -39 139h-1c0 -21 -1 -64 -5 -142c0 -2 -1 -3 -3 -3h-27c-3 0 -3 1 -3 3l11 162c0 2 1 3 4 3h43c2 0 3 0 4 -3c16 -50 34 -111 36 -125h1c2 10 23 75 41 126
c0 2 1 2 4 2h41c3 0 4 -1 4 -3l6 -162c0 -2 0 -3 -3 -3h-29c-1 0 -3 0 -3 3c-1 106 -2 100 -1 141h-1c-3 -11 -25 -81 -44 -138c-1 -2 -2 -3 -3 -3z" />
    <glyph glyph-name="uni2126" unicode="&#x2126;" horiz-adv-x="698" 
d="M289 0h-262c-4 0 -6 2 -6 6l-6 65c0 4 2 6 6 6h170c-71 58 -133 148 -133 285c0 176 118 309 298 309c181 0 284 -134 284 -305c0 -138 -66 -230 -138 -290h176c5 0 6 -2 6 -6l-9 -64c0 -5 -2 -6 -6 -6h-260c-5 0 -7 2 -7 6v57c0 4 1 6 5 9c84 61 148 151 148 285
c-1 135 -68 239 -205 239c-139 0 -208 -110 -208 -242c0 -133 74 -227 148 -281c4 -3 5 -5 5 -9v-57c0 -4 0 -7 -6 -7z" />
    <glyph glyph-name="estimated" unicode="&#x212e;" horiz-adv-x="807" 
d="M764 310h-588c-1 0 -3 -1 -3 -3v-179c0 -8 2 -13 7 -20c58 -58 135 -96 223 -96c93 0 176 43 233 108h53c-66 -76 -170 -126 -287 -126c-201 0 -363 146 -363 325c0 181 162 327 363 327c200 0 362 -146 362 -327v-9zM632 334v179c0 7 -4 15 -9 21
c-57 56 -134 92 -220 92c-87 0 -164 -38 -222 -95c-6 -6 -8 -14 -8 -24v-173c0 -1 2 -6 3 -6h451c4 0 5 5 5 6z" />
    <glyph glyph-name="estimated.alt" horiz-adv-x="613" 
d="M556 308c-13 -5 -42 -8 -208 -8h-217c1 -137 79 -235 222 -235c66 0 120 13 170 46c4 3 6 1 6 -4v-59c0 -5 -2 -9 -6 -12c-47 -32 -112 -46 -185 -46c-205 0 -291 157 -291 334s100 323 274 323c189 0 245 -152 245 -264c0 -46 -5 -72 -10 -75zM133 369h255
c68 0 92 2 95 7c2 4 2 12 2 22c0 68 -38 175 -166 175c-113 0 -176 -83 -186 -204z" />
    <glyph glyph-name="partialdiff" unicode="&#x2202;" horiz-adv-x="491" 
d="M248 313c-78 0 -132 -44 -132 -125c0 -83 55 -125 121 -125c91 0 134 76 133 184c0 9 -4 16 -10 23c-24 25 -63 43 -112 43zM66 586v62c0 2 0 5 6 6c9 2 16 2 32 2c245 -1 342 -163 342 -373c0 -200 -84 -292 -211 -292c-135 0 -195 94 -195 194c0 116 81 199 201 199
c67 0 105 -24 125 -41c-10 135 -93 239 -267 238h-27c-3 0 -6 0 -6 5z" />
    <glyph glyph-name="uni2206" unicode="&#x2206;" horiz-adv-x="581" 
d="M561 0h-541c-4 0 -5 2 -5 6v46c0 4 1 8 2 11l208 549c3 11 5 21 7 44c1 4 2 5 5 5h97c4 0 5 -1 7 -5l223 -591c2 -4 2 -9 2 -13v-45c0 -5 0 -7 -5 -7zM100 76h374c-54 154 -172 464 -187 512h-1c-14 -52 -116 -320 -186 -512z" />
    <glyph glyph-name="product" unicode="&#x220f;" horiz-adv-x="611" 
d="M527 -95h-72c-4 0 -6 1 -6 6v673h-288v-673c0 -5 -2 -6 -6 -6h-72c-4 0 -6 1 -6 6v745c0 4 3 5 6 5h445c3 0 4 -1 4 -6v-744c0 -5 -1 -6 -5 -6z" />
    <glyph glyph-name="summation" unicode="&#x2211;" horiz-adv-x="443" 
d="M404 661c4 0 6 -1 6 -6l8 -63c1 -6 -1 -7 -6 -7h-302l190 -302c4 -4 4 -7 0 -11l-195 -294h334c4 0 5 -2 4 -7l-9 -63c-1 -4 -3 -6 -8 -6h-403c-5 0 -6 2 -6 6v50c0 3 0 5 3 10l202 304l-198 318c-1 1 -4 5 -4 12v52c0 5 2 7 6 7h378z" />
    <glyph glyph-name="radical" unicode="&#x221a;" horiz-adv-x="496" 
d="M490 770l-172 -908c-1 -4 -3 -5 -6 -5h-63c-4 0 -5 1 -7 5l-129 374l-79 -33c-3 -2 -6 -2 -8 3l-13 39c-1 4 0 6 3 8l138 57c4 2 5 0 6 -4l79 -238c24 -74 33 -114 38 -139h1c3 27 13 104 28 185l120 656c1 4 3 6 6 6h55c3 0 4 -2 3 -6z" />
    <glyph glyph-name="infinity" unicode="&#x221e;" horiz-adv-x="730" 
d="M544 108h-2c-69 0 -120 51 -177 109c-51 -50 -105 -109 -188 -109c-84 0 -145 61 -145 149c0 80 61 149 153 149c76 0 132 -61 181 -111c50 52 103 111 186 111c85 0 146 -62 146 -149c0 -81 -66 -149 -154 -149zM547 163c52 0 92 44 92 94c0 53 -38 94 -90 94
c-60 0 -108 -51 -147 -92c48 -46 83 -96 145 -96zM181 162c60 0 108 51 148 93c-41 40 -83 95 -146 95c-56 0 -93 -43 -93 -93c0 -54 38 -95 91 -95z" />
    <glyph glyph-name="integral" unicode="&#x222b;" horiz-adv-x="300" 
d="M312 742v-57c0 -6 -2 -7 -6 -5c-10 5 -30 9 -47 9c-73 0 -78 -80 -78 -165c0 -118 18 -335 18 -464c0 -132 -30 -208 -132 -208c-29 0 -55 7 -73 16c-3 2 -4 4 -4 10v59c0 4 2 6 5 4c25 -12 50 -16 65 -16c53 0 69 35 69 138c0 128 -18 352 -18 479c0 115 29 217 143 217
c24 0 43 -4 53 -10c2 -1 5 -3 5 -7z" />
    <glyph glyph-name="approxequal" unicode="&#x2248;" horiz-adv-x="556" 
d="M94 290h-51c-3 0 -5 0 -5 3c-1 73 41 122 114 122c44 0 78 -11 136 -35c52 -22 79 -33 112 -33c38 0 54 17 57 61c0 1 1 2 5 2h49c4 0 6 -1 6 -2c-1 -83 -41 -122 -109 -122c-46 0 -76 9 -138 36c-50 21 -79 33 -110 33c-33 0 -58 -14 -60 -62c0 -2 -2 -3 -6 -3zM94 108
h-51c-3 0 -5 0 -5 3c-1 73 41 122 114 122c44 0 78 -11 136 -35c52 -22 79 -33 112 -33c38 0 54 17 57 61c0 2 1 3 5 3h49c4 0 6 -1 6 -3c-1 -83 -41 -122 -109 -122c-44 0 -76 9 -138 36c-50 21 -79 33 -110 33c-33 0 -58 -14 -60 -62c0 -2 -2 -3 -6 -3z" />
    <glyph glyph-name="notequal" unicode="&#x2260;" horiz-adv-x="548" 
d="M509 323h-164l-75 -126h241c4 0 6 -1 6 -6v-49c0 -6 -2 -6 -8 -6h-275l-64 -107c-2 -3 -4 -4 -9 -4h-53c-4 0 -4 2 -2 6l63 105h-133c-4 0 -6 1 -6 6v49c0 5 2 6 6 6h169l75 126h-244c-3 0 -6 1 -6 6v51c0 4 3 5 7 5h280l65 109c3 4 4 5 8 5h52c4 0 6 0 4 -5l-65 -109
h131c4 0 5 -1 5 -5v-50c0 -6 -1 -7 -8 -7z" />
    <glyph glyph-name="lessequal" unicode="&#x2264;" horiz-adv-x="544" 
d="M57 319v50c0 4 1 5 4 7l419 199c4 2 7 1 7 -3v-56c0 -4 -3 -6 -6 -7l-353 -164v-1l354 -165c3 -2 5 -2 5 -7v-55c0 -5 -2 -6 -6 -5l-420 200c-3 2 -4 4 -4 7zM63 62h418c4 0 6 -1 6 -6v-50c0 -5 -2 -6 -7 -6h-417c-4 0 -6 1 -6 6v51c0 4 3 5 6 5z" />
    <glyph glyph-name="greaterequal" unicode="&#x2265;" horiz-adv-x="544" 
d="M487 369v-50c0 -5 -1 -5 -4 -7l-420 -200c-3 -1 -6 -1 -6 3v57c0 4 2 6 6 7l352 164v1l-353 165c-3 1 -5 2 -5 7v55c0 5 2 6 6 5l419 -200c4 -2 5 -4 5 -7zM63 62h418c4 0 6 -1 6 -6v-50c0 -5 -2 -6 -7 -6h-417c-4 0 -6 1 -6 6v51c0 4 3 5 6 5z" />
    <glyph glyph-name="Abreve" unicode="&#x102;" horiz-adv-x="586" 
d="M416 208h-254l-72 -202c-1 -4 -3 -6 -8 -6h-68c-5 0 -7 3 -6 8l218 607c3 8 6 15 7 41c0 3 2 5 5 5h98c4 0 5 -1 6 -5l235 -649c2 -4 1 -7 -4 -7h-76c-4 0 -6 2 -8 5zM185 285h208c-22 65 -85 240 -104 308h-1c-17 -64 -65 -198 -103 -308zM145 844h57c4 0 5 -1 6 -5
c12 -35 38 -58 80 -58c38 0 68 17 82 59c2 2 3 4 7 4h56c5 0 5 -4 5 -7c-15 -76 -74 -122 -150 -122s-134 41 -148 123c-1 4 1 6 5 6z" />
    <glyph glyph-name="Amacron" unicode="&#x100;" horiz-adv-x="586" 
d="M416 208h-254l-72 -202c-1 -4 -3 -6 -8 -6h-68c-5 0 -7 3 -6 8l218 607c3 8 6 15 7 41c0 3 2 5 5 5h98c4 0 5 -1 6 -5l235 -649c2 -4 1 -7 -4 -7h-76c-4 0 -6 2 -8 5zM185 285h208c-22 65 -85 240 -104 308h-1c-17 -64 -65 -198 -103 -308zM157 803h266c4 0 5 -1 5 -5
v-55c0 -4 -2 -6 -6 -6h-263c-5 0 -7 2 -7 6v55c0 4 1 5 5 5z" />
    <glyph glyph-name="Aogonek" unicode="&#x104;" horiz-adv-x="586" 
d="M184 285h209c-22 65 -85 241 -104 309h-1c-17 -65 -65 -199 -104 -309zM487 12l-71 196h-255l-71 -202c-1 -4 -4 -6 -8 -6h-68c-5 0 -7 3 -6 8l218 607c3 8 6 15 7 41c0 3 2 5 5 5h98c4 0 5 -1 6 -5l234 -644c2 -6 1 -10 -3 -12c-56 -35 -85 -72 -85 -107
c0 -31 23 -53 64 -53c22 0 41 5 51 9c5 1 7 0 7 -4v-46c0 -6 -2 -9 -6 -11c-19 -10 -49 -15 -78 -15c-54 0 -118 26 -118 99c0 45 28 89 87 131c-4 2 -6 6 -8 9z" />
    <glyph glyph-name="Cacute" unicode="&#x106;" horiz-adv-x="551" 
d="M518 80v-61c0 -5 -1 -9 -5 -10c-33 -14 -79 -19 -135 -19c-167 0 -338 97 -338 342c0 200 138 339 351 339c67 0 106 -7 128 -18c3 -1 5 -4 5 -8v-67c0 -6 -4 -6 -7 -5c-28 15 -73 23 -128 23c-157 0 -264 -102 -264 -262c0 -209 157 -268 262 -268c51 0 88 4 125 18
c4 1 6 1 6 -4zM279 743l123 110c3 3 6 3 10 3h88c4 0 5 -4 2 -7l-134 -108c-3 -4 -6 -4 -11 -4h-75c-4 0 -6 3 -3 6z" />
    <glyph glyph-name="Ccaron" unicode="&#x10c;" horiz-adv-x="551" 
d="M518 80v-61c0 -5 -1 -9 -5 -10c-33 -14 -79 -19 -135 -19c-167 0 -338 97 -338 342c0 200 138 339 351 339c67 0 106 -7 128 -18c3 -1 5 -4 5 -8v-67c0 -6 -4 -6 -7 -5c-28 15 -73 23 -128 23c-157 0 -264 -102 -264 -262c0 -209 157 -268 262 -268c51 0 88 4 125 18
c4 1 6 1 6 -4zM269 845l74 -76l72 75c2 3 5 5 9 5h64c4 0 4 -5 2 -7l-107 -112c-3 -2 -4 -3 -7 -3h-69c-5 0 -8 2 -10 4l-111 113c-3 3 -1 5 3 5h69c6 0 8 -2 11 -4z" />
    <glyph glyph-name="Ccircumflex" unicode="&#x108;" horiz-adv-x="551" 
d="M518 80v-61c0 -5 -1 -9 -5 -10c-33 -14 -79 -19 -135 -19c-167 0 -338 97 -338 342c0 200 138 339 351 339c67 0 106 -7 128 -18c3 -1 5 -4 5 -8v-67c0 -6 -4 -6 -7 -5c-28 15 -73 23 -128 23c-157 0 -264 -102 -264 -262c0 -209 157 -268 262 -268c51 0 88 4 125 18
c4 1 6 1 6 -4zM405 735l-74 75l-72 -75c-2 -3 -5 -4 -9 -4h-65c-3 0 -4 5 -2 7l107 111c3 3 5 3 8 3h68c5 0 9 -1 10 -4l112 -112c2 -3 0 -5 -4 -5h-69c-5 0 -8 1 -10 4z" />
    <glyph glyph-name="Cdotaccent" unicode="&#x10a;" horiz-adv-x="551" 
d="M518 80v-61c0 -5 -1 -9 -5 -10c-33 -14 -79 -19 -135 -19c-167 0 -338 97 -338 342c0 200 138 339 351 339c67 0 106 -7 128 -18c3 -1 5 -4 5 -8v-67c0 -6 -4 -6 -7 -5c-28 15 -73 23 -128 23c-157 0 -264 -102 -264 -262c0 -209 157 -268 262 -268c51 0 88 4 125 18
c4 1 6 1 6 -4zM340 749c-31 0 -50 19 -50 45c0 27 21 45 51 45s49 -18 49 -45c0 -26 -18 -45 -50 -45z" />
    <glyph glyph-name="Dcaron" unicode="&#x10e;" horiz-adv-x="649" 
d="M80 8v644c0 5 1 7 6 8c25 1 76 3 175 3c226 0 348 -131 348 -321c0 -253 -190 -344 -358 -344c-56 0 -131 1 -166 2c-4 0 -5 3 -5 8zM163 587v-513c20 -1 54 -2 85 -2c161 0 275 88 276 269c0 166 -114 248 -265 248c-35 0 -67 -1 -96 -2zM216 841l74 -75l72 75
c2 2 5 5 9 5h64c4 0 4 -6 2 -8l-107 -111c-3 -3 -4 -3 -8 -3h-68c-5 0 -8 1 -10 4l-111 113c-3 2 -1 5 3 5h69c5 0 8 -2 11 -5z" />
    <glyph glyph-name="Dcroat" unicode="&#x110;" horiz-adv-x="659" 
d="M171 311v-237c20 -1 55 -2 85 -2c161 0 275 88 276 269c0 166 -114 248 -265 248c-34 0 -67 -1 -96 -2v-214h179c4 0 5 0 5 -5v-52c0 -5 -2 -5 -6 -5h-178zM88 373v279c0 5 1 7 6 8c25 1 76 3 175 3c226 0 348 -131 348 -321c0 -253 -190 -344 -358 -344
c-56 0 -131 1 -166 2c-3 0 -5 3 -5 8v303h-74c-3 0 -5 1 -5 5v52c0 4 2 5 5 5h74z" />
    <glyph glyph-name="Ebreve" unicode="&#x114;" horiz-adv-x="509" 
d="M486 70l-11 -64c-1 -5 -3 -6 -7 -6h-380c-7 0 -8 2 -8 8v646c0 5 2 7 7 7h365c5 0 6 -1 7 -6l8 -63c1 -4 0 -7 -5 -7h-299v-209h270c4 0 6 -2 6 -6v-64c0 -5 -3 -6 -6 -6h-270v-224h318c5 0 6 -2 5 -6zM122 850h58c3 0 4 -1 6 -6c12 -35 38 -58 79 -58c38 0 68 17 83 59
c1 3 2 5 6 5h57c5 0 5 -4 4 -7c-14 -76 -74 -122 -150 -122c-75 0 -134 40 -148 123c-1 3 2 6 5 6z" />
    <glyph glyph-name="Ecaron" unicode="&#x11a;" horiz-adv-x="509" 
d="M486 70l-11 -64c-1 -5 -3 -6 -7 -6h-380c-7 0 -8 2 -8 8v646c0 5 2 7 7 7h365c5 0 6 -1 7 -6l8 -63c1 -4 0 -7 -5 -7h-299v-209h270c4 0 6 -2 6 -6v-64c0 -5 -3 -6 -6 -6h-270v-224h318c5 0 6 -2 5 -6zM195 839l74 -75l72 75c2 3 5 5 9 5h64c4 0 5 -5 2 -8l-107 -111
c-3 -2 -4 -3 -7 -3h-69c-4 0 -8 2 -10 4l-111 113c-3 3 -1 5 3 5h69c6 0 8 -2 11 -5z" />
    <glyph glyph-name="Edotaccent" unicode="&#x116;" horiz-adv-x="509" 
d="M486 70l-11 -64c-1 -5 -3 -6 -7 -6h-380c-7 0 -8 2 -8 8v646c0 5 2 7 7 7h365c5 0 6 -1 7 -6l8 -63c1 -4 0 -7 -5 -7h-299v-209h270c4 0 6 -2 6 -6v-64c0 -5 -3 -6 -6 -6h-270v-224h318c5 0 6 -2 5 -6zM269 738c-31 0 -50 19 -50 45c0 27 21 45 51 45s49 -18 49 -45
c0 -26 -18 -45 -50 -45z" />
    <glyph glyph-name="Emacron" unicode="&#x112;" horiz-adv-x="509" 
d="M486 70l-11 -64c-1 -5 -3 -6 -7 -6h-380c-7 0 -8 2 -8 8v646c0 5 2 7 7 7h365c5 0 6 -1 7 -6l8 -63c1 -4 0 -7 -5 -7h-299v-209h270c4 0 6 -2 6 -6v-64c0 -5 -3 -6 -6 -6h-270v-224h318c5 0 6 -2 5 -6zM133 815h267c3 0 4 -2 4 -6v-54c0 -5 -2 -6 -5 -6h-264
c-5 0 -7 1 -7 6v54c0 4 2 6 5 6z" />
    <glyph glyph-name="Eogonek" unicode="&#x118;" horiz-adv-x="509" 
d="M468 0h-40c-51 -36 -78 -72 -78 -105c0 -32 23 -53 64 -53c23 0 42 4 56 8c4 1 6 0 6 -4v-47c0 -5 -2 -7 -5 -9c-19 -10 -51 -16 -79 -16c-56 0 -119 27 -119 99c0 47 34 91 85 127h-270c-7 0 -8 2 -8 8v646c0 5 2 7 7 7h365c5 0 6 -1 7 -6l8 -63c1 -4 0 -7 -5 -7h-299
v-209h270c4 0 6 -2 6 -6v-64c0 -5 -3 -6 -6 -6h-270v-224h318c5 0 6 -2 5 -6l-11 -64c-1 -5 -3 -6 -7 -6z" />
    <glyph glyph-name="Gbreve" unicode="&#x11e;" horiz-adv-x="636" 
d="M494 279l-139 2c-5 1 -7 2 -7 7v61c0 4 3 5 6 5h217c6 0 7 -2 7 -6v-317c1 -4 -1 -6 -5 -8c-65 -26 -131 -33 -186 -33c-227 0 -347 147 -347 337c0 210 147 344 360 344c68 0 123 -8 159 -25c4 -2 5 -5 5 -10v-66c0 -5 -3 -6 -6 -4c-45 23 -100 29 -156 29
c-170 2 -276 -99 -276 -265c0 -147 91 -266 265 -266c45 0 77 5 103 16v199zM210 860h58c3 0 4 -1 6 -6c12 -35 38 -58 79 -58c38 0 68 17 83 59c1 3 2 5 6 5h57c5 0 5 -4 4 -7c-14 -77 -74 -122 -150 -122c-75 0 -134 40 -148 123c-1 3 2 6 5 6z" />
    <glyph glyph-name="Gcircumflex" unicode="&#x11c;" horiz-adv-x="636" 
d="M494 279l-139 2c-5 1 -7 2 -7 7v61c0 4 3 5 6 5h217c6 0 7 -2 7 -6v-317c1 -4 -1 -6 -5 -8c-65 -26 -131 -33 -186 -33c-227 0 -347 147 -347 337c0 210 147 344 360 344c68 0 123 -8 159 -25c4 -2 5 -5 5 -10v-66c0 -5 -3 -6 -6 -4c-45 23 -100 29 -156 29
c-170 2 -276 -99 -276 -265c0 -147 91 -266 265 -266c45 0 77 5 103 16v199zM422 736l-74 75l-72 -75c-2 -3 -5 -5 -9 -5h-64c-4 0 -4 6 -2 8l107 111c3 2 4 3 7 3h69c5 0 8 -1 10 -4l111 -112c3 -3 1 -6 -3 -6h-69c-6 0 -8 2 -11 5z" />
    <glyph glyph-name="uni0122" unicode="&#x122;" horiz-adv-x="636" 
d="M494 279l-139 2c-5 1 -7 2 -7 7v61c0 4 3 5 6 5h217c6 0 7 -2 7 -6v-317c1 -4 -1 -6 -5 -8c-65 -26 -131 -33 -186 -33c-227 0 -347 147 -347 337c0 210 147 344 360 344c68 0 123 -8 159 -25c4 -2 5 -5 5 -10v-66c0 -5 -3 -6 -6 -4c-45 23 -100 29 -156 29
c-170 2 -276 -99 -276 -265c0 -147 91 -266 265 -266c45 0 77 5 103 16v199zM365 -238h-62c-4 0 -5 3 -3 6c27 45 37 77 37 115c0 19 -5 37 -14 59c-1 3 1 6 4 6h68c3 0 6 -2 8 -5c6 -11 13 -36 13 -54c0 -53 -16 -88 -43 -125c-1 -1 -4 -2 -8 -2z" />
    <glyph glyph-name="Gdotaccent" unicode="&#x120;" horiz-adv-x="636" 
d="M494 279l-139 2c-5 1 -7 2 -7 7v61c0 4 3 5 6 5h217c6 0 7 -2 7 -6v-317c1 -4 -1 -6 -5 -8c-65 -26 -131 -33 -186 -33c-227 0 -347 147 -347 337c0 210 147 344 360 344c68 0 123 -8 159 -25c4 -2 5 -5 5 -10v-66c0 -5 -3 -6 -6 -4c-45 23 -100 29 -156 29
c-170 2 -276 -99 -276 -265c0 -147 91 -266 265 -266c45 0 77 5 103 16v199zM360 753c-30 0 -49 19 -49 45c0 27 20 45 51 45c30 0 49 -18 49 -45c0 -26 -18 -45 -51 -45z" />
    <glyph glyph-name="uni00470303" horiz-adv-x="636" 
d="M494 279l-139 2c-5 1 -7 2 -7 7v61c0 4 3 5 6 5h217c6 0 7 -2 7 -6v-317c1 -4 -1 -6 -5 -8c-65 -26 -131 -33 -186 -33c-227 0 -347 147 -347 337c0 210 147 344 360 344c68 0 123 -8 159 -25c4 -2 5 -5 5 -10v-66c0 -5 -3 -6 -6 -4c-45 23 -100 29 -156 29
c-170 2 -276 -99 -276 -265c0 -147 91 -266 265 -266c45 0 77 5 103 16v199zM247 738h-49c-4 0 -5 2 -5 5c1 69 41 109 92 109c62 0 89 -54 126 -54c21 0 32 19 35 47c0 3 1 4 5 4h48c4 0 5 -1 5 -5c-5 -82 -43 -107 -87 -107c-59 0 -87 53 -126 53c-19 0 -36 -15 -39 -47
c0 -3 -2 -5 -5 -5z" />
    <glyph glyph-name="Hbar" unicode="&#x126;" horiz-adv-x="659" 
d="M499 372v105h-335v-105h335zM583 537h49c4 0 5 -1 5 -5v-50c0 -4 -1 -5 -5 -5h-49v-471c0 -5 -2 -6 -6 -6h-71c-5 0 -7 1 -7 6v290h-335v-289c0 -4 -2 -7 -7 -7h-70c-5 0 -7 2 -7 7v470h-52c-4 0 -6 2 -6 6v49c0 4 2 5 5 5h53v117c0 5 2 7 7 7h70c5 0 7 -2 7 -6v-118h335
v118c0 4 2 6 6 6h73c3 0 5 -2 5 -6v-118z" />
    <glyph glyph-name="Hcircumflex" unicode="&#x124;" horiz-adv-x="659" 
d="M573 0h-71c-5 0 -7 1 -7 6v302h-331v-301c0 -4 -2 -7 -7 -7h-70c-5 0 -7 2 -7 7v647c0 5 2 7 7 7h70c5 0 7 -2 7 -6v-271h331v271c0 4 2 6 6 6h73c3 0 5 -2 5 -6v-649c0 -5 -2 -6 -6 -6zM402 723l-74 75l-72 -75c-2 -3 -4 -4 -9 -4h-64c-4 0 -4 5 -2 7l107 111
c3 2 4 3 8 3h68c5 0 8 -1 10 -4l112 -112c2 -3 0 -5 -4 -5h-69c-5 0 -8 1 -11 4z" />
    <glyph glyph-name="Idotaccent" unicode="&#x130;" horiz-adv-x="244" 
d="M163 655v-648c0 -5 -1 -7 -6 -7h-70c-5 0 -7 2 -7 7v647c0 5 2 7 6 7h71c4 0 6 -2 6 -6zM120 734c-30 0 -49 20 -49 46c0 27 20 45 51 45c30 0 49 -18 49 -45c0 -26 -18 -46 -51 -46z" />
    <glyph glyph-name="Imacron" unicode="&#x12a;" horiz-adv-x="244" 
d="M163 655v-648c0 -5 -1 -7 -6 -7h-70c-5 0 -7 2 -7 7v647c0 5 2 7 6 7h71c4 0 6 -2 6 -6zM-10 804h266c3 0 5 -2 5 -6v-54c0 -4 -2 -6 -6 -6h-263c-6 0 -8 2 -8 6v54c0 5 2 6 6 6z" />
    <glyph glyph-name="Iogonek" unicode="&#x12e;" horiz-adv-x="244" 
d="M80 14v641c0 4 1 6 5 6h73c4 0 5 -1 5 -5v-648c0 -5 0 -6 -4 -8c-44 -37 -70 -71 -70 -108c0 -35 27 -57 65 -57c20 0 41 3 56 8c3 1 4 0 4 -4v-47c0 -5 -1 -8 -4 -10c-15 -8 -45 -14 -80 -14c-59 0 -119 29 -119 103c0 58 42 102 73 132c-3 3 -4 5 -4 11z" />
    <glyph glyph-name="Itilde" unicode="&#x128;" horiz-adv-x="244" 
d="M163 655v-648c0 -5 -1 -7 -6 -7h-70c-5 0 -7 2 -7 7v647c0 5 2 7 6 7h71c4 0 6 -2 6 -6zM21 723h-48c-5 0 -6 2 -6 5c1 69 41 109 92 109c62 0 89 -54 126 -54c21 0 32 19 35 47c0 3 1 4 5 4h48c4 0 6 -1 6 -4c-5 -82 -44 -108 -88 -108c-59 0 -87 54 -126 54
c-19 0 -36 -16 -39 -48c0 -2 -2 -5 -5 -5z" />
    <glyph glyph-name="Jcircumflex" unicode="&#x134;" horiz-adv-x="289" 
d="M131 166v489c0 4 2 6 7 6h71c4 0 6 -1 6 -6v-481c0 -33 -2 -65 -7 -90c-23 -101 -96 -137 -178 -137c-13 0 -28 1 -39 4c-5 1 -5 4 -5 9v62c0 5 2 7 7 6c12 -2 22 -2 29 -2c70 0 109 34 109 140zM243 716l-74 76l-72 -75c-2 -3 -5 -5 -9 -5h-65c-3 0 -4 5 -2 7l107 112
c3 2 5 3 8 3h68c5 0 9 -2 10 -4l112 -113c2 -3 0 -5 -3 -5h-70c-5 0 -8 1 -10 4z" />
    <glyph glyph-name="uni0136" unicode="&#x136;" horiz-adv-x="560" 
d="M473 661h79c7 0 8 -5 5 -9l-293 -307c-2 -2 -2 -4 0 -7l316 -329c3 -4 1 -9 -4 -9h-88c-5 0 -8 1 -13 6l-307 319c-6 6 -6 10 0 15l295 316c3 3 5 5 10 5zM163 654v-647c0 -5 -2 -7 -6 -7h-70c-5 0 -7 2 -7 8v647c0 4 1 6 6 6h71c4 0 6 -2 6 -7zM291 -226h-63
c-3 0 -5 3 -3 6c28 46 38 78 38 115c0 19 -5 37 -14 59c-1 3 0 6 4 6h67c4 0 6 -1 8 -5c7 -11 14 -36 14 -54c0 -53 -17 -88 -43 -125c-2 -1 -4 -2 -8 -2z" />
    <glyph glyph-name="Lacute" unicode="&#x139;" horiz-adv-x="479" 
d="M458 0h-370c-6 0 -8 3 -8 8v646c0 4 1 7 6 7h72c4 0 5 -2 5 -6v-579h310c5 0 6 -3 5 -6l-12 -64c-1 -5 -4 -6 -8 -6zM75 730l123 110c3 3 6 3 10 3h88c4 0 5 -4 2 -6l-134 -109c-3 -4 -6 -4 -11 -4h-75c-4 0 -6 3 -3 6z" />
    <glyph glyph-name="Lcaron" unicode="&#x13d;" horiz-adv-x="479" 
d="M458 0h-370c-6 0 -8 3 -8 8v646c0 4 1 7 6 7h72c4 0 5 -2 5 -6v-579h310c5 0 6 -3 5 -6l-12 -64c-1 -5 -4 -6 -8 -6zM323 429v227c0 5 3 6 6 6h63c4 0 6 -2 5 -6l-14 -227c0 -4 -3 -5 -5 -5h-49c-4 0 -6 1 -6 5z" />
    <glyph glyph-name="uni013B" unicode="&#x13b;" horiz-adv-x="479" 
d="M458 0h-370c-6 0 -8 3 -8 8v646c0 4 1 7 6 7h72c4 0 5 -2 5 -6v-579h310c5 0 6 -3 5 -6l-12 -64c-1 -5 -4 -6 -8 -6zM273 -242h-63c-4 0 -5 4 -3 7c28 45 37 77 37 115c0 19 -5 37 -13 59c-2 3 0 6 3 6h68c3 0 6 -2 8 -5c7 -11 13 -36 13 -54c0 -54 -16 -88 -43 -125
c-1 -1 -4 -3 -7 -3z" />
    <glyph glyph-name="Ldot" unicode="&#x13f;" horiz-adv-x="479" 
d="M458 0h-370c-6 0 -8 3 -8 8v646c0 4 1 7 6 7h72c4 0 5 -2 5 -6v-579h310c5 0 6 -3 5 -6l-12 -64c-1 -5 -4 -6 -8 -6zM364 324c-31 0 -50 19 -50 46c0 26 21 45 51 45s49 -19 49 -45c0 -27 -18 -46 -50 -46z" />
    <glyph glyph-name="Nacute" unicode="&#x143;" horiz-adv-x="671" 
d="M153 0h-66c-4 0 -7 1 -7 7v648c0 4 1 6 6 6h99c5 0 6 -2 9 -6c87 -147 279 -472 319 -550h1c-2 27 -3 65 -3 152v397c0 5 2 7 7 7h66c5 0 7 -3 7 -8v-646c0 -5 -2 -7 -9 -7h-89c-6 0 -9 1 -11 6c-45 84 -294 497 -326 571h-1c2 -39 4 -88 4 -176v-394c0 -5 -2 -7 -6 -7z
M277 729l124 110c3 3 5 3 9 3h88c5 0 5 -4 3 -7l-135 -108c-3 -4 -6 -5 -10 -5h-76c-4 0 -5 4 -3 7z" />
    <glyph glyph-name="Ncaron" unicode="&#x147;" horiz-adv-x="671" 
d="M153 0h-66c-4 0 -7 1 -7 7v648c0 4 1 6 6 6h99c5 0 6 -2 9 -6c87 -147 279 -472 319 -550h1c-2 27 -3 65 -3 152v397c0 5 2 7 7 7h66c5 0 7 -3 7 -8v-646c0 -5 -2 -7 -9 -7h-89c-6 0 -9 1 -11 6c-45 84 -294 497 -326 571h-1c2 -39 4 -88 4 -176v-394c0 -5 -2 -7 -6 -7z
M265 830l74 -75l72 75c2 2 5 4 9 4h64c4 0 5 -5 2 -7l-107 -111c-2 -3 -4 -3 -7 -3h-69c-4 0 -8 1 -9 4l-112 112c-3 3 -1 5 3 5h70c5 0 8 -1 10 -4z" />
    <glyph glyph-name="uni0145" unicode="&#x145;" horiz-adv-x="671" 
d="M153 0h-66c-4 0 -7 1 -7 7v648c0 4 1 6 6 6h99c5 0 6 -2 9 -6c87 -147 279 -472 319 -550h1c-2 27 -3 65 -3 152v397c0 5 2 7 7 7h66c5 0 7 -3 7 -8v-646c0 -5 -2 -7 -9 -7h-89c-6 0 -9 1 -11 6c-45 84 -294 497 -326 571h-1c2 -39 4 -88 4 -176v-394c0 -5 -2 -7 -6 -7z
M337 -227h-63c-4 0 -5 4 -3 7c28 45 38 77 38 115c0 19 -5 37 -14 59c-2 3 0 6 3 6h68c3 0 6 -2 8 -5c7 -11 13 -36 13 -54c0 -54 -16 -88 -43 -125c-1 -1 -4 -3 -7 -3z" />
    <glyph glyph-name="Ohungarumlaut" unicode="&#x150;" horiz-adv-x="683" 
d="M341 671c188 0 300 -148 301 -337c1 -215 -126 -344 -299 -344c-191 0 -303 145 -303 342c0 201 127 339 301 339zM125 332c0 -145 76 -267 220 -267c133 0 212 108 211 267c0 155 -85 264 -216 264c-120 0 -215 -93 -215 -264zM207 742l76 108c2 4 4 5 9 5h69
c4 0 5 -3 3 -6l-87 -109c-3 -3 -4 -4 -9 -4h-58c-3 0 -5 2 -3 6zM375 743l74 107c3 4 6 6 10 6h69c5 0 6 -4 3 -8l-85 -106c-3 -5 -7 -6 -11 -6h-57c-3 0 -6 2 -3 7z" />
    <glyph glyph-name="Omacron" unicode="&#x14c;" horiz-adv-x="683" 
d="M341 671c188 0 300 -148 301 -337c1 -215 -126 -344 -299 -344c-191 0 -303 145 -303 342c0 201 127 339 301 339zM125 332c0 -145 76 -267 220 -267c133 0 212 108 211 267c0 155 -85 264 -216 264c-120 0 -215 -93 -215 -264zM210 817h267c3 0 4 -1 4 -5v-54
c0 -5 -2 -6 -5 -6h-264c-5 0 -7 1 -7 5v55c0 4 2 5 5 5z" />
    <glyph glyph-name="Racute" unicode="&#x154;" horiz-adv-x="564" 
d="M156 0h-70c-4 0 -6 1 -6 6v646c0 5 1 8 6 8c56 2 107 3 174 3c147 0 245 -63 245 -191c0 -94 -64 -152 -138 -177c34 -47 168 -244 194 -287c2 -4 2 -8 -3 -8h-84c-6 0 -8 1 -11 4c-31 47 -114 175 -164 252c-8 12 -13 16 -23 16h-114v-266c0 -4 -2 -6 -6 -6zM162 345
h107c95 0 153 49 153 123c0 76 -58 121 -165 121c-38 0 -75 -1 -95 -2v-242zM197 734l124 111c3 3 6 3 10 3h88c4 0 4 -4 2 -7l-134 -108c-4 -4 -6 -5 -11 -5h-75c-5 0 -6 4 -4 6z" />
    <glyph glyph-name="Rcaron" unicode="&#x158;" horiz-adv-x="564" 
d="M156 0h-70c-4 0 -6 1 -6 6v646c0 5 1 8 6 8c56 2 107 3 174 3c147 0 245 -63 245 -191c0 -94 -64 -152 -138 -177c34 -47 168 -244 194 -287c2 -4 2 -8 -3 -8h-84c-6 0 -8 1 -11 4c-31 47 -114 175 -164 252c-8 12 -13 16 -23 16h-114v-266c0 -4 -2 -6 -6 -6zM162 345
h107c95 0 153 49 153 123c0 76 -58 121 -165 121c-38 0 -75 -1 -95 -2v-242zM188 837l74 -76l72 75c2 3 5 5 9 5h64c4 0 5 -5 2 -7l-107 -112c-3 -2 -4 -3 -7 -3h-69c-4 0 -8 2 -10 4l-111 113c-3 3 -1 5 3 5h69c6 0 9 -2 11 -4z" />
    <glyph glyph-name="uni0156" unicode="&#x156;" horiz-adv-x="564" 
d="M156 0h-70c-4 0 -6 1 -6 6v646c0 5 1 8 6 8c56 2 107 3 174 3c147 0 245 -63 245 -191c0 -94 -64 -152 -138 -177c34 -47 168 -244 194 -287c2 -4 2 -8 -3 -8h-84c-6 0 -8 1 -11 4c-31 47 -114 175 -164 252c-8 12 -13 16 -23 16h-114v-266c0 -4 -2 -6 -6 -6zM162 345
h107c95 0 153 49 153 123c0 76 -58 121 -165 121c-38 0 -75 -1 -95 -2v-242zM291 -218h-62c-4 0 -5 3 -3 6c27 46 37 78 37 116c0 18 -5 37 -13 59c-2 3 0 5 3 5h68c3 0 6 -1 8 -4c7 -12 13 -36 13 -54c0 -54 -16 -88 -43 -125c-1 -2 -4 -3 -8 -3z" />
    <glyph glyph-name="Sacute" unicode="&#x15a;" horiz-adv-x="478" 
d="M212 -10c-69 0 -130 15 -169 38c-5 2 -6 6 -6 12v72c0 4 3 6 7 3c52 -35 116 -49 171 -49c96 0 140 43 140 103c0 47 -27 82 -118 123l-44 18c-124 53 -152 116 -152 183c0 104 80 178 215 178c63 0 117 -10 148 -27c4 -2 5 -5 5 -10v-67c0 -4 -3 -7 -8 -4
c-35 22 -90 33 -147 33c-104 0 -132 -54 -132 -96c0 -45 26 -79 115 -117l43 -18c123 -52 159 -114 159 -189c0 -108 -81 -186 -227 -186zM179 742l124 110c3 4 6 4 10 4h88c4 0 5 -4 2 -7l-134 -108c-4 -4 -6 -5 -11 -5h-75c-5 0 -6 3 -4 6z" />
    <glyph glyph-name="uni015E" unicode="&#x15e;" horiz-adv-x="478" 
d="M237 383l43 -18c123 -52 159 -114 159 -189c0 -95 -63 -167 -177 -183l-27 -38c60 -17 85 -48 85 -91c0 -54 -45 -88 -105 -88c-27 0 -53 6 -70 14c-3 1 -4 3 -4 7v39c0 3 2 5 5 4c19 -10 44 -14 64 -14c29 0 48 11 48 36c0 27 -30 46 -94 55c-3 2 -3 15 -1 19l40 54
c-65 1 -123 16 -160 38c-5 2 -6 6 -6 12v72c0 4 3 6 7 3c52 -35 116 -49 171 -49c96 0 140 43 140 103c0 47 -27 82 -118 123l-44 18c-124 53 -152 116 -152 183c0 104 80 178 215 178c63 0 117 -10 148 -27c4 -2 5 -5 5 -10v-67c0 -4 -3 -7 -8 -4c-35 22 -90 33 -147 33
c-104 0 -132 -54 -132 -96c0 -45 26 -79 115 -117z" />
    <glyph glyph-name="Scircumflex" unicode="&#x15c;" horiz-adv-x="478" 
d="M212 -10c-69 0 -130 15 -169 38c-5 2 -6 6 -6 12v72c0 4 3 6 7 3c52 -35 116 -49 171 -49c96 0 140 43 140 103c0 47 -27 82 -118 123l-44 18c-124 53 -152 116 -152 183c0 104 80 178 215 178c63 0 117 -10 148 -27c4 -2 5 -5 5 -10v-67c0 -4 -3 -7 -8 -4
c-35 22 -90 33 -147 33c-104 0 -132 -54 -132 -96c0 -45 26 -79 115 -117l43 -18c123 -52 159 -114 159 -189c0 -108 -81 -186 -227 -186zM308 727l-74 76l-72 -75c-2 -3 -5 -5 -9 -5h-64c-4 0 -5 5 -2 7l107 112c3 2 4 3 7 3h69c4 0 8 -2 10 -4l111 -113c3 -3 1 -5 -3 -5
h-69c-6 0 -9 1 -11 4z" />
    <glyph glyph-name="uni0218" unicode="&#x218;" horiz-adv-x="478" 
d="M212 -10c-69 0 -130 15 -169 38c-5 2 -6 6 -6 12v72c0 4 3 6 7 3c52 -35 116 -49 171 -49c96 0 140 43 140 103c0 47 -27 82 -118 123l-44 18c-124 53 -152 116 -152 183c0 104 80 178 215 178c63 0 117 -10 148 -27c4 -2 5 -5 5 -10v-67c0 -4 -3 -7 -8 -4
c-35 22 -90 33 -147 33c-104 0 -132 -54 -132 -96c0 -45 26 -79 115 -117l43 -18c123 -52 159 -114 159 -189c0 -108 -81 -186 -227 -186zM231 -240h-63c-4 0 -5 3 -3 6c28 46 38 78 38 115c0 19 -5 38 -14 59c-2 4 0 6 3 6h68c3 0 6 -1 8 -5c7 -11 13 -35 13 -54
c0 -53 -16 -87 -43 -124c-1 -2 -4 -3 -7 -3z" />
    <glyph glyph-name="Tcaron" unicode="&#x164;" horiz-adv-x="518" 
d="M217 7v578h-214c-4 0 -6 2 -5 7l10 63c1 4 3 6 8 6h489c5 0 7 -2 8 -7l7 -62c1 -5 -1 -7 -5 -7h-214v-577c0 -6 -2 -8 -7 -8h-69c-5 0 -8 2 -8 7zM189 834l74 -75l72 75c2 3 5 5 9 5h65c3 0 4 -5 2 -8l-108 -111c-2 -3 -4 -3 -7 -3h-68c-5 0 -9 1 -10 4l-112 113
c-3 3 -1 5 3 5h70c5 0 8 -2 10 -5z" />
    <glyph glyph-name="uni0162" unicode="&#x162;" horiz-adv-x="530" 
d="M516 654l8 -62c1 -5 -1 -7 -6 -7h-214v-577c0 -6 -2 -8 -7 -8h-7l-28 -43c59 -16 88 -49 88 -91c0 -54 -44 -87 -105 -87c-29 0 -54 5 -70 13c-3 2 -4 4 -4 9v37c0 4 2 6 6 4c19 -9 43 -14 62 -14c29 0 48 12 48 36c0 27 -29 47 -94 55c-2 2 -2 16 0 19l44 62h-9
c-5 0 -7 2 -7 7v578h-215c-4 0 -5 2 -4 7l9 63c1 4 3 6 8 6h489c5 0 7 -2 8 -7z" />
    <glyph glyph-name="uni021A" unicode="&#x21a;" horiz-adv-x="518" 
d="M217 7v578h-214c-4 0 -6 2 -5 7l10 63c1 4 3 6 8 6h489c5 0 7 -2 8 -7l7 -62c1 -5 -1 -7 -5 -7h-214v-577c0 -6 -2 -8 -7 -8h-69c-5 0 -8 2 -8 7zM257 -234h-63c-3 0 -5 4 -3 7c28 45 38 77 38 115c0 19 -5 37 -14 59c-1 3 0 6 3 6h68c4 0 6 -2 8 -5c7 -11 14 -36 14 -54
c0 -54 -17 -88 -44 -125c-1 -1 -3 -3 -7 -3z" />
    <glyph glyph-name="Ubreve" unicode="&#x16c;" horiz-adv-x="641" 
d="M154 655v-411c0 -110 60 -179 169 -179c84 0 164 37 164 181v408c0 5 2 7 6 7h71c5 0 7 -2 7 -7v-409c0 -184 -109 -255 -251 -255c-151 0 -249 82 -249 249v415c0 4 1 7 6 7h71c4 0 6 -2 6 -6zM177 832h57c3 0 4 -1 6 -5c12 -35 38 -58 79 -58c38 0 68 16 83 59
c1 2 2 4 6 4h57c5 0 5 -4 4 -7c-14 -76 -74 -122 -149 -122c-76 0 -135 41 -149 123c0 3 2 6 6 6z" />
    <glyph glyph-name="Uhungarumlaut" unicode="&#x170;" horiz-adv-x="641" 
d="M154 655v-411c0 -110 60 -179 169 -179c84 0 164 37 164 181v408c0 5 2 7 6 7h71c5 0 7 -2 7 -7v-409c0 -184 -109 -255 -251 -255c-151 0 -249 82 -249 249v415c0 4 1 7 6 7h71c4 0 6 -2 6 -6zM191 731l76 109c2 4 5 5 9 5h70c3 0 4 -4 2 -7l-87 -109c-3 -3 -4 -4 -8 -4
h-59c-3 0 -5 2 -3 6zM359 732l74 108c3 4 6 5 10 5h69c5 0 7 -4 4 -8l-85 -106c-4 -5 -8 -5 -12 -5h-57c-3 0 -5 1 -3 6z" />
    <glyph glyph-name="Umacron" unicode="&#x16a;" horiz-adv-x="641" 
d="M154 655v-411c0 -110 60 -179 169 -179c84 0 164 37 164 181v408c0 5 2 7 6 7h71c5 0 7 -2 7 -7v-409c0 -184 -109 -255 -251 -255c-151 0 -249 82 -249 249v415c0 4 1 7 6 7h71c4 0 6 -2 6 -6zM189 807h267c3 0 5 -2 5 -6v-54c0 -4 -2 -6 -6 -6h-264c-5 0 -7 2 -7 6v54
c0 5 2 6 5 6z" />
    <glyph glyph-name="Uogonek" unicode="&#x172;" horiz-adv-x="641" 
d="M473 28c-81 -51 -113 -94 -113 -133c0 -33 24 -55 63 -55c22 0 41 4 53 9c4 1 6 0 6 -4v-44c0 -6 -2 -9 -6 -11c-18 -11 -48 -16 -75 -16c-53 0 -115 27 -115 99c0 43 29 84 72 120c-9 -2 -15 -3 -37 -3c-151 0 -250 80 -250 246v418c0 4 1 7 6 7h71c4 0 6 -2 6 -6v-413
c0 -111 61 -177 170 -177c84 0 166 35 166 179v410c0 5 1 7 6 7h71c5 0 6 -2 6 -7v-412c0 -108 -39 -176 -100 -214z" />
    <glyph glyph-name="Uring" unicode="&#x16e;" horiz-adv-x="641" 
d="M154 655v-411c0 -110 60 -179 169 -179c84 0 164 37 164 181v408c0 5 2 7 6 7h71c5 0 7 -2 7 -7v-409c0 -184 -109 -255 -251 -255c-151 0 -249 82 -249 249v415c0 4 1 7 6 7h71c4 0 6 -2 6 -6zM216 782c0 53 43 86 103 86c61 0 102 -35 102 -86c0 -53 -43 -88 -102 -88
c-62 0 -103 35 -103 88zM265 782c0 -28 23 -46 54 -46s53 17 53 46c0 28 -22 46 -53 46c-32 0 -54 -18 -54 -46z" />
    <glyph glyph-name="Utilde" unicode="&#x168;" horiz-adv-x="641" 
d="M154 655v-411c0 -110 60 -179 169 -179c84 0 164 37 164 181v408c0 5 2 7 6 7h71c5 0 7 -2 7 -7v-409c0 -184 -109 -255 -251 -255c-151 0 -249 82 -249 249v415c0 4 1 7 6 7h71c4 0 6 -2 6 -6zM225 730h-49c-4 0 -5 2 -5 5c1 69 41 109 92 109c62 0 89 -54 126 -54
c21 0 32 19 35 47c0 3 1 4 5 4h48c4 0 5 -1 5 -4c-5 -82 -43 -108 -87 -108c-59 0 -87 53 -126 53c-19 0 -36 -15 -39 -47c0 -2 -2 -5 -5 -5z" />
    <glyph glyph-name="Wacute" unicode="&#x1e82;" horiz-adv-x="852" 
d="M483 655c45 -185 97 -391 135 -559h1c12 55 44 192 133 559c1 4 3 6 8 6h71c5 0 7 -2 6 -7l-174 -649c-1 -4 -3 -5 -8 -5h-80c-6 0 -7 1 -9 5c-29 124 -116 480 -134 566h-1c-17 -88 -118 -449 -150 -563c-1 -5 -2 -8 -8 -8h-77c-5 0 -7 2 -9 7l-171 647c-1 5 0 7 5 7h75
c5 0 7 -1 9 -5c101 -407 127 -512 135 -560h1c11 56 47 175 144 559c2 5 5 6 9 6h82c5 0 6 -2 7 -6zM382 732l124 111c3 3 5 3 9 3h88c5 0 5 -4 3 -7l-135 -108c-3 -4 -6 -5 -11 -5h-75c-4 0 -5 3 -3 6z" />
    <glyph glyph-name="Wcircumflex" unicode="&#x174;" horiz-adv-x="852" 
d="M483 655c45 -185 97 -391 135 -559h1c12 55 44 192 133 559c1 4 3 6 8 6h71c5 0 7 -2 6 -7l-174 -649c-1 -4 -3 -5 -8 -5h-80c-6 0 -7 1 -9 5c-29 124 -116 480 -134 566h-1c-17 -88 -118 -449 -150 -563c-1 -5 -2 -8 -8 -8h-77c-5 0 -7 2 -9 7l-171 647c-1 5 0 7 5 7h75
c5 0 7 -1 9 -5c101 -407 127 -512 135 -560h1c11 56 47 175 144 559c2 5 5 6 9 6h82c5 0 6 -2 7 -6zM503 721l-74 76l-72 -75c-2 -3 -4 -5 -9 -5h-64c-4 0 -4 5 -2 7l107 112c3 2 4 3 8 3h68c5 0 8 -2 10 -4l112 -113c2 -3 0 -5 -4 -5h-69c-5 0 -8 2 -11 4z" />
    <glyph glyph-name="Wdieresis" unicode="&#x1e84;" horiz-adv-x="852" 
d="M483 655c45 -185 97 -391 135 -559h1c12 55 44 192 133 559c1 4 3 6 8 6h71c5 0 7 -2 6 -7l-174 -649c-1 -4 -3 -5 -8 -5h-80c-6 0 -7 1 -9 5c-29 124 -116 480 -134 566h-1c-17 -88 -118 -449 -150 -563c-1 -5 -2 -8 -8 -8h-77c-5 0 -7 2 -9 7l-171 647c-1 5 0 7 5 7h75
c5 0 7 -1 9 -5c101 -407 127 -512 135 -560h1c11 56 47 175 144 559c2 5 5 6 9 6h82c5 0 6 -2 7 -6zM337 730c-28 0 -47 18 -47 44c0 27 21 46 49 46s47 -20 47 -46s-20 -44 -49 -44zM529 730c-27 0 -47 17 -47 44s21 46 49 46c27 0 47 -19 47 -46s-20 -44 -49 -44z" />
    <glyph glyph-name="Wgrave" unicode="&#x1e80;" horiz-adv-x="852" 
d="M483 655c45 -185 97 -391 135 -559h1c12 55 44 192 133 559c1 4 3 6 8 6h71c5 0 7 -2 6 -7l-174 -649c-1 -4 -3 -5 -8 -5h-80c-6 0 -7 1 -9 5c-29 124 -116 480 -134 566h-1c-17 -88 -118 -449 -150 -563c-1 -5 -2 -8 -8 -8h-77c-5 0 -7 2 -9 7l-171 647c-1 5 0 7 5 7h75
c5 0 7 -1 9 -5c101 -407 127 -512 135 -560h1c11 56 47 175 144 559c2 5 5 6 9 6h82c5 0 6 -2 7 -6zM361 843l119 -108c4 -4 1 -7 -3 -7h-72c-5 0 -8 1 -12 5l-135 107c-3 4 -1 7 3 7h89c5 0 7 0 11 -4z" />
    <glyph glyph-name="Ycircumflex" unicode="&#x176;" horiz-adv-x="517" 
d="M209 271l-220 383c-3 4 1 7 5 7h81c5 0 6 -2 8 -4c124 -224 164 -295 179 -329c17 34 56 107 176 328c2 4 4 5 8 5h79c4 0 5 -3 3 -6l-221 -386c-6 -9 -8 -15 -8 -26v-236c0 -5 -2 -7 -7 -7h-68c-7 0 -9 2 -9 7v239c0 11 0 16 -6 25zM328 723l-74 76l-72 -75
c-2 -4 -4 -5 -8 -5h-65c-4 0 -4 5 -2 7l107 111c3 3 5 3 8 3h68c5 0 8 -1 10 -3l112 -113c2 -3 0 -5 -4 -5h-69c-5 0 -8 1 -11 4z" />
    <glyph glyph-name="Ygrave" unicode="&#x1ef2;" horiz-adv-x="517" 
d="M209 271l-220 383c-3 4 1 7 5 7h81c5 0 6 -2 8 -4c124 -224 164 -295 179 -329c17 34 56 107 176 328c2 4 4 5 8 5h79c4 0 5 -3 3 -6l-221 -386c-6 -9 -8 -15 -8 -26v-236c0 -5 -2 -7 -7 -7h-68c-7 0 -9 2 -9 7v239c0 11 0 16 -6 25zM197 838l119 -108c4 -4 1 -7 -3 -7
h-72c-5 0 -8 1 -12 4l-135 108c-3 3 -1 7 3 7h89c5 0 7 -1 11 -4z" />
    <glyph glyph-name="Zacute" unicode="&#x179;" horiz-adv-x="530" 
d="M499 0h-479c-4 0 -7 1 -7 6v46c0 4 1 6 3 10l383 523h-368c-4 0 -6 1 -5 7l11 63c1 5 3 6 8 6h455c5 0 6 -2 6 -5v-48c0 -4 -1 -8 -5 -12l-379 -520h392c5 0 6 -2 5 -7l-13 -63c-1 -4 -2 -6 -7 -6zM204 738l124 110c3 3 5 3 9 3h88c5 0 5 -4 3 -7l-134 -108
c-4 -4 -7 -5 -11 -5h-76c-4 0 -5 4 -3 7z" />
    <glyph glyph-name="Zdotaccent" unicode="&#x17b;" horiz-adv-x="530" 
d="M499 0h-479c-4 0 -7 1 -7 6v46c0 4 1 6 3 10l383 523h-368c-4 0 -6 1 -5 7l11 63c1 5 3 6 8 6h455c5 0 6 -2 6 -5v-48c0 -4 -1 -8 -5 -12l-379 -520h392c5 0 6 -2 5 -7l-13 -63c-1 -4 -2 -6 -7 -6zM260 740c-31 0 -49 19 -49 45c0 27 20 45 50 45s49 -18 49 -45
c0 -26 -18 -45 -50 -45z" />
    <glyph glyph-name="uni018F" unicode="&#x18f;" horiz-adv-x="643" 
d="M205 350h313v13c-4 123 -69 233 -227 233c-71 0 -146 -20 -209 -64c-3 -2 -6 0 -6 5v65c0 4 1 8 4 10c48 30 125 59 221 59c222 0 303 -173 303 -334c0 -208 -108 -347 -294 -347c-200 0 -274 154 -274 286c0 37 3 66 7 70c11 4 96 4 162 4zM515 278h-287
c-85 0 -99 -1 -103 -2v-21c0 -77 50 -190 190 -190c125 0 188 84 200 213z" />
    <glyph glyph-name="ampersand.alt" horiz-adv-x="673" 
d="M251 66c55 0 94 25 138 79c-51 44 -121 117 -168 170c-70 -44 -93 -83 -93 -133c0 -64 53 -116 123 -116zM567 387h78c5 0 6 -3 3 -8c-39 -50 -111 -152 -153 -213c66 -58 110 -82 139 -98c5 -2 5 -4 5 -10v-67c0 -5 -3 -6 -8 -5c-48 12 -129 67 -186 114
c-71 -83 -127 -110 -204 -110c-132 0 -195 95 -195 183c0 72 34 127 136 191c-36 44 -61 91 -61 146c0 94 67 161 162 161c93 0 151 -61 151 -141c0 -67 -40 -115 -139 -175c35 -41 103 -109 147 -147c39 60 92 142 115 173c3 4 6 6 10 6zM358 528c0 38 -23 81 -77 81
c-51 0 -82 -39 -82 -93c0 -36 17 -75 57 -115c82 51 102 87 102 127z" />
    <glyph glyph-name="ampersand.alt2" horiz-adv-x="673" 
d="M251 66c55 0 94 25 138 79c-51 44 -121 117 -168 170c-70 -44 -93 -83 -93 -133c0 -64 53 -116 123 -116zM465 189c95 -82 140 -105 169 -121c5 -2 5 -4 5 -10v-67c0 -5 -3 -6 -8 -5c-48 12 -129 67 -186 114c-71 -83 -127 -110 -204 -110c-132 0 -195 95 -195 183
c0 72 34 127 136 191c-36 44 -61 91 -61 146c0 94 67 161 162 161c93 0 151 -61 151 -141c0 -67 -40 -115 -139 -175c35 -41 103 -109 170 -166zM358 528c0 38 -23 81 -77 81c-51 0 -82 -39 -82 -93c0 -36 17 -75 57 -115c82 51 102 87 102 127z" />
    <glyph glyph-name="abreve" unicode="&#x103;" horiz-adv-x="474" 
d="M323 75v157c-14 2 -36 4 -66 4c-97 0 -144 -33 -144 -89c0 -45 31 -89 119 -89c32 0 62 5 91 17zM404 308v-223c0 -17 0 -32 2 -48c0 -2 0 -3 -2 -4c-72 -34 -129 -43 -187 -43c-106 0 -186 52 -186 157c0 106 99 153 223 153c37 0 58 -1 69 -2v24c0 31 -15 100 -113 100
c-48 0 -92 -11 -127 -30c-3 -1 -7 0 -7 5v61c0 4 2 6 5 8c39 19 89 30 142 30c128 0 181 -84 181 -188zM85 685h56c3 0 5 -1 5 -4c13 -35 38 -59 83 -59c39 0 72 18 85 58c1 4 2 5 5 5h56c3 0 4 -2 3 -5c-13 -73 -67 -121 -149 -121c-77 0 -133 40 -148 121c-1 4 1 5 4 5z
" />
    <glyph glyph-name="amacron" unicode="&#x101;" horiz-adv-x="474" 
d="M323 75v157c-14 2 -36 4 -66 4c-97 0 -144 -33 -144 -89c0 -45 31 -89 119 -89c32 0 62 5 91 17zM404 308v-223c0 -17 0 -32 2 -48c0 -2 0 -3 -2 -4c-72 -34 -129 -43 -187 -43c-106 0 -186 52 -186 157c0 106 99 153 223 153c37 0 58 -1 69 -2v24c0 31 -15 100 -113 100
c-48 0 -92 -11 -127 -30c-3 -1 -7 0 -7 5v61c0 4 2 6 5 8c39 19 89 30 142 30c128 0 181 -84 181 -188zM106 661h260c3 0 4 -1 4 -6v-51c0 -4 -2 -5 -5 -5h-259c-4 0 -5 2 -5 6v51c0 4 2 5 5 5z" />
    <glyph glyph-name="aogonek" unicode="&#x105;" horiz-adv-x="474" 
d="M328 78v155c-10 2 -37 4 -68 4c-94 0 -146 -33 -146 -90c0 -46 32 -89 121 -89c33 0 65 7 93 20zM219 -10c-107 0 -188 48 -188 155s101 155 226 155c38 0 61 -1 71 -2v23c0 32 -14 101 -110 101c-50 0 -94 -13 -135 -37c-3 -2 -7 0 -7 4v62c0 4 1 6 5 8
c40 22 96 37 151 37c124 0 177 -84 177 -188v-220c0 -16 0 -34 2 -51c1 -5 1 -6 -4 -8c-85 -48 -127 -93 -127 -133c0 -33 24 -54 63 -54c23 0 44 4 56 9c5 1 7 0 7 -4v-45c0 -7 -2 -9 -6 -12c-18 -10 -52 -15 -80 -15c-54 0 -118 26 -118 99c0 49 40 92 86 122
c-24 -5 -46 -6 -69 -6z" />
    <glyph glyph-name="cacute" unicode="&#x107;" horiz-adv-x="420" 
d="M395 75v-62c0 -4 0 -6 -4 -7c-33 -13 -72 -16 -109 -16c-163 0 -247 116 -247 251c0 146 104 255 261 255c51 0 79 -6 95 -13c4 -2 4 -4 4 -9v-63c0 -5 -3 -5 -7 -4c-25 10 -51 15 -92 15c-103 0 -176 -69 -176 -178c0 -120 83 -179 176 -179c37 0 68 4 93 14
c5 1 6 -1 6 -4zM202 561l104 142c2 5 5 7 8 7h80c5 0 7 -3 4 -7l-118 -143c-2 -3 -5 -4 -9 -4h-66c-3 0 -4 2 -3 5z" />
    <glyph glyph-name="ccaron" unicode="&#x10d;" horiz-adv-x="420" 
d="M395 75v-62c0 -4 0 -6 -4 -7c-33 -13 -72 -16 -109 -16c-163 0 -247 116 -247 251c0 146 104 255 261 255c51 0 79 -6 95 -13c4 -2 4 -4 4 -9v-63c0 -5 -3 -5 -7 -4c-25 10 -51 15 -92 15c-103 0 -176 -69 -176 -178c0 -120 83 -179 176 -179c37 0 68 4 93 14
c5 1 6 -1 6 -4zM188 701l71 -102l69 103c1 2 3 3 8 3h54c4 0 5 -4 3 -7l-97 -138c-2 -4 -4 -4 -6 -4h-65c-5 0 -7 1 -8 4l-100 139c-3 3 0 6 3 6h59c5 0 7 -1 9 -4z" />
    <glyph glyph-name="ccircumflex" unicode="&#x109;" horiz-adv-x="420" 
d="M395 75v-62c0 -4 0 -6 -4 -7c-33 -13 -72 -16 -109 -16c-163 0 -247 116 -247 251c0 146 104 255 261 255c51 0 79 -6 95 -13c4 -2 4 -4 4 -9v-63c0 -5 -3 -5 -7 -4c-25 10 -51 15 -92 15c-103 0 -176 -69 -176 -178c0 -120 83 -179 176 -179c37 0 68 4 93 14
c5 1 6 -1 6 -4zM319 560l-70 102l-70 -103c-1 -2 -3 -3 -7 -3h-55c-4 0 -5 4 -3 7l97 138c3 4 4 4 7 4h65c5 0 6 -1 8 -4l100 -139c2 -3 0 -6 -4 -6h-59c-5 0 -7 1 -9 4z" />
    <glyph glyph-name="cdotaccent" unicode="&#x10b;" horiz-adv-x="420" 
d="M395 75v-62c0 -4 0 -6 -4 -7c-33 -13 -72 -16 -109 -16c-163 0 -247 116 -247 251c0 146 104 255 261 255c51 0 79 -6 95 -13c4 -2 4 -4 4 -9v-63c0 -5 -3 -5 -7 -4c-25 10 -51 15 -92 15c-103 0 -176 -69 -176 -178c0 -120 83 -179 176 -179c37 0 68 4 93 14
c5 1 6 -1 6 -4zM258 585c-31 0 -50 21 -50 51c0 29 21 51 51 51c31 0 50 -22 50 -51c0 -30 -20 -51 -51 -51z" />
    <glyph glyph-name="dcaron" unicode="&#x10f;" horiz-adv-x="571" 
d="M521 486l1 226c0 4 1 6 5 6h55c5 0 6 -1 6 -6l-11 -225c-1 -5 -3 -7 -7 -7h-43c-4 0 -6 1 -6 6zM284 -10c-139 0 -248 84 -248 249c0 147 110 257 273 257c27 0 43 -3 63 -6v221c0 5 2 6 6 6h72c5 0 5 -2 5 -5v-630c0 -14 1 -31 3 -48c0 -4 -1 -5 -5 -7
c-57 -27 -113 -37 -169 -37zM372 76v338c-17 7 -40 10 -66 10c-113 0 -184 -77 -184 -181c0 -130 82 -180 170 -180c26 0 57 3 80 13z" />
    <glyph glyph-name="dcroat" unicode="&#x111;" horiz-adv-x="524" 
d="M370 79v318c-17 9 -36 13 -70 13c-113 0 -180 -74 -180 -173c0 -127 89 -173 171 -173c27 0 56 4 79 15zM453 633h71c4 0 5 -1 5 -4v-53c0 -4 -2 -5 -6 -5h-70v-486c0 -16 2 -35 3 -47c0 -4 -1 -6 -5 -8c-55 -29 -107 -40 -168 -40c-139 0 -248 82 -248 243
c0 146 105 249 267 249c39 0 53 -3 68 -7v96h-174c-4 0 -5 2 -5 6v51c0 4 1 5 5 5h174v78c0 5 2 6 6 6h72c5 0 5 -2 5 -5v-79z" />
    <glyph glyph-name="ebreve" unicode="&#x115;" horiz-adv-x="482" 
d="M337 233h-218c-1 -95 54 -170 167 -170c44 0 86 8 125 27c3 2 5 0 5 -4v-57c0 -6 -2 -8 -5 -10c-34 -17 -78 -29 -141 -29c-173 0 -235 127 -235 249c0 140 82 257 221 257c143 0 195 -116 195 -201c0 -25 -2 -43 -4 -52c0 -3 -3 -6 -7 -6c-15 -3 -59 -4 -103 -4z
M120 295h186c49 0 61 1 64 2c1 3 1 8 1 11c0 36 -24 119 -118 119c-83 0 -124 -65 -133 -132zM104 685h56c3 0 5 -1 5 -4c13 -35 38 -59 83 -59c39 0 72 18 85 58c1 4 2 5 5 5h56c3 0 4 -2 3 -5c-13 -73 -67 -121 -149 -121c-77 0 -133 40 -148 121c-1 4 1 5 4 5z" />
    <glyph glyph-name="ecaron" unicode="&#x11b;" horiz-adv-x="482" 
d="M337 233h-218c-1 -95 54 -170 167 -170c44 0 86 8 125 27c3 2 5 0 5 -4v-57c0 -6 -2 -8 -5 -10c-34 -17 -78 -29 -141 -29c-173 0 -235 127 -235 249c0 140 82 257 221 257c143 0 195 -116 195 -201c0 -25 -2 -43 -4 -52c0 -3 -3 -6 -7 -6c-15 -3 -59 -4 -103 -4z
M120 295h186c49 0 61 1 64 2c1 3 1 8 1 11c0 36 -24 119 -118 119c-83 0 -124 -65 -133 -132zM175 701l71 -102l69 103c1 2 3 3 7 3h55c4 0 5 -4 3 -7l-97 -138c-2 -4 -4 -4 -7 -4h-64c-5 0 -7 1 -9 4l-99 139c-3 3 0 6 3 6h59c5 0 7 -1 9 -4z" />
    <glyph glyph-name="edotaccent" unicode="&#x117;" horiz-adv-x="482" 
d="M337 233h-218c-1 -95 54 -170 167 -170c44 0 86 8 125 27c3 2 5 0 5 -4v-57c0 -6 -2 -8 -5 -10c-34 -17 -78 -29 -141 -29c-173 0 -235 127 -235 249c0 140 82 257 221 257c143 0 195 -116 195 -201c0 -25 -2 -43 -4 -52c0 -3 -3 -6 -7 -6c-15 -3 -59 -4 -103 -4z
M120 295h186c49 0 61 1 64 2c1 3 1 8 1 11c0 36 -24 119 -118 119c-83 0 -124 -65 -133 -132zM248 585c-31 0 -50 21 -50 51s21 51 51 51c31 0 50 -22 50 -51c0 -30 -20 -51 -51 -51z" />
    <glyph glyph-name="emacron" unicode="&#x113;" horiz-adv-x="482" 
d="M337 233h-218c-1 -95 54 -170 167 -170c44 0 86 8 125 27c3 2 5 0 5 -4v-57c0 -6 -2 -8 -5 -10c-34 -17 -78 -29 -141 -29c-173 0 -235 127 -235 249c0 140 82 257 221 257c143 0 195 -116 195 -201c0 -25 -2 -43 -4 -52c0 -3 -3 -6 -7 -6c-15 -3 -59 -4 -103 -4z
M120 295h186c49 0 61 1 64 2c1 3 1 8 1 11c0 36 -24 119 -118 119c-83 0 -124 -65 -133 -132zM122 661h259c3 0 5 -1 5 -6v-51c0 -4 -2 -5 -5 -5h-260c-4 0 -5 2 -5 6v51c0 4 2 5 6 5z" />
    <glyph glyph-name="eogonek" unicode="&#x119;" horiz-adv-x="482" 
d="M120 295h185c49 0 61 1 64 2c1 3 1 11 1 13c0 39 -24 116 -118 116c-82 0 -123 -64 -132 -131zM286 -8c-192 -10 -251 125 -251 247c0 140 81 257 221 257c144 0 194 -114 194 -199c0 -25 -2 -43 -4 -51c0 -4 -3 -7 -7 -8c-15 -2 -59 -4 -103 -4h-217
c-2 -97 53 -170 166 -170c44 0 86 7 125 27c3 2 5 0 5 -4v-58c0 -6 -2 -8 -6 -11c-86 -39 -134 -81 -134 -125c0 -33 24 -54 65 -54c22 0 41 4 52 9c5 2 7 0 7 -5v-43c0 -6 -2 -9 -6 -11c-19 -11 -49 -15 -77 -15c-55 0 -116 26 -116 99c0 48 36 88 86 119z" />
    <glyph glyph-name="gbreve" unicode="&#x11f;" horiz-adv-x="490" 
d="M324 683h56c3 0 4 -2 3 -5c-13 -73 -67 -121 -149 -121c-77 0 -133 40 -148 121c-1 4 1 5 4 5h56c3 0 5 -1 5 -4c13 -35 38 -59 83 -59c39 0 72 18 85 58c1 4 2 5 5 5zM279 10l-106 5c-41 -29 -67 -71 -67 -93c0 -46 55 -93 147 -93c110 0 159 52 159 102
c0 59 -62 75 -133 79zM236 432c-63 0 -104 -41 -104 -105c0 -61 36 -105 103 -105c63 0 102 38 102 103c0 58 -31 107 -101 107zM194 87l102 -5c124 -6 194 -51 194 -139c0 -100 -95 -179 -242 -179c-148 0 -221 78 -221 152c0 34 29 79 98 137c-16 22 -24 48 -24 75
c0 22 6 44 17 63c-41 27 -68 72 -68 135c0 93 69 170 187 170c31 0 57 -4 75 -8c9 -2 15 -2 21 -2h141c5 0 6 -2 6 -6v-57c0 -4 -1 -6 -6 -6c-26 0 -68 2 -92 4c18 -19 35 -51 35 -97c0 -110 -82 -165 -181 -165c-19 0 -37 2 -55 6c-5 -12 -7 -25 -5 -37c2 -15 8 -29 18 -41
z" />
    <glyph glyph-name="gcircumflex" unicode="&#x11d;" horiz-adv-x="490" 
d="M163 555h-55c-4 0 -5 4 -3 7l97 138c3 4 4 4 7 4h65c5 0 6 -1 8 -4l100 -139c2 -3 0 -6 -4 -6h-59c-5 0 -7 1 -8 4l-71 102l-70 -103c-1 -2 -3 -3 -7 -3zM279 10l-106 5c-41 -29 -67 -71 -67 -93c0 -46 55 -93 147 -93c110 0 159 52 159 102c0 59 -62 75 -133 79z
M236 432c-63 0 -104 -41 -104 -105c0 -61 36 -105 103 -105c63 0 102 38 102 103c0 58 -31 107 -101 107zM194 87l102 -5c124 -6 194 -51 194 -139c0 -100 -95 -179 -242 -179c-148 0 -221 78 -221 152c0 34 29 79 98 137c-16 22 -24 48 -24 75c0 22 6 44 17 63
c-41 27 -68 72 -68 135c0 93 69 170 187 170c31 0 57 -4 75 -8c9 -2 15 -2 21 -2h141c5 0 6 -2 6 -6v-57c0 -4 -1 -6 -6 -6c-26 0 -68 2 -92 4c18 -19 35 -51 35 -97c0 -110 -82 -165 -181 -165c-19 0 -37 2 -55 6c-5 -12 -7 -25 -5 -37c2 -15 8 -29 18 -41z" />
    <glyph glyph-name="uni0123" unicode="&#x123;" horiz-adv-x="490" 
d="M279 545h-67c-4 0 -7 2 -8 5c-7 12 -14 36 -14 54c0 54 16 88 43 125c2 2 4 3 8 3h62c4 0 5 -4 4 -7c-28 -45 -38 -77 -38 -115c0 -19 5 -37 14 -59c1 -3 -1 -6 -4 -6zM279 10l-106 5c-41 -29 -67 -71 -67 -93c0 -46 55 -93 147 -93c110 0 159 52 159 102
c0 59 -62 75 -133 79zM236 432c-63 0 -104 -41 -104 -105c0 -61 36 -105 103 -105c63 0 102 38 102 103c0 58 -31 107 -101 107zM194 87l102 -5c124 -6 194 -51 194 -139c0 -100 -95 -179 -242 -179c-148 0 -221 78 -221 152c0 34 29 79 98 137c-16 22 -24 48 -24 75
c0 22 6 44 17 63c-41 27 -68 72 -68 135c0 93 69 170 187 170c31 0 57 -4 75 -8c9 -2 15 -2 21 -2h141c5 0 6 -2 6 -6v-57c0 -4 -1 -6 -6 -6c-26 0 -68 2 -92 4c18 -19 35 -51 35 -97c0 -110 -82 -165 -181 -165c-19 0 -37 2 -55 6c-5 -12 -7 -25 -5 -37c2 -15 8 -29 18 -41
z" />
    <glyph glyph-name="gdotaccent" unicode="&#x121;" horiz-adv-x="490" 
d="M236 584c-31 0 -50 21 -50 51s21 51 51 51c31 0 50 -22 50 -51c0 -30 -20 -51 -51 -51zM279 10l-106 5c-41 -29 -67 -71 -67 -93c0 -46 55 -93 147 -93c110 0 159 52 159 102c0 59 -62 75 -133 79zM236 432c-63 0 -104 -41 -104 -105c0 -61 36 -105 103 -105
c63 0 102 38 102 103c0 58 -31 107 -101 107zM194 87l102 -5c124 -6 194 -51 194 -139c0 -100 -95 -179 -242 -179c-148 0 -221 78 -221 152c0 34 29 79 98 137c-16 22 -24 48 -24 75c0 22 6 44 17 63c-41 27 -68 72 -68 135c0 93 69 170 187 170c31 0 57 -4 75 -8
c9 -2 15 -2 21 -2h141c5 0 6 -2 6 -6v-57c0 -4 -1 -6 -6 -6c-26 0 -68 2 -92 4c18 -19 35 -51 35 -97c0 -110 -82 -165 -181 -165c-19 0 -37 2 -55 6c-5 -12 -7 -25 -5 -37c2 -15 8 -29 18 -41z" />
    <glyph glyph-name="uni00670303" horiz-adv-x="490" 
d="M139 568h-47c-5 0 -6 3 -6 7c3 72 41 110 94 110c60 0 103 -54 139 -54c25 0 34 19 37 47c0 3 1 5 5 5h47c5 0 5 -1 5 -4c-3 -83 -39 -113 -88 -113c-56 0 -97 55 -140 55c-23 0 -38 -15 -42 -48c0 -1 -1 -5 -4 -5zM279 10l-106 5c-41 -29 -67 -71 -67 -93
c0 -46 55 -93 147 -93c110 0 159 52 159 102c0 59 -62 75 -133 79zM236 432c-63 0 -104 -41 -104 -105c0 -61 36 -105 103 -105c63 0 102 38 102 103c0 58 -31 107 -101 107zM194 87l102 -5c124 -6 194 -51 194 -139c0 -100 -95 -179 -242 -179c-148 0 -221 78 -221 152
c0 34 29 79 98 137c-16 22 -24 48 -24 75c0 22 6 44 17 63c-41 27 -68 72 -68 135c0 93 69 170 187 170c31 0 57 -4 75 -8c9 -2 15 -2 21 -2h141c5 0 6 -2 6 -6v-57c0 -4 -1 -6 -6 -6c-26 0 -68 2 -92 4c18 -19 35 -51 35 -97c0 -110 -82 -165 -181 -165c-19 0 -37 2 -55 6
c-5 -12 -7 -25 -5 -37c2 -15 8 -29 18 -41z" />
    <glyph glyph-name="hbar" unicode="&#x127;" horiz-adv-x="536" 
d="M153 571l1 -146c42 41 91 58 149 58c71 0 163 -34 163 -193v-283c0 -5 -2 -7 -7 -7h-69c-5 0 -7 2 -7 8v276c0 77 -33 127 -103 127c-52 0 -94 -19 -127 -58v-347c0 -5 -1 -6 -6 -6h-70c-5 0 -7 2 -7 7v564h-72c-5 0 -6 2 -6 6v51c0 4 1 5 5 5h73v78c0 4 1 6 6 6h72
c4 0 5 -1 5 -5v-79h172c4 0 5 -1 5 -4v-53c0 -4 -1 -5 -5 -5h-172z" />
    <glyph glyph-name="hcircumflex" unicode="&#x125;" horiz-adv-x="536" 
d="M184 751l-73 52l-67 -52c-3 -3 -6 -4 -10 -4h-67c-4 0 -6 3 -3 6l110 91c3 3 4 3 7 3h63c5 0 8 -2 10 -4l114 -90c3 -3 1 -6 -3 -6h-70c-4 0 -9 2 -11 4zM153 367v-361c0 -5 -1 -6 -6 -6h-70c-5 0 -7 2 -7 7v704c0 4 1 6 6 6h72c4 0 5 -1 5 -5l1 -274c41 38 89 58 148 58
c71 0 163 -35 163 -193v-296c0 -5 -2 -7 -7 -7h-70c-5 0 -7 2 -7 8v286c0 77 -33 128 -103 128c-49 0 -93 -20 -125 -55z" />
    <glyph glyph-name="i.dot" horiz-adv-x="225" 
d="M70 8v471c0 5 2 7 7 7h71c4 0 6 -1 6 -6v-473c0 -5 -1 -7 -7 -7h-69c-5 0 -8 2 -8 8zM112 582c-31 0 -50 21 -50 51s21 51 51 51c32 0 50 -22 50 -51c0 -30 -20 -51 -51 -51z" />
    <glyph glyph-name="imacron" unicode="&#x12b;" horiz-adv-x="225" 
d="M70 8v471c0 5 2 7 7 7h71c4 0 6 -1 6 -6v-473c0 -5 -1 -7 -7 -7h-69c-5 0 -8 2 -8 8zM-15 661h259c4 0 5 -1 5 -6v-51c0 -4 -2 -5 -5 -5h-259c-4 0 -5 2 -5 6v51c0 4 2 5 5 5z" />
    <glyph glyph-name="iogonek" unicode="&#x12f;" horiz-adv-x="225" 
d="M154 480v-473c0 -4 -2 -4 -5 -7c-41 -34 -60 -65 -60 -99c0 -35 24 -59 65 -59c26 0 43 4 54 9c4 1 6 0 6 -4v-48c0 -5 -2 -7 -6 -9c-16 -10 -45 -15 -78 -15c-58 0 -120 30 -120 103c0 51 33 94 65 125c-3 2 -5 5 -5 10v466c0 5 2 7 7 7h71c4 0 6 -1 6 -6zM112 594
c-28 0 -47 19 -47 48c0 27 20 48 48 48c30 0 47 -21 47 -48c0 -28 -19 -48 -48 -48z" />
    <glyph glyph-name="itilde" unicode="&#x129;" horiz-adv-x="225" 
d="M70 8v471c0 5 2 7 7 7h71c4 0 6 -1 6 -6v-473c0 -5 -1 -7 -7 -7h-69c-5 0 -8 2 -8 8zM4 568h-47c-5 0 -6 3 -6 7c3 72 41 110 94 110c60 0 103 -54 139 -54c25 0 34 19 37 47c0 3 1 5 5 5h47c5 0 5 -1 5 -4c-3 -83 -39 -113 -88 -113c-56 0 -97 55 -140 55
c-23 0 -38 -15 -42 -48c0 -1 -1 -5 -4 -5z" />
    <glyph glyph-name="uni0237" unicode="&#x237;" horiz-adv-x="226" 
d="M78 486h71c4 0 6 -2 6 -6v-485c0 -109 -20 -148 -49 -181c-30 -33 -81 -43 -113 -43c-7 0 -11 0 -17 1c-5 1 -6 3 -6 7v60c0 4 1 6 6 6c52 2 95 18 96 130v505c0 4 2 6 6 6z" />
    <glyph glyph-name="jcircumflex" unicode="&#x135;" horiz-adv-x="226" 
d="M78 486h71c4 0 6 -2 6 -6v-485c0 -109 -20 -148 -49 -181c-30 -33 -81 -43 -113 -43c-7 0 -11 0 -17 1c-5 1 -6 3 -6 7v60c0 4 1 6 6 6c52 2 95 18 96 130v505c0 4 2 6 6 6zM181 559l-71 102l-70 -103c-1 -2 -3 -3 -7 -3h-55c-4 0 -5 4 -2 7l96 138c3 4 4 4 7 4h65
c5 0 6 -1 8 -4l100 -139c2 -3 0 -6 -4 -6h-59c-5 0 -6 1 -8 4z" />
    <glyph glyph-name="uni0137" unicode="&#x137;" horiz-adv-x="465" 
d="M196 -40h67c4 0 6 -1 8 -5c7 -11 14 -36 14 -54c0 -53 -17 -88 -43 -125c-2 -1 -4 -2 -8 -2h-63c-3 0 -5 3 -3 6c28 46 38 78 38 115c0 19 -5 37 -14 59c-1 3 1 6 4 6zM374 486h80c5 0 7 -4 3 -8c-28 -31 -179 -177 -216 -213c-1 -1 0 -3 0 -4c65 -68 174 -181 247 -254
c3 -3 1 -7 -4 -7h-95c-5 0 -7 2 -10 5c-52 53 -178 185 -226 237v-235c0 -5 -1 -7 -6 -7h-70c-6 0 -7 2 -7 7v704c0 4 1 6 7 6h70c4 0 6 -2 6 -6v-448c47 47 185 190 211 218c4 4 6 5 10 5z" />
    <glyph glyph-name="kgreenlandic" unicode="&#x138;" horiz-adv-x="466" 
d="M374 486h79c6 0 7 -4 4 -8c-29 -31 -179 -177 -216 -213c-1 -1 0 -2 0 -4c65 -68 175 -181 248 -254c2 -3 1 -7 -4 -7h-95c-6 0 -8 2 -11 5c-51 53 -178 185 -226 237v-235c0 -5 -1 -7 -6 -7h-70c-6 0 -7 2 -7 7v473c0 4 1 6 7 6h70c4 0 6 -2 6 -6v-217
c47 47 185 190 211 218c3 4 5 5 10 5z" />
    <glyph glyph-name="lacute" unicode="&#x13a;" horiz-adv-x="241" 
d="M69 765l92 81c4 4 8 4 13 4h81c4 0 6 -4 1 -8l-103 -81c-5 -3 -8 -4 -14 -4h-67c-5 0 -7 3 -3 8zM70 101v610c0 5 2 6 7 6h70c5 0 6 -2 6 -6v-603c0 -39 16 -48 40 -48c7 0 11 1 20 3c3 0 4 -2 4 -6v-52c0 -5 -1 -6 -5 -8c-9 -4 -25 -7 -46 -7c-49 0 -96 17 -96 111z" />
    <glyph glyph-name="lcaron" unicode="&#x13e;" horiz-adv-x="276" 
d="M223 485v226c0 4 1 6 6 6h55c4 0 5 -1 5 -6l-11 -225c-1 -4 -3 -7 -6 -7h-43c-5 0 -6 1 -6 6zM70 101v610c0 5 2 6 7 6h70c5 0 6 -2 6 -6v-603c0 -39 16 -48 40 -48c7 0 11 1 20 3c3 0 4 -2 4 -6v-52c0 -5 -1 -6 -5 -8c-9 -4 -25 -7 -46 -7c-49 0 -96 17 -96 111z" />
    <glyph glyph-name="uni013C" unicode="&#x13c;" horiz-adv-x="241" 
d="M70 101v610c0 5 2 6 7 6h70c5 0 6 -2 6 -6v-603c0 -39 16 -48 40 -48c7 0 11 1 20 3c3 0 4 -2 4 -6v-52c0 -5 -1 -6 -5 -8c-9 -4 -25 -7 -46 -7c-49 0 -96 17 -96 111zM136 -233h-63c-3 0 -5 3 -3 6c28 46 38 78 38 116c0 19 -5 37 -14 59c-1 3 0 5 3 5h68c4 0 6 -1 8 -4
c7 -12 14 -36 14 -54c0 -54 -17 -88 -44 -125c-1 -2 -3 -3 -7 -3z" />
    <glyph glyph-name="ldot" unicode="&#x140;" horiz-adv-x="259" 
d="M243 369c-26 0 -41 18 -41 50c0 30 14 50 41 50c28 0 42 -20 42 -50c0 -32 -15 -50 -42 -50zM70 101v610c0 5 2 6 7 6h70c5 0 6 -2 6 -6v-603c0 -39 16 -48 40 -48c7 0 11 1 20 3c3 0 4 -2 4 -6v-52c0 -5 -1 -6 -5 -8c-9 -4 -25 -7 -46 -7c-49 0 -96 17 -96 111z" />
    <glyph glyph-name="nacute" unicode="&#x144;" horiz-adv-x="535" 
d="M70 7v366c0 34 -2 90 -4 107c0 4 1 6 6 6h62c5 0 7 -2 9 -6c3 -9 4 -28 6 -50c44 44 95 66 153 66c71 0 163 -35 163 -193v-296c0 -5 -2 -7 -7 -7h-70c-5 0 -7 2 -7 8v287c0 76 -33 127 -103 127c-51 0 -93 -23 -125 -61v-354c0 -5 -1 -7 -6 -7h-71c-4 0 -6 2 -6 7z
M219 561l104 142c2 5 5 7 8 7h80c5 0 7 -3 4 -7l-118 -143c-2 -3 -5 -4 -9 -4h-66c-3 0 -4 2 -3 5z" />
    <glyph glyph-name="ncaron" unicode="&#x148;" horiz-adv-x="535" 
d="M70 7v366c0 34 -2 90 -4 107c0 4 1 6 6 6h62c5 0 7 -2 9 -6c3 -9 4 -28 6 -50c44 44 95 66 153 66c71 0 163 -35 163 -193v-296c0 -5 -2 -7 -7 -7h-70c-5 0 -7 2 -7 8v287c0 76 -33 127 -103 127c-51 0 -93 -23 -125 -61v-354c0 -5 -1 -7 -6 -7h-71c-4 0 -6 2 -6 7z
M193 701l70 -102l70 103c1 2 3 3 7 3h55c4 0 5 -4 3 -7l-97 -138c-3 -4 -4 -4 -7 -4h-65c-4 0 -6 1 -8 4l-100 139c-2 3 0 6 4 6h59c5 0 7 -1 9 -4z" />
    <glyph glyph-name="uni0146" unicode="&#x146;" horiz-adv-x="535" 
d="M70 7v366c0 34 -2 90 -4 107c0 4 1 6 6 6h62c5 0 7 -2 9 -6c3 -9 4 -28 6 -50c44 44 95 66 153 66c71 0 163 -35 163 -193v-296c0 -5 -2 -7 -7 -7h-70c-5 0 -7 2 -7 8v287c0 76 -33 127 -103 127c-51 0 -93 -23 -125 -61v-354c0 -5 -1 -7 -6 -7h-71c-4 0 -6 2 -6 7z
M268 -233h-63c-3 0 -5 4 -3 7c28 45 38 77 38 115c0 19 -5 37 -14 59c-1 3 0 5 4 5h67c4 0 6 -1 8 -4c7 -12 14 -36 14 -54c0 -54 -17 -88 -43 -125c-2 -2 -4 -3 -8 -3z" />
    <glyph glyph-name="napostrophe" unicode="&#x149;" horiz-adv-x="537" 
d="M21 548l1 182c0 5 2 6 5 6h67c5 0 6 -2 5 -6l-14 -183c0 -4 -2 -5 -5 -5h-53c-4 0 -6 1 -6 6zM70 7v366c0 34 -2 90 -4 107c0 4 1 6 6 6h62c5 0 7 -2 9 -6c3 -9 4 -28 6 -50c44 44 95 66 153 66c71 0 163 -35 163 -193v-296c0 -5 -2 -7 -7 -7h-70c-5 0 -7 2 -7 8v287
c0 76 -33 127 -103 127c-51 0 -93 -23 -125 -61v-354c0 -5 -1 -7 -6 -7h-71c-4 0 -6 2 -6 7z" />
    <glyph glyph-name="ohungarumlaut" unicode="&#x151;" horiz-adv-x="527" 
d="M265 496c141 0 228 -108 228 -252c0 -152 -94 -254 -228 -254c-161 0 -230 130 -230 253c0 141 90 253 230 253zM261 424c-84 0 -142 -72 -142 -179c0 -102 53 -183 148 -183c71 0 141 56 141 180c0 93 -43 182 -147 182zM144 564l75 139c2 5 5 7 11 7h61c5 0 6 -5 4 -8
l-86 -141c-3 -4 -4 -6 -11 -6h-50c-6 0 -6 5 -4 9zM304 565l76 139c2 5 5 6 9 6h63c5 0 7 -5 4 -8l-86 -140c-3 -4 -5 -7 -13 -7h-47c-7 0 -9 5 -6 10z" />
    <glyph glyph-name="omacron" unicode="&#x14d;" horiz-adv-x="527" 
d="M265 496c141 0 228 -108 228 -252c0 -152 -94 -254 -228 -254c-161 0 -230 130 -230 253c0 141 90 253 230 253zM261 424c-84 0 -142 -72 -142 -179c0 -102 53 -183 148 -183c71 0 141 56 141 180c0 93 -43 182 -147 182zM134 661h260c3 0 4 -1 4 -6v-51
c0 -4 -1 -5 -5 -5h-259c-4 0 -5 2 -5 6v51c0 4 2 5 5 5z" />
    <glyph glyph-name="racute" unicode="&#x155;" horiz-adv-x="318" 
d="M70 486h64c6 0 7 -2 9 -7c4 -12 7 -47 8 -69c35 48 97 86 161 86c5 0 7 -1 7 -7v-72c0 -5 -1 -6 -7 -6c-69 1 -132 -33 -157 -73l-1 -332c0 -5 -2 -6 -6 -6h-71c-5 0 -7 2 -7 7v345c0 42 -2 100 -5 128c0 4 1 6 5 6zM115 561l104 142c2 5 5 7 8 7h80c5 0 7 -3 4 -7
l-118 -143c-2 -3 -5 -4 -9 -4h-66c-3 0 -4 2 -3 5z" />
    <glyph glyph-name="rcaron" unicode="&#x159;" horiz-adv-x="318" 
d="M70 486h64c6 0 7 -2 9 -7c4 -12 7 -47 8 -69c35 48 97 86 161 86c5 0 7 -1 7 -7v-72c0 -5 -1 -6 -7 -6c-69 1 -132 -33 -157 -73l-1 -332c0 -5 -2 -6 -6 -6h-71c-5 0 -7 2 -7 7v345c0 42 -2 100 -5 128c0 4 1 6 5 6zM112 701l71 -102l69 103c1 1 3 3 8 3h54
c5 0 6 -4 3 -7l-97 -139c-2 -3 -4 -4 -6 -4h-65c-5 0 -7 2 -8 5l-100 139c-2 3 0 6 3 6h60c4 0 6 -2 8 -4z" />
    <glyph glyph-name="uni0157" unicode="&#x157;" horiz-adv-x="318" 
d="M70 486h64c6 0 7 -2 9 -7c4 -12 7 -47 8 -69c35 48 97 86 161 86c5 0 7 -1 7 -7v-72c0 -5 -1 -6 -7 -6c-69 1 -132 -33 -157 -73l-1 -332c0 -5 -2 -6 -6 -6h-71c-5 0 -7 2 -7 7v345c0 42 -2 100 -5 128c0 4 1 6 5 6zM107 -230h-62c-4 0 -5 3 -4 6c28 45 38 77 38 115
c0 19 -5 37 -14 59c-1 3 1 6 4 6h67c4 0 7 -2 8 -5c7 -11 14 -36 14 -54c0 -53 -16 -88 -43 -125c-2 -1 -4 -2 -8 -2z" />
    <glyph glyph-name="sacute" unicode="&#x15b;" horiz-adv-x="378" 
d="M317 398c-28 17 -74 29 -116 29c-66 0 -88 -32 -88 -62s18 -51 93 -81c101 -39 142 -80 142 -151c0 -92 -75 -143 -179 -143c-55 0 -105 12 -134 29c-3 2 -5 4 -5 9v67c0 5 3 7 6 5c40 -28 91 -40 135 -40c64 0 95 28 95 65s-22 59 -91 86c-100 38 -142 79 -142 150
c0 72 61 135 170 135c55 0 96 -10 117 -22c5 -2 5 -6 5 -10v-61c0 -5 -3 -8 -8 -5zM132 561l104 142c2 5 5 7 8 7h80c5 0 7 -3 4 -7l-118 -143c-2 -3 -5 -4 -9 -4h-66c-3 0 -4 2 -3 5z" />
    <glyph glyph-name="uni015F" unicode="&#x15f;" horiz-adv-x="378" 
d="M325 464v-61c0 -5 -3 -8 -8 -5c-28 17 -74 29 -116 29c-66 0 -88 -32 -88 -62s18 -51 93 -81c101 -39 142 -80 142 -151c0 -77 -53 -126 -132 -139l-27 -39c61 -17 85 -48 85 -91c0 -53 -45 -88 -105 -88c-27 0 -54 6 -69 14c-4 2 -5 3 -5 8v37c0 4 2 6 6 5
c19 -10 43 -14 63 -14c29 0 48 11 48 36c0 27 -30 46 -94 55c-3 2 -3 15 -1 19l40 54c-50 2 -95 13 -122 29c-3 2 -5 4 -5 9v67c0 5 3 7 6 5c40 -28 91 -40 135 -40c64 0 95 28 95 65s-22 59 -91 86c-100 38 -142 79 -142 150c0 72 61 135 170 135c55 0 96 -10 117 -22
c5 -2 5 -6 5 -10z" />
    <glyph glyph-name="scircumflex" unicode="&#x15d;" horiz-adv-x="378" 
d="M317 398c-28 17 -74 29 -116 29c-66 0 -88 -32 -88 -62s18 -51 93 -81c101 -39 142 -80 142 -151c0 -92 -75 -143 -179 -143c-55 0 -105 12 -134 29c-3 2 -5 4 -5 9v67c0 5 3 7 6 5c40 -28 91 -40 135 -40c64 0 95 28 95 65s-22 59 -91 86c-100 38 -142 79 -142 150
c0 72 61 135 170 135c55 0 96 -10 117 -22c5 -2 5 -6 5 -10v-61c0 -5 -3 -8 -8 -5zM255 559l-70 102l-70 -103c-1 -2 -3 -3 -7 -3h-55c-4 0 -5 4 -3 7l97 138c3 4 4 4 7 4h65c5 0 6 -1 8 -4l100 -139c2 -3 0 -6 -4 -6h-59c-5 0 -7 1 -9 4z" />
    <glyph glyph-name="uni0219" unicode="&#x219;" horiz-adv-x="378" 
d="M317 398c-28 17 -74 29 -116 29c-66 0 -88 -32 -88 -62s18 -51 93 -81c101 -39 142 -80 142 -151c0 -92 -75 -143 -179 -143c-55 0 -105 12 -134 29c-3 2 -5 4 -5 9v67c0 5 3 7 6 5c40 -28 91 -40 135 -40c64 0 95 28 95 65s-22 59 -91 86c-100 38 -142 79 -142 150
c0 72 61 135 170 135c55 0 96 -10 117 -22c5 -2 5 -6 5 -10v-61c0 -5 -3 -8 -8 -5zM179 -236h-62c-4 0 -5 3 -4 6c28 46 38 78 38 115c0 19 -5 37 -14 59c-1 4 1 6 4 6h68c3 0 6 -1 8 -5c6 -11 13 -35 13 -54c0 -53 -16 -87 -43 -125c-2 -1 -4 -2 -8 -2z" />
    <glyph glyph-name="tcaron" unicode="&#x165;" horiz-adv-x="293" 
d="M235 586v175c0 6 2 8 7 8h56c6 0 8 -2 8 -8l-14 -175c-1 -5 -3 -7 -8 -7h-43c-5 0 -6 2 -6 7zM279 65v-51c0 -4 -1 -8 -6 -10c-23 -10 -48 -14 -75 -14c-73 0 -117 35 -117 131v293h-68c-6 1 -7 3 -7 8v57c0 5 2 7 7 7h68c1 37 5 106 9 128c1 4 3 6 7 7l68 11
c4 1 6 0 6 -4c-3 -35 -6 -93 -6 -142h106c4 0 6 -2 6 -7v-59c0 -4 -2 -6 -6 -6h-106v-281c0 -46 17 -72 61 -72c15 0 30 2 47 8c3 1 6 1 6 -4z" />
    <glyph glyph-name="uni0163" unicode="&#x163;" horiz-adv-x="293" 
d="M165 414v-281c0 -46 17 -72 61 -72c15 0 30 2 47 8c3 1 6 1 6 -4v-51c0 -4 -1 -8 -6 -10c-20 -9 -41 -13 -64 -14l-25 -35c61 -17 86 -48 86 -91c0 -53 -45 -88 -106 -88c-27 0 -53 6 -69 14c-3 2 -4 3 -4 8v37c0 4 2 6 6 5c19 -10 43 -14 62 -14c30 0 49 11 49 36
c0 27 -30 46 -94 55c-3 2 -3 15 -1 19l43 59c-47 12 -75 50 -75 126v293h-68c-6 1 -7 3 -7 8v57c0 5 2 7 7 7h68c1 37 5 106 9 128c1 4 3 6 7 7l68 11c4 1 6 0 6 -4c-3 -35 -6 -93 -6 -142h106c4 0 6 -2 6 -7v-59c0 -4 -2 -6 -6 -6h-106z" />
    <glyph glyph-name="uni021B" unicode="&#x21b;" horiz-adv-x="293" 
d="M279 65v-51c0 -4 -1 -8 -6 -10c-23 -10 -48 -14 -75 -14c-73 0 -117 35 -117 131v293h-68c-6 1 -7 3 -7 8v57c0 5 2 7 7 7h68c1 37 5 106 9 128c1 4 3 6 7 7l68 11c4 1 6 0 6 -4c-3 -35 -6 -93 -6 -142h106c4 0 6 -2 6 -7v-59c0 -4 -2 -6 -6 -6h-106v-281
c0 -46 17 -72 61 -72c15 0 30 2 47 8c3 1 6 1 6 -4zM166 -242h-63c-3 0 -5 3 -3 6c28 45 38 77 38 115c0 19 -5 37 -14 59c-1 3 1 6 4 6h67c4 0 6 -2 8 -5c7 -11 14 -36 14 -54c0 -54 -17 -88 -43 -125c-2 -1 -4 -2 -8 -2z" />
    <glyph glyph-name="ubreve" unicode="&#x16d;" horiz-adv-x="528" 
d="M457 480v-374c0 -53 3 -78 6 -100c0 -4 -1 -6 -6 -6h-64c-5 0 -6 1 -8 5c-3 11 -5 29 -6 43c-42 -43 -95 -58 -145 -58c-85 0 -165 43 -165 188v302c0 5 2 6 7 6h71c4 0 5 -2 5 -6v-292c0 -77 36 -124 106 -124c48 0 86 18 116 51v365c0 4 2 6 7 6h70c6 0 6 -2 6 -6z
M122 685h56c3 0 5 -1 5 -4c13 -35 38 -59 83 -59c39 0 72 18 85 58c1 4 2 5 5 5h56c3 0 4 -2 3 -5c-13 -73 -67 -121 -149 -121c-77 0 -133 40 -148 121c-1 4 1 5 4 5z" />
    <glyph glyph-name="uhungarumlaut" unicode="&#x171;" horiz-adv-x="528" 
d="M457 480v-374c0 -53 3 -78 6 -100c0 -4 -1 -6 -6 -6h-64c-5 0 -6 1 -8 5c-3 11 -5 29 -6 43c-42 -43 -95 -58 -145 -58c-85 0 -165 43 -165 188v302c0 5 2 6 7 6h71c4 0 5 -2 5 -6v-292c0 -77 36 -124 106 -124c48 0 86 18 116 51v365c0 4 2 6 7 6h70c6 0 6 -2 6 -6z
M145 564l75 139c2 5 5 7 11 7h61c5 0 6 -5 4 -8l-86 -141c-3 -4 -4 -6 -11 -6h-50c-6 0 -6 5 -4 9zM305 565l76 139c2 5 5 6 9 6h63c5 0 7 -5 4 -8l-86 -140c-3 -4 -5 -7 -13 -7h-48c-6 0 -8 5 -5 10z" />
    <glyph glyph-name="umacron" unicode="&#x16b;" horiz-adv-x="528" 
d="M457 480v-374c0 -53 3 -78 6 -100c0 -4 -1 -6 -6 -6h-64c-5 0 -6 1 -8 5c-3 11 -5 29 -6 43c-42 -43 -95 -58 -145 -58c-85 0 -165 43 -165 188v302c0 5 2 6 7 6h71c4 0 5 -2 5 -6v-292c0 -77 36 -124 106 -124c48 0 86 18 116 51v365c0 4 2 6 7 6h70c6 0 6 -2 6 -6z
M137 661h259c4 0 5 -1 5 -6v-51c0 -4 -2 -5 -5 -5h-259c-4 0 -5 2 -5 6v51c0 4 2 5 5 5z" />
    <glyph glyph-name="uogonek" unicode="&#x173;" horiz-adv-x="528" 
d="M495 -153v-46c0 -6 -2 -9 -6 -11c-19 -11 -45 -15 -73 -15c-55 0 -113 28 -113 101c0 57 42 101 82 138c-1 6 -4 21 -4 34c-41 -41 -93 -58 -146 -58c-82 0 -166 38 -166 187v303c0 5 2 6 7 6h71c4 0 5 -2 5 -6v-291c0 -79 36 -126 106 -126c49 0 88 19 117 54v363
c0 4 2 6 7 6h71c5 0 6 -2 6 -6v-374c0 -46 1 -74 5 -97c1 -4 0 -7 -3 -8c-45 -31 -81 -69 -81 -107c0 -33 21 -52 59 -52c22 0 38 4 49 9c5 1 7 0 7 -4z" />
    <glyph glyph-name="uring" unicode="&#x16f;" horiz-adv-x="528" 
d="M457 480v-374c0 -53 3 -78 6 -100c0 -4 -1 -6 -6 -6h-64c-5 0 -6 1 -8 5c-3 11 -5 29 -6 43c-42 -43 -95 -58 -145 -58c-85 0 -165 43 -165 188v302c0 5 2 6 7 6h71c4 0 5 -2 5 -6v-292c0 -77 36 -124 106 -124c48 0 86 18 116 51v365c0 4 2 6 7 6h70c6 0 6 -2 6 -6z
M167 635c0 55 41 91 99 91c57 0 99 -37 99 -91c0 -55 -42 -91 -99 -91c-58 0 -99 34 -99 91zM216 635c0 -30 22 -49 50 -49c27 0 50 18 50 49s-23 50 -50 50c-28 0 -50 -19 -50 -50z" />
    <glyph glyph-name="utilde" unicode="&#x169;" horiz-adv-x="528" 
d="M457 480v-374c0 -53 3 -78 6 -100c0 -4 -1 -6 -6 -6h-64c-5 0 -6 1 -8 5c-3 11 -5 29 -6 43c-42 -43 -95 -58 -145 -58c-85 0 -165 43 -165 188v302c0 5 2 6 7 6h71c4 0 5 -2 5 -6v-292c0 -77 36 -124 106 -124c48 0 86 18 116 51v365c0 4 2 6 7 6h70c6 0 6 -2 6 -6z
M155 568h-47c-5 0 -6 3 -6 7c3 72 41 110 94 110c61 0 104 -54 139 -54c25 0 34 19 37 47c0 3 1 5 5 5h48c4 0 5 -1 5 -4c-4 -83 -40 -113 -89 -113c-56 0 -96 55 -140 55c-22 0 -37 -15 -42 -48c0 -1 -1 -5 -4 -5z" />
    <glyph glyph-name="wacute" unicode="&#x1e83;" horiz-adv-x="715" 
d="M548 0h-79c-6 0 -8 2 -9 7c-74 265 -93 348 -104 395h-1c-18 -80 -54 -202 -111 -395c-2 -6 -5 -7 -10 -7h-77c-8 0 -10 2 -11 7l-130 472c-2 4 0 7 5 7h75c3 0 6 -1 7 -5c74 -275 91 -367 98 -402h2c8 34 26 117 111 400c1 5 2 7 7 7h81c4 0 6 -2 7 -6
c81 -290 95 -363 103 -402h2c11 47 26 132 104 403c1 3 3 5 7 5h70c4 0 6 -2 5 -6l-143 -474c-2 -4 -3 -6 -9 -6zM309 561l104 142c2 5 5 7 8 7h80c5 0 7 -3 4 -7l-118 -143c-2 -3 -5 -4 -9 -4h-66c-3 0 -4 2 -3 5z" />
    <glyph glyph-name="wcircumflex" unicode="&#x175;" horiz-adv-x="715" 
d="M548 0h-79c-6 0 -8 2 -9 7c-74 265 -93 348 -104 395h-1c-18 -80 -54 -202 -111 -395c-2 -6 -5 -7 -10 -7h-77c-8 0 -10 2 -11 7l-130 472c-2 4 0 7 5 7h75c3 0 6 -1 7 -5c74 -275 91 -367 98 -402h2c8 34 26 117 111 400c1 5 2 7 7 7h81c4 0 6 -2 7 -6
c81 -290 95 -363 103 -402h2c11 47 26 132 104 403c1 3 3 5 7 5h70c4 0 6 -2 5 -6l-143 -474c-2 -4 -3 -6 -9 -6zM427 559l-71 102l-69 -103c-1 -2 -3 -3 -8 -3h-54c-5 0 -6 4 -3 7l97 138c2 4 3 4 6 4h65c5 0 7 -1 8 -4l100 -139c2 -3 0 -6 -3 -6h-60c-4 0 -6 1 -8 4z" />
    <glyph glyph-name="wdieresis" unicode="&#x1e85;" horiz-adv-x="715" 
d="M548 0h-79c-6 0 -8 2 -9 7c-74 265 -93 348 -104 395h-1c-18 -80 -54 -202 -111 -395c-2 -6 -5 -7 -10 -7h-77c-8 0 -10 2 -11 7l-130 472c-2 4 0 7 5 7h75c3 0 6 -1 7 -5c74 -275 91 -367 98 -402h2c8 34 26 117 111 400c1 5 2 7 7 7h81c4 0 6 -2 7 -6
c81 -290 95 -363 103 -402h2c11 47 26 132 104 403c1 3 3 5 7 5h70c4 0 6 -2 5 -6l-143 -474c-2 -4 -3 -6 -9 -6zM270 587c-26 0 -45 18 -45 46c0 29 20 47 47 47c25 0 43 -19 43 -47s-20 -46 -45 -46zM453 587c-26 0 -45 18 -45 46c0 29 21 47 46 47c26 0 44 -19 44 -47
c0 -27 -19 -46 -45 -46z" />
    <glyph glyph-name="wgrave" unicode="&#x1e81;" horiz-adv-x="715" 
d="M548 0h-79c-6 0 -8 2 -9 7c-74 265 -93 348 -104 395h-1c-18 -80 -54 -202 -111 -395c-2 -6 -5 -7 -10 -7h-77c-8 0 -10 2 -11 7l-130 472c-2 4 0 7 5 7h75c3 0 6 -1 7 -5c74 -275 91 -367 98 -402h2c8 34 26 117 111 400c1 5 2 7 7 7h81c4 0 6 -2 7 -6
c81 -290 95 -363 103 -402h2c11 47 26 132 104 403c1 3 3 5 7 5h70c4 0 6 -2 5 -6l-143 -474c-2 -4 -3 -6 -9 -6zM304 705l107 -144c1 -3 0 -6 -4 -6h-68c-4 0 -6 3 -7 5l-123 142c-2 4 -1 7 3 7h84c3 0 5 -1 8 -4z" />
    <glyph glyph-name="ycircumflex" unicode="&#x177;" horiz-adv-x="459" 
d="M11 486h79c4 0 6 -2 7 -5c83 -220 124 -334 138 -379c32 92 74 207 135 379c2 3 4 5 8 5h71c5 0 6 -3 4 -7c-74 -217 -177 -473 -272 -687c-2 -4 -5 -6 -11 -7l-75 -6c-5 0 -5 3 -3 8c29 61 66 142 99 221c2 4 2 7 0 13c-24 60 -124 303 -185 459c-2 4 1 6 5 6zM297 559
l-70 102l-70 -103c-1 -2 -3 -3 -7 -3h-55c-4 0 -5 4 -3 7l97 138c3 4 4 4 7 4h65c5 0 6 -1 8 -4l100 -139c2 -3 0 -6 -4 -6h-59c-5 0 -7 1 -9 4z" />
    <glyph glyph-name="ygrave" unicode="&#x1ef3;" horiz-adv-x="459" 
d="M11 486h79c4 0 6 -2 7 -5c83 -220 124 -334 138 -379c32 92 74 207 135 379c2 3 4 5 8 5h71c5 0 6 -3 4 -7c-74 -217 -177 -473 -272 -687c-2 -4 -5 -6 -11 -7l-75 -6c-5 0 -5 3 -3 8c29 61 66 142 99 221c2 4 2 7 0 13c-24 60 -124 303 -185 459c-2 4 1 6 5 6zM186 705
l107 -144c2 -3 0 -6 -4 -6h-68c-3 0 -6 3 -7 5l-123 142c-2 4 0 7 3 7h84c4 0 6 -1 8 -4z" />
    <glyph glyph-name="zacute" unicode="&#x17a;" horiz-adv-x="396" 
d="M374 0h-359c-3 0 -4 3 -4 7v39c0 4 1 6 2 9c68 99 233 314 265 360c-18 -1 -50 -1 -102 -1h-152c-6 0 -7 2 -6 8l11 58c1 4 3 6 7 6h337c4 0 5 -2 5 -6v-42c0 -4 -1 -7 -4 -12c-101 -147 -232 -317 -260 -355c31 1 73 0 122 0h152c5 0 7 -1 5 -6l-12 -59
c-1 -5 -4 -6 -7 -6zM148 561l104 142c2 5 5 7 8 7h80c5 0 7 -3 4 -7l-118 -143c-2 -3 -5 -4 -9 -4h-66c-3 0 -4 2 -3 5z" />
    <glyph glyph-name="zdotaccent" unicode="&#x17c;" horiz-adv-x="396" 
d="M374 0h-359c-3 0 -4 3 -4 7v39c0 4 1 6 2 9c68 99 233 314 265 360c-18 -1 -50 -1 -102 -1h-152c-6 0 -7 2 -6 8l11 58c1 4 3 6 7 6h337c4 0 5 -2 5 -6v-42c0 -4 -1 -7 -4 -12c-101 -147 -232 -317 -260 -355c31 1 73 0 122 0h152c5 0 7 -1 5 -6l-12 -59
c-1 -5 -4 -6 -7 -6zM198 582c-31 0 -50 21 -50 51s21 51 51 51c31 0 50 -22 50 -51c0 -30 -20 -51 -51 -51z" />
    <glyph glyph-name="uni0259" unicode="&#x259;" horiz-adv-x="486" 
d="M147 259h217c2 81 -44 162 -154 162c-49 0 -98 -10 -136 -31c-3 -1 -5 0 -5 4v58c0 6 1 8 5 10c33 17 85 33 152 33c162 0 223 -126 223 -248c0 -147 -80 -257 -220 -257c-143 0 -196 121 -196 206c0 25 2 43 4 52c0 4 3 7 7 8c15 2 59 3 103 3zM363 199h-185
c-49 0 -61 -1 -64 -2c-1 -3 -1 -11 -1 -14c0 -38 26 -124 120 -124c84 0 123 66 130 140z" />
    <glyph glyph-name="g.alt" horiz-adv-x="522" 
d="M367 85v327c-21 8 -48 12 -75 12c-113 0 -171 -83 -171 -182c0 -124 85 -173 160 -173c32 0 62 3 86 16zM450 416v-369c0 -47 -4 -84 -10 -115c-28 -131 -127 -168 -235 -168c-43 0 -101 6 -140 26c-4 3 -5 5 -5 9v73c0 3 2 5 5 3c45 -25 96 -33 142 -33
c122 0 158 62 159 162v8c-28 -13 -61 -17 -95 -17c-125 0 -236 82 -236 244c0 146 102 257 265 257c64 0 118 -13 151 -27c2 -1 2 -3 2 -6c-2 -16 -3 -38 -3 -47z" />
    <glyph glyph-name="gbreve.alt" horiz-adv-x="522" 
d="M367 85v327c-21 8 -48 12 -75 12c-113 0 -171 -83 -171 -182c0 -124 85 -173 160 -173c32 0 62 3 86 16zM450 416v-369c0 -47 -4 -84 -10 -115c-28 -131 -127 -168 -235 -168c-43 0 -101 6 -140 26c-4 3 -5 5 -5 9v73c0 3 2 5 5 3c45 -25 96 -33 142 -33
c122 0 158 62 159 162v8c-28 -13 -61 -17 -95 -17c-125 0 -236 82 -236 244c0 146 102 257 265 257c64 0 118 -13 151 -27c2 -1 2 -3 2 -6c-2 -16 -3 -38 -3 -47zM126 685h56c3 0 5 -1 6 -4c12 -35 37 -59 82 -59c39 0 72 18 85 58c1 4 2 5 5 5h56c4 0 4 -2 4 -5
c-14 -73 -68 -121 -150 -121c-77 0 -133 40 -148 121c-1 4 1 5 4 5z" />
    <glyph glyph-name="gcircumflex.alt" horiz-adv-x="522" 
d="M367 85v327c-21 8 -48 12 -75 12c-113 0 -171 -83 -171 -182c0 -124 85 -173 160 -173c32 0 62 3 86 16zM450 416v-369c0 -47 -4 -84 -10 -115c-28 -131 -127 -168 -235 -168c-43 0 -101 6 -140 26c-4 3 -5 5 -5 9v73c0 3 2 5 5 3c45 -25 96 -33 142 -33
c122 0 158 62 159 162v8c-28 -13 -61 -17 -95 -17c-125 0 -236 82 -236 244c0 146 102 257 265 257c64 0 118 -13 151 -27c2 -1 2 -3 2 -6c-2 -16 -3 -38 -3 -47zM341 559l-71 102l-69 -103c-1 -2 -3 -3 -7 -3h-55c-4 0 -5 4 -3 7l97 138c3 4 4 4 7 4h65c4 0 6 -1 8 -4
l100 -139c2 -3 0 -6 -4 -6h-59c-5 0 -7 1 -9 4z" />
    <glyph glyph-name="uni0123.alt" horiz-adv-x="522" 
d="M367 85v327c-21 8 -48 12 -75 12c-113 0 -171 -83 -171 -182c0 -124 85 -173 160 -173c32 0 62 3 86 16zM450 416v-369c0 -47 -4 -84 -10 -115c-28 -131 -127 -168 -235 -168c-43 0 -101 6 -140 26c-4 3 -5 5 -5 9v73c0 3 2 5 5 3c45 -25 96 -33 142 -33
c122 0 158 62 159 162v8c-28 -13 -61 -17 -95 -17c-125 0 -236 82 -236 244c0 146 102 257 265 257c64 0 118 -13 151 -27c2 -1 2 -3 2 -6c-2 -16 -3 -38 -3 -47zM279 737h63c4 0 5 -3 3 -6c-28 -46 -38 -78 -38 -115c0 -19 5 -38 14 -59c1 -4 0 -6 -3 -6h-68
c-4 0 -6 1 -8 5c-7 11 -14 35 -14 54c0 53 17 87 44 124c1 2 3 3 7 3z" />
    <glyph glyph-name="gdotaccent.alt" horiz-adv-x="522" 
d="M367 85v327c-21 8 -48 12 -75 12c-113 0 -171 -83 -171 -182c0 -124 85 -173 160 -173c32 0 62 3 86 16zM450 416v-369c0 -47 -4 -84 -10 -115c-28 -131 -127 -168 -235 -168c-43 0 -101 6 -140 26c-4 3 -5 5 -5 9v73c0 3 2 5 5 3c45 -25 96 -33 142 -33
c122 0 158 62 159 162v8c-28 -13 -61 -17 -95 -17c-125 0 -236 82 -236 244c0 146 102 257 265 257c64 0 118 -13 151 -27c2 -1 2 -3 2 -6c-2 -16 -3 -38 -3 -47zM286 587c-31 0 -50 21 -50 51c0 29 21 51 51 51c32 0 50 -22 50 -51c0 -30 -20 -51 -51 -51z" />
    <glyph glyph-name="uni00670303.alt" horiz-adv-x="522" 
d="M367 85v327c-21 8 -48 12 -75 12c-113 0 -171 -83 -171 -182c0 -124 85 -173 160 -173c32 0 62 3 86 16zM450 416v-369c0 -47 -4 -84 -10 -115c-28 -131 -127 -168 -235 -168c-43 0 -101 6 -140 26c-4 3 -5 5 -5 9v73c0 3 2 5 5 3c45 -25 96 -33 142 -33
c122 0 158 62 159 162v8c-28 -13 -61 -17 -95 -17c-125 0 -236 82 -236 244c0 146 102 257 265 257c64 0 118 -13 151 -27c2 -1 2 -3 2 -6c-2 -16 -3 -38 -3 -47zM163 573h-47c-5 0 -6 4 -6 7c3 72 41 111 94 111c60 0 103 -54 139 -54c25 0 34 18 37 46c0 3 1 6 5 6h47
c5 0 6 -2 6 -5c-4 -82 -40 -112 -89 -112c-56 0 -97 54 -140 54c-23 0 -38 -14 -42 -48c0 -1 -1 -5 -4 -5z" />
    <glyph glyph-name="uni0251" unicode="&#x251;" horiz-adv-x="525" 
d="M283 -10c-139 0 -248 85 -248 249c0 148 105 257 268 257c54 0 106 -9 144 -23c2 0 6 -2 6 -8v-380c0 -16 2 -35 3 -47c0 -4 -1 -6 -5 -8c-55 -29 -107 -40 -168 -40zM370 79v335c-12 4 -36 10 -70 10c-113 0 -180 -78 -180 -181c0 -128 89 -179 171 -179
c27 0 56 4 79 15z" />
    <glyph glyph-name="uni0261" unicode="&#x261;" horiz-adv-x="522" 
d="M367 85v327c-21 8 -48 12 -75 12c-113 0 -171 -83 -171 -182c0 -124 85 -173 160 -173c32 0 62 3 86 16zM450 416v-369c0 -47 -4 -84 -10 -115c-28 -131 -127 -168 -235 -168c-43 0 -101 6 -140 26c-4 3 -5 5 -5 9v73c0 3 2 5 5 3c45 -25 96 -33 142 -33
c122 0 158 62 159 162v8c-28 -13 -61 -17 -95 -17c-125 0 -236 82 -236 244c0 146 102 257 265 257c64 0 118 -13 151 -27c2 -1 2 -3 2 -6c-2 -16 -3 -38 -3 -47z" />
    <glyph glyph-name="caron.alt" 
d="M159 428v227c0 4 3 6 6 6h62c5 0 6 -2 6 -6l-14 -228c0 -3 -3 -4 -6 -4h-48c-4 0 -6 1 -6 5z" />
    <glyph glyph-name="uni00200326" 
d="M206 -227h-63c-3 0 -5 3 -3 6c28 46 38 78 38 116c0 18 -5 37 -14 59c-1 3 1 5 4 5h67c4 0 7 -1 8 -4c7 -12 14 -36 14 -54c0 -54 -17 -88 -43 -125c-2 -2 -4 -3 -8 -3z" />
    <glyph glyph-name="uni0020030F" 
d="M239 703l76 -139c2 -4 1 -9 -5 -9h-49c-8 0 -9 2 -11 6l-87 141c-2 3 -1 7 4 7h62c6 0 8 -2 10 -6zM78 704l76 -139c3 -6 1 -10 -5 -10h-48c-7 0 -10 2 -12 7l-87 140c-2 3 -1 8 4 8h63c5 0 7 -2 9 -6z" />
    <glyph glyph-name="grave.cap" 
d="M140 840l120 -108c3 -4 1 -7 -4 -7h-71c-5 0 -8 1 -12 4l-135 108c-3 4 -1 7 3 7h89c5 0 7 0 10 -4z" />
    <glyph glyph-name="acute.cap" 
d="M142 731l124 111c3 3 5 3 9 3h88c5 0 5 -4 3 -7l-134 -108c-4 -4 -7 -5 -11 -5h-75c-5 0 -6 3 -4 6z" />
    <glyph glyph-name="circumflex.cap" 
d="M264 719l-74 75l-72 -75c-2 -3 -5 -5 -9 -5h-64c-4 0 -5 6 -2 8l107 111c3 2 4 3 7 3h69c4 0 8 -1 10 -4l111 -113c3 -2 1 -5 -3 -5h-69c-6 0 -9 2 -11 5z" />
    <glyph glyph-name="tilde.cap" 
d="M94 722h-48c-5 0 -6 2 -6 5c1 68 41 109 92 109c62 0 89 -54 126 -54c21 0 32 18 35 46c0 3 1 5 5 5h48c4 0 6 -1 6 -5c-6 -82 -44 -108 -88 -108c-59 0 -87 54 -126 54c-19 0 -36 -16 -39 -48c0 -2 -2 -4 -5 -4z" />
    <glyph glyph-name="macron.cap" 
d="M63 808h266c3 0 5 -2 5 -6v-54c0 -5 -2 -6 -6 -6h-263c-5 0 -7 1 -7 6v54c0 4 1 6 5 6z" />
    <glyph glyph-name="breve.cap" 
d="M51 846h57c4 0 5 -1 6 -5c12 -35 38 -58 80 -58c38 0 68 16 82 59c2 2 3 4 7 4h56c5 0 5 -4 5 -7c-15 -76 -74 -122 -150 -122s-134 41 -148 123c-1 3 1 6 5 6z" />
    <glyph glyph-name="dotaccent.cap" 
d="M193 729c-30 0 -49 19 -49 45c0 27 20 45 51 45c30 0 49 -18 49 -45c0 -26 -18 -45 -51 -45z" />
    <glyph glyph-name="dieresis.cap" 
d="M98 729c-28 0 -47 18 -47 45c0 26 21 45 48 45c29 0 48 -20 48 -45c0 -27 -21 -45 -49 -45zM290 729c-28 0 -47 18 -47 45c0 26 21 45 49 45c27 0 47 -19 47 -45c0 -28 -20 -45 -49 -45z" />
    <glyph glyph-name="ring.cap" 
d="M91 786c0 53 44 86 103 86c61 0 103 -35 103 -86c0 -53 -44 -87 -103 -87c-62 0 -103 34 -103 87zM141 786c0 -27 22 -46 53 -46c32 0 54 17 54 46c0 28 -23 46 -54 46c-32 0 -53 -18 -53 -46z" />
    <glyph glyph-name="cedilla.cap" 
d="M178 5h55l-35 -50c60 -17 86 -48 86 -91c0 -54 -45 -88 -106 -88c-27 0 -53 6 -69 14c-3 1 -4 3 -4 7v39c0 3 1 5 5 4c19 -10 44 -14 63 -14c30 0 49 11 49 36c0 27 -31 46 -94 55c-3 2 -3 15 -1 19z" />
    <glyph glyph-name="hungarumlaut.cap" 
d="M67 731l76 109c2 4 5 5 9 5h70c3 0 4 -4 2 -7l-87 -109c-3 -3 -4 -4 -8 -4h-59c-3 0 -5 2 -3 6zM235 732l74 108c3 4 6 5 10 5h69c5 0 7 -4 4 -8l-85 -106c-4 -5 -8 -5 -12 -5h-57c-3 0 -6 1 -3 6z" />
    <glyph glyph-name="ogonek.cap" 
d="M182 6h70c-57 -38 -87 -76 -87 -111c0 -32 23 -53 64 -53c23 0 42 4 56 8c4 1 6 0 6 -4v-47c0 -5 -2 -7 -5 -9c-19 -10 -51 -16 -79 -16c-56 0 -120 27 -120 99c0 50 39 96 95 133z" />
    <glyph glyph-name="caron.cap" 
d="M126 833l73 -75l72 75c3 3 5 5 9 5h65c4 0 4 -5 2 -8l-107 -111c-3 -3 -5 -3 -8 -3h-68c-5 0 -9 1 -10 4l-112 113c-2 3 0 5 3 5h70c5 0 8 -2 11 -5z" />
    <glyph glyph-name="uni00200326.cap" horiz-adv-x="221" 
d="M102 -239h-66c-3 0 -5 3 -2 6c38 40 55 70 55 112c0 25 -9 51 -26 76c-2 3 0 6 3 6h70c4 0 8 -1 10 -4c12 -15 22 -44 22 -76c0 -54 -29 -96 -56 -117c-2 -2 -5 -3 -10 -3z" />
    <glyph glyph-name="uni0020030F.cap" 
d="M252 839l74 -106c2 -4 -1 -8 -5 -8h-55c-5 0 -7 1 -11 5l-85 106c-3 5 -1 9 3 9h70c4 0 7 -3 9 -6zM84 839l75 -106c3 -6 -1 -7 -5 -7h-54c-5 0 -9 0 -13 5l-85 106c-3 4 -2 8 3 8h70c4 0 7 -2 9 -6z" />
    <glyph glyph-name="Ohorn" unicode="&#x1a0;" horiz-adv-x="683" 
d="M347 65c134 0 212 108 212 267c-1 155 -85 264 -217 264c-119 0 -214 -93 -214 -264c0 -145 76 -267 219 -267zM551 741h61c6 0 7 -2 9 -7c3 -12 5 -27 5 -46c0 -50 -27 -87 -75 -100c60 -61 93 -152 94 -254c0 -215 -126 -344 -300 -344c-190 0 -303 145 -303 342
c0 201 127 339 302 339c58 0 109 -14 151 -39h3c46 0 54 26 54 55c0 12 -2 31 -5 47c-1 4 0 7 4 7z" />
    <glyph glyph-name="Uhorn" unicode="&#x1af;" horiz-adv-x="653" 
d="M588 770h61c6 0 8 -2 9 -7c4 -12 6 -26 6 -45c0 -53 -32 -93 -86 -102l-5 4v-375c0 -184 -109 -255 -251 -255c-151 0 -249 82 -249 249v415c0 4 1 7 7 7h70c5 0 7 -2 7 -6v-411c0 -110 60 -179 168 -179c84 0 164 37 164 181v408c0 5 2 7 7 7h31h8c47 0 55 26 55 55
c0 13 -3 32 -6 47c-1 4 0 7 4 7z" />
    <glyph glyph-name="ohorn" unicode="&#x1a1;" horiz-adv-x="527" 
d="M267 62c71 0 141 56 141 180c0 93 -43 182 -147 182c-84 0 -142 -72 -142 -179c0 -102 53 -183 148 -183zM445 562h62c5 0 7 -2 9 -7c3 -11 5 -26 5 -45c0 -50 -29 -89 -78 -100c33 -44 50 -101 50 -166c0 -152 -94 -254 -228 -254c-161 0 -230 130 -230 253
c0 141 90 253 230 253c53 0 99 -15 135 -43c39 4 47 28 47 56c0 12 -2 31 -6 46c-1 4 0 7 4 7z" />
    <glyph glyph-name="uhorn" unicode="&#x1b0;" horiz-adv-x="528" 
d="M458 595h62c5 0 7 -2 8 -7c4 -12 6 -25 6 -45c0 -53 -28 -91 -77 -102v-335c0 -53 3 -78 6 -100c0 -4 -1 -6 -6 -6h-64c-5 0 -6 1 -8 5c-3 11 -5 29 -6 43c-42 -43 -95 -58 -145 -58c-85 0 -165 43 -165 188v302c0 5 2 6 7 6h71c4 0 5 -2 5 -6v-292
c0 -77 36 -124 106 -124c48 0 86 18 116 51v365c0 4 2 6 7 6h22h8c38 0 49 24 49 56c0 12 -2 31 -6 46c-1 4 0 7 4 7z" />
    <glyph glyph-name="uni01CD" unicode="&#x1cd;" horiz-adv-x="586" 
d="M416 208h-254l-72 -202c-1 -4 -3 -6 -8 -6h-68c-5 0 -7 3 -6 8l218 607c3 8 6 15 7 41c0 3 2 5 5 5h98c4 0 5 -1 6 -5l235 -649c2 -4 1 -7 -4 -7h-76c-4 0 -6 2 -8 5zM185 285h208c-22 65 -85 240 -104 308h-1c-17 -64 -65 -198 -103 -308zM220 832l73 -76l73 75
c2 3 4 5 8 5h65c4 0 4 -5 2 -7l-107 -112c-3 -2 -4 -3 -8 -3h-68c-5 0 -9 2 -10 4l-112 113c-2 3 0 5 3 5h70c5 0 8 -2 11 -4z" />
    <glyph glyph-name="uni1E0C" unicode="&#x1e0c;" horiz-adv-x="649" 
d="M80 8v644c0 5 1 7 6 8c25 1 76 3 175 3c226 0 348 -131 348 -321c0 -253 -190 -344 -358 -344c-56 0 -131 1 -166 2c-4 0 -5 3 -5 8zM163 587v-513c20 -1 54 -2 85 -2c161 0 275 88 276 269c0 166 -114 248 -265 248c-35 0 -67 -1 -96 -2zM281 -179c-30 0 -50 21 -50 50
s21 50 51 50s50 -21 50 -50c0 -28 -19 -50 -51 -50z" />
    <glyph glyph-name="uni1E0E" unicode="&#x1e0e;" horiz-adv-x="649" 
d="M80 8v644c0 5 1 7 6 8c25 1 76 3 175 3c226 0 348 -131 348 -321c0 -253 -190 -344 -358 -344c-56 0 -131 1 -166 2c-4 0 -5 3 -5 8zM163 587v-513c20 -1 54 -2 85 -2c161 0 275 88 276 269c0 166 -114 248 -265 248c-35 0 -67 -1 -96 -2zM167 -88h240c3 0 5 -1 5 -5v-52
c0 -4 -2 -5 -5 -5h-240c-5 0 -5 2 -5 5v52c0 4 2 5 5 5z" />
    <glyph glyph-name="Gcaron" unicode="&#x1e6;" horiz-adv-x="636" 
d="M494 279l-139 2c-5 1 -7 2 -7 7v61c0 4 3 5 6 5h217c6 0 7 -2 7 -6v-317c1 -4 -1 -6 -5 -8c-65 -26 -131 -33 -186 -33c-227 0 -347 147 -347 337c0 210 147 344 360 344c68 0 123 -8 159 -25c4 -2 5 -5 5 -10v-66c0 -5 -3 -6 -6 -4c-45 23 -100 29 -156 29
c-170 2 -276 -99 -276 -265c0 -147 91 -266 265 -266c45 0 77 5 103 16v199zM290 846l74 -75l72 75c2 2 5 5 9 5h65c3 0 4 -6 1 -8l-107 -111c-2 -3 -4 -3 -7 -3h-68c-5 0 -9 1 -10 4l-112 113c-3 2 -1 5 3 5h70c5 0 8 -2 10 -5z" />
    <glyph glyph-name="uni1E20" unicode="&#x1e20;" horiz-adv-x="636" 
d="M494 279l-139 2c-5 1 -7 2 -7 7v61c0 4 3 5 6 5h217c6 0 7 -2 7 -6v-317c1 -4 -1 -6 -5 -8c-65 -26 -131 -33 -186 -33c-227 0 -347 147 -347 337c0 210 147 344 360 344c68 0 123 -8 159 -25c4 -2 5 -5 5 -10v-66c0 -5 -3 -6 -6 -4c-45 23 -100 29 -156 29
c-170 2 -276 -99 -276 -265c0 -147 91 -266 265 -266c45 0 77 5 103 16v199zM224 820h266c3 0 5 -2 5 -6v-54c0 -5 -2 -6 -6 -6h-263c-6 0 -8 1 -8 6v54c0 4 2 6 6 6z" />
    <glyph glyph-name="uni1E2A" unicode="&#x1e2a;" horiz-adv-x="659" 
d="M573 0h-71c-5 0 -7 1 -7 6v302h-331v-301c0 -4 -2 -7 -7 -7h-70c-5 0 -7 2 -7 7v647c0 5 2 7 7 7h70c5 0 7 -2 7 -6v-271h331v271c0 4 2 6 6 6h73c3 0 5 -2 5 -6v-649c0 -5 -2 -6 -6 -6zM187 -67h57c3 0 4 -1 6 -6c12 -34 38 -57 79 -57c38 0 68 17 83 58c1 3 2 5 6 5h57
c5 0 4 -4 4 -6c-11 -75 -74 -123 -150 -123c-75 0 -138 40 -148 123c0 4 2 6 6 6z" />
    <glyph glyph-name="uni1E24" unicode="&#x1e24;" horiz-adv-x="659" 
d="M573 0h-71c-5 0 -7 1 -7 6v302h-331v-301c0 -4 -2 -7 -7 -7h-70c-5 0 -7 2 -7 7v647c0 5 2 7 7 7h70c5 0 7 -2 7 -6v-271h331v271c0 4 2 6 6 6h73c3 0 5 -2 5 -6v-649c0 -5 -2 -6 -6 -6zM329 -178c-30 0 -51 21 -51 50s22 51 52 51s50 -22 50 -51c0 -28 -20 -50 -51 -50z
" />
    <glyph glyph-name="uni01CF" unicode="&#x1cf;" horiz-adv-x="244" 
d="M163 655v-648c0 -5 -1 -7 -6 -7h-70c-5 0 -7 2 -7 7v647c0 5 2 7 6 7h71c4 0 6 -2 6 -6zM52 832l74 -76l72 75c2 3 5 5 9 5h65c3 0 4 -5 2 -7l-108 -112c-2 -2 -4 -3 -7 -3h-68c-5 0 -9 2 -10 4l-112 113c-3 3 -1 5 3 5h70c5 0 8 -2 10 -4z" />
    <glyph glyph-name="uni1E36" unicode="&#x1e36;" horiz-adv-x="479" 
d="M458 0h-370c-6 0 -8 3 -8 8v646c0 4 1 7 6 7h72c4 0 5 -2 5 -6v-579h310c5 0 6 -3 5 -6l-12 -64c-1 -5 -4 -6 -8 -6zM264 -179c-30 0 -50 22 -50 50c0 29 21 51 52 51c30 0 49 -22 49 -51c0 -28 -19 -50 -51 -50z" />
    <glyph glyph-name="uni1E38" unicode="&#x1e38;" horiz-adv-x="479" 
d="M458 0h-370c-6 0 -8 3 -8 8v646c0 4 1 7 6 7h72c4 0 5 -2 5 -6v-579h310c5 0 6 -3 5 -6l-12 -64c-1 -5 -4 -6 -8 -6zM255 -181c-30 0 -50 22 -50 50c0 29 21 51 52 51c29 0 49 -22 49 -51c0 -28 -19 -50 -51 -50zM-9 804h267c3 0 4 -2 4 -6v-54c0 -5 -2 -6 -5 -6h-264
c-5 0 -7 1 -7 6v54c0 4 2 6 5 6z" />
    <glyph glyph-name="uni1E3A" unicode="&#x1e3a;" horiz-adv-x="479" 
d="M458 0h-370c-6 0 -8 3 -8 8v646c0 4 1 7 6 7h72c4 0 5 -2 5 -6v-579h310c5 0 6 -3 5 -6l-12 -64c-1 -5 -4 -6 -8 -6zM143 -89h240c3 0 5 -2 5 -6v-52c0 -3 -2 -5 -6 -5h-240c-4 0 -5 3 -5 6v52c0 3 2 5 6 5z" />
    <glyph glyph-name="uni1E42" unicode="&#x1e42;" horiz-adv-x="828" 
d="M112 655c1 6 3 6 7 6h111c5 0 6 -2 8 -6c34 -103 155 -462 176 -549h1c23 83 156 447 190 549c1 4 2 6 7 6h108c5 0 5 -1 6 -5l34 -650c1 -4 -2 -6 -6 -6h-74c-5 0 -7 1 -7 5c-9 230 -19 537 -19 597h-1c-24 -90 -158 -468 -200 -596c-1 -5 -4 -6 -8 -6h-70
c-6 0 -8 1 -9 6c-53 166 -158 496 -185 597h-2c-1 -87 -19 -387 -30 -597c0 -5 -2 -6 -7 -6h-68c-5 0 -6 1 -6 6zM410 -171c-30 0 -50 21 -50 50s21 50 51 50s50 -21 50 -50c0 -28 -19 -50 -51 -50z" />
    <glyph glyph-name="uni1E44" unicode="&#x1e44;" horiz-adv-x="671" 
d="M153 0h-66c-4 0 -7 1 -7 7v648c0 4 1 6 6 6h99c5 0 6 -2 9 -6c87 -147 279 -472 319 -550h1c-2 27 -3 65 -3 152v397c0 5 2 7 7 7h66c5 0 7 -3 7 -8v-646c0 -5 -2 -7 -9 -7h-89c-6 0 -9 1 -11 6c-45 84 -294 497 -326 571h-1c2 -39 4 -88 4 -176v-394c0 -5 -2 -7 -6 -7z
M336 729c-31 0 -50 19 -50 45c0 27 20 45 51 45c30 0 49 -18 49 -45c0 -26 -18 -45 -50 -45z" />
    <glyph glyph-name="uni1E46" unicode="&#x1e46;" horiz-adv-x="671" 
d="M153 0h-66c-4 0 -7 1 -7 7v648c0 4 1 6 6 6h99c5 0 6 -2 9 -6c87 -147 279 -472 319 -550h1c-2 27 -3 65 -3 152v397c0 5 2 7 7 7h66c5 0 7 -3 7 -8v-646c0 -5 -2 -7 -9 -7h-89c-6 0 -9 1 -11 6c-45 84 -294 497 -326 571h-1c2 -39 4 -88 4 -176v-394c0 -5 -2 -7 -6 -7z
M337 -177c-30 0 -50 21 -50 50s21 50 51 50s50 -21 50 -50c0 -28 -19 -50 -51 -50z" />
    <glyph glyph-name="uni1E48" unicode="&#x1e48;" horiz-adv-x="671" 
d="M153 0h-66c-4 0 -7 1 -7 7v648c0 4 1 6 6 6h99c5 0 6 -2 9 -6c87 -147 279 -472 319 -550h1c-2 27 -3 65 -3 152v397c0 5 2 7 7 7h66c5 0 7 -3 7 -8v-646c0 -5 -2 -7 -9 -7h-89c-6 0 -9 1 -11 6c-45 84 -294 497 -326 571h-1c2 -39 4 -88 4 -176v-394c0 -5 -2 -7 -6 -7z
M218 -82h240c3 0 5 -1 5 -5v-52c0 -4 -2 -5 -6 -5h-240c-4 0 -5 2 -5 5v52c0 4 2 5 6 5z" />
    <glyph glyph-name="uni01D1" unicode="&#x1d1;" horiz-adv-x="683" 
d="M341 671c188 0 300 -148 301 -337c1 -215 -126 -344 -299 -344c-191 0 -303 145 -303 342c0 201 127 339 301 339zM125 332c0 -145 76 -267 220 -267c133 0 212 108 211 267c0 155 -85 264 -216 264c-120 0 -215 -93 -215 -264zM265 841l74 -75l72 75c2 2 5 5 9 5h65
c3 0 4 -6 2 -8l-108 -111c-2 -3 -4 -3 -7 -3h-68c-5 0 -9 1 -10 4l-112 113c-3 2 -1 5 3 5h70c5 0 8 -2 10 -5z" />
    <glyph glyph-name="uni1E5A" unicode="&#x1e5a;" horiz-adv-x="564" 
d="M156 0h-70c-4 0 -6 1 -6 6v646c0 5 1 8 6 8c56 2 107 3 174 3c147 0 245 -63 245 -191c0 -94 -64 -152 -138 -177c34 -47 168 -244 194 -287c2 -4 2 -8 -3 -8h-84c-6 0 -8 1 -11 4c-31 47 -114 175 -164 252c-8 12 -13 16 -23 16h-114v-266c0 -4 -2 -6 -6 -6zM162 345
h107c95 0 153 49 153 123c0 76 -58 121 -165 121c-38 0 -75 -1 -95 -2v-242zM281 -178c-30 0 -50 21 -50 50s21 51 51 51s50 -22 50 -51c0 -28 -19 -50 -51 -50z" />
    <glyph glyph-name="uni1E5C" unicode="&#x1e5c;" horiz-adv-x="564" 
d="M156 0h-70c-4 0 -6 1 -6 6v646c0 5 1 8 6 8c56 2 107 3 174 3c147 0 245 -63 245 -191c0 -94 -64 -152 -138 -177c34 -47 168 -244 194 -287c2 -4 2 -8 -3 -8h-84c-6 0 -8 1 -11 4c-31 47 -114 175 -164 252c-8 12 -13 16 -23 16h-114v-266c0 -4 -2 -6 -6 -6zM162 345
h107c95 0 153 49 153 123c0 76 -58 121 -165 121c-38 0 -75 -1 -95 -2v-242zM285 -173c-30 0 -51 22 -51 51c0 28 22 50 52 50s50 -22 50 -50c0 -29 -20 -51 -51 -51zM123 813h267c3 0 5 -1 5 -5v-54c0 -5 -2 -6 -6 -6h-264c-5 0 -7 1 -7 5v55c0 4 2 5 5 5z" />
    <glyph glyph-name="uni1E5E" unicode="&#x1e5e;" horiz-adv-x="564" 
d="M156 0h-70c-4 0 -6 1 -6 6v646c0 5 1 8 6 8c56 2 107 3 174 3c147 0 245 -63 245 -191c0 -94 -64 -152 -138 -177c34 -47 168 -244 194 -287c2 -4 2 -8 -3 -8h-84c-6 0 -8 1 -11 4c-31 47 -114 175 -164 252c-8 12 -13 16 -23 16h-114v-266c0 -4 -2 -6 -6 -6zM162 345
h107c95 0 153 49 153 123c0 76 -58 121 -165 121c-38 0 -75 -1 -95 -2v-242zM177 -76h240c3 0 5 -2 5 -6v-52c0 -3 -2 -5 -6 -5h-240c-4 0 -5 2 -5 6v51c0 4 2 6 6 6z" />
    <glyph glyph-name="uni1E60" unicode="&#x1e60;" horiz-adv-x="478" 
d="M212 -10c-69 0 -130 15 -169 38c-5 2 -6 6 -6 12v72c0 4 3 6 7 3c52 -35 116 -49 171 -49c96 0 140 43 140 103c0 47 -27 82 -118 123l-44 18c-124 53 -152 116 -152 183c0 104 80 178 215 178c63 0 117 -10 148 -27c4 -2 5 -5 5 -10v-67c0 -4 -3 -7 -8 -4
c-35 22 -90 33 -147 33c-104 0 -132 -54 -132 -96c0 -45 26 -79 115 -117l43 -18c123 -52 159 -114 159 -189c0 -108 -81 -186 -227 -186zM235 745c-30 0 -49 20 -49 46c0 27 20 45 51 45c30 0 49 -18 49 -45c0 -26 -18 -46 -51 -46z" />
    <glyph glyph-name="uni1E62" unicode="&#x1e62;" horiz-adv-x="478" 
d="M212 -10c-69 0 -130 15 -169 38c-5 2 -6 6 -6 12v72c0 4 3 6 7 3c52 -35 116 -49 171 -49c96 0 140 43 140 103c0 47 -27 82 -118 123l-44 18c-124 53 -152 116 -152 183c0 104 80 178 215 178c63 0 117 -10 148 -27c4 -2 5 -5 5 -10v-67c0 -4 -3 -7 -8 -4
c-35 22 -90 33 -147 33c-104 0 -132 -54 -132 -96c0 -45 26 -79 115 -117l43 -18c123 -52 159 -114 159 -189c0 -108 -81 -186 -227 -186zM225 -180c-30 0 -50 22 -50 50c0 29 21 51 52 51c29 0 49 -22 49 -51c0 -28 -19 -50 -51 -50z" />
    <glyph glyph-name="uni1E6C" unicode="&#x1e6c;" horiz-adv-x="518" 
d="M217 7v578h-214c-4 0 -6 2 -5 7l10 63c1 4 3 6 8 6h489c5 0 7 -2 8 -7l7 -62c1 -5 -1 -7 -5 -7h-214v-577c0 -6 -2 -8 -7 -8h-69c-5 0 -8 2 -8 7zM258 -174c-30 0 -50 22 -50 50c0 29 21 51 52 51c30 0 49 -22 49 -51c0 -28 -19 -50 -51 -50z" />
    <glyph glyph-name="uni1E6E" unicode="&#x1e6e;" horiz-adv-x="518" 
d="M217 7v578h-214c-4 0 -6 2 -5 7l10 63c1 4 3 6 8 6h489c5 0 7 -2 8 -7l7 -62c1 -5 -1 -7 -5 -7h-214v-577c0 -6 -2 -8 -7 -8h-69c-5 0 -8 2 -8 7zM140 -82h240c3 0 4 -1 4 -5v-52c0 -4 -1 -5 -5 -5h-240c-4 0 -5 2 -5 5v52c0 4 2 5 6 5z" />
    <glyph glyph-name="uni01D3" unicode="&#x1d3;" horiz-adv-x="641" 
d="M154 655v-411c0 -110 60 -179 169 -179c84 0 164 37 164 181v408c0 5 2 7 6 7h71c5 0 7 -2 7 -7v-409c0 -184 -109 -255 -251 -255c-151 0 -249 82 -249 249v415c0 4 1 7 6 7h71c4 0 6 -2 6 -6zM252 830l74 -75l72 75c2 2 5 4 9 4h64c4 0 4 -5 2 -7l-107 -111
c-3 -3 -4 -3 -8 -3h-68c-5 0 -8 1 -10 4l-111 112c-3 3 -1 5 2 5h70c5 0 8 -1 11 -4z" />
    <glyph glyph-name="uni01D5" unicode="&#x1d5;" horiz-adv-x="641" 
d="M154 655v-411c0 -110 60 -179 169 -179c84 0 164 37 164 181v408c0 5 2 7 6 7h71c5 0 7 -2 7 -7v-409c0 -184 -109 -255 -251 -255c-151 0 -249 82 -249 249v415c0 4 1 7 6 7h71c4 0 6 -2 6 -6zM195 876h257c3 0 5 -2 5 -6v-44c0 -4 -2 -5 -6 -5h-257c-4 0 -5 2 -5 6v43
c0 4 2 6 6 6zM221 706c-23 0 -39 14 -39 35c0 22 18 36 40 36s38 -14 38 -36c0 -21 -17 -35 -39 -35zM425 706c-22 0 -38 14 -38 35c0 22 17 36 39 36c23 0 39 -15 39 -36c0 -20 -16 -35 -40 -35z" />
    <glyph glyph-name="uni01D7" unicode="&#x1d7;" horiz-adv-x="641" 
d="M154 655v-411c0 -110 60 -179 169 -179c84 0 164 37 164 181v408c0 5 2 7 6 7h71c5 0 7 -2 7 -7v-409c0 -184 -109 -255 -251 -255c-151 0 -249 82 -249 249v415c0 4 1 7 6 7h71c4 0 6 -2 6 -6zM281 805l69 90c2 3 4 4 7 4h71c3 0 4 -2 3 -5l-76 -90c-1 -2 -4 -4 -8 -4
h-63c-4 0 -5 2 -3 5zM218 710c-23 0 -39 14 -39 35c0 22 18 36 40 36s38 -14 38 -36c0 -21 -18 -35 -39 -35zM422 710c-22 0 -38 14 -38 35c0 22 17 36 39 36c23 0 39 -15 39 -36c0 -20 -17 -35 -40 -35z" />
    <glyph glyph-name="uni01D9" unicode="&#x1d9;" horiz-adv-x="641" 
d="M154 655v-411c0 -110 60 -179 169 -179c84 0 164 37 164 181v408c0 5 2 7 6 7h71c5 0 7 -2 7 -7v-409c0 -184 -109 -255 -251 -255c-151 0 -249 82 -249 249v415c0 4 1 7 6 7h71c4 0 6 -2 6 -6zM322 835c13 11 49 39 61 49c2 2 4 3 9 3h60c5 0 5 -3 3 -6l-91 -74
c-2 -3 -5 -3 -8 -3h-73c-4 0 -7 1 -9 3l-94 74c-2 3 -1 6 3 6h66c5 0 7 -1 10 -4c15 -12 47 -37 63 -48zM218 708c-24 0 -40 14 -40 35c0 22 18 36 41 36c22 0 37 -15 37 -36s-17 -35 -38 -35zM423 708c-22 0 -39 14 -39 35c0 22 18 36 40 36c23 0 38 -15 38 -36
c0 -20 -16 -35 -39 -35z" />
    <glyph glyph-name="uni01DB" unicode="&#x1db;" horiz-adv-x="641" 
d="M154 655v-411c0 -110 60 -179 169 -179c84 0 164 37 164 181v408c0 5 2 7 6 7h71c5 0 7 -2 7 -7v-409c0 -184 -109 -255 -251 -255c-151 0 -249 82 -249 249v415c0 4 1 7 6 7h71c4 0 6 -2 6 -6zM297 890l69 -89c2 -3 0 -5 -3 -5h-64c-4 0 -6 1 -7 4l-76 89c-2 3 -1 6 2 6
h71c4 0 6 -2 8 -5zM218 706c-23 0 -39 14 -39 35c0 22 18 36 40 36s38 -15 38 -36c0 -22 -18 -35 -39 -35zM422 706c-22 0 -38 13 -38 35c0 21 17 36 39 36c23 0 39 -15 39 -36c0 -20 -17 -35 -40 -35z" />
    <glyph glyph-name="uni1E8E" unicode="&#x1e8e;" horiz-adv-x="517" 
d="M209 271l-220 383c-3 4 1 7 5 7h81c5 0 6 -2 8 -4c124 -224 164 -295 179 -329c17 34 56 107 176 328c2 4 4 5 8 5h79c4 0 5 -3 3 -6l-221 -386c-6 -9 -8 -15 -8 -26v-236c0 -5 -2 -7 -7 -7h-68c-7 0 -9 2 -9 7v239c0 11 0 16 -6 25zM257 729c-31 0 -49 19 -49 45
c0 27 20 45 50 45s49 -18 49 -45c0 -26 -18 -45 -50 -45z" />
    <glyph glyph-name="uni1E92" unicode="&#x1e92;" horiz-adv-x="530" 
d="M499 0h-479c-4 0 -7 1 -7 6v46c0 4 1 6 3 10l383 523h-368c-4 0 -6 1 -5 7l11 63c1 5 3 6 8 6h455c5 0 6 -2 6 -5v-48c0 -4 -1 -8 -5 -12l-379 -520h392c5 0 6 -2 5 -7l-13 -63c-1 -4 -2 -6 -7 -6zM264 -178c-30 0 -50 21 -50 50s21 51 51 51s50 -22 50 -51
c0 -28 -19 -50 -51 -50z" />
    <glyph glyph-name="uni01CE" unicode="&#x1ce;" horiz-adv-x="474" 
d="M323 75v157c-14 2 -36 4 -66 4c-97 0 -144 -33 -144 -89c0 -45 31 -89 119 -89c32 0 62 5 91 17zM404 308v-223c0 -17 0 -32 2 -48c0 -2 0 -3 -2 -4c-72 -34 -129 -43 -187 -43c-106 0 -186 52 -186 157c0 106 99 153 223 153c37 0 58 -1 69 -2v24c0 31 -15 100 -113 100
c-48 0 -92 -11 -127 -30c-3 -1 -7 0 -7 5v61c0 4 2 6 5 8c39 19 89 30 142 30c128 0 181 -84 181 -188zM169 701l71 -102l69 103c1 2 3 3 7 3h55c4 0 5 -4 3 -7l-97 -138c-3 -4 -4 -4 -7 -4h-65c-4 0 -6 1 -8 4l-99 139c-3 3 -1 6 3 6h59c5 0 7 -1 9 -4z" />
    <glyph glyph-name="uni1E0D" unicode="&#x1e0d;" horiz-adv-x="524" 
d="M282 -10c-139 0 -247 84 -247 249c0 147 109 257 272 257c28 0 44 -3 63 -6v221c0 5 2 6 6 6h72c5 0 6 -2 6 -5v-630c0 -14 0 -31 2 -48c0 -4 -1 -5 -5 -7c-57 -27 -113 -37 -169 -37zM370 76v338c-16 7 -40 10 -65 10c-114 0 -185 -77 -185 -181
c0 -130 82 -180 170 -180c26 0 57 3 80 13zM269 -180c-30 0 -50 21 -50 50s21 51 52 51c29 0 49 -22 49 -51c0 -28 -19 -50 -51 -50z" />
    <glyph glyph-name="uni1E0F" unicode="&#x1e0f;" horiz-adv-x="524" 
d="M282 -10c-139 0 -247 84 -247 249c0 147 109 257 272 257c28 0 44 -3 63 -6v221c0 5 2 6 6 6h72c5 0 6 -2 6 -5v-630c0 -14 0 -31 2 -48c0 -4 -1 -5 -5 -7c-57 -27 -113 -37 -169 -37zM370 76v338c-16 7 -40 10 -65 10c-114 0 -185 -77 -185 -181
c0 -130 82 -180 170 -180c26 0 57 3 80 13zM150 -101h241c3 0 4 -2 4 -5v-52c0 -4 -1 -5 -5 -5h-240c-4 0 -5 2 -5 5v52c0 4 2 5 5 5z" />
    <glyph glyph-name="gcaron" unicode="&#x1e7;" horiz-adv-x="490" 
d="M197 560l-99 139c-3 3 -1 6 3 6h59c5 0 7 -1 9 -4l71 -102l69 103c1 2 3 3 7 3h55c4 0 5 -4 3 -7l-97 -138c-3 -4 -4 -4 -7 -4h-65c-4 0 -6 1 -8 4zM279 10l-106 5c-41 -29 -67 -71 -67 -93c0 -46 55 -93 147 -93c110 0 159 52 159 102c0 59 -62 75 -133 79zM236 432
c-63 0 -104 -41 -104 -105c0 -61 36 -105 103 -105c63 0 102 38 102 103c0 58 -31 107 -101 107zM194 87l102 -5c124 -6 194 -51 194 -139c0 -100 -95 -179 -242 -179c-148 0 -221 78 -221 152c0 34 29 79 98 137c-16 22 -24 48 -24 75c0 22 6 44 17 63
c-41 27 -68 72 -68 135c0 93 69 170 187 170c31 0 57 -4 75 -8c9 -2 15 -2 21 -2h141c5 0 6 -2 6 -6v-57c0 -4 -1 -6 -6 -6c-26 0 -68 2 -92 4c18 -19 35 -51 35 -97c0 -110 -82 -165 -181 -165c-19 0 -37 2 -55 6c-5 -12 -7 -25 -5 -37c2 -15 8 -29 18 -41z" />
    <glyph glyph-name="uni1E21" unicode="&#x1e21;" horiz-adv-x="490" 
d="M376 599h-259c-4 0 -5 2 -5 6v51c0 4 2 5 5 5h260c3 0 4 -1 4 -6v-51c0 -4 -2 -5 -5 -5zM279 10l-106 5c-41 -29 -67 -71 -67 -93c0 -46 55 -93 147 -93c110 0 159 52 159 102c0 59 -62 75 -133 79zM236 432c-63 0 -104 -41 -104 -105c0 -61 36 -105 103 -105
c63 0 102 38 102 103c0 58 -31 107 -101 107zM194 87l102 -5c124 -6 194 -51 194 -139c0 -100 -95 -179 -242 -179c-148 0 -221 78 -221 152c0 34 29 79 98 137c-16 22 -24 48 -24 75c0 22 6 44 17 63c-41 27 -68 72 -68 135c0 93 69 170 187 170c31 0 57 -4 75 -8
c9 -2 15 -2 21 -2h141c5 0 6 -2 6 -6v-57c0 -4 -1 -6 -6 -6c-26 0 -68 2 -92 4c18 -19 35 -51 35 -97c0 -110 -82 -165 -181 -165c-19 0 -37 2 -55 6c-5 -12 -7 -25 -5 -37c2 -15 8 -29 18 -41z" />
    <glyph glyph-name="uni1E2B" unicode="&#x1e2b;" horiz-adv-x="536" 
d="M153 367v-361c0 -5 -1 -6 -6 -6h-70c-5 0 -7 2 -7 7v704c0 4 1 6 6 6h72c4 0 5 -1 5 -5l1 -274c41 38 89 58 148 58c71 0 163 -35 163 -193v-296c0 -5 -2 -7 -7 -7h-70c-5 0 -7 2 -7 8v286c0 77 -33 128 -103 128c-49 0 -93 -20 -125 -55zM124 -75h58c3 0 4 -1 6 -6
c12 -34 38 -57 79 -57c38 0 68 17 83 58c1 3 2 5 6 5h57c5 0 4 -4 4 -6c-11 -75 -74 -123 -150 -123c-75 0 -138 40 -148 123c0 4 2 6 5 6z" />
    <glyph glyph-name="uni1E25" unicode="&#x1e25;" horiz-adv-x="536" 
d="M153 367v-361c0 -5 -1 -6 -6 -6h-70c-5 0 -7 2 -7 7v704c0 4 1 6 6 6h72c4 0 5 -1 5 -5l1 -274c41 38 89 58 148 58c71 0 163 -35 163 -193v-296c0 -5 -2 -7 -7 -7h-70c-5 0 -7 2 -7 8v286c0 77 -33 128 -103 128c-49 0 -93 -20 -125 -55zM267 -178c-29 0 -50 21 -50 50
s22 51 52 51s49 -22 49 -51c0 -28 -19 -50 -51 -50z" />
    <glyph glyph-name="uni01D0" unicode="&#x1d0;" horiz-adv-x="225" 
d="M70 8v471c0 5 2 7 7 7h71c4 0 6 -1 6 -6v-473c0 -5 -1 -7 -7 -7h-69c-5 0 -8 2 -8 8zM47 701l71 -102l69 103c1 2 3 3 7 3h55c4 0 5 -4 3 -7l-97 -138c-3 -4 -4 -4 -7 -4h-65c-4 0 -6 1 -8 4l-99 139c-3 3 -1 6 3 6h59c5 0 7 -1 9 -4z" />
    <glyph glyph-name="uni1E37" unicode="&#x1e37;" horiz-adv-x="241" 
d="M70 101v610c0 5 2 6 7 6h70c5 0 6 -2 6 -6v-603c0 -39 16 -48 40 -48c7 0 11 1 20 3c3 0 4 -2 4 -6v-52c0 -5 -1 -6 -5 -8c-9 -4 -25 -7 -46 -7c-49 0 -96 17 -96 111zM136 -178c-30 0 -50 21 -50 50s21 51 52 51c29 0 49 -22 49 -51c0 -28 -19 -50 -51 -50z" />
    <glyph glyph-name="uni1E39" unicode="&#x1e39;" horiz-adv-x="241" 
d="M2 834h226c3 0 5 -2 5 -6v-50c0 -3 -2 -5 -6 -5h-226c-4 0 -5 3 -5 6v50c0 4 2 5 6 5zM137 -180c-28 0 -48 20 -48 48s21 48 50 48c28 0 47 -21 47 -48s-18 -48 -49 -48zM70 101v610c0 5 2 6 7 6h70c5 0 6 -2 6 -6v-603c0 -39 16 -48 40 -48c7 0 11 1 20 3c3 0 4 -2 4 -6
v-52c0 -5 -1 -6 -5 -8c-9 -4 -25 -7 -46 -7c-49 0 -96 17 -96 111z" />
    <glyph glyph-name="uni1E3B" unicode="&#x1e3b;" horiz-adv-x="241" 
d="M70 101v610c0 5 2 6 7 6h70c5 0 6 -2 6 -6v-603c0 -39 16 -48 40 -48c7 0 11 1 20 3c3 0 4 -2 4 -6v-52c0 -5 -1 -6 -5 -8c-9 -4 -25 -7 -46 -7c-49 0 -96 17 -96 111zM19 -89h240c4 0 5 -1 5 -5v-52c0 -4 -2 -5 -5 -5h-240c-4 0 -5 2 -5 5v52c0 4 2 5 5 5z" />
    <glyph glyph-name="uni1E43" unicode="&#x1e43;" horiz-adv-x="832" 
d="M147 0h-71c-5 0 -6 2 -6 7v374c0 44 -2 80 -4 99c0 4 1 6 6 6h63c4 0 6 -2 8 -5c3 -10 5 -32 6 -48c46 43 95 63 150 63c60 0 105 -23 133 -73c42 41 94 73 167 73c74 0 162 -39 162 -191v-299c0 -4 -2 -6 -7 -6h-69c-5 0 -7 2 -7 7v292c0 68 -31 123 -102 123
c-50 0 -91 -22 -123 -58c3 -12 5 -40 5 -64v-293c0 -5 -2 -7 -7 -7h-70c-5 0 -7 2 -7 7v295c0 76 -35 120 -100 120c-47 0 -83 -18 -121 -56v-360c0 -4 -1 -6 -6 -6zM415 -185c-30 0 -50 21 -50 50s21 51 52 51c29 0 49 -22 49 -51c0 -28 -19 -50 -51 -50z" />
    <glyph glyph-name="uni1E45" unicode="&#x1e45;" horiz-adv-x="535" 
d="M70 7v366c0 34 -2 90 -4 107c0 4 1 6 6 6h62c5 0 7 -2 9 -6c3 -9 4 -28 6 -50c44 44 95 66 153 66c71 0 163 -35 163 -193v-296c0 -5 -2 -7 -7 -7h-70c-5 0 -7 2 -7 8v287c0 76 -33 127 -103 127c-51 0 -93 -23 -125 -61v-354c0 -5 -1 -7 -6 -7h-71c-4 0 -6 2 -6 7z
M267 582c-31 0 -50 21 -50 51s21 51 51 51c31 0 50 -22 50 -51c0 -30 -20 -51 -51 -51z" />
    <glyph glyph-name="uni1E47" unicode="&#x1e47;" horiz-adv-x="535" 
d="M70 7v366c0 34 -2 90 -4 107c0 4 1 6 6 6h62c5 0 7 -2 9 -6c3 -9 4 -28 6 -50c44 44 95 66 153 66c71 0 163 -35 163 -193v-296c0 -5 -2 -7 -7 -7h-70c-5 0 -7 2 -7 8v287c0 76 -33 127 -103 127c-51 0 -93 -23 -125 -61v-354c0 -5 -1 -7 -6 -7h-71c-4 0 -6 2 -6 7z
M266 -178c-29 0 -50 21 -50 50s22 51 52 51s49 -22 49 -51c0 -28 -19 -50 -51 -50z" />
    <glyph glyph-name="uni1E49" unicode="&#x1e49;" horiz-adv-x="535" 
d="M70 7v366c0 34 -2 90 -4 107c0 4 1 6 6 6h62c5 0 7 -2 9 -6c3 -9 4 -28 6 -50c44 44 95 66 153 66c71 0 163 -35 163 -193v-296c0 -5 -2 -7 -7 -7h-70c-5 0 -7 2 -7 8v287c0 76 -33 127 -103 127c-51 0 -93 -23 -125 -61v-354c0 -5 -1 -7 -6 -7h-71c-4 0 -6 2 -6 7z
M148 -98h240c3 0 5 -2 5 -5v-52c0 -4 -2 -5 -5 -5h-240c-5 0 -5 2 -5 5v52c0 4 2 5 5 5z" />
    <glyph glyph-name="uni01D2" unicode="&#x1d2;" horiz-adv-x="527" 
d="M265 496c141 0 228 -108 228 -252c0 -152 -94 -254 -228 -254c-161 0 -230 130 -230 253c0 141 90 253 230 253zM261 424c-84 0 -142 -72 -142 -179c0 -102 53 -183 148 -183c71 0 141 56 141 180c0 93 -43 182 -147 182zM194 701l71 -102l69 103c1 2 3 3 7 3h55
c4 0 5 -4 3 -7l-97 -138c-3 -4 -4 -4 -7 -4h-65c-4 0 -6 1 -8 4l-99 139c-3 3 -1 6 3 6h59c5 0 7 -1 9 -4z" />
    <glyph glyph-name="uni1E5B" unicode="&#x1e5b;" horiz-adv-x="318" 
d="M70 486h64c6 0 7 -2 9 -7c4 -12 7 -47 8 -69c35 48 97 86 161 86c5 0 7 -1 7 -7v-72c0 -5 -1 -6 -7 -6c-69 1 -132 -33 -157 -73l-1 -332c0 -5 -2 -6 -6 -6h-71c-5 0 -7 2 -7 7v345c0 42 -2 100 -5 128c0 4 1 6 5 6zM107 -178c-30 0 -50 21 -50 50s21 51 51 51
s50 -22 50 -51c0 -28 -19 -50 -51 -50z" />
    <glyph glyph-name="uni1E5D" unicode="&#x1e5d;" horiz-adv-x="318" 
d="M70 486h64c6 0 7 -2 9 -7c4 -12 7 -47 8 -69c35 48 97 86 161 86c5 0 7 -1 7 -7v-72c0 -5 -1 -6 -7 -6c-69 1 -132 -33 -157 -73l-1 -332c0 -5 -2 -6 -6 -6h-71c-5 0 -7 2 -7 7v345c0 42 -2 100 -5 128c0 4 1 6 5 6zM112 -178c-29 0 -50 21 -50 50s22 51 52 51
s49 -22 49 -51c0 -28 -19 -50 -51 -50zM49 661h260c3 0 5 -1 5 -6v-51c0 -4 -2 -5 -6 -5h-259c-4 0 -5 2 -5 6v51c0 4 2 5 5 5z" />
    <glyph glyph-name="uni1E5F" unicode="&#x1e5f;" horiz-adv-x="318" 
d="M70 486h64c6 0 7 -2 9 -7c4 -12 7 -47 8 -69c35 48 97 86 161 86c5 0 7 -1 7 -7v-72c0 -5 -1 -6 -7 -6c-69 1 -132 -33 -157 -73l-1 -332c0 -5 -2 -6 -6 -6h-71c-5 0 -7 2 -7 7v345c0 42 -2 100 -5 128c0 4 1 6 5 6zM-6 -82h240c3 0 5 -1 5 -5v-52c0 -4 -2 -5 -5 -5h-240
c-5 0 -5 2 -5 5v52c0 4 2 5 5 5z" />
    <glyph glyph-name="uni1E61" unicode="&#x1e61;" horiz-adv-x="378" 
d="M317 398c-28 17 -74 29 -116 29c-66 0 -88 -32 -88 -62s18 -51 93 -81c101 -39 142 -80 142 -151c0 -92 -75 -143 -179 -143c-55 0 -105 12 -134 29c-3 2 -5 4 -5 9v67c0 5 3 7 6 5c40 -28 91 -40 135 -40c64 0 95 28 95 65s-22 59 -91 86c-100 38 -142 79 -142 150
c0 72 61 135 170 135c55 0 96 -10 117 -22c5 -2 5 -6 5 -10v-61c0 -5 -3 -8 -8 -5zM189 585c-31 0 -50 21 -50 51s21 51 51 51c31 0 50 -22 50 -51c0 -30 -20 -51 -51 -51z" />
    <glyph glyph-name="uni1E63" unicode="&#x1e63;" horiz-adv-x="378" 
d="M317 398c-28 17 -74 29 -116 29c-66 0 -88 -32 -88 -62s18 -51 93 -81c101 -39 142 -80 142 -151c0 -92 -75 -143 -179 -143c-55 0 -105 12 -134 29c-3 2 -5 4 -5 9v67c0 5 3 7 6 5c40 -28 91 -40 135 -40c64 0 95 28 95 65s-22 59 -91 86c-100 38 -142 79 -142 150
c0 72 61 135 170 135c55 0 96 -10 117 -22c5 -2 5 -6 5 -10v-61c0 -5 -3 -8 -8 -5zM181 -181c-30 0 -50 22 -50 51c0 28 21 50 52 50c29 0 49 -22 49 -50c0 -29 -19 -51 -51 -51z" />
    <glyph glyph-name="uni1E97" unicode="&#x1e97;" horiz-adv-x="293" 
d="M279 65v-51c0 -4 -1 -8 -6 -10c-23 -10 -48 -14 -75 -14c-73 0 -117 35 -117 131v293h-68c-6 1 -7 3 -7 8v57c0 5 2 7 7 7h68c1 37 5 106 9 128c1 4 3 6 7 7l68 11c4 1 6 0 6 -4c-3 -35 -6 -93 -6 -142h106c4 0 6 -2 6 -7v-59c0 -4 -2 -6 -6 -6h-106v-281
c0 -46 17 -72 61 -72c15 0 30 2 47 8c3 1 6 1 6 -4zM44 666c-26 0 -45 18 -45 46c0 29 20 47 47 47c25 0 43 -19 43 -47s-20 -46 -45 -46zM227 666c-26 0 -45 18 -45 46c0 29 21 47 46 47c26 0 44 -19 44 -47c0 -27 -19 -46 -45 -46z" />
    <glyph glyph-name="uni1E6D" unicode="&#x1e6d;" horiz-adv-x="293" 
d="M279 65v-51c0 -4 -1 -8 -6 -10c-23 -10 -48 -14 -75 -14c-73 0 -117 35 -117 131v293h-68c-6 1 -7 3 -7 8v57c0 5 2 7 7 7h68c1 37 5 106 9 128c1 4 3 6 7 7l68 11c4 1 6 0 6 -4c-3 -35 -6 -93 -6 -142h106c4 0 6 -2 6 -7v-59c0 -4 -2 -6 -6 -6h-106v-281
c0 -46 17 -72 61 -72c15 0 30 2 47 8c3 1 6 1 6 -4zM168 -184c-30 0 -51 22 -51 50c0 29 22 51 52 51s50 -22 50 -51c0 -28 -20 -50 -51 -50z" />
    <glyph glyph-name="uni1E6F" unicode="&#x1e6f;" horiz-adv-x="293" 
d="M279 65v-51c0 -4 -1 -8 -6 -10c-23 -10 -48 -14 -75 -14c-73 0 -117 35 -117 131v293h-68c-6 1 -7 3 -7 8v57c0 5 2 7 7 7h68c1 37 5 106 9 128c1 4 3 6 7 7l68 11c4 1 6 0 6 -4c-3 -35 -6 -93 -6 -142h106c4 0 6 -2 6 -7v-59c0 -4 -2 -6 -6 -6h-106v-281
c0 -46 17 -72 61 -72c15 0 30 2 47 8c3 1 6 1 6 -4zM49 -95h241c3 0 4 -2 4 -6v-52c0 -3 -1 -5 -5 -5h-240c-4 0 -5 2 -5 6v51c0 4 2 6 5 6z" />
    <glyph glyph-name="uni01D4" unicode="&#x1d4;" horiz-adv-x="528" 
d="M457 480v-374c0 -53 3 -78 6 -100c0 -4 -1 -6 -6 -6h-64c-5 0 -6 1 -8 5c-3 11 -5 29 -6 43c-42 -43 -95 -58 -145 -58c-85 0 -165 43 -165 188v302c0 5 2 6 7 6h71c4 0 5 -2 5 -6v-292c0 -77 36 -124 106 -124c48 0 86 18 116 51v365c0 4 2 6 7 6h70c6 0 6 -2 6 -6z
M197 701l71 -102l69 103c1 2 3 3 7 3h55c4 0 5 -4 3 -7l-97 -138c-3 -4 -4 -4 -7 -4h-65c-4 0 -6 1 -8 4l-99 139c-3 3 -1 6 3 6h59c5 0 7 -1 9 -4z" />
    <glyph glyph-name="uni01D6" unicode="&#x1d6;" horiz-adv-x="528" 
d="M457 480v-374c0 -53 3 -78 6 -100c0 -4 -1 -6 -6 -6h-64c-5 0 -6 1 -8 5c-3 11 -5 29 -6 43c-42 -43 -95 -58 -145 -58c-85 0 -165 43 -165 188v302c0 5 2 6 7 6h71c4 0 5 -2 5 -6v-292c0 -77 36 -124 106 -124c48 0 86 18 116 51v365c0 4 2 6 7 6h70c6 0 6 -2 6 -6z
M177 547c-25 0 -41 16 -41 38c0 24 18 39 42 39c23 0 39 -15 39 -39c0 -23 -18 -38 -40 -38zM350 547c-23 0 -40 15 -40 38c0 24 18 39 41 39c24 0 40 -15 40 -39c0 -22 -17 -38 -41 -38zM141 728h248c4 0 5 -2 5 -5v-42c0 -3 -2 -5 -5 -5h-248c-4 0 -5 3 -5 6v41
c0 4 2 5 5 5z" />
    <glyph glyph-name="uni01D8" unicode="&#x1d8;" horiz-adv-x="528" 
d="M457 480v-374c0 -53 3 -78 6 -100c0 -4 -1 -6 -6 -6h-64c-5 0 -6 1 -8 5c-3 11 -5 29 -6 43c-42 -43 -95 -58 -145 -58c-85 0 -165 43 -165 188v302c0 5 2 6 7 6h71c4 0 5 -2 5 -6v-292c0 -77 36 -124 106 -124c48 0 86 18 116 51v365c0 4 2 6 7 6h70c6 0 6 -2 6 -6z
M222 655l72 99c2 3 4 4 7 4h71c4 0 5 -2 3 -5l-80 -99c-1 -2 -3 -3 -7 -3h-63c-3 0 -5 1 -3 4zM177 549c-23 0 -39 14 -39 36c0 23 17 37 40 37c22 0 38 -14 38 -37s-18 -36 -39 -36zM350 549c-22 0 -38 13 -38 36s17 37 39 37c23 0 39 -15 39 -37c0 -21 -17 -36 -40 -36z
" />
    <glyph glyph-name="uni01DA" unicode="&#x1da;" horiz-adv-x="528" 
d="M457 480v-374c0 -53 3 -78 6 -100c0 -4 -1 -6 -6 -6h-64c-5 0 -6 1 -8 5c-3 11 -5 29 -6 43c-42 -43 -95 -58 -145 -58c-85 0 -165 43 -165 188v302c0 5 2 6 7 6h71c4 0 5 -2 5 -6v-292c0 -77 36 -124 106 -124c48 0 86 18 116 51v365c0 4 2 6 7 6h70c6 0 6 -2 6 -6z
M177 547c-23 0 -39 14 -39 36c0 23 17 38 40 38c22 0 38 -15 38 -38s-18 -36 -39 -36zM350 547c-22 0 -38 13 -38 36s17 38 39 38c23 0 39 -16 39 -38c0 -21 -17 -36 -40 -36zM264 684c15 15 46 44 61 58c2 2 4 4 9 4h60c4 0 6 -4 3 -7l-92 -86c-2 -4 -6 -4 -8 -4h-70
c-5 0 -8 1 -10 3l-94 88c-2 3 0 6 4 6h66c5 0 7 -2 10 -5c16 -15 45 -41 61 -57z" />
    <glyph glyph-name="uni01DC" unicode="&#x1dc;" horiz-adv-x="528" 
d="M457 480v-374c0 -53 3 -78 6 -100c0 -4 -1 -6 -6 -6h-64c-5 0 -6 1 -8 5c-3 11 -5 29 -6 43c-42 -43 -95 -58 -145 -58c-85 0 -165 43 -165 188v302c0 5 2 6 7 6h71c4 0 5 -2 5 -6v-292c0 -77 36 -124 106 -124c48 0 86 18 116 51v365c0 4 2 6 7 6h70c6 0 6 -2 6 -6z
M232 753l76 -97c2 -4 0 -5 -3 -5h-63c-4 0 -6 1 -8 3l-84 98c-2 3 -1 5 3 5h72c3 0 5 -1 7 -4zM177 549c-23 0 -39 14 -39 36c0 23 17 37 40 37c22 0 38 -14 38 -37s-18 -36 -39 -36zM350 549c-22 0 -38 13 -38 36s17 37 39 37c23 0 39 -15 39 -37c0 -21 -17 -36 -40 -36z
" />
    <glyph glyph-name="uni1E8F" unicode="&#x1e8f;" horiz-adv-x="459" 
d="M11 486h79c4 0 6 -2 7 -5c83 -220 124 -334 138 -379c32 92 74 207 135 379c2 3 4 5 8 5h71c5 0 6 -3 4 -7c-74 -217 -177 -473 -272 -687c-2 -4 -5 -6 -11 -7l-75 -6c-5 0 -5 3 -3 8c29 61 66 142 99 221c2 4 2 7 0 13c-24 60 -124 303 -185 459c-2 4 1 6 5 6zM232 582
c-31 0 -50 21 -50 51s21 51 51 51c31 0 50 -22 50 -51c0 -30 -20 -51 -51 -51z" />
    <glyph glyph-name="uni1E93" unicode="&#x1e93;" horiz-adv-x="396" 
d="M374 0h-359c-3 0 -4 3 -4 7v39c0 4 1 6 2 9c68 99 233 314 265 360c-18 -1 -50 -1 -102 -1h-152c-6 0 -7 2 -6 8l11 58c1 4 3 6 7 6h337c4 0 5 -2 5 -6v-42c0 -4 -1 -7 -4 -12c-101 -147 -232 -317 -260 -355c31 1 73 0 122 0h152c5 0 7 -1 5 -6l-12 -59
c-1 -5 -4 -6 -7 -6zM197 -178c-30 0 -50 21 -50 50s21 51 52 51c29 0 49 -22 49 -51c0 -28 -19 -50 -51 -50z" />
    <glyph glyph-name="uni00A80300" horiz-adv-x="0" 
d="M-32 753l76 -97c2 -4 0 -5 -3 -5h-63c-4 0 -6 1 -8 3l-84 98c-2 3 -1 5 3 5h72c3 0 5 -1 7 -4zM-87 549c-23 0 -39 14 -39 36c0 23 17 37 40 37c22 0 38 -14 38 -37s-18 -36 -39 -36zM86 549c-22 0 -38 13 -38 36s17 37 39 37c23 0 39 -15 39 -37c0 -21 -17 -36 -40 -36z
" />
    <glyph glyph-name="uni00A80301" horiz-adv-x="0" 
d="M-42 655l72 99c2 3 4 4 7 4h71c4 0 5 -2 3 -5l-80 -99c-1 -2 -3 -3 -7 -3h-63c-3 0 -5 1 -3 4zM-87 549c-23 0 -39 14 -39 36c0 23 17 37 40 37c22 0 38 -14 38 -37s-18 -36 -39 -36zM86 549c-22 0 -38 13 -38 36s17 37 39 37c23 0 39 -15 39 -37c0 -21 -17 -36 -40 -36z
" />
    <glyph glyph-name="uni00A8030C" horiz-adv-x="0" 
d="M-87 547c-23 0 -39 14 -39 36c0 23 17 38 40 38c22 0 38 -15 38 -38s-18 -36 -39 -36zM86 547c-22 0 -38 13 -38 36s17 38 39 38c23 0 39 -16 39 -38c0 -21 -17 -36 -40 -36zM0 684c15 15 46 44 61 58c2 2 4 4 9 4h60c4 0 6 -4 3 -7l-92 -86c-2 -4 -6 -4 -8 -4h-70
c-5 0 -8 1 -10 3l-94 88c-2 3 0 6 4 6h66c5 0 7 -2 10 -5c16 -15 45 -41 61 -57z" />
    <glyph glyph-name="uni00A80304" horiz-adv-x="0" 
d="M-87 547c-25 0 -41 16 -41 38c0 24 18 39 42 39c23 0 39 -15 39 -39c0 -23 -18 -38 -40 -38zM86 547c-23 0 -40 15 -40 38c0 24 18 39 41 39c24 0 40 -15 40 -39c0 -22 -17 -38 -41 -38zM-123 728h248c4 0 5 -2 5 -5v-42c0 -3 -2 -5 -5 -5h-248c-5 0 -5 3 -5 6v41
c0 4 2 5 5 5z" />
    <glyph glyph-name="uni00A80300.cap" horiz-adv-x="0" 
d="M-23 890l69 -89c1 -3 -1 -5 -4 -5h-63c-5 0 -6 1 -8 4l-76 89c-1 3 0 6 3 6h71c3 0 5 -2 8 -5zM-102 706c-24 0 -40 14 -40 35c0 22 18 36 41 36c21 0 37 -15 37 -36c0 -22 -17 -35 -38 -35zM102 706c-22 0 -38 13 -38 35c0 21 17 36 39 36c23 0 38 -15 38 -36
c0 -20 -16 -35 -39 -35z" />
    <glyph glyph-name="uni00A80301.cap" horiz-adv-x="0" 
d="M-40 801l69 89c3 3 4 5 7 5h72c3 0 4 -3 2 -6l-76 -89c-1 -3 -3 -4 -8 -4h-63c-3 0 -4 2 -3 5zM-102 706c-24 0 -40 14 -40 35c0 22 18 36 41 36c21 0 37 -15 37 -36c0 -22 -17 -35 -38 -35zM102 706c-22 0 -38 13 -38 35c0 21 17 36 39 36c23 0 38 -15 38 -36
c0 -20 -16 -35 -39 -35z" />
    <glyph glyph-name="uni00A8030C.cap" horiz-adv-x="0" 
d="M1 835c14 11 49 39 61 49c2 2 5 3 9 3h61c4 0 5 -3 3 -6l-92 -74c-2 -3 -5 -3 -8 -3h-72c-5 0 -8 1 -10 3l-94 74c-2 3 -1 6 3 6h67c5 0 7 -1 10 -4c14 -12 47 -37 62 -48zM-103 708c-23 0 -39 14 -39 35c0 22 18 36 40 36s38 -15 38 -36s-18 -35 -39 -35zM102 708
c-22 0 -38 14 -38 35c0 22 17 36 39 36c23 0 39 -15 39 -36c0 -20 -17 -35 -40 -35z" />
    <glyph glyph-name="uni00A80304.cap" horiz-adv-x="0" 
d="M-129 875h257c3 0 5 -1 5 -6v-43c0 -4 -2 -6 -5 -6h-258c-4 0 -4 3 -4 6v44c0 3 2 5 5 5zM-102 706c-24 0 -40 14 -40 34c0 22 18 36 41 36c21 0 37 -14 37 -36c0 -21 -17 -34 -38 -34zM102 706c-22 0 -38 13 -38 34c0 22 17 36 39 36c23 0 38 -14 38 -36
c0 -20 -16 -34 -39 -34z" />
    <glyph glyph-name="uni1E9E" unicode="&#x1e9e;" horiz-adv-x="588" 
d="M492 473c-113 -23 -132 -59 -132 -85c0 -23 27 -42 74 -72c97 -63 115 -111 115 -168c0 -92 -73 -158 -195 -158c-52 0 -97 13 -124 29c-5 3 -6 6 -6 10v67c0 4 2 6 6 4c34 -24 79 -37 128 -37c61 0 108 28 109 77c1 32 -11 65 -93 116c-69 43 -100 73 -100 120
c0 59 49 105 137 134c-1 37 -30 89 -120 89c-83 0 -129 -45 -129 -134v-458c0 -4 -1 -7 -5 -7h-73c-4 0 -6 2 -6 6v469c0 132 89 196 214 196c144 0 202 -87 202 -167c0 -9 -1 -18 -2 -31z" />
    <glyph glyph-name="uni1EA0" unicode="&#x1ea0;" horiz-adv-x="586" 
d="M416 208h-254l-72 -202c-1 -4 -3 -6 -8 -6h-68c-5 0 -7 3 -6 8l218 607c3 8 6 15 7 41c0 3 2 5 5 5h98c4 0 5 -1 6 -5l235 -649c2 -4 1 -7 -4 -7h-76c-4 0 -6 2 -8 5zM185 285h208c-22 65 -85 240 -104 308h-1c-17 -64 -65 -198 -103 -308zM291 -162c-28 0 -48 20 -48 48
s21 49 50 49s47 -21 47 -49s-18 -48 -49 -48z" />
    <glyph glyph-name="uni1EA2" unicode="&#x1ea2;" horiz-adv-x="586" 
d="M416 208h-254l-72 -202c-1 -4 -3 -6 -8 -6h-68c-5 0 -7 3 -6 8l218 607c3 8 6 15 7 41c0 3 2 5 5 5h98c4 0 5 -1 6 -5l235 -649c2 -4 1 -7 -4 -7h-76c-4 0 -6 2 -8 5zM185 285h208c-22 65 -85 240 -104 308h-1c-17 -64 -65 -198 -103 -308zM196 811v39c0 3 1 5 4 6
c21 12 55 21 87 21c63 0 99 -30 99 -73c0 -55 -68 -91 -121 -103c-3 -1 -5 0 -5 3v38c0 4 2 5 4 6c31 16 52 29 52 49c0 17 -15 29 -41 29c-27 0 -48 -7 -73 -18c-3 -2 -6 0 -6 3z" />
    <glyph glyph-name="uni1EA4" unicode="&#x1ea4;" horiz-adv-x="586" 
d="M416 208h-254l-72 -202c-1 -4 -3 -6 -8 -6h-68c-5 0 -7 3 -6 8l218 607c3 8 6 15 7 41c0 3 2 5 5 5h98c4 0 5 -1 6 -5l235 -649c2 -4 1 -7 -4 -7h-76c-4 0 -6 2 -8 5zM185 285h208c-22 65 -85 240 -104 308h-1c-17 -64 -65 -198 -103 -308zM399 810l82 90c4 3 5 4 9 4h72
c4 0 6 -3 3 -7l-99 -89c-3 -4 -5 -4 -10 -4h-53c-5 0 -6 2 -4 6zM209 713h-60c-6 0 -7 3 -4 7l104 105c2 2 4 3 7 3h64c5 0 7 -2 9 -5l109 -104c3 -3 0 -6 -6 -6h-65c-7 0 -10 3 -11 5l-70 66l-67 -67c-3 -3 -5 -4 -10 -4z" />
    <glyph glyph-name="uni1EA6" unicode="&#x1ea6;" horiz-adv-x="586" 
d="M416 208h-254l-72 -202c-1 -4 -3 -6 -8 -6h-68c-5 0 -7 3 -6 8l218 607c3 8 6 15 7 41c0 3 2 5 5 5h98c4 0 5 -1 6 -5l235 -649c2 -4 1 -7 -4 -7h-76c-4 0 -6 2 -8 5zM185 285h208c-22 65 -85 240 -104 308h-1c-17 -64 -65 -198 -103 -308zM455 894l89 -99
c2 -3 1 -6 -3 -6h-57c-5 0 -7 1 -10 5l-103 99c-2 3 -2 6 2 6h73c4 0 6 -1 9 -5zM207 714h-60c-6 0 -7 2 -4 6l104 105c2 2 4 3 7 3h64c5 0 7 -1 9 -4l109 -104c3 -4 0 -6 -6 -6h-65c-7 0 -10 2 -11 4l-70 67l-67 -67c-3 -3 -5 -4 -10 -4z" />
    <glyph glyph-name="uni1EA8" unicode="&#x1ea8;" horiz-adv-x="586" 
d="M416 208h-254l-72 -202c-1 -4 -3 -6 -8 -6h-68c-5 0 -7 3 -6 8l218 607c3 8 6 15 7 41c0 3 2 5 5 5h98c4 0 5 -1 6 -5l235 -649c2 -4 1 -7 -4 -7h-76c-4 0 -6 2 -8 5zM185 285h208c-22 65 -85 240 -104 308h-1c-17 -64 -65 -198 -103 -308zM371 879v33c1 3 1 4 4 6
c17 9 46 17 73 17c54 0 85 -26 85 -61c0 -45 -58 -78 -103 -88c-4 -1 -5 1 -5 4v33c0 3 1 5 4 5c24 13 40 24 40 40c0 13 -10 22 -33 22c-22 0 -40 -5 -59 -15c-3 -1 -6 0 -6 4zM205 711h-59c-7 0 -8 3 -4 7l103 105c2 2 4 3 7 3h64c6 0 7 -2 10 -5l108 -104
c4 -3 1 -6 -5 -6h-65c-7 0 -10 3 -12 5l-70 66l-66 -67c-3 -3 -5 -4 -11 -4z" />
    </font>
</defs>
</svg>
