<?xml version="1.0" standalone="no"?>
<!DOCTYPE svg PUBLIC "-//W3C//DTD SVG 1.1//EN" "http://www.w3.org/Graphics/SVG/1.1/DTD/svg11.dtd" >
<svg xmlns="http://www.w3.org/2000/svg" xmlns:xlink="http://www.w3.org/1999/xlink" version="1.1">
<metadata>
Created by FontForge 20161003 at Mon Aug 27 21:54:48 2018
 By www-data
Copyright 2008 Adobe Systems Incorporated. All rights reserved.
</metadata>
<defs>
<font id="AdobeClean-Bold" horiz-adv-x="389" >
  <font-face 
    font-family="Adobe Clean"
    font-weight="700"
    font-stretch="normal"
    units-per-em="1000"
    panose-1="2 11 8 3 2 4 4 2 2 4"
    ascent="730"
    descent="-270"
    x-height="493"
    cap-height="657"
    bbox="-179.556 -241 1172 986"
    underline-thickness="50"
    underline-position="-100"
    stemh="109"
    stemv="121"
    unicode-range="U+0020-FB04"
  />
<missing-glyph horiz-adv-x="500" 
d="M0 0v700h500v-700h-500zM80 50h340l-170 255zM279 350l171 -255v510zM50 605v-510l170 255zM80 650l170 -255l170 255h-340z" />
    <glyph glyph-name="T_h" unicode="Th" horiz-adv-x="1068" 
d="M212 9v539h-202c-6 0 -7 3 -6 9l14 99c1 5 3 7 9 7h500c6 0 9 -2 10 -8v-97c1 -7 -2 -10 -8 -10h-196v-539c0 -6 -2 -9 -8 -9h-103c-6 -1 -10 2 -10 9zM700 363v-356c0 -5 -1 -7 -6 -7h-106c-6 0 -8 3 -8 8v697c0 4 1 7 7 7h107c5 0 6 -2 6 -7l1 -248c38 28 80 46 137 46
c75 0 167 -38 167 -198v-296c0 -7 -3 -9 -9 -9h-103c-7 0 -9 3 -9 9v284c0 67 -29 105 -87 105c-37 0 -70 -12 -97 -35z" />
    <glyph glyph-name="Tcaron_h" unicode="&#x164;h" horiz-adv-x="1068" 
d="M212 9v539h-202c-6 0 -7 3 -6 9l14 99c1 5 3 7 9 7h500c6 0 9 -2 10 -8v-97c1 -7 -2 -10 -8 -10h-196v-539c0 -6 -2 -9 -8 -9h-103c-6 -1 -10 2 -10 9zM700 363v-356c0 -5 -1 -7 -6 -7h-106c-6 0 -8 3 -8 8v697c0 4 1 7 7 7h107c5 0 6 -2 6 -7l1 -248c38 28 80 46 137 46
c75 0 167 -38 167 -198v-296c0 -7 -3 -9 -9 -9h-103c-7 0 -9 3 -9 9v284c0 67 -29 105 -87 105c-37 0 -70 -12 -97 -35zM196 837l63 -65l62 64c4 4 7 6 11 6h90c4 0 6 -6 3 -8l-113 -117c-3 -3 -5 -3 -10 -3h-91c-5 0 -9 1 -11 4l-117 118c-3 3 -1 6 4 6h97c6 0 9 -3 12 -5z
" />
    <glyph glyph-name="uni021A_h" unicode="&#x21a;h" horiz-adv-x="1068" 
d="M212 9v539h-202c-6 0 -7 3 -6 9l14 99c1 5 3 7 9 7h500c6 0 9 -2 10 -8v-97c1 -7 -2 -10 -8 -10h-196v-539c0 -6 -2 -9 -8 -9h-103c-6 -1 -10 2 -10 9zM700 363v-356c0 -5 -1 -7 -6 -7h-106c-6 0 -8 3 -8 8v697c0 4 1 7 7 7h107c5 0 6 -2 6 -7l1 -248c38 28 80 46 137 46
c75 0 167 -38 167 -198v-296c0 -7 -3 -9 -9 -9h-103c-7 0 -9 3 -9 9v284c0 67 -29 105 -87 105c-37 0 -70 -12 -97 -35zM276 -225h-91c-5 0 -6 4 -4 7c28 44 37 76 37 110c0 19 -6 39 -15 63c-2 4 1 6 4 6h99c4 0 7 -2 10 -6c8 -12 15 -36 15 -57c0 -50 -16 -85 -45 -120
c-2 -2 -5 -3 -10 -3z" />
    <glyph glyph-name="f_b" unicode="fb" horiz-adv-x="837" 
d="M73 392h-61c-5 0 -6 2 -6 7v88c0 5 2 6 6 6h61v32c0 43 7 81 22 111c25 54 74 85 147 85c27 0 40 -2 50 -6c5 -2 6 -5 6 -10v-87c0 -4 -2 -8 -7 -6c-12 4 -23 5 -35 5c-39 0 -63 -21 -63 -87v-37h89c7 0 8 -2 8 -6v-88c0 -5 -2 -6 -8 -7h-89v-384c0 -5 -1 -8 -8 -8h-104
c-6 0 -8 3 -8 8v384zM362 712h105c7 0 9 -1 9 -8v-215c28 9 59 14 92 14c144 0 236 -102 236 -236c0 -185 -144 -277 -292 -277c-53 0 -103 7 -150 22c-4 1 -7 6 -7 9v684c0 5 2 7 7 7zM681 255c0 95 -56 145 -135 145c-35 0 -53 -5 -70 -11v-292c15 -4 29 -5 47 -5
c82 0 158 52 158 163z" />
    <glyph glyph-name="f_f" unicode="ff" horiz-adv-x="561" 
d="M6 398v89c0 4 3 6 6 6h61v32c0 43 7 81 22 111c25 54 74 85 147 85c27 0 40 -2 50 -6c5 -2 6 -5 6 -10v-87c0 -4 -2 -8 -7 -6c-12 4 -23 5 -35 5c-38 0 -62 -21 -62 -87v-37h161v37c1 134 74 191 165 191c28 0 45 -2 56 -7c5 -2 5 -4 5 -9v-86c0 -4 -1 -8 -7 -6
c-9 2 -21 4 -33 4c-34 0 -66 -8 -66 -89l1 -35h89c6 0 7 -2 7 -6v-88c0 -5 -2 -7 -7 -7h-89v-384c0 -5 -1 -8 -8 -8h-105c-5 0 -8 3 -8 8v384h-161v-383c0 -6 -2 -9 -9 -9h-104c-6 0 -8 2 -8 9v383h-62c-4 0 -5 2 -5 6z" />
    <glyph glyph-name="f_h" unicode="fh" horiz-adv-x="843" 
d="M73 392h-61c-5 0 -6 2 -6 7v88c0 5 2 6 6 6h61v32c0 43 7 81 22 111c25 54 74 85 147 85c27 0 40 -2 50 -6c5 -2 6 -5 6 -10v-87c0 -4 -2 -8 -7 -6c-12 4 -23 5 -35 5c-38 0 -62 -21 -62 -87v-37h88c7 0 8 -2 8 -6v-88c0 -5 -2 -6 -8 -7h-88v-384c0 -5 -1 -8 -9 -8h-104
c-6 0 -8 3 -8 8v384zM475 363v-356c0 -5 -1 -7 -7 -7h-106c-5 0 -8 3 -8 8v697c0 4 2 7 8 7h106c6 0 7 -2 7 -7v-248c38 28 80 46 137 46c76 0 167 -38 167 -198v-296c0 -7 -2 -9 -8 -9h-104c-6 0 -9 3 -9 9v284c0 67 -29 105 -87 105c-36 0 -69 -12 -96 -35z" />
    <glyph glyph-name="f_i" unicode="fi" horiz-adv-x="539" 
d="M355 9v477c0 5 3 7 8 7h106c6 0 8 -1 8 -7v-478c0 -6 -2 -8 -9 -8h-103c-7 0 -10 3 -10 9zM416 561c-40 0 -67 27 -67 67s29 68 68 68c41 0 67 -29 67 -68c0 -40 -27 -67 -68 -67zM73 392h-61c-5 0 -6 2 -6 7v88c0 5 2 6 6 6h61v32c0 43 7 81 22 111c25 54 74 85 147 85
c27 0 40 -2 50 -6c5 -2 6 -5 6 -10v-87c0 -4 -2 -8 -7 -6c-12 4 -23 5 -35 5c-38 0 -62 -21 -62 -87v-37h88c7 0 8 -2 8 -6v-88c0 -5 -2 -6 -8 -7h-88v-384c0 -5 -1 -8 -9 -8h-104c-6 0 -8 3 -8 8v384z" />
    <glyph glyph-name="f_j" unicode="fj" horiz-adv-x="539" 
d="M73 392h-61c-5 0 -6 2 -6 7v88c0 5 2 6 6 6h61v32c0 43 7 81 22 111c25 54 74 85 147 85c27 0 40 -2 50 -6c5 -2 6 -5 6 -10v-87c0 -4 -2 -8 -7 -6c-12 4 -23 5 -35 5c-38 0 -62 -21 -62 -87v-37h88c7 0 8 -2 8 -6v-88c0 -5 -2 -6 -8 -7h-88v-384c0 -5 -1 -8 -9 -8h-104
c-6 0 -8 3 -8 8v384zM364 493h104c5 0 8 -2 8 -7v-460c0 -110 -18 -151 -50 -191c-33 -39 -92 -52 -132 -52c-8 0 -16 0 -23 1s-8 4 -8 9v88c0 5 1 8 7 8c51 0 85 19 85 105v492c0 5 3 7 9 7zM416 560c-42 0 -69 28 -69 69s29 69 70 69c42 0 68 -29 68 -69
c0 -41 -28 -69 -69 -69z" />
    <glyph glyph-name="f_k" unicode="fk" horiz-adv-x="791" 
d="M73 493v32c0 43 7 81 22 111c25 54 74 85 147 85c27 0 40 -2 50 -6c5 -2 6 -5 6 -10v-87c0 -4 -2 -8 -7 -6c-12 4 -23 5 -35 5c-38 0 -62 -21 -62 -87v-37h88c7 0 8 -2 8 -6v-88c0 -5 -2 -6 -8 -7h-88v-384c0 -5 -1 -8 -9 -8h-104c-6 0 -8 3 -8 8v384h-61c-5 0 -6 2 -6 7
v88c0 5 2 6 6 6h61zM670 493h112c7 0 9 -4 5 -9c-30 -35 -160 -172 -198 -212c-1 -1 0 -2 0 -4c61 -70 160 -185 226 -259c4 -4 1 -9 -5 -9h-137c-7 0 -9 2 -12 7c-38 42 -136 162 -185 221v-219c0 -7 -2 -9 -8 -9h-104c-8 0 -9 2 -9 9v695c0 5 1 8 9 8h104c5 0 8 -2 8 -8
v-423c53 59 158 180 181 206c4 5 7 6 13 6z" />
    <glyph glyph-name="f_l" unicode="fl" horiz-adv-x="557" 
d="M73 392h-61c-5 0 -6 2 -6 7v88c0 5 2 6 6 6h61v32c0 43 7 81 22 111c25 54 74 85 147 85c27 0 40 -2 50 -6c5 -2 6 -5 6 -10v-87c0 -4 -2 -8 -7 -6c-12 4 -23 5 -35 5c-38 0 -62 -21 -62 -87v-37h88c7 0 8 -2 8 -6v-88c0 -5 -2 -6 -8 -7h-88v-384c0 -5 -1 -8 -9 -8h-104
c-6 0 -8 3 -8 8v384zM356 119v585c0 5 2 8 9 8h103c6 0 9 -3 9 -8v-574c0 -31 11 -41 35 -41c7 0 10 0 18 1c4 1 5 -1 5 -6v-75c0 -7 -1 -8 -6 -11c-11 -5 -29 -8 -57 -8c-64 0 -116 24 -116 129z" />
    <glyph glyph-name="f_t" unicode="ft" horiz-adv-x="597" 
d="M194 493h162c1 35 5 98 10 123c1 5 4 8 8 9l102 14c4 1 7 0 7 -6c-3 -32 -5 -91 -6 -140h97c6 0 7 -2 7 -7v-87c0 -5 -2 -7 -6 -7h-99v-235c0 -45 15 -67 57 -67c13 0 26 2 43 7c3 1 7 0 7 -6v-72c0 -6 -1 -10 -7 -12c-26 -13 -55 -17 -88 -17c-82 0 -133 40 -133 139
v263h-161v-383c0 -6 -2 -9 -9 -9h-104c-6 0 -8 3 -8 9v383h-61c-5 0 -6 3 -6 8v87c0 4 3 6 7 6h60v32c0 43 7 81 22 111c25 54 74 85 148 85c28 0 40 -3 50 -7c5 -1 6 -4 6 -9v-88c0 -4 -2 -8 -7 -6c-11 4 -24 6 -35 6c-40 0 -63 -20 -63 -85v-39z" />
    <glyph glyph-name="f_f_b" unicode="ffb" horiz-adv-x="1119" 
d="M194 493h161v37c1 134 74 191 165 191c28 0 45 -2 56 -7c5 -2 5 -4 5 -9v-86c0 -4 -1 -8 -7 -6c-9 2 -21 4 -33 4c-34 0 -66 -8 -66 -89l1 -35h89c6 0 7 -2 7 -6v-88c0 -5 -2 -7 -7 -7h-89v-384c0 -5 -1 -8 -8 -8h-105c-5 0 -8 3 -8 8v384h-161v-383c0 -6 -2 -9 -9 -9
h-104c-6 0 -8 2 -8 9v383h-62c-4 0 -5 2 -5 6v89c0 4 3 6 6 6h61v32c0 43 7 81 22 111c25 54 74 85 147 85c27 0 40 -2 50 -6c5 -2 6 -5 6 -10v-87c0 -4 -2 -8 -7 -6c-12 4 -23 5 -35 5c-38 0 -62 -21 -62 -87v-37zM645 711h105c6 0 8 0 8 -7l1 -215c27 9 58 14 91 14
c145 0 237 -102 237 -237c0 -184 -145 -276 -293 -276c-52 0 -102 6 -150 22c-4 1 -6 5 -6 9v684c0 5 2 6 7 6zM963 255c0 95 -55 145 -134 145c-35 0 -53 -6 -70 -11v-293c14 -3 29 -5 46 -5c83 0 158 52 158 164z" />
    <glyph glyph-name="f_f_h" unicode="ffh" horiz-adv-x="1125" 
d="M194 493h161v37c1 134 74 191 165 191c28 0 45 -2 56 -7c5 -2 5 -4 5 -9v-86c0 -4 -1 -8 -7 -6c-9 2 -21 4 -33 4c-34 0 -66 -8 -66 -89l1 -35h89c6 0 7 -2 7 -6v-88c0 -5 -2 -7 -7 -7h-89v-384c0 -5 -1 -8 -8 -8h-105c-5 0 -8 3 -8 8v384h-161v-383c0 -6 -2 -9 -9 -9
h-104c-6 0 -8 2 -8 9v383h-62c-4 0 -5 2 -5 6v89c0 4 3 6 6 6h61v32c0 43 7 81 22 111c25 54 74 85 147 85c27 0 40 -2 50 -6c5 -2 6 -5 6 -10v-87c0 -4 -2 -8 -7 -6c-12 4 -23 5 -35 5c-38 0 -62 -21 -62 -87v-37zM758 363v-356c0 -5 -2 -7 -7 -7h-106c-6 0 -8 3 -8 8v697
c0 4 1 7 7 7h107c5 0 7 -2 7 -7v-248c38 28 80 46 137 46c75 0 167 -38 167 -198v-296c0 -7 -3 -9 -9 -9h-103c-6 0 -9 3 -9 9v284c0 67 -29 105 -87 105c-37 0 -70 -12 -96 -35z" />
    <glyph glyph-name="f_f_i" unicode="ffi" horiz-adv-x="822" 
d="M194 493h158v37c1 134 75 191 166 191c27 0 44 -2 56 -7c5 -2 5 -4 5 -9v-86c0 -4 -2 -8 -7 -6c-9 2 -21 4 -34 4c-34 0 -65 -8 -65 -89v-35h90c5 0 6 -2 6 -6v-88c0 -5 -1 -7 -6 -7h-90v-384c0 -5 -1 -8 -8 -8h-104c-6 0 -8 3 -8 8v384h-159v-383c0 -6 -2 -9 -9 -9h-104
c-6 0 -8 2 -8 9v383h-62c-4 0 -5 2 -5 6v89c0 4 3 6 6 6h61v32c0 43 7 81 22 111c25 54 74 85 147 85c27 0 40 -2 50 -6c5 -2 6 -5 6 -10v-87c0 -4 -2 -8 -7 -6c-12 4 -23 5 -35 5c-38 0 -62 -21 -62 -87v-37zM637 9v477c0 5 2 7 8 7h105c6 0 8 -1 8 -7v-478
c0 -6 -1 -8 -8 -8h-104c-6 0 -9 3 -9 9zM698 560c-42 0 -69 28 -69 69s30 69 70 69c42 0 68 -29 68 -69c0 -41 -28 -69 -69 -69z" />
    <glyph glyph-name="f_f_j" unicode="ffj" horiz-adv-x="821" 
d="M194 493h161v37c1 134 74 191 165 191c28 0 45 -2 56 -7c5 -2 5 -4 5 -9v-86c0 -4 -1 -8 -7 -6c-9 2 -21 4 -33 4c-34 0 -66 -8 -66 -89l1 -35h89c6 0 7 -2 7 -6v-88c0 -5 -2 -7 -7 -7h-89v-384c0 -5 -1 -8 -8 -8h-105c-5 0 -8 3 -8 8v384h-161v-383c0 -6 -2 -9 -9 -9
h-104c-6 0 -8 2 -8 9v383h-62c-4 0 -5 2 -5 6v89c0 4 3 6 6 6h61v32c0 43 7 81 22 111c25 54 74 85 147 85c27 0 40 -2 50 -6c5 -2 6 -5 6 -10v-87c0 -4 -2 -8 -7 -6c-12 4 -23 5 -35 5c-38 0 -62 -21 -62 -87v-37zM645 493h105c5 0 8 -2 8 -7v-460
c0 -110 -18 -151 -50 -191c-33 -39 -92 -52 -133 -52c-8 0 -15 0 -23 1c-6 1 -8 4 -8 9v88c0 5 2 8 7 8c52 0 86 19 86 105v492c0 5 2 7 8 7zM697 560c-41 0 -68 28 -68 69s29 69 69 69c43 0 68 -29 68 -69c0 -41 -27 -69 -69 -69z" />
    <glyph glyph-name="f_f_k" unicode="ffk" horiz-adv-x="1073" 
d="M355 493v37c1 134 74 191 165 191c28 0 45 -2 56 -7c5 -2 5 -4 5 -9v-86c0 -4 -1 -8 -7 -6c-9 2 -21 4 -33 4c-34 0 -66 -8 -66 -89l1 -35h89c6 0 7 -2 7 -6v-88c0 -5 -2 -7 -7 -7h-89v-384c0 -5 -1 -8 -8 -8h-105c-5 0 -8 3 -8 8v384h-161v-383c0 -6 -2 -9 -9 -9h-104
c-6 0 -8 2 -8 9v383h-62c-4 0 -5 2 -5 6v89c0 4 3 6 6 6h61v32c0 43 7 81 22 111c25 54 74 85 147 85c27 0 40 -2 50 -6c5 -2 6 -5 6 -10v-87c0 -4 -2 -8 -7 -6c-12 4 -23 5 -35 5c-38 0 -62 -21 -62 -87v-37h161zM952 493h113c6 0 9 -4 4 -9c-30 -35 -159 -172 -197 -212
c-1 -1 -1 -2 0 -4c60 -70 160 -185 226 -259c3 -4 0 -9 -5 -9h-138c-7 0 -9 2 -12 7c-38 42 -137 163 -185 222v-220c0 -7 -2 -9 -8 -9h-104c-8 0 -9 2 -9 9v695c0 5 1 8 9 8h104c5 0 8 -2 8 -8v-424c52 59 158 181 181 207c5 5 7 6 13 6z" />
    <glyph glyph-name="f_f_l" unicode="ffl" horiz-adv-x="838" 
d="M194 493h159v37c1 134 74 191 165 191c28 0 45 -2 56 -7c5 -2 6 -4 6 -9v-86c0 -4 -2 -8 -8 -6c-9 2 -21 4 -33 4c-34 0 -66 -8 -66 -89l1 -35h89c6 0 7 -2 7 -6v-88c0 -5 -2 -7 -7 -7h-89v-384c0 -5 -1 -8 -8 -8h-105c-5 0 -8 3 -8 8v384h-159v-383c0 -6 -2 -9 -9 -9
h-104c-6 0 -8 2 -8 9v383h-62c-4 0 -5 2 -5 6v89c0 4 3 6 6 6h61v32c0 43 7 81 22 111c25 54 74 85 147 85c27 0 40 -2 50 -6c5 -2 6 -5 6 -10v-87c0 -4 -2 -8 -7 -6c-12 4 -23 5 -35 5c-38 0 -62 -21 -62 -87v-37zM637 119v585c0 5 2 8 9 8h103c6 0 9 -3 9 -8v-574
c0 -31 11 -41 35 -41c7 0 10 0 18 1c4 1 5 -1 5 -6v-75c0 -7 -1 -8 -6 -11c-11 -5 -29 -8 -57 -8c-64 0 -116 24 -116 129z" />
    <glyph glyph-name="f_f_t" unicode="fft" horiz-adv-x="872" 
d="M752 493h97c5 0 7 -2 7 -7v-87c0 -5 -2 -7 -6 -7h-99v-237c0 -44 15 -65 57 -65c13 0 24 1 38 4c4 1 7 0 7 -6v-72c0 -6 -1 -10 -7 -12c-26 -10 -52 -14 -84 -14c-83 0 -131 40 -131 139v263h-41h-22h-94v-384c0 -5 -1 -8 -8 -8h-105c-5 0 -8 3 -8 8v384h-159v-383
c0 -6 -2 -9 -9 -9h-104c-6 0 -8 2 -8 9v383h-62c-4 0 -5 2 -5 6v89c0 4 3 6 6 6h61v32c0 43 7 81 22 111c25 54 74 85 147 85c27 0 40 -2 50 -6c5 -2 6 -5 6 -10v-87c0 -4 -2 -8 -7 -6c-12 4 -23 5 -35 5c-38 0 -62 -21 -62 -87v-37h159v37c1 134 74 191 165 191
c28 0 45 -2 56 -7c5 -2 6 -4 6 -9v-86c0 -4 -2 -8 -8 -6c-9 2 -21 4 -33 4c-34 0 -66 -8 -66 -89v-35h95h22h41c1 35 5 98 10 123c1 5 4 8 8 9l102 14c4 1 7 0 7 -5c-3 -33 -5 -92 -6 -141z" />
    <glyph glyph-name="t_t" unicode="tt" horiz-adv-x="623" 
d="M381 392h-188v-235c0 -45 15 -67 57 -67c13 0 26 2 43 7c3 1 7 0 7 -6v-72c0 -6 -1 -10 -7 -12c-26 -13 -57 -17 -89 -17c-83 0 -131 40 -131 139v263h-62c-6 1 -7 3 -7 9v84c0 6 1 8 7 8h62c1 35 5 98 10 123c1 5 4 8 8 9l102 14c4 1 7 0 7 -6c-3 -32 -5 -91 -6 -140
h188c1 35 5 98 10 123c1 5 4 8 8 9l102 14c4 1 7 0 7 -6c-3 -32 -5 -91 -6 -140h97c6 0 7 -2 7 -7v-87c0 -5 -2 -7 -6 -7h-99v-235c0 -45 15 -67 57 -67c13 0 26 2 43 7c3 1 7 0 7 -6v-72c0 -6 -1 -10 -7 -12c-26 -13 -57 -17 -89 -17c-83 0 -132 40 -132 139v263z" />
    <glyph glyph-name=".notdef" horiz-adv-x="500" 
d="M0 0v700h500v-700h-500zM80 50h340l-170 255zM279 350l171 -255v510zM50 605v-510l170 255zM80 650l170 -255l170 255h-340z" />
    <glyph glyph-name="space" unicode=" " horiz-adv-x="229" 
 />
    <glyph glyph-name="exclam" unicode="!" horiz-adv-x="293" 
d="M174 668c20 0 51 -4 61 -9c5 -3 6 -8 6 -11v-72c0 -84 -17 -320 -20 -350c0 -3 -1 -6 -7 -6h-80c-4 0 -6 2 -7 6c-2 28 -18 263 -18 347v72c0 4 0 8 5 11c13 7 45 12 60 12zM174 -8c-43 0 -72 26 -72 67c0 40 30 69 72 69c43 0 72 -28 72 -69c0 -42 -30 -67 -72 -67z" />
    <glyph glyph-name="quotedbl" unicode="&#x22;" horiz-adv-x="362" 
d="M39 457l-1 247c0 5 2 8 9 8h97c5 0 8 -3 7 -8l-17 -248c-1 -5 -4 -7 -7 -7h-78c-6 0 -10 3 -10 8zM213 457l-1 245c-1 7 2 10 8 10h97c7 0 8 -4 7 -10l-16 -246c-1 -6 -5 -7 -9 -7h-77c-6 0 -9 3 -9 8z" />
    <glyph glyph-name="numbersign" unicode="#" horiz-adv-x="523" 
d="M147 40h-64c-5 0 -7 1 -6 6l36 154h-77c-4 0 -6 1 -6 7v72c0 5 2 6 6 6h95l23 100h-70c-3 0 -5 0 -5 4v76c0 3 1 4 5 4h89l31 138c1 5 3 6 8 6h63c4 0 6 -2 5 -7l-31 -137h91l31 139c1 4 2 5 5 5h65c4 0 6 -2 5 -6l-32 -138h76c5 0 8 -1 8 -6v-73c0 -4 -2 -5 -6 -5h-96
l-22 -100h67c5 0 6 -1 6 -6v-74c0 -4 -3 -5 -6 -5h-84l-35 -153c-2 -5 -2 -7 -7 -7h-63c-5 0 -8 2 -6 7l34 153h-91l-36 -155c-1 -3 -2 -5 -6 -5zM229 385l-22 -100h91l23 100h-92z" />
    <glyph glyph-name="dollar" unicode="$" horiz-adv-x="503" 
d="M298 8v-86c0 -5 -1 -6 -5 -6h-85c-4 0 -6 2 -6 7v79c-57 2 -115 16 -153 37c-5 3 -7 8 -7 16v103c0 5 5 9 9 5c57 -44 131 -57 183 -57c65 0 107 24 107 62c0 37 -25 60 -118 98c-138 54 -180 104 -180 192c0 83 59 154 161 171v79c0 5 1 6 6 6h84c5 0 6 -1 6 -6l3 -77
c47 -3 98 -13 124 -32c3 -2 4 -5 4 -11v-98c0 -5 -4 -7 -8 -5c-40 30 -91 48 -166 48c-68 0 -103 -29 -103 -63s19 -55 125 -98c149 -59 180 -119 180 -196c0 -109 -91 -158 -161 -168z" />
    <glyph glyph-name="percent" unicode="%" horiz-adv-x="845" 
d="M686 626l-437 -620c-4 -6 -6 -6 -14 -6h-76c-4 0 -7 4 -3 9l440 618c3 4 5 6 11 6h77c5 0 4 -4 2 -7zM202 643c111 0 163 -78 163 -184c0 -89 -51 -184 -164 -184c-114 0 -164 82 -164 181c0 118 76 187 165 187zM129 459c0 -57 25 -103 74 -103c43 0 70 37 70 103
s-26 103 -71 103c-42 0 -73 -33 -73 -103zM644 358c111 0 164 -79 164 -184c0 -88 -51 -184 -164 -184s-165 83 -165 182c0 117 76 186 165 186zM572 174c0 -58 25 -102 74 -102c43 0 70 35 70 102c0 66 -26 103 -71 103c-42 0 -73 -34 -73 -103z" />
    <glyph glyph-name="ampersand" unicode="&#x26;" horiz-adv-x="695" 
d="M615 303h-210c29 -28 80 -90 108 -131c39 -52 69 -71 115 -71c9 0 20 1 26 2c5 0 7 -1 7 -7v-86c0 -8 -1 -10 -8 -13c-11 -4 -28 -7 -52 -7c-69 0 -118 20 -185 118c-71 105 -143 180 -166 190c-33 -2 -86 -33 -86 -95c0 -55 40 -101 122 -101c33 0 58 5 79 14
c4 1 5 -1 5 -6v-95c0 -7 -2 -8 -7 -10c-21 -8 -48 -15 -98 -15c-129 0 -223 76 -223 201c0 103 72 162 140 187c-26 30 -54 69 -54 126c0 101 81 164 200 164c47 0 87 -6 113 -20c4 -2 6 -6 6 -12v-91c0 -6 -4 -8 -8 -5c-24 13 -59 23 -106 23c-59 0 -86 -23 -86 -62
c0 -29 26 -59 68 -93h317c7 0 8 -2 7 -7l-15 -90c-1 -7 -3 -8 -9 -8z" />
    <glyph glyph-name="quoteright" unicode="&#x2019;" horiz-adv-x="189" 
d="M108 449h-83c-4 0 -5 3 -4 7c26 73 38 120 38 182c0 24 -3 51 -6 67c0 4 1 7 5 7h88c5 0 8 -2 10 -8c4 -17 7 -40 7 -68c0 -55 -14 -120 -46 -182c-3 -3 -4 -5 -9 -5z" />
    <glyph glyph-name="parenleft" unicode="(" horiz-adv-x="355" 
d="M50 295c0 215 86 372 156 455c3 3 5 5 11 5h101c5 0 8 -4 4 -9c-106 -136 -163 -276 -163 -450c0 -176 57 -317 163 -453c4 -5 1 -9 -4 -9h-101c-6 0 -8 2 -11 6c-72 84 -156 240 -156 455z" />
    <glyph glyph-name="parenright" unicode=")" horiz-adv-x="352" 
d="M307 294c0 -217 -86 -371 -156 -454c-4 -4 -5 -6 -11 -6h-101c-6 0 -8 4 -4 9c106 136 163 276 163 451s-57 316 -163 452c-4 5 -2 9 4 9h101c6 0 7 -2 11 -5c73 -85 156 -239 156 -456z" />
    <glyph glyph-name="asterisk" unicode="*" horiz-adv-x="401" 
d="M246 461l93 -119c3 -3 5 -7 0 -11l-62 -40c-5 -3 -7 -1 -9 4l-77 134l-101 -111c-1 -2 -4 -4 -7 0l-48 50c-5 3 -4 6 0 9l114 95l-130 49c-2 0 -5 4 -3 9l34 68c2 4 5 5 9 2l114 -74l7 146c0 3 1 6 6 6l83 -11c5 0 6 -2 5 -7l-39 -143l132 40c3 2 6 2 8 -4l13 -74
c1 -5 0 -7 -4 -7z" />
    <glyph glyph-name="plus" unicode="+" horiz-adv-x="559" 
d="M241 513h78c4 0 6 -2 6 -8v-201h194c5 0 6 -2 6 -8v-71c0 -6 -2 -8 -7 -8h-193v-204c0 -5 -2 -6 -7 -6h-77c-5 0 -6 2 -6 6v204h-193c-5 0 -8 2 -8 8v73c0 4 3 6 7 6h194v203c0 4 2 6 6 6z" />
    <glyph glyph-name="comma" unicode="," horiz-adv-x="208" 
d="M91 -134h-85c-6 0 -7 4 -5 8c50 98 60 180 55 270c0 3 3 5 6 5h98c5 0 7 -1 7 -7c7 -96 -13 -195 -65 -270c-1 -2 -5 -6 -11 -6z" />
    <glyph glyph-name="hyphen" unicode="-" horiz-adv-x="327" 
d="M282 204h-236c-5 0 -7 2 -7 7v91c0 4 2 6 7 6h235c4 0 6 0 6 -6v-92c0 -5 -2 -6 -5 -6z" />
    <glyph glyph-name="period" unicode="." horiz-adv-x="208" 
d="M104 -10c-43 0 -73 28 -73 75c0 43 30 73 73 73c44 0 74 -31 74 -73c0 -45 -28 -75 -74 -75z" />
    <glyph glyph-name="slash" unicode="/" horiz-adv-x="363" 
d="M327 695l-196 -733c-1 -4 -3 -5 -7 -5h-83c-5 0 -6 2 -5 6l197 733c1 4 2 4 6 4h84c4 0 5 -1 4 -5z" />
    <glyph glyph-name="zero" unicode="0" horiz-adv-x="547" 
d="M273 541c-64 0 -110 -67 -110 -220c0 -142 37 -227 113 -227s109 79 109 225c0 152 -38 222 -112 222zM276 -10c-165 0 -234 145 -234 328c0 186 83 325 233 325c184 0 230 -173 230 -325c0 -168 -61 -328 -229 -328z" />
    <glyph glyph-name="one" unicode="1" horiz-adv-x="339" 
d="M243 0h-107c-6 0 -8 2 -8 7v503c-29 -16 -77 -31 -105 -36c-6 -1 -8 0 -8 6v85c0 5 1 7 6 8c47 12 101 35 139 60c4 3 10 4 15 4h69c4 0 5 -2 5 -7v-623c0 -5 -2 -7 -6 -7z" />
    <glyph glyph-name="two" unicode="2" horiz-adv-x="495" 
d="M437 0h-406c-7 0 -7 3 -7 8v67c0 6 0 9 4 12c43 33 110 83 166 136c101 92 118 150 118 201c0 65 -34 110 -118 110c-62 0 -104 -18 -147 -41c-5 -3 -8 -1 -8 4v92c0 5 1 8 5 11c51 27 109 43 176 43c147 0 215 -96 215 -203c0 -75 -27 -149 -113 -231
c-52 -52 -89 -81 -124 -108c38 3 76 3 147 3h115c7 0 9 -2 8 -7l-21 -90c-2 -5 -4 -7 -10 -7z" />
    <glyph glyph-name="three" unicode="3" horiz-adv-x="502" 
d="M205 277h-58c-5 0 -7 2 -7 7v91c0 6 1 9 6 9h50c73 0 115 24 115 74c0 47 -37 78 -113 78c-52 0 -97 -12 -144 -38c-6 -2 -7 0 -7 4v92c0 5 -1 7 5 10c44 24 103 39 169 39c129 0 208 -68 208 -169c0 -71 -49 -115 -91 -133c52 -15 121 -59 121 -156
c0 -126 -113 -195 -250 -195c-65 0 -121 9 -166 33c-5 2 -6 8 -6 13v99c0 4 5 6 9 4c55 -29 103 -42 159 -42c93 0 130 40 130 91c0 59 -44 89 -130 89z" />
    <glyph glyph-name="four" unicode="4" horiz-adv-x="531" 
d="M317 151h-283c-6 0 -8 2 -8 6v78c0 6 1 9 5 14l254 378c4 5 7 6 14 6h125c5 0 8 -2 8 -7v-377h76c6 0 7 -3 6 -7l-13 -86c-1 -3 -3 -5 -8 -5h-61v-143c0 -6 -3 -8 -7 -8h-100c-5 0 -8 3 -8 8v143zM317 249v89c0 87 4 150 6 185h-1c-25 -50 -142 -229 -172 -274h167z" />
    <glyph glyph-name="five" unicode="5" horiz-adv-x="502" 
d="M402 527h-207c-7 -28 -21 -84 -27 -109c206 -22 289 -98 289 -220c0 -124 -97 -208 -245 -208c-65 0 -119 11 -160 31c-4 2 -6 5 -6 12v98c0 5 4 6 7 4c44 -23 99 -39 158 -39c91 0 124 43 124 94c0 80 -78 118 -274 134c-5 0 -9 1 -9 7v49c6 26 66 241 68 246
c2 6 3 7 9 7h303c5 0 7 -2 5 -8l-26 -91c-1 -5 -3 -7 -9 -7z" />
    <glyph glyph-name="six" unicode="6" horiz-adv-x="548" 
d="M271 312c-44 0 -80 -13 -107 -32c-1 -6 -2 -23 -2 -34c0 -95 47 -151 120 -151c66 0 105 44 105 107c0 68 -44 110 -116 110zM451 637v-92c0 -3 0 -5 -5 -6c-116 -15 -218 -70 -259 -162c29 17 69 32 121 32c111 0 202 -74 202 -202c0 -109 -79 -217 -232 -217
s-236 115 -236 259c0 216 181 366 405 394c4 0 4 -3 4 -6z" />
    <glyph glyph-name="seven" unicode="7" horiz-adv-x="462" 
d="M28 633h413c4 0 6 -1 6 -6v-69c0 -3 -1 -8 -3 -13c-54 -126 -177 -390 -248 -539c-2 -4 -4 -6 -9 -6h-115c-4 0 -6 2 -4 7c143 290 223 457 253 519h-310c-4 0 -6 2 -5 7l15 94c1 5 2 6 7 6z" />
    <glyph glyph-name="eight" unicode="8" horiz-adv-x="528" 
d="M264 543c-59 0 -90 -38 -90 -85c0 -29 10 -51 28 -70c6 -6 12 -8 23 -8h81c10 0 15 2 22 10c15 15 25 36 25 65c0 53 -33 88 -89 88zM265 92c71 0 104 43 104 95c1 39 -17 67 -38 83c-8 5 -13 7 -23 7h-87c-9 0 -12 0 -20 -6c-25 -16 -42 -44 -42 -82
c0 -58 43 -97 106 -97zM266 643c137 0 201 -91 201 -176c0 -66 -39 -111 -68 -134c44 -27 91 -75 91 -154c0 -113 -96 -189 -231 -189c-142 0 -221 86 -221 188c0 68 37 117 89 149c-36 29 -68 74 -68 140c0 92 72 176 207 176z" />
    <glyph glyph-name="nine" unicode="9" horiz-adv-x="543" 
d="M108 -3l-1 91c0 5 1 5 7 7c119 23 201 82 238 151c-35 -16 -71 -22 -105 -22c-114 0 -210 74 -210 201c0 118 90 218 232 218c133 0 230 -100 230 -262c0 -220 -171 -366 -383 -391c-6 -1 -8 2 -8 7zM280 321c40 0 70 8 96 24c0 7 2 24 2 36c0 98 -42 160 -115 160
c-65 0 -103 -50 -103 -111c0 -76 51 -109 120 -109z" />
    <glyph glyph-name="colon" unicode=":" horiz-adv-x="275" 
d="M137 312c-43 0 -73 28 -73 75c0 43 30 73 73 73c44 0 74 -31 74 -73c0 -45 -27 -75 -74 -75zM137 -10c-43 0 -73 28 -73 75c0 43 30 74 73 74c44 0 74 -32 74 -74c0 -45 -27 -75 -74 -75z" />
    <glyph glyph-name="semicolon" unicode=";" horiz-adv-x="275" 
d="M137 312c-43 0 -73 28 -73 75c0 43 30 73 73 73c44 0 74 -31 74 -73c0 -45 -27 -75 -74 -75zM116 -134h-84c-6 0 -8 4 -6 8c51 98 60 180 55 270c0 3 3 5 6 5h98c5 0 7 -1 8 -7c6 -96 -14 -195 -65 -270c-1 -2 -5 -6 -12 -6z" />
    <glyph glyph-name="less" unicode="&#x3c;" horiz-adv-x="545" 
d="M60 227v67c0 6 1 7 5 10l412 208c5 3 8 2 8 -3v-80c0 -4 -3 -7 -7 -8l-320 -159v-2l321 -160c4 -2 6 -2 6 -9v-76c0 -7 -2 -8 -7 -7l-413 210c-4 3 -5 5 -5 9z" />
    <glyph glyph-name="equal" unicode="=" horiz-adv-x="549" 
d="M30 393c0 6 3 7 8 7h475c5 0 7 -2 7 -6v-72c0 -6 -2 -8 -9 -8h-473c-5 0 -8 2 -8 8v71zM30 200c0 6 2 7 7 7h475c5 0 8 -1 8 -8v-70c0 -6 -4 -8 -10 -8h-473c-5 0 -7 2 -7 8v71z" />
    <glyph glyph-name="greater" unicode="&#x3e;" horiz-adv-x="545" 
d="M485 294v-65c0 -5 -1 -7 -5 -9l-415 -212c-3 -1 -5 -1 -5 5v78c0 7 2 8 5 9l320 160v1l-319 160c-5 2 -6 3 -6 8v79c0 5 3 7 6 5l414 -211c4 -2 5 -4 5 -8z" />
    <glyph glyph-name="question" unicode="?" horiz-adv-x="429" 
d="M216 667c120 0 186 -69 186 -157c0 -63 -26 -102 -64 -138c-39 -37 -76 -70 -76 -100c0 -19 5 -36 16 -55c2 -3 1 -7 -4 -7h-87c-5 0 -8 0 -13 4c-18 21 -24 49 -24 69c0 47 29 77 77 125c33 33 52 54 52 85c0 36 -24 61 -85 61c-53 0 -93 -15 -126 -33c-4 -2 -8 0 -8 4
v97c0 4 0 8 4 10c24 13 75 35 152 35zM225 -10c-41 0 -70 26 -70 70c0 42 30 69 70 69c42 0 70 -29 70 -69c0 -42 -25 -70 -70 -70z" />
    <glyph glyph-name="at" unicode="@" horiz-adv-x="856" 
d="M486 87l16 268c-6 2 -15 4 -31 4c-76 0 -121 -63 -121 -141c0 -73 37 -133 115 -133c10 0 15 0 21 2zM604 421l-19 -326c43 10 124 57 124 197c0 151 -100 247 -254 247c-171 0 -303 -113 -303 -314c0 -134 55 -234 165 -291c4 -3 5 -5 5 -10l-2 -96c0 -6 -1 -7 -7 -4
c-169 65 -269 212 -269 395c0 235 166 412 416 412c202 0 352 -130 352 -333c0 -198 -147 -307 -333 -307c-139 0 -232 77 -232 218c0 143 105 237 239 237c39 0 84 -5 112 -17c5 -1 6 -3 6 -8z" />
    <glyph glyph-name="A" unicode="A" horiz-adv-x="606" 
d="M416 173h-239l-55 -165c-2 -6 -5 -8 -11 -8h-100c-6 0 -8 3 -7 10l206 586c4 10 7 20 9 54c0 4 2 7 6 7h139c5 0 6 -1 7 -6l231 -642c1 -6 0 -9 -6 -9h-112c-5 0 -8 2 -10 6zM209 282h175c-21 66 -68 205 -88 275h-1c-16 -67 -56 -184 -86 -275z" />
    <glyph glyph-name="B" unicode="B" horiz-adv-x="583" 
d="M74 8v639c0 5 1 8 6 9c36 1 127 3 194 3c209 0 241 -110 241 -174c0 -71 -38 -112 -63 -130c37 -19 96 -63 96 -155c0 -126 -109 -202 -274 -202c-87 0 -155 1 -193 2c-5 1 -7 4 -7 8zM193 291v-190c22 -1 47 -2 77 -2c94 -1 154 31 154 98c0 41 -20 74 -72 87
c-18 5 -41 7 -68 7h-91zM193 555v-160h76c36 0 76 -3 91 -6c21 17 38 40 38 79c0 59 -44 88 -126 88c-32 0 -58 -1 -79 -1z" />
    <glyph glyph-name="C" unicode="C" horiz-adv-x="557" 
d="M524 110v-89c0 -6 -2 -11 -7 -13c-33 -12 -82 -18 -138 -18c-185 0 -343 109 -343 337c0 201 140 340 358 340c65 0 105 -6 130 -17c4 -2 6 -5 6 -11v-95c0 -8 -4 -8 -8 -6c-32 15 -78 22 -130 22c-141 0 -231 -90 -231 -230c0 -173 128 -232 233 -232c49 0 86 4 123 17
c4 2 7 1 7 -5z" />
    <glyph glyph-name="D" unicode="D" horiz-adv-x="660" 
d="M74 9v639c0 5 1 7 7 8c29 1 97 3 189 3c235 0 353 -133 353 -319c0 -244 -186 -342 -355 -342c-63 0 -155 0 -187 2c-4 0 -7 3 -7 9zM195 552v-448c20 -1 42 -1 68 -1c141 0 236 82 236 234c0 145 -95 217 -230 217c-28 0 -50 -1 -74 -2z" />
    <glyph glyph-name="E" unicode="E" horiz-adv-x="530" 
d="M505 101l-15 -93c-1 -7 -3 -8 -9 -8h-398c-7 0 -9 3 -9 8v641c0 5 2 8 8 8h386c6 0 8 -1 9 -7l11 -93c1 -5 -1 -9 -7 -9h-286v-159h260c5 0 7 -1 7 -7v-95c0 -5 -3 -6 -7 -6h-260v-172h303c6 0 8 -3 7 -8z" />
    <glyph glyph-name="F" unicode="F" horiz-adv-x="508" 
d="M195 265v-257c0 -6 -2 -8 -8 -8h-106c-5 0 -7 3 -7 8v642c0 5 2 7 8 7h386c6 0 8 -2 9 -8l10 -93c1 -6 -2 -8 -8 -8h-284v-175h255c5 0 8 -1 8 -7v-94c0 -5 -3 -7 -8 -7h-255z" />
    <glyph glyph-name="G" unicode="G" horiz-adv-x="646" 
d="M469 260l-112 3c-7 1 -8 3 -8 9v89c0 5 3 6 7 6h226c7 0 8 -2 8 -8v-326c1 -5 -1 -8 -6 -9c-70 -27 -139 -34 -197 -34c-234 0 -351 149 -351 334c0 208 148 343 369 343c67 0 126 -7 162 -24c4 -2 6 -6 6 -12v-96c0 -6 -4 -7 -8 -5c-45 23 -97 29 -156 29
c-161 2 -248 -86 -248 -231c0 -130 80 -232 232 -232c34 0 56 3 76 9v155z" />
    <glyph glyph-name="H" unicode="H" horiz-adv-x="669" 
d="M587 0h-105c-6 0 -8 2 -8 8v279h-279v-278c0 -6 -2 -9 -8 -9h-103c-7 0 -9 3 -9 9v639c0 7 2 9 8 9h104c6 0 8 -2 8 -8v-253h279v254c0 4 2 7 7 7h107c5 0 7 -2 7 -7v-642c0 -6 -2 -8 -8 -8z" />
    <glyph glyph-name="I" unicode="I" horiz-adv-x="270" 
d="M195 649v-640c0 -7 -2 -9 -8 -9h-105c-6 0 -8 3 -8 9v640c0 7 3 8 8 8h105c6 0 8 -2 8 -8z" />
    <glyph glyph-name="J" unicode="J" horiz-adv-x="322" 
d="M131 178v472c0 4 2 7 8 7h106c5 0 7 -1 7 -7v-460c0 -33 -2 -67 -8 -93c-23 -105 -99 -150 -201 -150c-17 0 -33 1 -45 4c-6 2 -7 5 -7 11v92c0 5 2 7 9 6c14 -2 22 -2 31 -2c62 0 100 25 100 120z" />
    <glyph glyph-name="K" unicode="K" horiz-adv-x="584" 
d="M317 338l288 -327c4 -5 1 -11 -5 -11h-127c-8 0 -11 1 -17 8l-261 297v-296c0 -7 -2 -9 -8 -9h-104c-6 0 -9 2 -9 9v641c0 5 2 7 8 7h105c6 0 8 -2 8 -8v-294l257 296c3 4 6 6 12 6h115c9 0 10 -6 6 -10l-268 -300c-2 -3 -2 -5 0 -9z" />
    <glyph glyph-name="L" unicode="L" horiz-adv-x="501" 
d="M470 0h-386c-8 0 -10 3 -10 10v638c0 5 2 9 8 9h107c4 0 6 -3 6 -7v-541h294c6 0 8 -3 7 -7l-17 -94c-1 -7 -4 -8 -9 -8z" />
    <glyph glyph-name="M" unicode="M" horiz-adv-x="831" 
d="M101 651c1 6 3 6 8 6h160c6 0 8 -2 10 -7c30 -101 117 -398 137 -491h1c21 85 120 388 151 491c2 4 3 7 9 7h156c5 0 7 -1 8 -6l27 -643c1 -6 -2 -8 -7 -8h-111c-5 0 -8 1 -8 7c-5 213 -7 501 -6 564h-1c-23 -96 -126 -430 -166 -563c-1 -7 -5 -8 -9 -8h-100
c-7 0 -9 1 -10 7c-43 152 -123 443 -151 565h-2c-1 -101 -9 -355 -19 -565c0 -6 -2 -7 -8 -7h-100c-6 0 -8 1 -7 8z" />
    <glyph glyph-name="N" unicode="N" horiz-adv-x="683" 
d="M180 0h-97c-6 0 -9 1 -9 9v641c0 5 2 7 7 7h141c8 0 9 -2 12 -7c74 -132 227 -414 262 -489h1c-1 28 -3 61 -3 155v333c0 5 3 8 9 8h96c7 0 9 -3 9 -9v-639c0 -7 -3 -9 -10 -9h-127c-7 0 -10 2 -13 7c-52 102 -235 425 -274 522h-1c4 -51 5 -95 5 -186v-334
c0 -6 -2 -9 -8 -9z" />
    <glyph glyph-name="O" unicode="O" horiz-adv-x="692" 
d="M346 667c196 0 308 -150 309 -335c1 -207 -127 -342 -309 -342c-194 0 -310 144 -310 339c0 192 126 338 310 338zM161 329c0 -129 66 -232 189 -232c113 0 181 93 180 232c0 140 -69 231 -186 231c-106 0 -183 -83 -183 -231z" />
    <glyph glyph-name="P" unicode="P" horiz-adv-x="567" 
d="M74 7v641c0 5 2 8 7 8c38 1 112 3 185 3c194 0 266 -108 266 -218c0 -159 -123 -228 -274 -228h-63v-205c0 -5 -2 -8 -8 -8h-105c-5 0 -8 2 -8 7zM195 552v-232c17 -1 30 -1 63 -1c84 0 155 28 155 119c0 73 -52 116 -144 116c-35 0 -63 -1 -74 -2z" />
    <glyph glyph-name="Q" unicode="Q" horiz-adv-x="692" 
d="M162 329c0 -129 66 -232 189 -232c113 0 181 93 181 232c-1 140 -70 231 -186 231c-107 0 -184 -83 -184 -231zM681 -132h-155c-7 0 -13 4 -16 6c-29 25 -77 68 -130 118c-11 -1 -22 -2 -33 -2c-194 0 -309 144 -309 339c0 192 125 338 309 338c196 0 308 -150 309 -335
c1 -137 -55 -243 -146 -298c47 -43 130 -120 173 -158c3 -3 2 -8 -2 -8z" />
    <glyph glyph-name="R" unicode="R" horiz-adv-x="587" 
d="M185 0h-103c-6 0 -8 2 -8 8v639c0 5 1 9 7 9c79 2 121 3 198 3c160 0 254 -69 254 -197c0 -87 -56 -149 -129 -176c33 -46 153 -225 182 -275c3 -6 4 -11 -2 -11h-125c-8 0 -11 2 -14 5c-29 45 -99 160 -143 230c-7 12 -12 17 -23 17h-86v-244c0 -6 -3 -8 -8 -8zM193 355
h87c81 0 133 36 133 100c0 66 -53 99 -138 99c-34 0 -66 -1 -82 -2v-197z" />
    <glyph glyph-name="S" unicode="S" horiz-adv-x="496" 
d="M218 -10c-73 0 -134 14 -175 36c-5 3 -7 7 -7 15v104c0 4 4 6 8 4c54 -35 120 -52 178 -52c82 0 117 32 117 75c0 37 -24 65 -100 97l-48 20c-123 52 -155 114 -155 189c0 107 81 189 232 189c63 0 120 -9 153 -26c5 -3 6 -6 6 -13v-97c0 -4 -3 -8 -9 -4
c-38 22 -93 33 -151 33c-86 0 -113 -36 -113 -71c0 -36 23 -61 102 -94l38 -16c130 -54 167 -117 167 -196c0 -117 -92 -193 -243 -193z" />
    <glyph glyph-name="T" unicode="T" horiz-adv-x="540" 
d="M210 9v539h-203c-5 0 -7 3 -6 8l13 93c1 6 3 8 9 8h497c6 0 9 -2 10 -9l9 -91c1 -6 -2 -9 -7 -9h-202v-539c0 -6 -3 -9 -8 -9h-103c-7 -1 -9 2 -9 9z" />
    <glyph glyph-name="U" unicode="U" horiz-adv-x="652" 
d="M186 649v-394c0 -95 46 -158 142 -158c79 0 138 38 138 160v391c0 6 2 9 8 9h105c6 0 8 -3 8 -8v-398c0 -187 -115 -261 -263 -261c-158 0 -259 84 -259 256v402c0 6 1 9 8 9h105c6 0 8 -2 8 -8z" />
    <glyph glyph-name="V" unicode="V" horiz-adv-x="604" 
d="M309 120h2c22 78 72 248 167 529c2 6 4 8 9 8h109c5 0 8 -3 6 -9l-229 -641c-2 -6 -5 -7 -10 -7h-116c-5 0 -8 1 -10 6l-235 642c-2 5 0 9 6 9h115c5 0 7 -2 8 -6c95 -263 160 -457 178 -531z" />
    <glyph glyph-name="W" unicode="W" horiz-adv-x="855" 
d="M503 649c39 -165 87 -366 114 -503h1c10 56 36 189 106 503c1 5 4 8 10 8h105c6 0 8 -3 7 -9l-169 -642c-2 -5 -4 -6 -10 -6h-108c-7 0 -8 2 -10 6c-30 130 -97 416 -117 515h-1c-18 -101 -96 -390 -128 -512c-1 -5 -3 -9 -10 -9h-106c-6 0 -8 3 -11 8l-167 641
c-1 6 1 8 6 8h113c5 0 9 0 10 -7c85 -357 103 -448 111 -503h1c12 65 42 175 119 502c1 6 5 8 10 8h116c5 0 6 -2 8 -8z" />
    <glyph glyph-name="X" unicode="X" horiz-adv-x="544" 
d="M539 647l-189 -309l202 -328c4 -5 1 -9 -4 -10h-123c-8 0 -12 2 -15 8c-48 82 -97 165 -146 251h-1c-45 -84 -92 -169 -139 -251c-3 -6 -6 -8 -12 -8h-117c-7 0 -7 6 -4 10l196 320l-192 318c-3 5 0 9 5 9h122c6 0 9 -1 12 -7c44 -83 94 -165 139 -248h1
c44 83 91 165 137 247c2 5 5 8 12 8h112c6 0 7 -4 4 -10z" />
    <glyph glyph-name="Y" unicode="Y" horiz-adv-x="538" 
d="M200 265l-214 383c-4 6 1 9 5 9h121c6 0 7 -2 9 -5c106 -206 140 -269 154 -303c16 35 48 101 149 302c1 5 3 6 8 6h117c5 0 6 -3 4 -8l-217 -387c-6 -10 -8 -18 -8 -30v-223c0 -7 -2 -9 -9 -9h-102c-8 0 -10 3 -10 9v227c0 13 -1 18 -7 29z" />
    <glyph glyph-name="Z" unicode="Z" horiz-adv-x="547" 
d="M510 0h-487c-4 0 -8 1 -8 8v67c0 6 1 8 3 12l347 462h-335c-5 0 -8 1 -7 7l15 93c1 6 4 8 9 8h465c5 0 6 -2 6 -6v-72c0 -5 -1 -9 -5 -14l-341 -456h358c5 0 7 -3 5 -9l-16 -92c-1 -6 -3 -8 -9 -8z" />
    <glyph glyph-name="bracketleft" unicode="[" horiz-adv-x="318" 
d="M156 666v-741l127 -4c4 0 5 -2 5 -6v-74c-1 -4 -2 -5 -6 -5h-210c-6 0 -8 2 -8 9v898c0 6 2 9 8 9h210c4 0 5 -1 5 -5v-74c0 -4 -2 -5 -5 -5z" />
    <glyph glyph-name="backslash" unicode="\" horiz-adv-x="361" 
d="M227 -36l-191 729c-1 4 1 7 5 7h82c5 0 7 -2 8 -5l194 -729c2 -8 0 -9 -6 -9h-83c-7 0 -8 2 -9 7z" />
    <glyph glyph-name="bracketright" unicode="]" horiz-adv-x="324" 
d="M171 -77v740l-127 4c-3 0 -4 2 -4 5v74c1 4 2 6 6 6h210c5 0 8 -2 8 -10v-898c0 -6 -2 -8 -8 -8h-211c-3 0 -4 1 -4 5v73c0 5 2 6 5 6z" />
    <glyph glyph-name="asciicircum" unicode="^" horiz-adv-x="512" 
d="M475 252h-81c-7 0 -8 2 -11 6l-128 291h-1l-124 -290c-2 -5 -3 -7 -9 -7h-79c-5 0 -8 3 -6 9l166 367c1 3 4 5 6 5h92c5 0 7 -1 9 -6l169 -366c3 -5 1 -9 -3 -9z" />
    <glyph glyph-name="underscore" unicode="_" horiz-adv-x="515" 
d="M0 -74h515v-49h-515v49z" />
    <glyph glyph-name="quoteleft" unicode="&#x2018;" horiz-adv-x="189" 
d="M80 712h83c5 0 6 -3 5 -7c-26 -73 -38 -120 -38 -182c0 -24 3 -51 6 -67c0 -4 -1 -7 -6 -7h-87c-5 0 -8 2 -10 8c-5 17 -7 40 -7 68c0 55 14 120 46 182c2 3 3 5 8 5z" />
    <glyph glyph-name="a" unicode="a" horiz-adv-x="496" 
d="M316 97v123c-15 2 -32 3 -55 3c-79 0 -114 -26 -114 -69c0 -37 26 -69 98 -69c26 0 49 3 71 12zM433 305v-203c0 -22 0 -42 2 -63c0 -2 0 -3 -2 -4c-82 -35 -140 -45 -208 -45c-109 0 -196 51 -196 164c0 106 95 159 225 159c30 0 53 -1 62 -2v12c0 23 -13 75 -101 75
c-50 0 -94 -10 -131 -28c-3 -1 -8 0 -8 6v87c0 5 1 7 6 10c43 20 98 30 152 30c139 0 199 -87 199 -198z" />
    <glyph glyph-name="b" unicode="b" horiz-adv-x="545" 
d="M70 712h105c7 0 9 -1 9 -8l1 -215c27 9 58 14 91 14c144 0 236 -102 236 -236c0 -185 -144 -277 -292 -277c-52 0 -102 7 -150 22c-4 1 -7 6 -7 9v684c0 5 3 7 7 7zM389 255c0 95 -55 145 -134 145c-35 0 -54 -5 -70 -11v-292c14 -4 29 -5 46 -5c82 0 158 52 158 163z
" />
    <glyph glyph-name="c" unicode="c" horiz-adv-x="431" 
d="M406 103v-89c0 -5 -1 -7 -5 -8c-32 -13 -72 -16 -111 -16c-162 0 -258 111 -258 255c0 148 110 258 275 258c50 0 77 -5 94 -11c4 -2 5 -5 5 -11l-1 -89c0 -7 -4 -7 -8 -6c-21 8 -47 13 -86 13c-91 0 -155 -54 -155 -150c0 -109 79 -151 156 -151c36 0 67 3 87 10
c5 2 7 -1 7 -5z" />
    <glyph glyph-name="d" unicode="d" horiz-adv-x="543" 
d="M288 -10c-145 0 -256 84 -256 252c0 145 108 261 284 261c14 0 26 -1 43 -3v205c0 5 2 7 6 7h109c5 0 5 -2 5 -6v-604c0 -20 2 -46 4 -64c0 -5 -1 -7 -6 -9c-65 -28 -129 -39 -189 -39zM359 102v293c-13 5 -29 7 -47 7c-89 0 -156 -57 -156 -154c0 -109 65 -154 145 -154
c20 0 40 2 58 8z" />
    <glyph glyph-name="e" unicode="e" horiz-adv-x="502" 
d="M357 219h-203c3 -70 49 -126 151 -126c45 0 86 8 124 24c3 2 6 1 6 -4v-83c0 -6 -2 -9 -6 -11c-38 -18 -82 -29 -150 -29c-182 0 -247 128 -247 251c0 139 84 262 235 262c148 0 205 -116 205 -211c0 -28 -1 -51 -4 -62c-1 -4 -3 -6 -8 -7c-14 -3 -54 -4 -103 -4z
M154 305h149c38 0 51 0 55 1v8c0 29 -20 93 -96 93c-69 0 -100 -53 -108 -102z" />
    <glyph glyph-name="f" unicode="f" horiz-adv-x="277" 
d="M73 392h-61c-5 0 -6 2 -6 7v88c0 5 2 6 6 6h61v23c0 50 8 87 22 117c26 54 72 88 148 88c20 0 38 -1 49 -6c6 -2 6 -5 6 -10v-86c0 -4 -2 -7 -7 -5c-10 2 -22 3 -31 3c-41 0 -66 -22 -66 -91v-33h88c7 0 8 -2 8 -6v-88c0 -5 -2 -6 -8 -7h-88v-384c0 -5 -1 -8 -9 -8h-104
c-6 0 -8 3 -8 8v384z" />
    <glyph glyph-name="g" unicode="g" horiz-adv-x="514" 
d="M291 3l-109 5c-29 -20 -48 -52 -48 -67c0 -35 48 -74 131 -74c95 0 137 39 137 77c0 44 -50 56 -111 59zM243 416c-50 0 -81 -31 -81 -82c0 -46 28 -80 81 -80c50 0 80 29 80 78c0 47 -24 84 -80 84zM215 109l102 -4c137 -7 196 -61 196 -143c0 -102 -100 -184 -256 -184
c-161 0 -234 81 -234 154c0 32 27 73 93 130c-15 22 -22 48 -21 75c0 23 6 45 18 65c-41 26 -69 69 -69 130c0 96 73 171 199 171c35 0 67 -3 88 -7c9 -2 17 -3 23 -3h139c5 0 6 -2 6 -6v-82c0 -4 -1 -6 -6 -6c-19 0 -55 2 -77 5c11 -16 22 -40 22 -76
c0 -107 -85 -161 -193 -161c-13 0 -27 1 -40 3c-3 -10 -5 -20 -3 -30c1 -11 5 -21 13 -31z" />
    <glyph glyph-name="h" unicode="h" horiz-adv-x="552" 
d="M184 363v-356c0 -5 -1 -7 -7 -7h-106c-6 0 -8 3 -8 8v697c0 4 2 7 8 7h106c6 0 7 -2 7 -7v-248c38 28 80 46 137 46c76 0 167 -38 167 -198v-296c0 -7 -3 -9 -8 -9h-104c-6 0 -9 3 -9 9v284c0 67 -29 105 -87 105c-37 0 -70 -12 -96 -35z" />
    <glyph glyph-name="i" unicode="i" horiz-adv-x="248" 
d="M63 9v477c0 5 3 7 8 7h106c6 0 8 -1 8 -7v-478c0 -6 -2 -8 -9 -8h-103c-7 0 -10 3 -10 9zM124 560c-41 0 -68 28 -68 69s29 69 69 69c43 0 68 -29 68 -69c0 -41 -27 -69 -69 -69z" />
    <glyph glyph-name="j" unicode="j" horiz-adv-x="248" 
d="M72 493h105c5 0 8 -2 8 -7v-460c0 -110 -18 -151 -50 -191c-33 -39 -92 -52 -133 -52c-7 0 -15 0 -23 1c-6 1 -8 4 -8 9v88c0 5 2 8 7 8c52 0 86 19 86 105v492c0 5 2 7 8 7zM125 560c-42 0 -69 28 -69 69s29 69 69 69c43 0 69 -29 69 -69c0 -41 -28 -69 -69 -69z" />
    <glyph glyph-name="k" unicode="k" horiz-adv-x="499" 
d="M377 493h113c7 0 9 -4 5 -9c-30 -35 -160 -172 -198 -212c-1 -1 0 -2 0 -4c61 -70 160 -185 226 -259c3 -4 1 -9 -5 -9h-137c-7 0 -9 2 -13 7c-37 42 -135 162 -184 221v-219c0 -7 -2 -9 -8 -9h-105c-7 0 -9 2 -9 9v695c0 5 2 8 9 8h105c5 0 8 -2 8 -8v-423
c53 59 158 180 181 206c4 5 7 6 12 6z" />
    <glyph glyph-name="l" unicode="l" horiz-adv-x="265" 
d="M63 119v585c0 5 3 8 9 8h103c6 0 9 -3 9 -8v-574c0 -31 11 -41 35 -41c8 0 10 0 19 1c3 1 4 -1 4 -6v-75c0 -7 -1 -8 -6 -11c-11 -5 -29 -8 -57 -8c-64 0 -116 24 -116 129z" />
    <glyph glyph-name="m" unicode="m" horiz-adv-x="846" 
d="M176 0h-105c-6 0 -8 3 -8 9v378c0 39 -2 80 -4 99c-1 5 2 7 8 7h92c5 0 7 -1 10 -6c3 -8 5 -24 6 -40c47 40 93 56 146 56c59 0 102 -22 129 -66c43 37 96 66 164 66c83 0 169 -44 169 -195v-300c0 -6 -4 -8 -9 -8h-103c-7 0 -9 3 -9 9v288c0 57 -23 102 -84 102
c-39 0 -73 -17 -98 -41c2 -11 3 -38 3 -59v-291c0 -5 -1 -8 -7 -8h-104c-6 0 -9 2 -9 9v291c0 66 -30 98 -84 98c-36 0 -65 -12 -95 -37v-353c0 -6 -2 -8 -8 -8z" />
    <glyph glyph-name="n" unicode="n" horiz-adv-x="551" 
d="M63 8v370c0 34 -2 88 -4 108c0 5 1 7 7 7h91c7 0 10 -2 12 -7c3 -9 5 -22 7 -38c43 36 91 55 145 55c75 0 167 -38 167 -198v-296c0 -7 -3 -9 -8 -9h-104c-6 0 -9 3 -9 9v285c0 66 -28 104 -86 104c-40 0 -73 -15 -97 -41v-349c0 -5 -3 -8 -8 -8h-105c-6 0 -8 3 -8 8z
" />
    <glyph glyph-name="o" unicode="o" horiz-adv-x="544" 
d="M275 503c154 0 238 -117 238 -254c0 -155 -99 -259 -240 -259c-167 0 -241 129 -241 256c0 142 93 257 243 257zM269 402c-67 0 -115 -59 -115 -154c0 -92 45 -156 121 -156c62 0 115 51 115 154c0 83 -36 156 -121 156z" />
    <glyph glyph-name="p" unicode="p" horiz-adv-x="545" 
d="M266 503c165 0 247 -112 247 -240c0 -183 -148 -273 -299 -273c-11 0 -21 1 -30 2v-180c0 -4 -1 -7 -7 -8c-35 -4 -102 -10 -107 -10c-6 0 -7 1 -7 6v599c0 12 -1 45 -3 59c0 1 0 4 4 5c45 15 115 40 202 40zM255 400c-27 0 -49 -3 -71 -10v-295c11 -3 27 -3 40 -3
c78 0 165 46 165 163c0 91 -49 145 -134 145z" />
    <glyph glyph-name="q" unicode="q" horiz-adv-x="545" 
d="M279 -10c-136 0 -247 91 -247 250c0 144 104 263 285 263c69 0 127 -13 166 -28c2 -1 2 -3 2 -7c-2 -18 -4 -51 -4 -63v-594c0 -4 -1 -7 -6 -8c-36 -4 -104 -10 -108 -10c-5 0 -6 3 -6 8v200c-30 -8 -55 -11 -82 -11zM361 103v293c-16 4 -33 6 -54 6
c-88 0 -151 -57 -151 -154c0 -104 69 -153 143 -153c26 0 43 3 62 8z" />
    <glyph glyph-name="r" unicode="r" horiz-adv-x="348" 
d="M64 493h94c6 0 9 -2 11 -8c5 -13 9 -38 10 -60c34 42 91 78 160 78c6 0 8 -1 8 -7v-106c0 -5 -2 -7 -9 -7c-71 2 -130 -23 -153 -53v-322c0 -6 -3 -8 -9 -8h-104c-7 0 -9 3 -9 8v345c0 43 -1 101 -5 134c0 5 1 6 6 6z" />
    <glyph glyph-name="s" unicode="s" horiz-adv-x="400" 
d="M338 377c-31 17 -81 29 -125 29c-53 0 -71 -22 -71 -43c0 -22 15 -37 79 -62c114 -42 153 -87 153 -158c0 -94 -74 -153 -197 -153c-59 0 -111 11 -141 28c-5 3 -7 5 -7 11v95c0 5 4 7 8 5c43 -28 98 -40 143 -40c52 0 77 18 77 44c0 25 -19 41 -81 66
c-109 40 -148 85 -148 157c0 76 62 147 187 147c58 0 102 -8 126 -20c5 -3 6 -7 6 -12v-88c0 -5 -3 -8 -9 -6z" />
    <glyph glyph-name="t" unicode="t" horiz-adv-x="315" 
d="M296 88v-72c0 -6 -1 -10 -6 -12c-27 -10 -52 -14 -85 -14c-82 0 -131 40 -131 139v263h-63c-5 1 -7 3 -7 9v84c0 6 2 8 8 8h63c1 35 5 98 10 123c1 5 3 8 8 9l101 14c5 1 7 0 7 -5c-3 -33 -5 -92 -5 -141h97c5 0 7 -2 7 -7v-87c0 -5 -2 -7 -7 -7h-98v-237
c0 -44 14 -65 57 -65c13 0 24 1 38 4c3 1 6 0 6 -6z" />
    <glyph glyph-name="u" unicode="u" horiz-adv-x="545" 
d="M481 486v-376c0 -52 4 -82 6 -103c1 -5 -2 -7 -8 -7h-92c-7 0 -9 2 -10 6c-3 10 -6 25 -7 35c-43 -40 -94 -51 -139 -51c-95 0 -168 51 -168 191v305c0 6 2 7 8 7h105c6 0 7 -2 7 -7v-291c0 -62 27 -100 87 -100c38 0 66 13 91 36v355c0 5 2 7 8 7h105c6 0 7 -2 7 -7z
" />
    <glyph glyph-name="v" unicode="v" horiz-adv-x="480" 
d="M295 0h-115c-6 0 -8 3 -10 6c-33 96 -130 380 -165 480c-1 4 0 7 6 7h114c5 0 7 -1 9 -6c72 -234 98 -330 108 -374h2c11 44 41 139 117 374c1 5 4 6 8 6h101c3 0 7 -2 5 -8c-38 -105 -135 -385 -169 -478c-2 -5 -5 -7 -11 -7z" />
    <glyph glyph-name="w" unicode="w" horiz-adv-x="739" 
d="M575 0h-110c-7 0 -9 3 -11 9c-58 223 -75 312 -85 361h-1c-23 -100 -48 -196 -95 -362c-2 -6 -5 -8 -11 -8h-109c-10 0 -11 2 -13 8l-130 477c-2 5 1 8 7 8h110c5 0 7 -1 8 -6c60 -235 75 -330 82 -370h2c8 35 25 126 91 368c1 6 2 8 9 8h115c5 0 7 -2 8 -6
c62 -244 76 -333 84 -373h2c12 60 27 160 85 373c1 4 4 6 9 6h101c4 0 8 -2 6 -7l-143 -478c-3 -6 -4 -8 -11 -8z" />
    <glyph glyph-name="x" unicode="x" horiz-adv-x="457" 
d="M147 245l-150 239c-3 4 -2 9 5 9h120c7 0 9 -1 12 -7l95 -173h2l100 175c3 5 4 5 9 5h106c6 0 8 -3 5 -8c-35 -56 -112 -179 -151 -234c43 -67 126 -192 161 -243c4 -4 2 -8 -5 -8h-123c-6 0 -10 3 -13 8l-100 174h-1l-103 -176c-2 -4 -4 -6 -11 -6h-107c-5 0 -8 5 -5 9
c42 63 111 173 154 236z" />
    <glyph glyph-name="y" unicode="y" horiz-adv-x="478" 
d="M7 493h117c4 0 7 -1 9 -6c65 -187 99 -295 112 -344c33 101 68 204 113 344c2 4 5 6 11 6h103c6 0 7 -3 6 -8c-72 -221 -181 -491 -262 -676c-2 -4 -5 -7 -13 -7l-109 -8c-6 0 -7 2 -5 8c30 60 62 131 94 207c2 6 3 9 1 16c-27 66 -123 304 -183 461c-2 4 1 7 6 7z" />
    <glyph glyph-name="z" unicode="z" horiz-adv-x="421" 
d="M393 0h-376c-5 0 -6 2 -6 7v60c0 4 1 7 3 10c64 91 214 275 244 316c-19 -1 -52 -1 -95 -1h-140c-7 0 -9 3 -7 9l14 85c1 5 3 7 9 7h354c5 0 6 -1 7 -6v-62c0 -6 -1 -9 -5 -14c-81 -118 -210 -277 -236 -310c27 1 65 0 115 0h137c5 0 8 -1 6 -8l-16 -86
c-1 -5 -4 -7 -8 -7z" />
    <glyph glyph-name="braceleft" unicode="{" horiz-adv-x="384" 
d="M31 243c-4 0 -5 2 -5 6v83c0 4 1 6 5 6c91 0 117 24 119 87c1 42 -6 99 -6 142c0 82 42 173 202 184c4 1 7 0 7 -5v-73c0 -5 -1 -6 -5 -7c-93 -15 -104 -60 -104 -107c0 -45 5 -94 5 -137c0 -70 -30 -112 -96 -129v-3c78 -18 98 -72 98 -133c1 -48 -7 -102 -7 -149
c0 -53 22 -88 106 -102c5 -1 5 -2 5 -7v-75c0 -4 -2 -6 -6 -6c-134 11 -205 71 -205 181c0 49 9 94 9 147c0 63 -26 97 -122 97z" />
    <glyph glyph-name="bar" unicode="|" horiz-adv-x="233" 
d="M168 -196h-102v980h102v-980z" />
    <glyph glyph-name="braceright" unicode="}" horiz-adv-x="384" 
d="M352 337c4 0 4 -3 4 -7v-83c0 -4 -2 -5 -5 -5c-90 0 -117 -24 -118 -87c-1 -43 5 -108 5 -151c0 -77 -38 -169 -202 -185c-4 0 -6 1 -6 6l-1 74c0 4 1 6 5 7c99 16 105 64 105 106c0 44 -6 102 -6 146c0 70 31 111 97 129v3c-78 18 -99 72 -100 133c0 48 9 91 9 138
c0 50 -19 90 -106 102c-6 1 -6 2 -6 7v76c0 4 2 5 5 5c136 -7 206 -69 206 -181c0 -55 -8 -84 -8 -136c0 -63 26 -97 122 -97z" />
    <glyph glyph-name="asciitilde" unicode="~" horiz-adv-x="553" 
d="M111 179h-71c-4 0 -6 3 -6 7c-3 129 54 177 127 177c48 0 80 -17 133 -56c48 -35 69 -49 96 -49c32 0 48 22 46 92c0 4 2 6 8 6h69c5 0 6 -3 6 -6c9 -139 -59 -178 -122 -178c-48 0 -80 14 -135 54c-47 34 -66 53 -94 53c-26 0 -52 -16 -50 -94c0 -5 -2 -6 -7 -6z" />
    <glyph glyph-name="exclamdown" unicode="&#xa1;" horiz-adv-x="254" 
d="M114 -180c-20 0 -50 3 -61 8c-5 4 -6 8 -6 11v72c0 84 17 321 20 350c0 3 1 6 7 6h80c4 0 6 -2 7 -6c2 -28 19 -263 19 -346v-73c0 -4 -1 -8 -6 -11c-13 -7 -45 -11 -60 -11zM115 495c42 0 71 -26 71 -67c0 -40 -30 -69 -71 -69c-43 0 -73 29 -73 69c0 42 30 67 73 67z
" />
    <glyph glyph-name="cent" unicode="&#xa2;" horiz-adv-x="483" 
d="M351 77v-88c0 -5 -2 -6 -6 -6h-83c-5 0 -6 2 -6 7v88c-120 20 -201 106 -201 233c0 132 94 216 202 236v88c0 4 1 5 6 5h82c4 0 6 -1 6 -6v-82c24 0 55 -5 75 -13c4 -2 5 -5 5 -10v-92c0 -6 -4 -8 -9 -6c-27 12 -57 16 -96 16c-91 0 -149 -50 -149 -131
c0 -100 84 -134 154 -134c31 0 64 4 94 15c5 2 7 0 7 -6v-88c0 -6 -3 -9 -7 -10c-22 -11 -51 -14 -74 -16z" />
    <glyph glyph-name="sterling" unicode="&#xa3;" horiz-adv-x="489" 
d="M463 0h-435c-5 0 -6 2 -6 5v80c0 3 2 5 5 6c77 26 102 78 102 166c0 6 1 11 0 21h-82c-5 0 -6 2 -6 7v70c0 5 1 6 6 6h79v37c0 152 81 245 218 245c43 0 73 -4 92 -14c6 -3 8 -6 8 -13v-91c0 -5 -2 -8 -7 -6c-24 11 -50 17 -82 17c-75 0 -109 -42 -109 -135v-40h136
c4 0 6 -1 6 -6v-70c0 -5 -1 -7 -6 -7h-137c-1 -80 -18 -132 -64 -169h298c7 0 9 -2 7 -7l-15 -95c-1 -5 -3 -7 -8 -7z" />
    <glyph glyph-name="fraction" unicode="&#x2044;" horiz-adv-x="104" 
d="M-93 -10h-71c-4 0 -6 3 -4 6l356 641c2 3 4 4 7 4h72c4 0 5 -3 3 -5l-354 -641c-2 -3 -4 -5 -9 -5z" />
    <glyph glyph-name="yen" unicode="&#xa5;" horiz-adv-x="513" 
d="M306 0h-102c-7 1 -8 3 -8 8v140h-130c-3 0 -6 1 -6 7v61c0 5 2 7 7 7h129v59h-129c-4 0 -7 0 -7 7v59c0 6 3 7 8 7h110l-173 272c-1 3 0 6 5 6h119c4 0 7 0 8 -4c92 -167 112 -205 123 -237h2c11 30 32 67 117 235c2 4 4 6 9 6h115c4 0 6 -2 4 -6l-169 -272h109
c3 0 5 -3 5 -6v-61c0 -3 -1 -6 -6 -6h-133v-59h133c5 0 6 -1 6 -6v-62c0 -5 -2 -7 -7 -7h-132v-140c-1 -7 -2 -8 -7 -8z" />
    <glyph glyph-name="florin" unicode="&#x192;" horiz-adv-x="471" 
d="M75 330v67c0 5 1 6 7 6h91l9 62c15 99 63 223 201 223c35 0 53 -3 71 -11c4 -2 5 -3 5 -9v-86c0 -5 -3 -7 -7 -5c-16 7 -29 10 -56 10c-55 0 -82 -43 -94 -126l-8 -58h105c5 0 7 0 7 -6v-67c0 -6 -2 -7 -6 -7h-117l-32 -240c-16 -129 -64 -210 -183 -210
c-38 0 -61 5 -84 17c-4 2 -5 7 -5 13v89c0 5 2 8 7 6c25 -12 46 -18 67 -18c51 0 70 25 79 104l32 239h-82c-5 0 -7 2 -7 7z" />
    <glyph glyph-name="section" unicode="&#xa7;" horiz-adv-x="511" 
d="M338 7c24 28 38 64 38 105c0 46 -17 113 -111 212c-107 112 -118 145 -120 187c-20 -29 -29 -60 -28 -97c1 -54 24 -102 115 -205c80 -90 112 -145 106 -202zM56 -93v96c0 3 3 5 7 3c53 -36 105 -43 140 -43c32 0 50 9 50 28c0 28 -10 45 -101 147
c-91 103 -124 170 -124 260c0 157 119 269 265 269c59 0 96 -10 115 -23c5 -3 5 -5 5 -9v-91c0 -6 -6 -6 -9 -4c-41 23 -82 32 -118 32c-41 0 -58 -13 -58 -33c0 -21 14 -40 100 -127c82 -85 140 -160 140 -277c0 -158 -122 -273 -265 -273c-66 0 -121 18 -141 34
c-4 2 -6 4 -6 11z" />
    <glyph glyph-name="currency" unicode="&#xa4;" horiz-adv-x="542" 
d="M171 316c0 -85 54 -115 100 -115c49 0 100 26 100 114c0 61 -33 116 -101 116c-60 0 -99 -47 -99 -115zM79 315c0 48 15 82 31 106l-73 71c-2 2 -3 6 0 9l48 49c2 3 6 3 9 -1l72 -71c27 19 60 32 104 32c45 0 78 -12 106 -32l73 69c3 4 6 4 10 1l46 -48c3 -3 2 -5 -1 -8
l-72 -71c17 -24 32 -60 32 -107c0 -50 -13 -79 -31 -105l70 -70c3 -3 4 -5 0 -9l-46 -45c-4 -4 -8 -4 -11 0l-66 69c-23 -18 -63 -33 -109 -33c-50 0 -85 15 -109 32l-64 -68c-4 -4 -6 -5 -11 -1l-46 44c-4 4 -4 7 -1 11l70 69c-18 25 -31 56 -31 107z" />
    <glyph glyph-name="quotesingle" unicode="'" horiz-adv-x="188" 
d="M39 456l-1 248c0 6 1 8 7 8h100c5 0 6 -2 6 -6l-18 -250c-1 -6 -4 -7 -8 -7h-79c-5 0 -7 4 -7 7z" />
    <glyph glyph-name="quotedblleft" unicode="&#x201c;" horiz-adv-x="351" 
d="M249 712h76c4 0 6 -3 5 -7c-27 -73 -39 -120 -39 -182c0 -24 4 -51 7 -67c0 -4 -1 -7 -6 -7h-80c-5 0 -9 2 -10 8c-5 17 -8 40 -8 68c0 55 14 120 46 182c3 3 4 5 9 5zM81 712h76c5 0 6 -3 5 -7c-26 -73 -38 -120 -38 -182c0 -24 3 -51 6 -67c0 -4 -1 -7 -6 -7h-80
c-5 0 -8 2 -10 8c-5 17 -7 40 -7 68c0 55 13 120 46 182c2 3 3 5 8 5z" />
    <glyph glyph-name="guillemotleft" unicode="&#xab;" horiz-adv-x="571" 
d="M54 217v61c0 3 1 6 5 8l209 176c5 3 9 1 9 -6v-92c0 -6 -1 -8 -7 -12l-120 -106l122 -106c3 -2 5 -6 5 -11v-96c0 -7 -4 -8 -10 -5l-209 179c-3 3 -4 6 -4 10zM290 217v61c0 3 2 4 5 6l209 178c5 3 9 1 9 -6v-92c0 -6 -1 -8 -6 -12l-121 -106l120 -105c5 -4 6 -5 6 -12
v-96c0 -7 -3 -8 -9 -5l-208 179c-4 3 -5 6 -5 10z" />
    <glyph glyph-name="guilsinglleft" unicode="&#x2039;" horiz-adv-x="335" 
d="M54 217v61c0 3 1 6 5 8l209 176c5 3 9 1 9 -6v-92c0 -6 -1 -8 -7 -12l-120 -106l122 -106c3 -2 5 -6 5 -11v-96c0 -7 -4 -8 -10 -5l-209 179c-3 3 -4 6 -4 10z" />
    <glyph glyph-name="guilsinglright" unicode="&#x203a;" horiz-adv-x="335" 
d="M282 273v-61c0 -3 -2 -6 -6 -8l-208 -176c-6 -3 -10 -1 -10 5v93c0 6 1 8 7 12l120 106l-122 105c-3 3 -5 7 -5 12v95c0 8 4 9 10 6l209 -180c3 -2 5 -5 5 -9z" />
    <glyph glyph-name="endash" unicode="&#x2013;" horiz-adv-x="570" 
d="M78 293c0 5 1 7 6 7h403c5 0 7 -2 7 -6v-75c0 -5 -3 -7 -7 -7h-402c-6 0 -7 2 -7 7v74z" />
    <glyph glyph-name="dagger" unicode="&#x2020;" horiz-adv-x="422" 
d="M240 -79h-70c-5 0 -7 2 -7 8v404h-140c-4 0 -6 1 -6 5v63c0 5 2 6 6 6h140v178c0 6 2 8 7 8h70c4 0 7 -1 7 -7v-179h136c5 0 7 -2 7 -6v-59c0 -7 0 -9 -8 -9h-135v-405c0 -5 -1 -7 -7 -7z" />
    <glyph glyph-name="daggerdbl" unicode="&#x2021;" horiz-adv-x="422" 
d="M239 -79h-69c-5 0 -7 3 -7 9v209h-138c-6 0 -8 1 -8 6v62c0 4 2 5 7 5h139v133h-138c-6 0 -8 1 -8 7v61c0 5 2 6 7 6h139v166c0 6 2 8 7 8h70c4 0 7 -1 7 -7v-167h135c6 0 8 -1 8 -7v-58c0 -7 0 -8 -8 -8h-135v-134h136c5 0 7 -1 7 -7v-58c0 -7 -1 -8 -8 -8h-135v-210
c0 -6 -2 -8 -8 -8z" />
    <glyph glyph-name="periodcentered" unicode="&#xb7;" horiz-adv-x="260" 
d="M130 183c-43 0 -73 28 -73 74c0 44 30 74 73 74c44 0 74 -32 74 -74c0 -44 -28 -74 -74 -74z" />
    <glyph glyph-name="paragraph" unicode="&#xb6;" horiz-adv-x="601" 
d="M317 657h191c4 0 6 -2 5 -6c-2 -14 -3 -48 -3 -73l-2 -462c0 -114 0 -153 5 -185c1 -4 -1 -7 -5 -7h-56c-5 0 -6 3 -7 6c-6 24 -8 63 -8 222v423h-70v-424c0 -146 -2 -195 -8 -223c-1 -3 -2 -5 -7 -5h-55c-4 0 -6 3 -6 7c4 32 5 95 5 186v192c-129 -4 -266 39 -266 175
c0 121 101 174 287 174z" />
    <glyph glyph-name="bullet" unicode="&#x2022;" horiz-adv-x="366" 
d="M72 256c0 61 42 109 111 109s111 -49 111 -109c0 -62 -41 -109 -111 -109c-69 0 -111 48 -111 109z" />
    <glyph glyph-name="quotesinglbase" unicode="&#x201a;" horiz-adv-x="202" 
d="M110 -120h-83c-4 0 -6 2 -4 6c26 73 38 121 38 182c0 25 -3 51 -6 68c0 3 0 6 5 6h87c5 0 9 -2 10 -7c5 -18 7 -41 7 -68c0 -56 -13 -120 -46 -183c-2 -3 -3 -4 -8 -4z" />
    <glyph glyph-name="quotedblbase" unicode="&#x201e;" horiz-adv-x="361" 
d="M101 -120h-76c-4 0 -6 2 -4 6c26 73 38 121 38 182c0 25 -3 51 -6 68c0 3 0 6 5 6h80c6 0 9 -2 11 -7c4 -18 7 -41 7 -68c0 -56 -14 -120 -46 -183c-3 -3 -4 -4 -9 -4zM269 -120h-76c-4 0 -6 2 -5 6c27 73 39 121 39 182c0 25 -4 51 -7 68c0 3 1 6 6 6h80c5 0 9 -2 10 -7
c5 -18 7 -41 7 -68c0 -56 -13 -120 -45 -183c-3 -3 -4 -4 -9 -4z" />
    <glyph glyph-name="quotedblright" unicode="&#x201d;" horiz-adv-x="351" 
d="M102 449h-77c-4 0 -5 3 -4 7c26 73 38 120 38 182c0 24 -3 51 -6 67c0 4 1 7 5 7h81c5 0 8 -2 10 -8c5 -17 7 -40 7 -68c0 -55 -14 -120 -46 -182c-2 -3 -3 -5 -8 -5zM270 449h-77c-4 0 -5 3 -4 7c26 73 38 120 38 182c0 24 -3 51 -6 67c0 4 1 7 5 7h81c5 0 8 -2 10 -8
c4 -17 7 -40 7 -68c0 -55 -14 -120 -46 -182c-2 -3 -3 -5 -8 -5z" />
    <glyph glyph-name="guillemotright" unicode="&#xbb;" horiz-adv-x="571" 
d="M517 273v-61c0 -3 -1 -6 -5 -8l-209 -176c-6 -3 -10 -1 -10 5v93c0 6 2 8 7 12l121 106l-122 105c-4 3 -5 7 -5 12v95c0 8 4 9 9 6l209 -180c4 -2 5 -5 5 -9zM281 273v-61c0 -3 -2 -5 -6 -6l-209 -178c-5 -3 -8 -1 -8 5v93c0 6 1 8 6 12l120 106l-120 105
c-5 4 -6 5 -6 12v95c0 8 3 9 9 6l209 -180c3 -2 5 -5 5 -9z" />
    <glyph glyph-name="ellipsis" unicode="&#x2026;" horiz-adv-x="867" 
d="M710 -10c-43 0 -73 28 -73 75c0 43 30 73 73 73c44 0 74 -31 74 -73c0 -45 -27 -75 -74 -75zM126 -10c-43 0 -74 28 -74 75c0 43 31 73 74 73c44 0 74 -31 74 -73c0 -45 -28 -75 -74 -75zM419 -10c-43 0 -74 28 -74 75c0 43 31 73 74 73c44 0 73 -31 73 -73
c0 -45 -27 -75 -73 -75z" />
    <glyph glyph-name="perthousand" unicode="&#x2030;" horiz-adv-x="1209" 
d="M1008 358c111 0 164 -79 164 -184c0 -88 -51 -184 -164 -184s-165 83 -165 182c0 117 76 186 165 186zM936 174c0 -58 25 -102 74 -102c43 0 70 35 70 102c0 66 -26 103 -71 103c-42 0 -73 -34 -73 -103zM686 626l-437 -620c-4 -6 -6 -6 -14 -6h-76c-4 0 -7 4 -3 9
l440 618c3 4 5 6 11 6h77c5 0 4 -4 2 -7zM202 643c111 0 163 -78 163 -184c0 -89 -51 -184 -164 -184c-114 0 -164 82 -164 181c0 118 76 187 165 187zM129 459c0 -57 25 -103 74 -103c43 0 70 37 70 103s-26 103 -71 103c-42 0 -73 -33 -73 -103zM644 358
c111 0 164 -79 164 -184c0 -88 -51 -184 -164 -184s-165 83 -165 182c0 117 76 186 165 186zM572 174c0 -58 25 -102 74 -102c43 0 70 35 70 102c0 66 -26 103 -71 103c-42 0 -73 -34 -73 -103z" />
    <glyph glyph-name="questiondown" unicode="&#xbf;" horiz-adv-x="379" 
d="M205 -182c-120 0 -186 70 -186 158c0 63 27 102 64 138c40 37 76 70 76 100c0 18 -5 35 -16 54c-2 4 0 8 5 8h87c4 0 7 0 12 -4c19 -21 25 -49 25 -70c0 -46 -29 -77 -78 -124c-33 -33 -52 -55 -52 -85c0 -36 24 -62 85 -62c53 0 93 16 127 34c4 2 7 0 7 -4v-97
c0 -4 1 -8 -4 -11c-24 -13 -75 -35 -152 -35zM196 495c41 0 70 -25 70 -69c0 -42 -29 -69 -70 -69c-42 0 -70 29 -70 69c0 42 26 69 70 69z" />
    <glyph glyph-name="grave" unicode="`" 
d="M169 706l102 -143c2 -4 0 -8 -5 -8h-95c-5 0 -8 3 -10 6l-125 141c-3 5 -1 9 3 9h119c5 0 8 -1 11 -5z" />
    <glyph glyph-name="acute" unicode="&#xb4;" 
d="M135 562l99 141c3 6 7 9 11 9h115c7 0 9 -3 6 -9l-122 -142c-4 -4 -8 -6 -13 -6h-93c-4 0 -5 4 -3 7z" />
    <glyph glyph-name="circumflex" unicode="&#x2c6;" 
d="M253 559l-63 90l-63 -91c-1 -2 -3 -3 -8 -3h-76c-5 0 -7 4 -4 8l101 140c2 4 4 5 8 5h89c5 0 7 -2 9 -5l104 -141c2 -4 0 -7 -4 -7h-83c-6 0 -8 1 -10 4z" />
    <glyph glyph-name="tilde" unicode="&#x2dc;" 
d="M94 558h-66c-6 0 -7 3 -8 8c1 89 47 131 103 131c63 0 107 -51 138 -51c21 0 28 18 30 43c0 4 2 6 6 6h66c5 0 7 -1 7 -5c-1 -98 -43 -134 -98 -134c-58 0 -98 50 -138 50c-18 0 -32 -12 -35 -42c0 -2 -1 -6 -5 -6z" />
    <glyph glyph-name="macron" unicode="&#xaf;" 
d="M56 670h279c4 0 6 -2 6 -7v-72c0 -4 -2 -6 -6 -6h-280c-5 0 -6 2 -6 7v71c0 6 3 7 7 7z" />
    <glyph glyph-name="breve" unicode="&#x2d8;" 
d="M35 694h80c4 0 6 -1 6 -4c12 -32 35 -51 73 -51c35 0 63 15 74 50c1 4 2 5 5 5h82c4 0 5 -3 4 -6c-16 -84 -75 -136 -166 -136c-85 0 -148 44 -164 136c-1 5 2 6 6 6z" />
    <glyph glyph-name="dotaccent" unicode="&#x2d9;" 
d="M195 560c-42 0 -69 28 -69 69s29 69 69 69c43 0 69 -29 69 -69c0 -41 -28 -69 -69 -69z" />
    <glyph glyph-name="dieresis" unicode="&#xa8;" 
d="M96 568c-35 0 -60 24 -60 61c0 38 26 63 62 63c35 0 59 -26 59 -63c0 -38 -26 -61 -61 -61zM290 568c-34 0 -59 24 -59 61c0 38 27 63 61 63c36 0 59 -26 59 -63s-25 -61 -61 -61z" />
    <glyph glyph-name="ring" unicode="&#x2da;" 
d="M86 640c0 56 43 96 108 96c64 0 108 -40 108 -96c0 -59 -44 -98 -108 -98c-65 0 -108 37 -108 98zM149 640c0 -26 20 -43 45 -43c24 0 44 16 44 43c0 26 -20 43 -44 43c-25 0 -45 -17 -45 -43z" />
    <glyph glyph-name="cedilla" unicode="&#xb8;" 
d="M170 6h73l-34 -46c57 -17 85 -46 85 -96c0 -54 -49 -95 -119 -95c-28 0 -58 5 -73 13c-5 3 -6 5 -6 12v47c0 5 2 7 7 6c19 -9 45 -14 64 -14c25 0 43 9 43 30c0 22 -30 39 -94 47c-3 4 -4 22 -1 26z" />
    <glyph glyph-name="hungarumlaut" unicode="&#x2dd;" 
d="M57 567l71 136c3 6 6 8 15 8h87c6 0 8 -6 4 -10l-86 -139c-4 -5 -4 -8 -15 -8h-70c-8 0 -9 8 -6 13zM239 568l72 136c3 6 5 8 12 8h89c7 0 9 -7 6 -11l-88 -138c-3 -5 -6 -8 -17 -8h-67c-9 0 -10 7 -7 13z" />
    <glyph glyph-name="ogonek" unicode="&#x2db;" 
d="M75 -119c0 56 52 108 130 149h91c-85 -45 -113 -82 -113 -116c0 -28 21 -46 58 -46c20 0 37 2 50 7c5 1 7 -2 7 -7v-62c0 -8 -2 -11 -6 -14c-18 -9 -50 -16 -85 -16c-62 0 -132 26 -132 105z" />
    <glyph glyph-name="caron" unicode="&#x2c7;" 
d="M136 704l63 -90l62 91c2 2 4 3 8 3h77c5 0 6 -4 3 -8l-100 -140c-3 -4 -5 -5 -9 -5h-88c-6 0 -8 2 -10 5l-103 141c-3 4 0 7 4 7h83c5 0 7 -1 10 -4z" />
    <glyph glyph-name="emdash" unicode="&#x2014;" horiz-adv-x="995" 
d="M78 289c0 5 1 7 6 7h826c5 0 7 -2 7 -7v-74c0 -5 -1 -7 -7 -7h-823c-7 0 -9 1 -9 7v74z" />
    <glyph glyph-name="AE" unicode="&#xc6;" horiz-adv-x="827" 
d="M106 0h-113c-5 0 -7 4 -4 9l293 590c3 6 9 20 18 53c2 3 4 5 8 5h460c5 0 7 -2 7 -7l7 -96c1 -5 -2 -6 -7 -6h-274l13 -159h248c4 0 6 -1 5 -6l-4 -98c0 -4 -3 -5 -7 -5h-233l15 -171h272c4 0 6 -2 5 -7l-18 -96c-2 -6 -4 -6 -8 -6h-358c-3 0 -4 1 -4 4l-17 194h-202
l-92 -191c-3 -5 -5 -7 -10 -7zM255 307h148l-14 162c-3 34 -6 71 -8 104h-2c-15 -37 -39 -90 -52 -122z" />
    <glyph glyph-name="ordfeminine" unicode="&#xaa;" horiz-adv-x="355" 
d="M168 587c93 0 144 -53 143 -129v-166c0 -6 -2 -7 -5 -9c-44 -13 -95 -23 -138 -23c-78 0 -147 29 -147 104c0 87 107 112 203 103v5c0 17 -11 41 -68 41c-32 0 -65 -5 -96 -18c-3 -1 -6 0 -6 5v60c0 2 1 4 3 5c34 15 76 22 111 22zM108 367c0 -24 21 -38 66 -38
c21 0 41 3 50 6v72c-66 4 -116 -3 -116 -40z" />
    <glyph glyph-name="Lslash" unicode="&#x141;" horiz-adv-x="501" 
d="M195 109h294c6 0 8 -3 7 -7l-17 -94c-1 -7 -4 -8 -9 -8h-386c-8 0 -10 3 -10 10v242l-70 -31c-3 -2 -5 0 -5 3v74c0 3 2 5 4 7l71 32v311c0 5 2 9 8 9h107c4 0 6 -3 6 -7v-259l143 64c5 2 7 1 7 -5v-68c0 -6 -1 -10 -6 -11l-144 -64v-198z" />
    <glyph glyph-name="Oslash" unicode="&#xd8;" horiz-adv-x="692" 
d="M498 483l-252 -360c28 -18 63 -29 104 -29c118 0 188 94 188 235c0 62 -14 115 -40 154zM196 174l252 360c-29 19 -64 29 -104 29c-110 0 -190 -85 -190 -234c0 -60 14 -114 42 -155zM615 650l-50 -71c58 -62 89 -149 90 -247c1 -207 -127 -342 -309 -342
c-63 0 -118 15 -164 43l-20 -29c-2 -3 -3 -4 -8 -4h-71c-5 0 -6 4 -4 7l49 69c-60 61 -92 150 -92 253c0 192 126 338 310 338c64 0 119 -16 164 -44l21 30c3 3 4 4 8 4h71c7 0 7 -3 5 -7z" />
    <glyph glyph-name="OE" unicode="&#x152;" horiz-adv-x="911" 
d="M455 103v447c-17 4 -33 2 -66 2c-134 0 -229 -76 -229 -225c0 -155 91 -227 232 -227c31 0 45 0 63 3zM501 656h347c7 0 9 -1 10 -7l10 -93c1 -5 0 -9 -7 -9h-285v-158h260c4 0 7 -2 7 -8v-94c0 -6 -3 -7 -8 -7h-259v-172h303c6 0 7 -2 6 -8l-14 -93c-1 -6 -4 -8 -13 -8
h-355c-39 -2 -70 -3 -122 -3c-214 0 -345 127 -345 330c0 209 154 332 358 332c51 0 76 0 107 -2z" />
    <glyph glyph-name="ordmasculine" unicode="&#xba;" horiz-adv-x="386" 
d="M195 587c106 0 166 -72 166 -164c0 -102 -70 -163 -167 -163c-117 0 -170 81 -170 164c0 96 68 163 171 163zM194 515c-46 0 -72 -36 -72 -89c0 -47 24 -92 74 -92c42 0 71 31 71 89c0 43 -19 92 -73 92z" />
    <glyph glyph-name="ae" unicode="&#xe6;" horiz-adv-x="784" 
d="M148 153c0 -42 32 -67 88 -67c37 0 73 9 105 38c-9 23 -16 51 -17 96h-65c-72 0 -111 -21 -111 -67zM29 145c0 106 94 159 231 159h65v14c0 29 -14 81 -105 81c-48 0 -92 -11 -136 -33c-6 -3 -8 0 -8 6v88c0 6 1 7 4 9c49 23 106 34 160 34c79 0 129 -30 150 -72
c34 42 86 72 162 72c143 0 202 -114 202 -208c0 -37 -4 -68 -9 -70c-21 -5 -59 -6 -106 -6h-203c5 -74 48 -125 149 -126c47 0 85 6 126 25c4 2 6 0 6 -4v-85c0 -5 -1 -9 -5 -11c-43 -21 -91 -28 -145 -28c-79 0 -133 22 -174 62c-59 -44 -119 -62 -184 -62
c-85 0 -180 43 -180 155zM544 407c-62 0 -104 -43 -107 -104h169c23 0 32 1 34 3c1 2 1 6 1 11c0 33 -23 90 -97 90z" />
    <glyph glyph-name="dotlessi" unicode="&#x131;" horiz-adv-x="248" 
d="M63 9v477c0 5 3 7 8 7h106c6 0 8 -1 8 -7v-478c0 -6 -2 -8 -9 -8h-103c-7 0 -10 3 -10 9z" />
    <glyph glyph-name="lslash" unicode="&#x142;" horiz-adv-x="275" 
d="M194 475l67 34c5 2 7 1 7 -4v-54c0 -5 0 -17 -5 -20l-69 -35v-266c0 -31 11 -41 35 -41c8 0 10 0 19 1c3 1 4 -1 4 -6v-75c0 -7 -1 -8 -6 -11c-11 -5 -29 -8 -57 -8c-64 0 -116 24 -116 129v216l-51 -26c-4 -1 -7 -1 -7 3v67c0 4 1 6 5 8l53 27v290c0 5 3 8 9 8h103
c6 0 9 -3 9 -8v-229z" />
    <glyph glyph-name="oslash" unicode="&#xf8;" horiz-adv-x="544" 
d="M378 333l-169 -225c18 -13 41 -20 66 -20c65 0 119 53 119 158c0 31 -5 61 -16 87zM169 156l171 227c-18 15 -42 23 -71 23c-70 0 -120 -63 -120 -158c0 -35 7 -66 20 -92zM493 486l-43 -57c41 -46 63 -111 63 -180c0 -155 -99 -259 -240 -259c-51 0 -94 12 -128 33
l-18 -24c-4 -5 -7 -5 -11 -5h-61c-5 0 -6 4 -2 8l45 60c-45 49 -66 117 -66 184c0 143 93 257 243 257c51 0 94 -13 129 -35l16 21c2 3 4 5 8 5h62c4 0 6 -4 3 -8z" />
    <glyph glyph-name="oe" unicode="&#x153;" horiz-adv-x="861" 
d="M32 241c0 152 101 255 239 255c84 0 144 -33 179 -94c44 72 111 94 178 94c146 0 203 -110 203 -212c0 -43 -5 -57 -10 -60c-11 -5 -34 -6 -106 -6h-202c2 -68 42 -125 149 -125c41 0 83 6 124 24c5 2 8 -1 8 -6v-78c0 -8 -1 -11 -6 -15c-40 -20 -88 -28 -148 -28
c-73 0 -148 21 -190 93c-47 -73 -114 -93 -179 -93c-163 0 -239 122 -239 251zM272 395c-71 0 -118 -56 -118 -149c0 -90 43 -154 121 -154c61 0 115 45 115 150c0 82 -33 153 -118 153zM513 302h175c24 0 29 3 29 7v9c0 31 -24 82 -97 82c-64 0 -99 -42 -107 -98z" />
    <glyph glyph-name="germandbls" unicode="&#xdf;" horiz-adv-x="577" 
d="M186 0h-105c-6 0 -8 2 -8 8v384h-62c-4 0 -5 4 -5 8v86c0 6 2 7 6 7h61v7c1 93 56 222 228 222c158 0 220 -119 204 -239c-88 -22 -115 -57 -115 -82c0 -19 13 -33 54 -63c85 -64 107 -111 107 -176c0 -96 -73 -172 -208 -172c-42 0 -75 7 -96 18c-6 2 -7 7 -7 14v89
c0 6 3 7 7 5c31 -16 63 -23 98 -23c47 0 88 20 88 58c0 31 -21 57 -77 97c-66 48 -88 83 -88 136c0 64 54 115 122 147c-1 42 -30 90 -91 90s-105 -36 -105 -142v-471c0 -5 -3 -8 -8 -8z" />
    <glyph glyph-name="logicalnot" unicode="&#xac;" horiz-adv-x="551" 
d="M35 401h479c4 0 6 -2 6 -7v-277c0 -5 -1 -7 -5 -7h-79c-4 0 -5 2 -5 7v197h-396c-4 0 -5 2 -5 7v73c0 5 2 7 5 7z" />
    <glyph glyph-name="uni00B5" unicode="&#xb5;" horiz-adv-x="563" 
d="M480 -10c-45 0 -89 14 -101 79c0 2 -1 11 -1 13c-27 -66 -77 -92 -129 -92c-27 0 -56 8 -73 29c3 -38 4 -120 3 -208c0 -6 -1 -8 -7 -9c-31 -4 -95 -9 -101 -9c-5 0 -8 2 -8 8v685c0 6 2 7 9 7h105c5 0 7 -1 7 -6v-309c0 -52 24 -84 70 -84c58 0 107 48 107 173v220
c0 5 2 6 6 6h109c4 0 6 -2 6 -6v-348c0 -39 11 -50 35 -50c8 0 10 0 19 1c3 1 4 -1 4 -6v-75c0 -7 -1 -9 -6 -11c-11 -5 -29 -8 -54 -8z" />
    <glyph glyph-name="trademark" unicode="&#x2122;" horiz-adv-x="335" 
d="M74 488h-39c-3 0 -3 2 -3 3v129h-51c-2 0 -3 2 -3 4l4 31c1 2 1 2 3 2h141c2 0 2 0 2 -1l4 -32c0 -2 -1 -4 -4 -4h-52v-128c0 -2 0 -3 -2 -4zM262 492h-38c-3 0 -4 2 -5 3c-14 60 -27 118 -29 131h-1c0 -17 -1 -65 -4 -135c0 -2 -1 -3 -3 -3h-36c-3 0 -4 2 -4 3l12 163
c0 3 0 3 4 3h56c2 0 4 0 5 -3c13 -50 24 -95 26 -112h2c1 12 15 63 31 114c1 1 1 1 4 1h53c4 0 5 -1 5 -3l6 -162c0 -2 0 -4 -4 -4h-38c-2 0 -4 1 -4 4c0 100 -1 73 1 132h-1c-3 -12 -19 -73 -35 -128c-1 -2 -1 -4 -3 -4z" />
    <glyph glyph-name="Eth" unicode="&#xd0;" horiz-adv-x="672" 
d="M202 296v-192c19 -1 42 -1 67 -1c141 0 237 82 237 234c0 145 -95 217 -231 217c-28 0 -49 -1 -73 -2v-170h156c4 0 5 -1 5 -6v-74c0 -5 -1 -6 -6 -6h-155zM81 382v266c0 5 1 7 7 8c29 1 96 3 188 3c235 0 354 -133 354 -319c0 -244 -186 -342 -355 -342
c-63 0 -155 0 -188 2c-4 0 -6 3 -6 9v287h-64c-5 0 -6 2 -6 7v73c0 5 1 6 5 6h65z" />
    <glyph glyph-name="onehalf" unicode="&#xbd;" horiz-adv-x="757" 
d="M192 -10h-71c-4 0 -6 3 -4 6l355 641c2 3 5 4 7 4h73c3 0 4 -3 3 -5l-354 -641c-3 -3 -4 -5 -9 -5zM193 267h-82c-6 0 -6 1 -6 6v275c-24 -10 -43 -14 -62 -19c-4 -1 -5 1 -5 5v61c0 3 2 5 4 6c28 6 62 19 85 30c2 2 6 2 8 2h59c2 0 4 -2 4 -5v-355c0 -5 -2 -6 -5 -6z
M708 0h-264c-3 0 -4 2 -4 5v50c0 4 2 5 3 6c68 46 175 110 175 175c0 30 -17 56 -69 56c-36 0 -65 -9 -95 -26c-4 -2 -7 0 -7 4v65c0 4 1 7 5 9c31 18 66 28 116 29c93 0 138 -57 138 -124c0 -71 -49 -117 -122 -169h139c4 0 5 -1 5 -5l-13 -70c-2 -4 -4 -5 -7 -5z" />
    <glyph glyph-name="plusminus" unicode="&#xb1;" horiz-adv-x="559" 
d="M241 620h78c4 0 6 -2 6 -7v-190h194c5 0 6 -1 6 -8v-71c0 -6 -2 -7 -7 -7h-193v-192c0 -5 -2 -6 -7 -6h-77c-5 0 -6 2 -6 6v192h-193c-5 0 -8 1 -8 8v72c0 4 3 6 7 6h194v191c0 4 2 6 6 6zM41 87h478c5 0 6 -2 6 -9v-71c0 -5 -2 -7 -7 -7h-476c-5 0 -8 2 -8 8v72
c0 5 3 7 7 7z" />
    <glyph glyph-name="Thorn" unicode="&#xde;" horiz-adv-x="554" 
d="M73 7v654c0 5 0 6 6 6h107c6 0 7 -1 7 -6v-120h93c137 0 233 -69 233 -200c0 -144 -108 -212 -252 -212h-74v-121c0 -4 -1 -8 -6 -8h-108c-5 0 -6 3 -6 7zM193 436v-203h75c89 0 132 36 132 102c0 62 -42 101 -127 101h-80z" />
    <glyph glyph-name="onequarter" unicode="&#xbc;" horiz-adv-x="725" 
d="M202 -10h-71c-4 0 -6 3 -4 6l356 641c2 3 4 4 7 4h72c4 0 5 -3 3 -5l-354 -641c-2 -3 -4 -5 -9 -5zM192 267h-82c-5 0 -6 1 -6 6v275c-24 -10 -43 -14 -61 -19c-5 -1 -6 1 -6 5v61c0 3 2 5 4 6c28 6 62 19 85 30c3 2 6 2 9 2h58c2 0 4 -2 4 -5v-355c0 -5 -2 -6 -5 -6z
M629 0h-68c-4 0 -6 2 -6 6v80h-165c-3 0 -5 2 -5 4v44c0 3 1 6 3 9c31 43 125 172 158 218c3 4 5 6 10 6h73c4 0 6 -2 6 -7v-211h58c3 0 5 -1 4 -5l-7 -54c-1 -3 -2 -4 -6 -4h-49v-80c0 -3 -1 -6 -6 -6zM464 149h91c0 90 2 115 3 136h-2c-17 -27 -77 -113 -92 -136z" />
    <glyph glyph-name="divide" unicode="&#xf7;" horiz-adv-x="551" 
d="M274 376c-33 0 -56 24 -55 59c0 34 22 58 57 58c34 0 56 -24 56 -58c0 -35 -21 -59 -58 -59zM274 27c-33 0 -56 24 -55 58c0 35 22 59 57 59c34 0 56 -24 56 -59c0 -34 -21 -58 -58 -58zM30 296c0 7 2 8 7 8h477c5 0 7 -1 7 -7v-72c0 -6 -2 -8 -7 -8h-477c-5 0 -7 2 -7 9
v70z" />
    <glyph glyph-name="brokenbar" unicode="&#xa6;" horiz-adv-x="233" 
d="M168 -196h-102v392h102v-392zM167 784v-392h-101v392h101z" />
    <glyph glyph-name="degree" unicode="&#xb0;" horiz-adv-x="287" 
d="M145 643c73 0 125 -55 125 -128s-50 -130 -125 -130c-76 0 -128 57 -128 130c0 71 53 128 128 128zM145 584c-36 0 -64 -30 -64 -69c0 -40 28 -69 64 -69s63 29 63 69c0 39 -28 69 -63 69z" />
    <glyph glyph-name="thorn" unicode="&#xfe;" horiz-adv-x="555" 
d="M185 486c25 9 58 17 103 17c153 0 233 -112 233 -245c0 -176 -137 -268 -274 -268c-27 0 -50 4 -62 7v-201c0 -5 -1 -7 -7 -8c-35 -4 -101 -10 -107 -11c-5 0 -7 2 -7 7v930c0 7 3 8 8 8h105c6 0 8 -1 8 -7v-229zM266 400c-39 0 -58 -7 -81 -13v-285c22 -8 44 -11 69 -11
c76 0 143 46 143 160c0 97 -52 149 -131 149z" />
    <glyph glyph-name="threequarters" unicode="&#xbe;" horiz-adv-x="760" 
d="M254 -10h-71c-4 0 -6 3 -4 6l355 641c2 3 4 4 7 4h72c4 0 5 -3 3 -5l-353 -641c-3 -3 -4 -5 -9 -5zM669 0h-68c-4 0 -5 2 -5 6v80h-165c-4 0 -6 2 -6 4v44c0 3 1 6 4 9c30 43 124 172 157 218c3 4 6 6 10 6h73c5 0 6 -2 6 -7v-211h59c3 0 4 -1 4 -5l-8 -54
c-1 -3 -2 -4 -5 -4h-50v-80c0 -3 -1 -6 -6 -6zM504 149h92c0 90 1 115 2 136h-2c-16 -27 -76 -113 -92 -136zM103 423v59c0 4 0 5 5 5h36c44 0 59 16 59 37c0 25 -21 39 -67 39c-29 0 -61 -8 -92 -24c-5 -3 -6 0 -6 3v65c0 4 1 5 3 7c33 18 72 25 115 25
c86 0 130 -42 130 -95c0 -40 -20 -67 -50 -81v-1c33 -10 67 -37 67 -88c0 -77 -70 -112 -155 -112c-44 0 -82 8 -111 24c-4 2 -5 6 -5 9v67c0 3 3 4 6 3c35 -19 72 -28 107 -28c50 0 71 16 71 40c0 31 -26 42 -74 42h-34c-3 0 -5 1 -5 4z" />
    <glyph glyph-name="registered" unicode="&#xae;" horiz-adv-x="242" 
d="M131 398c-80 0 -135 59 -135 135c0 74 56 134 135 134c76 0 133 -60 133 -134c0 -78 -57 -135 -133 -135zM131 429c61 0 100 42 100 104c0 59 -42 104 -102 104s-100 -43 -100 -105c0 -58 41 -103 102 -103zM111 518v-42c0 -2 0 -4 -2 -4h-27c-3 0 -3 2 -3 4v123
c0 2 1 3 3 3h47c39 0 56 -15 56 -40c0 -18 -10 -29 -28 -36c6 -9 30 -37 38 -50c1 -2 0 -4 -2 -4h-31c-3 0 -5 2 -6 3c-6 9 -17 24 -28 40c-1 2 -2 3 -6 3h-11zM111 574v-30h17c18 0 23 6 23 16c0 9 -6 14 -22 14h-18z" />
    <glyph glyph-name="minus" unicode="&#x2212;" horiz-adv-x="551" 
d="M30 296c0 7 2 8 7 8h477c5 0 7 -1 7 -7v-72c0 -6 -2 -8 -7 -8h-477c-5 0 -7 2 -7 9v70z" />
    <glyph glyph-name="eth" unicode="&#xf0;" horiz-adv-x="549" 
d="M275 91c64 0 114 50 114 157c0 30 -4 45 -9 58c-2 6 -6 12 -9 16c-20 22 -50 38 -92 38c-71 0 -123 -47 -123 -134c0 -75 46 -135 119 -135zM456 638l-76 -41c84 -80 131 -192 131 -324c0 -185 -100 -283 -246 -283c-160 0 -232 121 -232 236c0 139 95 231 238 231
c36 0 67 -7 87 -22c-15 42 -45 77 -82 105l-144 -78c-3 -1 -7 1 -7 4v49c0 5 2 7 6 8l91 50c-42 21 -89 36 -136 44c-4 0 -7 3 -7 9v88c0 7 2 8 7 8c6 0 21 0 29 -2c85 -13 160 -42 220 -86l120 66c5 2 6 0 6 -2v-52c0 -4 -1 -6 -5 -8z" />
    <glyph glyph-name="multiply" unicode="&#xd7;" horiz-adv-x="555" 
d="M40 454l46 47c3 3 7 4 12 0l180 -188l181 188c4 3 7 5 12 0l45 -48c4 -5 4 -8 0 -11l-182 -185l183 -186c2 -1 5 -6 0 -10l-47 -47c-5 -5 -8 -3 -12 0l-181 186l-180 -186c-2 -2 -4 -7 -9 -1l-50 49c-3 4 -2 7 2 11l181 184l-182 186c-1 2 -4 6 1 11z" />
    <glyph glyph-name="copyright" unicode="&#xa9;" horiz-adv-x="760" 
d="M47 330c0 189 145 332 333 332s332 -143 332 -333c0 -195 -143 -334 -332 -334s-333 141 -333 335zM111 330c0 -162 118 -275 269 -275c165 0 270 115 269 274c-1 161 -119 275 -269 275c-161 0 -269 -119 -269 -274zM507 240v-66c0 -4 -1 -6 -5 -8
c-26 -13 -65 -18 -99 -18c-120 0 -192 81 -192 180c0 107 82 185 199 185c45 0 70 -6 88 -14c6 -2 5 -6 5 -10v-64c0 -4 -1 -8 -7 -6c-20 10 -46 16 -77 16c-70 0 -115 -40 -115 -103c0 -74 56 -106 115 -106c33 0 60 6 82 16c5 2 6 0 6 -2z" />
    <glyph glyph-name="Aacute" unicode="&#xc1;" horiz-adv-x="606" 
d="M416 173h-239l-55 -165c-2 -6 -5 -8 -11 -8h-100c-6 0 -8 3 -7 10l206 586c4 10 7 20 9 54c0 4 2 7 6 7h139c5 0 6 -1 7 -6l231 -642c1 -6 0 -9 -6 -9h-112c-5 0 -8 2 -10 6zM209 282h175c-21 66 -68 205 -88 275h-1c-16 -67 -56 -184 -86 -275zM226 719l120 112
c4 5 6 5 12 5h126c5 0 5 -5 3 -8l-138 -110c-4 -5 -8 -6 -14 -6h-105c-5 0 -7 4 -4 7z" />
    <glyph glyph-name="Acircumflex" unicode="&#xc2;" horiz-adv-x="606" 
d="M416 173h-239l-55 -165c-2 -6 -5 -8 -11 -8h-100c-6 0 -8 3 -7 10l206 586c4 10 7 20 9 54c0 4 2 7 6 7h139c5 0 6 -1 7 -6l231 -642c1 -6 0 -9 -6 -9h-112c-5 0 -8 2 -10 6zM209 282h175c-21 66 -68 205 -88 275h-1c-16 -67 -56 -184 -86 -275zM358 712l-63 65l-62 -65
c-3 -4 -6 -5 -10 -5h-91c-4 0 -5 5 -2 8l112 117c3 2 5 3 10 3h91c6 0 10 -2 12 -4l116 -118c3 -3 1 -6 -4 -6h-96c-7 0 -9 2 -13 5z" />
    <glyph glyph-name="Adieresis" unicode="&#xc4;" horiz-adv-x="606" 
d="M416 173h-239l-55 -165c-2 -6 -5 -8 -11 -8h-100c-6 0 -8 3 -7 10l206 586c4 10 7 20 9 54c0 4 2 7 6 7h139c5 0 6 -1 7 -6l231 -642c1 -6 0 -9 -6 -9h-112c-5 0 -8 2 -10 6zM209 282h175c-21 66 -68 205 -88 275h-1c-16 -67 -56 -184 -86 -275zM192 712
c-38 0 -64 22 -64 58c0 35 28 61 66 61c39 0 64 -26 64 -61c0 -36 -27 -58 -66 -58zM400 712c-37 0 -64 22 -64 58c0 35 28 61 66 61c37 0 64 -26 64 -61c0 -36 -27 -58 -66 -58z" />
    <glyph glyph-name="Agrave" unicode="&#xc0;" horiz-adv-x="606" 
d="M416 173h-239l-55 -165c-2 -6 -5 -8 -11 -8h-100c-6 0 -8 3 -7 10l206 586c4 10 7 20 9 54c0 4 2 7 6 7h139c5 0 6 -1 7 -6l231 -642c1 -6 0 -9 -6 -9h-112c-5 0 -8 2 -10 6zM209 282h175c-21 66 -68 205 -88 275h-1c-16 -67 -56 -184 -86 -275zM238 834l115 -110
c4 -5 1 -8 -4 -8h-100c-6 0 -10 0 -14 4l-138 110c-3 5 -1 9 4 9h124c6 0 9 -1 13 -5z" />
    <glyph glyph-name="Aring" unicode="&#xc5;" horiz-adv-x="606" 
d="M416 173h-239l-55 -165c-2 -6 -5 -8 -11 -8h-100c-6 0 -8 3 -7 10l206 586c4 10 7 20 9 54c0 4 2 7 6 7h139c5 0 6 -1 7 -6l231 -642c1 -6 0 -9 -6 -9h-112c-5 0 -8 2 -10 6zM209 282h175c-21 66 -68 205 -88 275h-1c-16 -67 -56 -184 -86 -275zM187 777
c0 57 47 90 109 90c64 0 109 -35 109 -90c0 -58 -46 -92 -109 -92s-109 34 -109 92zM252 777c0 -24 18 -40 44 -40c27 0 45 15 45 40c0 24 -18 40 -45 40c-26 0 -44 -17 -44 -40z" />
    <glyph glyph-name="Atilde" unicode="&#xc3;" horiz-adv-x="606" 
d="M416 173h-239l-55 -165c-2 -6 -5 -8 -11 -8h-100c-6 0 -8 3 -7 10l206 586c4 10 7 20 9 54c0 4 2 7 6 7h139c5 0 6 -1 7 -6l231 -642c1 -6 0 -9 -6 -9h-112c-5 0 -8 2 -10 6zM209 282h175c-21 66 -68 205 -88 275h-1c-16 -67 -56 -184 -86 -275zM204 709h-67
c-5 0 -8 2 -8 6c1 86 48 127 102 127c63 0 96 -51 130 -51c17 0 26 17 29 42c0 4 1 6 6 6h66c5 0 7 -1 7 -6c-3 -96 -46 -126 -97 -126c-61 0 -93 49 -130 49c-15 0 -30 -13 -32 -42c0 -2 -2 -5 -6 -5z" />
    <glyph glyph-name="Ccedilla" unicode="&#xc7;" horiz-adv-x="557" 
d="M270 -64l46 58c-157 23 -280 131 -280 333c0 201 140 340 358 340c65 0 105 -6 130 -17c4 -2 6 -5 6 -11v-95c0 -8 -4 -8 -8 -6c-32 15 -78 22 -130 22c-141 0 -231 -90 -231 -230c0 -173 128 -232 233 -232c49 0 86 4 123 17c4 2 7 1 7 -5v-89c0 -6 -2 -11 -7 -13
c-32 -12 -78 -17 -131 -18l-23 -30c56 -17 86 -46 86 -96c0 -56 -49 -95 -119 -95c-28 0 -58 5 -74 13c-4 2 -5 5 -5 8v52c0 4 1 6 6 5c18 -9 46 -14 65 -14c25 0 42 9 42 30c0 22 -29 39 -94 47c-3 4 -3 22 0 26z" />
    <glyph glyph-name="Eacute" unicode="&#xc9;" horiz-adv-x="530" 
d="M505 101l-15 -93c-1 -7 -3 -8 -9 -8h-398c-7 0 -9 3 -9 8v641c0 5 2 8 8 8h386c6 0 8 -1 9 -7l11 -93c1 -5 -1 -9 -7 -9h-286v-159h260c5 0 7 -1 7 -7v-95c0 -5 -3 -6 -7 -6h-260v-172h303c6 0 8 -3 7 -8zM199 723l119 112c4 4 7 4 12 4h126c5 0 6 -5 3 -8l-137 -110
c-4 -5 -8 -6 -14 -6h-105c-5 0 -7 4 -4 8z" />
    <glyph glyph-name="Ecircumflex" unicode="&#xca;" horiz-adv-x="530" 
d="M505 101l-15 -93c-1 -7 -3 -8 -9 -8h-398c-7 0 -9 3 -9 8v641c0 5 2 8 8 8h386c6 0 8 -1 9 -7l11 -93c1 -5 -1 -9 -7 -9h-286v-159h260c5 0 7 -1 7 -7v-95c0 -5 -3 -6 -7 -6h-260v-172h303c6 0 8 -3 7 -8zM332 718l-63 65l-62 -65c-3 -5 -6 -6 -10 -6h-90c-5 0 -6 6 -3 9
l112 116c4 2 5 3 10 3h91c6 0 10 -1 12 -4l117 -117c2 -4 1 -7 -5 -7h-96c-6 0 -9 2 -13 6z" />
    <glyph glyph-name="Edieresis" unicode="&#xcb;" horiz-adv-x="530" 
d="M505 101l-15 -93c-1 -7 -3 -8 -9 -8h-398c-7 0 -9 3 -9 8v641c0 5 2 8 8 8h386c6 0 8 -1 9 -7l11 -93c1 -5 -1 -9 -7 -9h-286v-159h260c5 0 7 -1 7 -7v-95c0 -5 -3 -6 -7 -6h-260v-172h303c6 0 8 -3 7 -8zM167 718c-38 0 -64 22 -64 58c0 35 28 61 66 61
c39 0 64 -26 64 -61c0 -36 -27 -58 -66 -58zM375 718c-37 0 -64 22 -64 58c0 35 28 61 66 61c37 0 64 -26 64 -61c0 -36 -26 -58 -66 -58z" />
    <glyph glyph-name="Egrave" unicode="&#xc8;" horiz-adv-x="530" 
d="M505 101l-15 -93c-1 -7 -3 -8 -9 -8h-398c-7 0 -9 3 -9 8v641c0 5 2 8 8 8h386c6 0 8 -1 9 -7l11 -93c1 -5 -1 -9 -7 -9h-286v-159h260c5 0 7 -1 7 -7v-95c0 -5 -3 -6 -7 -6h-260v-172h303c6 0 8 -3 7 -8zM228 832l116 -109c3 -6 1 -9 -5 -9h-100c-6 0 -9 1 -14 5
l-137 110c-4 4 -2 8 3 8h125c5 0 9 0 12 -5z" />
    <glyph glyph-name="Iacute" unicode="&#xcd;" horiz-adv-x="270" 
d="M195 649v-640c0 -7 -2 -9 -8 -9h-105c-6 0 -8 3 -8 9v640c0 7 3 8 8 8h105c6 0 8 -2 8 -8zM71 721l120 112c4 4 7 4 12 4h126c5 0 6 -4 3 -8l-137 -109c-5 -5 -9 -7 -14 -7h-106c-5 0 -7 4 -4 8z" />
    <glyph glyph-name="Icircumflex" unicode="&#xce;" horiz-adv-x="270" 
d="M195 649v-640c0 -7 -2 -9 -8 -9h-105c-6 0 -8 3 -8 9v640c0 7 3 8 8 8h105c6 0 8 -2 8 -8zM193 709l-63 65l-62 -64c-4 -5 -7 -6 -11 -6h-90c-4 0 -6 6 -3 8l113 117c3 2 5 3 10 3h91c5 0 9 -1 11 -4l117 -118c3 -3 1 -6 -4 -6h-97c-6 0 -9 2 -12 5z" />
    <glyph glyph-name="Idieresis" unicode="&#xcf;" horiz-adv-x="270" 
d="M195 649v-640c0 -7 -2 -9 -8 -9h-105c-6 0 -8 3 -8 9v640c0 7 3 8 8 8h105c6 0 8 -2 8 -8zM29 714c-38 0 -63 23 -63 59c0 35 27 60 66 60s64 -26 64 -60c0 -36 -27 -59 -67 -59zM237 714c-37 0 -63 23 -63 59c0 35 28 60 66 60c37 0 64 -25 64 -60
c0 -37 -27 -59 -67 -59z" />
    <glyph glyph-name="Igrave" unicode="&#xcc;" horiz-adv-x="270" 
d="M195 649v-640c0 -7 -2 -9 -8 -9h-105c-6 0 -8 3 -8 9v640c0 7 3 8 8 8h105c6 0 8 -2 8 -8zM77 836l115 -110c4 -5 1 -8 -5 -8h-99c-6 0 -10 0 -15 4l-137 110c-3 5 -2 9 4 9h124c6 0 9 -1 13 -5z" />
    <glyph glyph-name="Ntilde" unicode="&#xd1;" horiz-adv-x="683" 
d="M180 0h-97c-6 0 -9 1 -9 9v641c0 5 2 7 7 7h141c8 0 9 -2 12 -7c74 -132 227 -414 262 -489h1c-1 28 -3 61 -3 155v333c0 5 3 8 9 8h96c7 0 9 -3 9 -9v-639c0 -7 -3 -9 -10 -9h-127c-7 0 -10 2 -13 7c-52 102 -235 425 -274 522h-1c4 -51 5 -95 5 -186v-334
c0 -6 -2 -9 -8 -9zM253 718h-67c-6 0 -8 3 -8 7c1 86 47 126 102 126c63 0 95 -50 129 -50c18 0 27 17 30 42c0 3 1 5 6 5h66c5 0 7 -1 7 -6c-4 -95 -46 -125 -97 -125c-61 0 -93 49 -130 49c-15 0 -30 -13 -32 -42c0 -3 -2 -6 -6 -6z" />
    <glyph glyph-name="Oacute" unicode="&#xd3;" horiz-adv-x="692" 
d="M346 667c196 0 308 -150 309 -335c1 -207 -127 -342 -309 -342c-194 0 -310 144 -310 339c0 192 126 338 310 338zM161 329c0 -129 66 -232 189 -232c113 0 181 93 180 232c0 140 -69 231 -186 231c-106 0 -183 -83 -183 -231zM266 729l120 112c4 4 6 4 12 4h126
c5 0 5 -5 3 -8l-138 -110c-4 -5 -8 -6 -14 -6h-105c-5 0 -7 4 -4 8z" />
    <glyph glyph-name="Ocircumflex" unicode="&#xd4;" horiz-adv-x="692" 
d="M346 667c196 0 308 -150 309 -335c1 -207 -127 -342 -309 -342c-194 0 -310 144 -310 339c0 192 126 338 310 338zM161 329c0 -129 66 -232 189 -232c113 0 181 93 180 232c0 140 -69 231 -186 231c-106 0 -183 -83 -183 -231zM404 720l-63 65l-62 -64
c-4 -5 -7 -6 -11 -6h-90c-4 0 -5 5 -3 8l113 117c3 2 5 3 10 3h91c5 0 9 -1 11 -4l117 -118c3 -3 1 -6 -4 -6h-97c-6 0 -9 2 -12 5z" />
    <glyph glyph-name="Odieresis" unicode="&#xd6;" horiz-adv-x="692" 
d="M346 667c196 0 308 -150 309 -335c1 -207 -127 -342 -309 -342c-194 0 -310 144 -310 339c0 192 126 338 310 338zM161 329c0 -129 66 -232 189 -232c113 0 181 93 180 232c0 140 -69 231 -186 231c-106 0 -183 -83 -183 -231zM240 721c-37 0 -63 23 -63 58
c0 36 27 61 66 61s64 -26 64 -61s-27 -58 -67 -58zM448 721c-37 0 -63 22 -63 58s28 61 66 61c37 0 64 -26 64 -61c0 -36 -27 -58 -67 -58z" />
    <glyph glyph-name="Ograve" unicode="&#xd2;" horiz-adv-x="692" 
d="M346 667c196 0 308 -150 309 -335c1 -207 -127 -342 -309 -342c-194 0 -310 144 -310 339c0 192 126 338 310 338zM161 329c0 -129 66 -232 189 -232c113 0 181 93 180 232c0 140 -69 231 -186 231c-106 0 -183 -83 -183 -231zM301 843l115 -109c4 -6 1 -9 -4 -9h-100
c-6 0 -9 1 -14 5l-138 110c-3 4 -1 8 4 8h124c6 0 9 0 13 -5z" />
    <glyph glyph-name="Otilde" unicode="&#xd5;" horiz-adv-x="692" 
d="M346 667c196 0 308 -150 309 -335c1 -207 -127 -342 -309 -342c-194 0 -310 144 -310 339c0 192 126 338 310 338zM161 329c0 -129 66 -232 189 -232c113 0 181 93 180 232c0 140 -69 231 -186 231c-106 0 -183 -83 -183 -231zM251 720h-67c-5 0 -7 2 -8 6
c1 86 48 127 102 127c64 0 96 -51 130 -51c18 0 27 17 29 42c0 3 1 6 6 6h67c5 0 6 -1 6 -6c-3 -96 -46 -126 -97 -126c-61 0 -93 49 -130 49c-14 0 -29 -13 -32 -42c0 -2 -2 -5 -6 -5z" />
    <glyph glyph-name="Scaron" unicode="&#x160;" horiz-adv-x="496" 
d="M218 -10c-73 0 -134 14 -175 36c-5 3 -7 7 -7 15v104c0 4 4 6 8 4c54 -35 120 -52 178 -52c82 0 117 32 117 75c0 37 -24 65 -100 97l-48 20c-123 52 -155 114 -155 189c0 107 81 189 232 189c63 0 120 -9 153 -26c5 -3 6 -6 6 -13v-97c0 -4 -3 -8 -9 -4
c-38 22 -93 33 -151 33c-86 0 -113 -36 -113 -71c0 -36 23 -61 102 -94l38 -16c130 -54 167 -117 167 -196c0 -117 -92 -193 -243 -193zM188 843l63 -65l62 65c4 4 7 6 11 6h90c4 0 5 -6 3 -9l-113 -116c-3 -3 -5 -3 -10 -3h-91c-5 0 -10 1 -11 4l-117 118c-3 3 -1 6 3 6h98
c6 0 9 -3 12 -6z" />
    <glyph glyph-name="Uacute" unicode="&#xda;" horiz-adv-x="652" 
d="M186 649v-394c0 -95 46 -158 142 -158c79 0 138 38 138 160v391c0 6 2 9 8 9h105c6 0 8 -3 8 -8v-398c0 -187 -115 -261 -263 -261c-158 0 -259 84 -259 256v402c0 6 1 9 8 9h105c6 0 8 -2 8 -8zM247 719l119 112c5 4 7 5 12 5h126c5 0 6 -5 3 -9l-137 -109
c-4 -5 -8 -6 -14 -6h-105c-5 0 -7 4 -4 7z" />
    <glyph glyph-name="Ucircumflex" unicode="&#xdb;" horiz-adv-x="652" 
d="M186 649v-394c0 -95 46 -158 142 -158c79 0 138 38 138 160v391c0 6 2 9 8 9h105c6 0 8 -3 8 -8v-398c0 -187 -115 -261 -263 -261c-158 0 -259 84 -259 256v402c0 6 1 9 8 9h105c6 0 8 -2 8 -8zM386 719l-63 65l-62 -64c-3 -5 -6 -6 -10 -6h-90c-4 0 -6 6 -3 8l112 117
c4 2 6 3 10 3h91c6 0 10 -1 12 -4l117 -118c2 -3 1 -6 -5 -6h-96c-6 0 -9 2 -13 5z" />
    <glyph glyph-name="Udieresis" unicode="&#xdc;" horiz-adv-x="652" 
d="M186 649v-394c0 -95 46 -158 142 -158c79 0 138 38 138 160v391c0 6 2 9 8 9h105c6 0 8 -3 8 -8v-398c0 -187 -115 -261 -263 -261c-158 0 -259 84 -259 256v402c0 6 1 9 8 9h105c6 0 8 -2 8 -8zM222 717c-38 0 -64 23 -64 59c0 35 28 60 66 60c39 0 64 -26 64 -60
c0 -36 -27 -59 -66 -59zM430 717c-38 0 -64 23 -64 59c0 35 28 60 66 60c37 0 64 -25 64 -60c0 -37 -27 -59 -66 -59z" />
    <glyph glyph-name="Ugrave" unicode="&#xd9;" horiz-adv-x="652" 
d="M186 649v-394c0 -95 46 -158 142 -158c79 0 138 38 138 160v391c0 6 2 9 8 9h105c6 0 8 -3 8 -8v-398c0 -187 -115 -261 -263 -261c-158 0 -259 84 -259 256v402c0 6 1 9 8 9h105c6 0 8 -2 8 -8zM283 834l116 -110c4 -6 1 -9 -5 -9h-100c-6 0 -9 1 -14 5l-137 110
c-4 4 -2 9 3 9h125c6 0 9 -1 12 -5z" />
    <glyph glyph-name="Yacute" unicode="&#xdd;" horiz-adv-x="538" 
d="M200 265l-214 383c-4 6 1 9 5 9h121c6 0 7 -2 9 -5c106 -206 140 -269 154 -303c16 35 48 101 149 302c1 5 3 6 8 6h117c5 0 6 -3 4 -8l-217 -387c-6 -10 -8 -18 -8 -30v-223c0 -7 -2 -9 -9 -9h-102c-8 0 -10 3 -10 9v227c0 13 -1 18 -7 29zM195 720l119 112
c5 4 7 5 12 5h126c5 0 6 -5 3 -9l-137 -109c-4 -5 -8 -6 -14 -6h-105c-5 0 -7 4 -4 7z" />
    <glyph glyph-name="Ydieresis" unicode="&#x178;" horiz-adv-x="538" 
d="M200 265l-214 383c-4 6 1 9 5 9h121c6 0 7 -2 9 -5c106 -206 140 -269 154 -303c16 35 48 101 149 302c1 5 3 6 8 6h117c5 0 6 -3 4 -8l-217 -387c-6 -10 -8 -18 -8 -30v-223c0 -7 -2 -9 -9 -9h-102c-8 0 -10 3 -10 9v227c0 13 -1 18 -7 29zM169 710c-38 0 -64 23 -64 59
c0 35 28 60 66 60c39 0 64 -26 64 -60c0 -36 -27 -59 -66 -59zM377 710c-37 0 -64 23 -64 59c0 35 28 60 66 60c37 0 64 -25 64 -60c0 -37 -27 -59 -66 -59z" />
    <glyph glyph-name="Zcaron" unicode="&#x17d;" horiz-adv-x="547" 
d="M510 0h-487c-4 0 -8 1 -8 8v67c0 6 1 8 3 12l347 462h-335c-5 0 -8 1 -7 7l15 93c1 6 4 8 9 8h465c5 0 6 -2 6 -6v-72c0 -5 -1 -9 -5 -14l-341 -456h358c5 0 7 -3 5 -9l-16 -92c-1 -6 -3 -8 -9 -8zM209 839l63 -65l62 65c3 4 6 6 10 6h91c4 0 5 -6 2 -9l-112 -116
c-4 -3 -5 -3 -10 -3h-91c-6 0 -10 1 -12 4l-117 118c-2 3 -1 6 4 6h97c6 0 9 -3 13 -6z" />
    <glyph glyph-name="aacute" unicode="&#xe1;" horiz-adv-x="496" 
d="M316 97v123c-15 2 -32 3 -55 3c-79 0 -114 -26 -114 -69c0 -37 26 -69 98 -69c26 0 49 3 71 12zM433 305v-203c0 -22 0 -42 2 -63c0 -2 0 -3 -2 -4c-82 -35 -140 -45 -208 -45c-109 0 -196 51 -196 164c0 106 95 159 225 159c30 0 53 -1 62 -2v12c0 23 -13 75 -101 75
c-50 0 -94 -10 -131 -28c-3 -1 -8 0 -8 6v87c0 5 1 7 6 10c43 20 98 30 152 30c139 0 199 -87 199 -198zM174 562l99 141c3 6 7 9 11 9h115c7 0 9 -3 6 -9l-122 -142c-4 -4 -8 -6 -13 -6h-93c-4 0 -5 4 -3 7z" />
    <glyph glyph-name="acircumflex" unicode="&#xe2;" horiz-adv-x="496" 
d="M316 97v123c-15 2 -32 3 -55 3c-79 0 -114 -26 -114 -69c0 -37 26 -69 98 -69c26 0 49 3 71 12zM433 305v-203c0 -22 0 -42 2 -63c0 -2 0 -3 -2 -4c-82 -35 -140 -45 -208 -45c-109 0 -196 51 -196 164c0 106 95 159 225 159c30 0 53 -1 62 -2v12c0 23 -13 75 -101 75
c-50 0 -94 -10 -131 -28c-3 -1 -8 0 -8 6v87c0 5 1 7 6 10c43 20 98 30 152 30c139 0 199 -87 199 -198zM302 559l-63 90l-63 -91c-1 -2 -3 -3 -8 -3h-76c-5 0 -7 4 -4 8l101 140c2 4 4 5 8 5h89c5 0 7 -2 9 -5l103 -141c3 -4 1 -7 -3 -7h-83c-6 0 -8 1 -10 4z" />
    <glyph glyph-name="adieresis" unicode="&#xe4;" horiz-adv-x="496" 
d="M316 97v123c-15 2 -32 3 -55 3c-79 0 -114 -26 -114 -69c0 -37 26 -69 98 -69c26 0 49 3 71 12zM433 305v-203c0 -22 0 -42 2 -63c0 -2 0 -3 -2 -4c-82 -35 -140 -45 -208 -45c-109 0 -196 51 -196 164c0 106 95 159 225 159c30 0 53 -1 62 -2v12c0 23 -13 75 -101 75
c-50 0 -94 -10 -131 -28c-3 -1 -8 0 -8 6v87c0 5 1 7 6 10c43 20 98 30 152 30c139 0 199 -87 199 -198zM151 570c-35 0 -60 24 -60 61c0 38 26 63 62 63c35 0 59 -26 59 -63c0 -38 -26 -61 -61 -61zM345 570c-34 0 -59 24 -59 61c0 38 27 63 61 63c36 0 59 -26 59 -63
s-25 -61 -61 -61z" />
    <glyph glyph-name="agrave" unicode="&#xe0;" horiz-adv-x="496" 
d="M316 97v123c-15 2 -32 3 -55 3c-79 0 -114 -26 -114 -69c0 -37 26 -69 98 -69c26 0 49 3 71 12zM433 305v-203c0 -22 0 -42 2 -63c0 -2 0 -3 -2 -4c-82 -35 -140 -45 -208 -45c-109 0 -196 51 -196 164c0 106 95 159 225 159c30 0 53 -1 62 -2v12c0 23 -13 75 -101 75
c-50 0 -94 -10 -131 -28c-3 -1 -8 0 -8 6v87c0 5 1 7 6 10c43 20 98 30 152 30c139 0 199 -87 199 -198zM216 706l102 -143c3 -4 1 -8 -4 -8h-96c-4 0 -7 3 -9 6l-126 141c-2 5 0 9 4 9h119c5 0 7 -1 10 -5z" />
    <glyph glyph-name="aring" unicode="&#xe5;" horiz-adv-x="496" 
d="M316 97v123c-15 2 -32 3 -55 3c-79 0 -114 -26 -114 -69c0 -37 26 -69 98 -69c26 0 49 3 71 12zM433 305v-203c0 -22 0 -42 2 -63c0 -2 0 -3 -2 -4c-82 -35 -140 -45 -208 -45c-109 0 -196 51 -196 164c0 106 95 159 225 159c30 0 53 -1 62 -2v12c0 23 -13 75 -101 75
c-50 0 -94 -10 -131 -28c-3 -1 -8 0 -8 6v87c0 5 1 7 6 10c43 20 98 30 152 30c139 0 199 -87 199 -198zM140 637c0 56 43 96 108 96c64 0 108 -40 108 -96c0 -59 -44 -98 -108 -98c-65 0 -108 37 -108 98zM203 637c0 -26 20 -43 45 -43c24 0 44 16 44 43
c0 26 -20 43 -44 43c-25 0 -45 -17 -45 -43z" />
    <glyph glyph-name="atilde" unicode="&#xe3;" horiz-adv-x="496" 
d="M316 97v123c-15 2 -32 3 -55 3c-79 0 -114 -26 -114 -69c0 -37 26 -69 98 -69c26 0 49 3 71 12zM433 305v-203c0 -22 0 -42 2 -63c0 -2 0 -3 -2 -4c-82 -35 -140 -45 -208 -45c-109 0 -196 51 -196 164c0 106 95 159 225 159c30 0 53 -1 62 -2v12c0 23 -13 75 -101 75
c-50 0 -94 -10 -131 -28c-3 -1 -8 0 -8 6v87c0 5 1 7 6 10c43 20 98 30 152 30c139 0 199 -87 199 -198zM146 558h-66c-6 0 -7 4 -7 8c0 89 46 131 103 131c62 0 106 -50 137 -50c21 0 29 17 30 42c0 4 2 6 7 6h65c6 0 7 -1 7 -5c-1 -98 -43 -133 -98 -133
c-58 0 -98 49 -138 49c-18 0 -32 -12 -35 -42c0 -1 -1 -6 -5 -6z" />
    <glyph glyph-name="ccedilla" unicode="&#xe7;" horiz-adv-x="431" 
d="M406 481l-1 -89c0 -7 -4 -7 -8 -6c-21 8 -47 13 -86 13c-91 0 -155 -54 -155 -150c0 -109 79 -151 156 -151c36 0 67 3 87 10c5 2 7 -1 7 -5v-89c0 -5 -1 -7 -5 -8c-28 -12 -63 -15 -98 -16l-22 -30c57 -17 85 -46 85 -96c0 -54 -49 -95 -119 -95c-28 0 -58 5 -73 13
c-5 3 -6 5 -6 12v47c0 5 2 7 7 6c19 -9 45 -14 64 -14c25 0 43 9 43 30c0 22 -30 39 -94 47c-3 4 -4 22 -1 26l46 59c-127 23 -201 124 -201 250c0 148 110 258 275 258c50 0 77 -5 94 -11c4 -2 5 -5 5 -11z" />
    <glyph glyph-name="eacute" unicode="&#xe9;" horiz-adv-x="502" 
d="M357 219h-203c3 -70 49 -126 151 -126c45 0 86 8 124 24c3 2 6 1 6 -4v-83c0 -6 -2 -9 -6 -11c-38 -18 -82 -29 -150 -29c-182 0 -247 128 -247 251c0 139 84 262 235 262c148 0 205 -116 205 -211c0 -28 -1 -51 -4 -62c-1 -4 -3 -6 -8 -7c-14 -3 -54 -4 -103 -4z
M154 305h149c38 0 51 0 55 1v8c0 29 -20 93 -96 93c-69 0 -100 -53 -108 -102zM191 562l99 141c3 6 7 9 11 9h115c7 0 9 -3 6 -9l-122 -142c-4 -4 -8 -6 -13 -6h-93c-4 0 -5 4 -3 7z" />
    <glyph glyph-name="ecircumflex" unicode="&#xea;" horiz-adv-x="502" 
d="M357 219h-203c3 -70 49 -126 151 -126c45 0 86 8 124 24c3 2 6 1 6 -4v-83c0 -6 -2 -9 -6 -11c-38 -18 -82 -29 -150 -29c-182 0 -247 128 -247 251c0 139 84 262 235 262c148 0 205 -116 205 -211c0 -28 -1 -51 -4 -62c-1 -4 -3 -6 -8 -7c-14 -3 -54 -4 -103 -4z
M154 305h149c38 0 51 0 55 1v8c0 29 -20 93 -96 93c-69 0 -100 -53 -108 -102zM319 559l-63 90l-62 -91c-2 -2 -4 -3 -8 -3h-77c-5 0 -6 4 -3 8l100 140c3 4 5 5 9 5h88c6 0 8 -2 10 -5l103 -141c3 -4 0 -7 -4 -7h-83c-5 0 -7 1 -10 4z" />
    <glyph glyph-name="edieresis" unicode="&#xeb;" horiz-adv-x="502" 
d="M357 219h-203c3 -70 49 -126 151 -126c45 0 86 8 124 24c3 2 6 1 6 -4v-83c0 -6 -2 -9 -6 -11c-38 -18 -82 -29 -150 -29c-182 0 -247 128 -247 251c0 139 84 262 235 262c148 0 205 -116 205 -211c0 -28 -1 -51 -4 -62c-1 -4 -3 -6 -8 -7c-14 -3 -54 -4 -103 -4z
M154 305h149c38 0 51 0 55 1v8c0 29 -20 93 -96 93c-69 0 -100 -53 -108 -102zM158 568c-35 0 -60 24 -60 61c0 38 26 63 62 63c35 0 59 -26 59 -63c0 -38 -26 -61 -61 -61zM352 568c-34 0 -59 24 -59 61c0 38 27 63 61 63c36 0 59 -26 59 -63s-25 -61 -61 -61z" />
    <glyph glyph-name="egrave" unicode="&#xe8;" horiz-adv-x="502" 
d="M357 219h-203c3 -70 49 -126 151 -126c45 0 86 8 124 24c3 2 6 1 6 -4v-83c0 -6 -2 -9 -6 -11c-38 -18 -82 -29 -150 -29c-182 0 -247 128 -247 251c0 139 84 262 235 262c148 0 205 -116 205 -211c0 -28 -1 -51 -4 -62c-1 -4 -3 -6 -8 -7c-14 -3 -54 -4 -103 -4z
M154 305h149c38 0 51 0 55 1v8c0 29 -20 93 -96 93c-69 0 -100 -53 -108 -102zM232 706l102 -143c2 -4 1 -8 -5 -8h-95c-4 0 -8 3 -9 6l-126 141c-2 5 -1 9 4 9h118c5 0 8 -1 11 -5z" />
    <glyph glyph-name="iacute" unicode="&#xed;" horiz-adv-x="248" 
d="M63 9v477c0 5 3 7 8 7h106c6 0 8 -1 8 -7v-478c0 -6 -2 -8 -9 -8h-103c-7 0 -10 3 -10 9zM68 562l99 141c3 6 7 9 11 9h115c7 0 9 -3 6 -9l-122 -142c-4 -4 -8 -6 -13 -6h-93c-4 0 -5 4 -3 7z" />
    <glyph glyph-name="icircumflex" unicode="&#xee;" horiz-adv-x="248" 
d="M63 9v477c0 5 3 7 8 7h106c6 0 8 -1 8 -7v-478c0 -6 -2 -8 -9 -8h-103c-7 0 -10 3 -10 9zM184 559l-63 90l-63 -91c-1 -2 -3 -3 -8 -3h-76c-5 0 -7 4 -4 8l101 140c2 4 4 5 8 5h89c5 0 7 -2 9 -5l103 -141c3 -4 1 -7 -3 -7h-83c-6 0 -8 1 -10 4z" />
    <glyph glyph-name="idieresis" unicode="&#xef;" horiz-adv-x="248" 
d="M63 9v477c0 5 3 7 8 7h106c6 0 8 -1 8 -7v-478c0 -6 -2 -8 -9 -8h-103c-7 0 -10 3 -10 9zM27 568c-35 0 -60 24 -60 61c0 38 26 63 62 63c35 0 59 -26 59 -63c0 -38 -26 -61 -61 -61zM221 568c-34 0 -59 24 -59 61c0 38 27 63 61 63c36 0 59 -26 59 -63s-25 -61 -61 -61z
" />
    <glyph glyph-name="igrave" unicode="&#xec;" horiz-adv-x="248" 
d="M63 9v477c0 5 3 7 8 7h106c6 0 8 -1 8 -7v-478c0 -6 -2 -8 -9 -8h-103c-7 0 -10 3 -10 9zM81 706l102 -143c3 -4 1 -8 -4 -8h-96c-4 0 -7 3 -9 6l-126 141c-2 5 0 9 4 9h119c5 0 7 -1 10 -5z" />
    <glyph glyph-name="ntilde" unicode="&#xf1;" horiz-adv-x="551" 
d="M63 8v370c0 34 -2 88 -4 108c0 5 1 7 7 7h91c7 0 10 -2 12 -7c3 -9 5 -22 7 -38c43 36 91 55 145 55c75 0 167 -38 167 -198v-296c0 -7 -3 -9 -8 -9h-104c-6 0 -9 3 -9 9v285c0 66 -28 104 -86 104c-40 0 -73 -15 -97 -41v-349c0 -5 -3 -8 -8 -8h-105c-6 0 -8 3 -8 8z
M170 559h-66c-6 0 -7 3 -8 8c1 89 47 131 103 131c63 0 107 -51 138 -51c21 0 28 18 30 43c0 4 2 6 6 6h66c5 0 7 -1 7 -5c-1 -98 -43 -134 -98 -134c-58 0 -98 50 -138 50c-18 0 -32 -12 -35 -42c0 -2 -1 -6 -5 -6z" />
    <glyph glyph-name="oacute" unicode="&#xf3;" horiz-adv-x="544" 
d="M275 503c154 0 238 -117 238 -254c0 -155 -99 -259 -240 -259c-167 0 -241 129 -241 256c0 142 93 257 243 257zM269 402c-67 0 -115 -59 -115 -154c0 -92 45 -156 121 -156c62 0 115 51 115 154c0 83 -36 156 -121 156zM203 562l99 141c3 6 7 9 11 9h115c7 0 9 -3 6 -9
l-122 -142c-4 -4 -8 -6 -13 -6h-93c-4 0 -5 4 -3 7z" />
    <glyph glyph-name="ocircumflex" unicode="&#xf4;" horiz-adv-x="544" 
d="M275 503c154 0 238 -117 238 -254c0 -155 -99 -259 -240 -259c-167 0 -241 129 -241 256c0 142 93 257 243 257zM269 402c-67 0 -115 -59 -115 -154c0 -92 45 -156 121 -156c62 0 115 51 115 154c0 83 -36 156 -121 156zM331 559l-63 90l-63 -91c-1 -2 -3 -3 -8 -3h-76
c-5 0 -7 4 -4 8l101 140c2 4 4 5 8 5h89c5 0 7 -2 9 -5l103 -141c3 -4 1 -7 -3 -7h-83c-6 0 -8 1 -10 4z" />
    <glyph glyph-name="odieresis" unicode="&#xf6;" horiz-adv-x="544" 
d="M275 503c154 0 238 -117 238 -254c0 -155 -99 -259 -240 -259c-167 0 -241 129 -241 256c0 142 93 257 243 257zM269 402c-67 0 -115 -59 -115 -154c0 -92 45 -156 121 -156c62 0 115 51 115 154c0 83 -36 156 -121 156zM174 568c-35 0 -60 24 -60 61c0 38 26 63 62 63
c35 0 59 -26 59 -63c0 -38 -26 -61 -61 -61zM368 568c-34 0 -59 24 -59 61c0 38 27 63 61 63c36 0 59 -26 59 -63s-25 -61 -61 -61z" />
    <glyph glyph-name="ograve" unicode="&#xf2;" horiz-adv-x="544" 
d="M275 503c154 0 238 -117 238 -254c0 -155 -99 -259 -240 -259c-167 0 -241 129 -241 256c0 142 93 257 243 257zM269 402c-67 0 -115 -59 -115 -154c0 -92 45 -156 121 -156c62 0 115 51 115 154c0 83 -36 156 -121 156zM240 706l103 -143c2 -4 0 -8 -5 -8h-95
c-5 0 -8 3 -10 6l-125 141c-3 5 -1 9 3 9h119c5 0 7 -1 10 -5z" />
    <glyph glyph-name="otilde" unicode="&#xf5;" horiz-adv-x="544" 
d="M275 503c154 0 238 -117 238 -254c0 -155 -99 -259 -240 -259c-167 0 -241 129 -241 256c0 142 93 257 243 257zM269 402c-67 0 -115 -59 -115 -154c0 -92 45 -156 121 -156c62 0 115 51 115 154c0 83 -36 156 -121 156zM172 558h-66c-6 0 -7 3 -8 8c1 89 47 131 103 131
c63 0 107 -51 138 -51c21 0 28 18 30 43c0 4 2 6 6 6h66c5 0 7 -1 7 -5c-1 -98 -43 -134 -98 -134c-58 0 -98 50 -138 50c-18 0 -32 -12 -35 -42c0 -2 -1 -6 -5 -6z" />
    <glyph glyph-name="scaron" unicode="&#x161;" horiz-adv-x="400" 
d="M338 377c-31 17 -81 29 -125 29c-53 0 -71 -22 -71 -43c0 -22 15 -37 79 -62c114 -42 153 -87 153 -158c0 -94 -74 -153 -197 -153c-59 0 -111 11 -141 28c-5 3 -7 5 -7 11v95c0 5 4 7 8 5c43 -28 98 -40 143 -40c52 0 77 18 77 44c0 25 -19 41 -81 66
c-109 40 -148 85 -148 157c0 76 62 147 187 147c58 0 102 -8 126 -20c5 -3 6 -7 6 -12v-88c0 -5 -3 -8 -9 -6zM138 704l63 -90l62 91c2 2 4 3 8 3h77c5 0 6 -4 3 -8l-100 -140c-3 -4 -5 -5 -9 -5h-88c-6 0 -8 2 -10 5l-103 141c-3 4 0 7 4 7h83c5 0 7 -1 10 -4z" />
    <glyph glyph-name="uacute" unicode="&#xfa;" horiz-adv-x="545" 
d="M481 486v-376c0 -52 4 -82 6 -103c1 -5 -2 -7 -8 -7h-92c-7 0 -9 2 -10 6c-3 10 -6 25 -7 35c-43 -40 -94 -51 -139 -51c-95 0 -168 51 -168 191v305c0 6 2 7 8 7h105c6 0 7 -2 7 -7v-291c0 -62 27 -100 87 -100c38 0 66 13 91 36v355c0 5 2 7 8 7h105c6 0 7 -2 7 -7z
M209 562l99 141c3 6 7 9 11 9h115c7 0 9 -3 6 -9l-122 -142c-4 -4 -8 -6 -13 -6h-93c-4 0 -5 4 -3 7z" />
    <glyph glyph-name="ucircumflex" unicode="&#xfb;" horiz-adv-x="545" 
d="M481 486v-376c0 -52 4 -82 6 -103c1 -5 -2 -7 -8 -7h-92c-7 0 -9 2 -10 6c-3 10 -6 25 -7 35c-43 -40 -94 -51 -139 -51c-95 0 -168 51 -168 191v305c0 6 2 7 8 7h105c6 0 7 -2 7 -7v-291c0 -62 27 -100 87 -100c38 0 66 13 91 36v355c0 5 2 7 8 7h105c6 0 7 -2 7 -7z
M332 561l-63 90l-62 -91c-2 -2 -4 -3 -9 -3h-76c-5 0 -7 5 -3 8l100 141c3 3 4 4 8 4h89c5 0 7 -1 9 -4l104 -142c2 -3 0 -7 -4 -7h-83c-6 0 -8 1 -10 4z" />
    <glyph glyph-name="udieresis" unicode="&#xfc;" horiz-adv-x="545" 
d="M481 486v-376c0 -52 4 -82 6 -103c1 -5 -2 -7 -8 -7h-92c-7 0 -9 2 -10 6c-3 10 -6 25 -7 35c-43 -40 -94 -51 -139 -51c-95 0 -168 51 -168 191v305c0 6 2 7 8 7h105c6 0 7 -2 7 -7v-291c0 -62 27 -100 87 -100c38 0 66 13 91 36v355c0 5 2 7 8 7h105c6 0 7 -2 7 -7z
M178 568c-35 0 -60 24 -60 61c0 38 26 63 62 63c35 0 59 -26 59 -63c0 -38 -26 -61 -61 -61zM372 568c-34 0 -59 24 -59 61c0 38 27 63 61 63c36 0 59 -26 59 -63s-25 -61 -61 -61z" />
    <glyph glyph-name="ugrave" unicode="&#xf9;" horiz-adv-x="545" 
d="M481 486v-376c0 -52 4 -82 6 -103c1 -5 -2 -7 -8 -7h-92c-7 0 -9 2 -10 6c-3 10 -6 25 -7 35c-43 -40 -94 -51 -139 -51c-95 0 -168 51 -168 191v305c0 6 2 7 8 7h105c6 0 7 -2 7 -7v-291c0 -62 27 -100 87 -100c38 0 66 13 91 36v355c0 5 2 7 8 7h105c6 0 7 -2 7 -7z
M245 706l102 -143c2 -4 0 -8 -5 -8h-95c-4 0 -8 3 -10 6l-125 141c-3 5 -1 9 3 9h119c5 0 8 -1 11 -5z" />
    <glyph glyph-name="yacute" unicode="&#xfd;" horiz-adv-x="478" 
d="M7 493h117c4 0 7 -1 9 -6c65 -187 99 -295 112 -344c33 101 68 204 113 344c2 4 5 6 11 6h103c6 0 7 -3 6 -8c-72 -221 -181 -491 -262 -676c-2 -4 -5 -7 -13 -7l-109 -8c-6 0 -7 2 -5 8c30 60 62 131 94 207c2 6 3 9 1 16c-27 66 -123 304 -183 461c-2 4 1 7 6 7z
M177 562l99 141c3 6 7 9 11 9h115c7 0 9 -3 6 -9l-122 -142c-4 -4 -8 -6 -13 -6h-93c-4 0 -5 4 -3 7z" />
    <glyph glyph-name="ydieresis" unicode="&#xff;" horiz-adv-x="478" 
d="M7 493h117c4 0 7 -1 9 -6c65 -187 99 -295 112 -344c33 101 68 204 113 344c2 4 5 6 11 6h103c6 0 7 -3 6 -8c-72 -221 -181 -491 -262 -676c-2 -4 -5 -7 -13 -7l-109 -8c-6 0 -7 2 -5 8c30 60 62 131 94 207c2 6 3 9 1 16c-27 66 -123 304 -183 461c-2 4 1 7 6 7z
M146 570c-36 0 -61 24 -61 61c0 38 27 63 63 63c34 0 59 -26 59 -63c0 -38 -27 -61 -61 -61zM340 570c-34 0 -60 24 -60 61c0 38 27 63 62 63s59 -26 59 -63s-25 -61 -61 -61z" />
    <glyph glyph-name="zcaron" unicode="&#x17e;" horiz-adv-x="421" 
d="M393 0h-376c-5 0 -6 2 -6 7v60c0 4 1 7 3 10c64 91 214 275 244 316c-19 -1 -52 -1 -95 -1h-140c-7 0 -9 3 -7 9l14 85c1 5 3 7 9 7h354c5 0 6 -1 7 -6v-62c0 -6 -1 -9 -5 -14c-81 -118 -210 -277 -236 -310c27 1 65 0 115 0h137c5 0 8 -1 6 -8l-16 -86
c-1 -5 -4 -7 -8 -7zM153 704l63 -90l62 91c2 2 4 3 8 3h77c5 0 6 -4 3 -8l-100 -140c-3 -4 -5 -5 -9 -5h-88c-6 0 -8 2 -10 5l-103 141c-3 4 0 7 4 7h83c5 0 7 -1 10 -4z" />
    <glyph glyph-name="uni2113" unicode="&#x2113;" horiz-adv-x="401" 
d="M361 121v-79c0 -6 0 -13 -6 -17c-30 -22 -72 -31 -124 -31c-118 0 -154 81 -154 157v6c-13 -11 -33 -24 -50 -35c-6 -3 -9 -1 -9 5v77c0 7 2 8 6 11c15 10 31 22 52 39v190c0 170 70 237 156 237c88 0 132 -67 132 -157c0 -106 -53 -192 -185 -301v-18
c-1 -75 28 -110 83 -110c39 0 67 13 90 30c6 5 9 3 9 -4zM179 466v-131c69 70 95 129 95 189c0 46 -15 71 -42 71c-29 0 -53 -27 -53 -129z" />
    <glyph glyph-name="uni2116" unicode="&#x2116;" horiz-adv-x="983" 
d="M161 0h-89c-5 0 -7 3 -7 8v618c0 5 2 7 6 7h125c5 0 7 -1 10 -7c76 -152 171 -329 232 -467h1c-1 22 -4 76 -4 151v317c0 5 2 6 6 6h93c3 0 5 -2 5 -6v-619c0 -5 -1 -8 -7 -8h-124c-5 0 -8 2 -10 7c-77 162 -172 337 -236 489h-1c5 -39 7 -99 7 -179v-311
c0 -6 -2 -6 -7 -6zM772 606c112 0 177 -87 177 -199c0 -126 -74 -203 -179 -203c-132 0 -183 101 -183 200c0 119 75 202 185 202zM768 521c-49 0 -81 -41 -81 -112c0 -64 26 -117 85 -117c41 0 78 31 78 112c0 62 -22 117 -82 117zM621 160h297c6 0 6 -1 6 -6v-57
c0 -6 -1 -7 -6 -7h-297c-4 0 -7 1 -7 7v57c0 5 2 6 7 6z" />
    <glyph glyph-name="uni2117" unicode="&#x2117;" horiz-adv-x="760" 
d="M346 158h-69c-4 0 -5 1 -5 5v334c0 3 1 5 4 5h117c100 0 143 -56 143 -119c0 -81 -64 -124 -145 -124h-41v-96c0 -4 0 -5 -4 -5zM350 435v-109h35c39 0 72 9 72 55c0 39 -25 54 -69 54h-38zM47 330c0 189 145 332 333 332s332 -143 332 -333c0 -195 -143 -334 -332 -334
s-333 141 -333 335zM111 330c0 -162 118 -275 269 -275c165 0 270 115 269 274c-1 161 -119 275 -269 275c-161 0 -269 -119 -269 -274z" />
    <glyph glyph-name="uni2120" unicode="&#x2120;" horiz-adv-x="356" 
d="M-5 504v35c0 2 2 3 5 2c17 -10 42 -17 60 -17c17 0 22 6 22 11c0 7 -5 12 -28 19c-43 14 -58 30 -58 56c0 29 21 51 69 51c19 0 38 -4 50 -11c3 -2 3 -3 3 -5v-34c0 -2 -2 -4 -5 -2c-13 7 -31 13 -50 13c-17 0 -21 -4 -21 -10s6 -11 33 -19c39 -12 53 -26 53 -56
c0 -37 -36 -52 -72 -52c-20 0 -43 5 -57 13c-4 2 -4 4 -4 6zM269 492h-38c-3 0 -4 2 -5 3c-14 60 -27 118 -29 131h-1c0 -17 -1 -65 -4 -135c0 -2 -1 -3 -3 -3h-36c-3 0 -4 2 -4 3l11 163c0 3 1 3 5 3h56c2 0 4 0 5 -3c13 -50 24 -95 26 -112h2c1 12 15 63 31 114
c0 1 1 1 4 1h53c4 0 5 -1 5 -3l6 -162c0 -2 0 -4 -4 -4h-38c-2 0 -4 1 -4 4c0 100 -1 73 1 132h-2c-2 -12 -18 -73 -34 -128c-1 -2 -1 -4 -3 -4z" />
    <glyph glyph-name="uni2126" unicode="&#x2126;" horiz-adv-x="708" 
d="M305 0h-278c-5 0 -8 2 -8 8l-7 94c0 5 2 8 7 8h151c-56 48 -113 127 -113 257c0 161 114 300 305 300s288 -142 288 -299c0 -126 -57 -207 -118 -259h158c6 0 7 -2 7 -7l-11 -94c0 -6 -3 -8 -8 -8h-275c-6 0 -8 2 -8 8v84c0 4 1 7 6 10c77 56 126 133 126 253
s-56 206 -173 206c-116 0 -175 -91 -175 -208c0 -118 60 -201 128 -250c5 -3 6 -5 6 -10v-84c0 -5 -1 -9 -8 -9z" />
    <glyph glyph-name="estimated" unicode="&#x212e;" horiz-adv-x="800" 
d="M758 309h-583c-3 0 -5 -1 -5 -4v-177c0 -8 3 -13 8 -20c57 -58 134 -95 221 -95c92 0 175 42 231 107h53c-65 -76 -170 -126 -285 -126c-199 0 -360 146 -360 323c0 180 161 325 360 325c198 0 360 -145 360 -325v-8zM627 332v178c0 6 -4 14 -10 20
c-56 57 -133 92 -218 92c-87 0 -163 -37 -220 -95c-6 -6 -9 -14 -9 -22v-173c0 -1 2 -6 5 -6h446c5 0 6 5 6 6z" />
    <glyph glyph-name="estimated.alt" horiz-adv-x="621" 
d="M565 288c-10 -5 -39 -8 -170 -8h-228c2 -98 64 -184 199 -184c65 0 115 12 165 42c6 2 8 0 8 -6v-85c0 -6 -3 -10 -8 -14c-50 -31 -117 -43 -186 -43c-210 0 -301 153 -301 332c0 175 102 321 281 321c193 0 251 -150 251 -267c0 -54 -5 -86 -11 -88zM169 377h221
c49 0 66 1 68 7c2 4 2 9 2 17c0 58 -35 137 -139 137c-92 0 -143 -64 -152 -161z" />
    <glyph glyph-name="partialdiff" unicode="&#x2202;" horiz-adv-x="507" 
d="M255 292c-68 0 -111 -37 -111 -99c0 -66 48 -99 104 -99c74 0 112 56 111 140c0 9 -3 16 -9 22c-18 21 -54 36 -95 36zM69 552v92c0 2 0 5 5 6c9 2 20 2 34 2c254 -1 358 -164 358 -374c0 -187 -84 -287 -222 -287c-142 0 -206 95 -206 198c0 123 86 203 206 203
c56 0 89 -14 108 -28c-14 105 -100 183 -253 182h-24c-4 0 -6 0 -6 6z" />
    <glyph glyph-name="uni2206" unicode="&#x2206;" horiz-adv-x="602" 
d="M579 0h-556c-6 0 -7 2 -7 7v69c0 5 2 11 3 14l191 505c4 13 6 27 7 56c1 4 2 6 6 6h140c5 0 6 -1 8 -5l211 -561c3 -5 3 -11 3 -17v-66c0 -5 1 -8 -6 -8zM138 109h315c-48 137 -144 391 -158 440h-2c-12 -50 -95 -269 -155 -440z" />
    <glyph glyph-name="product" unicode="&#x220f;" horiz-adv-x="637" 
d="M555 -95h-107c-5 0 -7 2 -7 8v634h-246v-634c0 -6 -1 -8 -7 -8h-106c-4 0 -7 1 -7 8v738c0 5 2 6 6 6h475c4 0 5 -2 5 -7v-737c0 -6 -1 -8 -6 -8z" />
    <glyph glyph-name="summation" unicode="&#x2211;" horiz-adv-x="461" 
d="M417 657c6 0 8 -2 8 -8l10 -92c1 -8 -2 -9 -8 -9h-275l173 -266c4 -4 3 -8 0 -11l-182 -260h308c6 0 7 -3 6 -8l-13 -94c-1 -3 -3 -7 -9 -7h-408c-6 0 -7 3 -7 6v75c0 5 0 8 3 12l190 273l-185 289c-1 1 -4 7 -4 16v75c0 6 2 9 6 9h387z" />
    <glyph glyph-name="radical" unicode="&#x221a;" horiz-adv-x="519" 
d="M516 764l-171 -901c-2 -4 -4 -6 -7 -6h-88c-5 0 -7 2 -9 6l-119 354l-79 -32c-4 -2 -7 -1 -9 4l-18 55c-1 4 0 7 4 8l161 66c4 2 6 0 7 -4l62 -200c22 -71 33 -123 40 -157h1c3 38 14 127 30 212l107 594c1 5 3 8 7 8h77c4 0 5 -3 4 -7z" />
    <glyph glyph-name="infinity" unicode="&#x221e;" horiz-adv-x="740" 
d="M547 99c-71 0 -124 51 -177 105c-52 -49 -103 -105 -187 -105c-90 0 -153 67 -153 159c0 84 63 157 161 157c74 0 131 -57 180 -106c51 50 101 106 185 106c91 0 153 -67 153 -157c0 -85 -66 -159 -162 -159zM549 174c45 0 82 38 82 84c0 47 -35 83 -80 83
c-53 0 -94 -45 -131 -82c40 -39 74 -85 129 -85zM190 173c52 0 93 45 130 83c-35 34 -74 85 -128 85c-49 0 -82 -39 -82 -83c0 -49 33 -85 80 -85z" />
    <glyph glyph-name="integral" unicode="&#x222b;" horiz-adv-x="330" 
d="M332 738v-82c0 -6 -2 -7 -7 -5c-10 4 -28 8 -46 8c-67 0 -71 -69 -71 -151c0 -105 22 -315 22 -442s-25 -220 -148 -220c-31 0 -59 8 -76 16c-4 2 -6 4 -6 11v85c0 5 3 7 6 5c25 -12 49 -15 63 -15c48 0 62 28 62 124c0 125 -21 341 -21 463c0 116 30 222 158 222
c25 0 47 -4 58 -10c3 -1 6 -3 6 -9z" />
    <glyph glyph-name="approxequal" unicode="&#x2248;" horiz-adv-x="559" 
d="M113 286h-70c-5 0 -6 0 -6 4c-3 84 40 137 120 137c49 0 83 -12 139 -34c48 -19 71 -29 98 -29c30 0 44 13 45 55c0 3 2 4 7 4h69c5 0 7 -2 7 -4c1 -92 -40 -138 -114 -138c-51 0 -79 10 -140 35c-46 19 -72 29 -98 29s-48 -11 -50 -56c0 -2 -2 -3 -7 -3zM113 94h-70
c-5 0 -6 1 -6 4c-3 85 40 138 120 138c49 0 83 -13 139 -34c48 -19 71 -29 98 -29c30 0 44 13 45 55c0 2 2 3 7 3h69c5 0 7 -1 7 -3c1 -92 -40 -138 -115 -138c-46 0 -78 10 -139 34c-46 20 -72 30 -98 30s-48 -12 -50 -56c0 -3 -2 -4 -7 -4z" />
    <glyph glyph-name="notequal" unicode="&#x2260;" horiz-adv-x="549" 
d="M511 314h-157l-62 -107h220c5 0 8 -1 8 -8v-70c0 -6 -4 -8 -10 -8h-268l-54 -94c-2 -4 -3 -5 -9 -5h-75c-4 0 -6 2 -3 7l53 92h-117c-5 0 -7 2 -7 8v71c0 6 2 7 7 7h166l62 107h-227c-5 0 -8 2 -8 8v71c0 6 3 7 8 7h276l55 96c3 5 5 6 11 6h73c3 0 7 -1 5 -7l-55 -95h110
c5 0 7 -2 7 -6v-72c0 -6 -2 -8 -9 -8z" />
    <glyph glyph-name="lessequal" unicode="&#x2264;" horiz-adv-x="545" 
d="M60 323v68c0 6 1 7 5 9l412 189c5 2 8 1 8 -4v-79c0 -5 -3 -7 -7 -9l-320 -139v-2l321 -140c4 -2 6 -2 6 -9v-76c0 -7 -2 -8 -7 -7l-413 190c-4 3 -5 5 -5 9zM67 87h412c4 0 6 -2 6 -9v-71c0 -5 -2 -7 -8 -7h-410c-5 0 -7 2 -7 8v72c0 5 2 7 7 7z" />
    <glyph glyph-name="greaterequal" unicode="&#x2265;" horiz-adv-x="545" 
d="M485 391v-68c0 -6 -1 -7 -5 -9l-412 -189c-5 -2 -8 -1 -8 3v80c0 5 3 7 7 9l319 139v2l-320 140c-5 1 -6 2 -6 9v76c0 7 2 8 7 7l413 -190c4 -3 5 -5 5 -9zM67 87h412c4 0 6 -2 6 -9v-71c0 -5 -2 -7 -8 -7h-410c-5 0 -7 2 -7 8v72c0 5 2 7 7 7z" />
    <glyph glyph-name="Abreve" unicode="&#x102;" horiz-adv-x="606" 
d="M416 173h-239l-55 -165c-2 -6 -5 -8 -11 -8h-100c-6 0 -8 3 -7 10l206 586c4 10 7 20 9 54c0 4 2 7 6 7h139c5 0 6 -1 7 -6l231 -642c1 -6 0 -9 -6 -9h-112c-5 0 -8 2 -10 6zM209 282h175c-21 66 -68 205 -88 275h-1c-16 -67 -56 -184 -86 -275zM137 854h82
c4 0 6 -2 7 -6c12 -31 36 -50 71 -50c33 0 60 14 72 50c2 3 4 6 8 6h83c6 0 6 -5 6 -8c-17 -90 -85 -138 -169 -138c-85 0 -152 44 -167 139c-1 3 1 7 7 7z" />
    <glyph glyph-name="Amacron" unicode="&#x100;" horiz-adv-x="606" 
d="M416 173h-239l-55 -165c-2 -6 -5 -8 -11 -8h-100c-6 0 -8 3 -7 10l206 586c4 10 7 20 9 54c0 4 2 7 6 7h139c5 0 6 -1 7 -6l231 -642c1 -6 0 -9 -6 -9h-112c-5 0 -8 2 -10 6zM209 282h175c-21 66 -68 205 -88 275h-1c-16 -67 -56 -184 -86 -275zM156 819h284
c4 0 6 -3 6 -7v-77c0 -5 -2 -7 -7 -7h-281c-6 0 -9 1 -9 7v76c0 6 2 8 7 8z" />
    <glyph glyph-name="Aogonek" unicode="&#x104;" horiz-adv-x="606" 
d="M209 282h175c-21 66 -68 205 -88 276h-1c-16 -67 -56 -185 -86 -276zM472 12l-56 161h-239l-56 -165c-1 -6 -4 -8 -10 -8h-100c-6 0 -8 3 -7 10l206 586c4 10 7 20 9 54c0 4 2 7 6 7h139c5 0 6 -1 7 -6l229 -637c3 -8 1 -11 -5 -14c-48 -27 -74 -59 -74 -88
c0 -25 20 -44 57 -44c18 0 34 4 43 6c7 2 8 0 8 -5v-64c0 -8 -1 -11 -7 -14c-17 -10 -47 -15 -82 -15c-60 0 -131 25 -131 105c0 42 27 84 76 121c-7 1 -10 5 -13 10z" />
    <glyph glyph-name="Cacute" unicode="&#x106;" horiz-adv-x="557" 
d="M524 110v-89c0 -6 -2 -11 -7 -13c-33 -12 -82 -18 -138 -18c-185 0 -343 109 -343 337c0 201 140 340 358 340c65 0 105 -6 130 -17c4 -2 6 -5 6 -11v-95c0 -8 -4 -8 -8 -6c-32 15 -78 22 -130 22c-141 0 -231 -90 -231 -230c0 -173 128 -232 233 -232c49 0 86 4 123 17
c4 2 7 1 7 -5zM263 735l120 112c4 4 6 4 12 4h126c5 0 5 -4 3 -8l-138 -109c-4 -5 -8 -7 -14 -7h-105c-5 0 -7 4 -4 8z" />
    <glyph glyph-name="Ccaron" unicode="&#x10c;" horiz-adv-x="557" 
d="M524 110v-89c0 -6 -2 -11 -7 -13c-33 -12 -82 -18 -138 -18c-185 0 -343 109 -343 337c0 201 140 340 358 340c65 0 105 -6 130 -17c4 -2 6 -5 6 -11v-95c0 -8 -4 -8 -8 -6c-32 15 -78 22 -130 22c-141 0 -231 -90 -231 -230c0 -173 128 -232 233 -232c49 0 86 4 123 17
c4 2 7 1 7 -5zM281 845l63 -65l62 65c4 3 7 5 11 5h90c4 0 6 -6 3 -8l-113 -117c-3 -3 -5 -3 -10 -3h-91c-5 0 -9 1 -11 4l-117 118c-3 3 -1 6 4 6h97c6 0 9 -3 12 -5z" />
    <glyph glyph-name="Ccircumflex" unicode="&#x108;" horiz-adv-x="557" 
d="M524 110v-89c0 -6 -2 -11 -7 -13c-33 -12 -82 -18 -138 -18c-185 0 -343 109 -343 337c0 201 140 340 358 340c65 0 105 -6 130 -17c4 -2 6 -5 6 -11v-95c0 -8 -4 -8 -8 -6c-32 15 -78 22 -130 22c-141 0 -231 -90 -231 -230c0 -173 128 -232 233 -232c49 0 86 4 123 17
c4 2 7 1 7 -5zM392 728l-63 65l-62 -64c-4 -5 -7 -6 -11 -6h-90c-4 0 -5 6 -3 8l113 117c3 2 5 3 10 3h91c5 0 9 -1 11 -4l117 -118c3 -3 1 -6 -4 -6h-97c-6 0 -9 2 -12 5z" />
    <glyph glyph-name="Cdotaccent" unicode="&#x10a;" horiz-adv-x="557" 
d="M524 110v-89c0 -6 -2 -11 -7 -13c-33 -12 -82 -18 -138 -18c-185 0 -343 109 -343 337c0 201 140 340 358 340c65 0 105 -6 130 -17c4 -2 6 -5 6 -11v-95c0 -8 -4 -8 -8 -6c-32 15 -78 22 -130 22c-141 0 -231 -90 -231 -230c0 -173 128 -232 233 -232c49 0 86 4 123 17
c4 2 7 1 7 -5zM340 732c-41 0 -67 24 -67 60s28 60 69 60s66 -25 66 -60c0 -36 -26 -60 -68 -60z" />
    <glyph glyph-name="Dcaron" unicode="&#x10e;" horiz-adv-x="660" 
d="M74 9v639c0 5 1 7 7 8c29 1 97 3 189 3c235 0 353 -133 353 -319c0 -244 -186 -342 -355 -342c-63 0 -155 0 -187 2c-4 0 -7 3 -7 9zM195 552v-448c20 -1 42 -1 68 -1c141 0 236 82 236 234c0 145 -95 217 -230 217c-28 0 -50 -1 -74 -2zM234 839l63 -65l62 65
c4 4 6 6 10 6h91c4 0 5 -6 2 -9l-112 -116c-4 -3 -5 -3 -10 -3h-91c-6 0 -10 1 -12 4l-117 117c-2 4 0 7 4 7h97c7 0 9 -3 13 -6z" />
    <glyph glyph-name="Dcroat" unicode="&#x110;" horiz-adv-x="672" 
d="M202 296v-192c19 -1 42 -1 67 -1c141 0 237 82 237 234c0 145 -95 217 -231 217c-28 0 -49 -1 -73 -2v-170h156c4 0 5 -1 5 -6v-74c0 -5 -1 -6 -6 -6h-155zM81 382v266c0 5 1 7 7 8c29 1 96 3 188 3c235 0 354 -133 354 -319c0 -244 -186 -342 -355 -342
c-63 0 -155 0 -188 2c-4 0 -6 3 -6 9v287h-64c-5 0 -6 2 -6 7v73c0 5 1 6 5 6h65z" />
    <glyph glyph-name="Ebreve" unicode="&#x114;" horiz-adv-x="530" 
d="M505 101l-15 -93c-1 -7 -3 -8 -9 -8h-398c-7 0 -9 3 -9 8v641c0 5 2 8 8 8h386c6 0 8 -1 9 -7l11 -93c1 -5 -1 -9 -7 -9h-286v-159h260c5 0 7 -1 7 -7v-95c0 -5 -3 -6 -7 -6h-260v-172h303c6 0 8 -3 7 -8zM112 859h82c5 0 6 -2 8 -7c11 -30 35 -50 70 -50
c34 0 60 15 73 51c2 3 4 6 8 6h82c7 0 7 -6 6 -9c-16 -89 -85 -138 -169 -138s-152 44 -167 139c0 4 2 8 7 8z" />
    <glyph glyph-name="Ecaron" unicode="&#x11a;" horiz-adv-x="530" 
d="M505 101l-15 -93c-1 -7 -3 -8 -9 -8h-398c-7 0 -9 3 -9 8v641c0 5 2 8 8 8h386c6 0 8 -1 9 -7l11 -93c1 -5 -1 -9 -7 -9h-286v-159h260c5 0 7 -1 7 -7v-95c0 -5 -3 -6 -7 -6h-260v-172h303c6 0 8 -3 7 -8zM214 839l63 -65l62 65c4 4 6 6 10 6h91c4 0 5 -6 2 -9l-112 -116
c-3 -3 -5 -4 -10 -4h-91c-6 0 -10 2 -12 5l-116 117c-3 4 -1 7 3 7h97c7 0 9 -3 13 -6z" />
    <glyph glyph-name="Edotaccent" unicode="&#x116;" horiz-adv-x="530" 
d="M505 101l-15 -93c-1 -7 -3 -8 -9 -8h-398c-7 0 -9 3 -9 8v641c0 5 2 8 8 8h386c6 0 8 -1 9 -7l11 -93c1 -5 -1 -9 -7 -9h-286v-159h260c5 0 7 -1 7 -7v-95c0 -5 -3 -6 -7 -6h-260v-172h303c6 0 8 -3 7 -8zM276 723c-41 0 -67 25 -67 60c0 36 28 60 69 60s66 -24 66 -60
s-26 -60 -68 -60z" />
    <glyph glyph-name="Emacron" unicode="&#x112;" horiz-adv-x="530" 
d="M505 101l-15 -93c-1 -7 -3 -8 -9 -8h-398c-7 0 -9 3 -9 8v641c0 5 2 8 8 8h386c6 0 8 -1 9 -7l11 -93c1 -5 -1 -9 -7 -9h-286v-159h260c5 0 7 -1 7 -7v-95c0 -5 -3 -6 -7 -6h-260v-172h303c6 0 8 -3 7 -8zM132 827h283c5 0 7 -3 7 -7v-77c0 -6 -3 -7 -7 -7h-281
c-7 0 -9 1 -9 7v76c0 6 2 8 7 8z" />
    <glyph glyph-name="Eogonek" unicode="&#x118;" horiz-adv-x="530" 
d="M481 0h-36c-43 -29 -64 -59 -64 -86c0 -28 21 -46 59 -46c19 0 36 3 50 7c5 1 7 -2 7 -5v-68c0 -5 -2 -7 -6 -10c-17 -9 -50 -16 -86 -16c-61 0 -132 26 -132 105c0 43 29 84 80 119h-270c-7 0 -9 3 -9 8v641c0 5 2 8 8 8h386c6 0 8 -1 9 -7l11 -93c1 -5 -1 -9 -7 -9
h-286v-159h260c5 0 7 -1 7 -7v-95c0 -5 -3 -6 -7 -6h-260v-172h303c6 0 8 -3 7 -8l-15 -93c-1 -7 -3 -8 -9 -8z" />
    <glyph glyph-name="Gbreve" unicode="&#x11e;" horiz-adv-x="646" 
d="M469 260l-112 3c-7 1 -8 3 -8 9v89c0 5 3 6 7 6h226c7 0 8 -2 8 -8v-326c1 -5 -1 -8 -6 -9c-70 -27 -139 -34 -197 -34c-234 0 -351 149 -351 334c0 208 148 343 369 343c67 0 126 -7 162 -24c4 -2 6 -6 6 -12v-96c0 -6 -4 -7 -8 -5c-45 23 -97 29 -156 29
c-161 2 -248 -86 -248 -231c0 -130 80 -232 232 -232c34 0 56 3 76 9v155zM195 868h82c5 0 6 -2 8 -7c11 -30 35 -50 70 -50c34 0 60 15 73 51c2 3 4 6 8 6h82c7 0 7 -6 6 -9c-16 -89 -85 -138 -169 -138s-152 44 -167 139c0 4 2 8 7 8z" />
    <glyph glyph-name="Gcircumflex" unicode="&#x11c;" horiz-adv-x="646" 
d="M469 260l-112 3c-7 1 -8 3 -8 9v89c0 5 3 6 7 6h226c7 0 8 -2 8 -8v-326c1 -5 -1 -8 -6 -9c-70 -27 -139 -34 -197 -34c-234 0 -351 149 -351 334c0 208 148 343 369 343c67 0 126 -7 162 -24c4 -2 6 -6 6 -12v-96c0 -6 -4 -7 -8 -5c-45 23 -97 29 -156 29
c-161 2 -248 -86 -248 -231c0 -130 80 -232 232 -232c34 0 56 3 76 9v155zM414 729l-63 65l-63 -65c-3 -4 -6 -5 -10 -5h-90c-4 0 -6 5 -3 8l113 117c3 2 5 3 10 3h91c5 0 9 -2 11 -4l117 -118c3 -3 1 -6 -4 -6h-97c-6 0 -9 2 -12 5z" />
    <glyph glyph-name="uni0122" unicode="&#x122;" horiz-adv-x="646" 
d="M469 260l-112 3c-7 1 -8 3 -8 9v89c0 5 3 6 7 6h226c7 0 8 -2 8 -8v-326c1 -5 -1 -8 -6 -9c-70 -27 -139 -34 -197 -34c-234 0 -351 149 -351 334c0 208 148 343 369 343c67 0 126 -7 162 -24c4 -2 6 -6 6 -12v-96c0 -6 -4 -7 -8 -5c-45 23 -97 29 -156 29
c-161 2 -248 -86 -248 -231c0 -130 80 -232 232 -232c34 0 56 3 76 9v155zM381 -237h-91c-5 0 -6 5 -4 8c28 43 37 75 37 109c0 19 -6 40 -15 63c-2 4 1 7 4 7h99c4 0 7 -3 10 -6c8 -13 15 -37 15 -58c0 -50 -16 -84 -45 -120c-1 -2 -5 -3 -10 -3z" />
    <glyph glyph-name="Gdotaccent" unicode="&#x120;" horiz-adv-x="646" 
d="M469 260l-112 3c-7 1 -8 3 -8 9v89c0 5 3 6 7 6h226c7 0 8 -2 8 -8v-326c1 -5 -1 -8 -6 -9c-70 -27 -139 -34 -197 -34c-234 0 -351 149 -351 334c0 208 148 343 369 343c67 0 126 -7 162 -24c4 -2 6 -6 6 -12v-96c0 -6 -4 -7 -8 -5c-45 23 -97 29 -156 29
c-161 2 -248 -86 -248 -231c0 -130 80 -232 232 -232c34 0 56 3 76 9v155zM365 733c-41 0 -67 24 -67 60s28 60 69 60s66 -25 66 -60c0 -36 -26 -60 -68 -60z" />
    <glyph glyph-name="uni00470303" horiz-adv-x="646" 
d="M469 260l-112 3c-7 1 -8 3 -8 9v89c0 5 3 6 7 6h226c7 0 8 -2 8 -8v-326c1 -5 -1 -8 -6 -9c-70 -27 -139 -34 -197 -34c-234 0 -351 149 -351 334c0 208 148 343 369 343c67 0 126 -7 162 -24c4 -2 6 -6 6 -12v-96c0 -6 -4 -7 -8 -5c-45 23 -97 29 -156 29
c-161 2 -248 -86 -248 -231c0 -130 80 -232 232 -232c34 0 56 3 76 9v155zM258 726h-67c-6 0 -8 3 -8 7c1 86 47 126 102 126c63 0 95 -50 129 -50c18 0 27 17 30 41c0 4 1 6 6 6h66c5 0 7 -1 7 -6c-4 -96 -46 -125 -97 -125c-61 0 -93 49 -130 49c-15 0 -30 -13 -32 -42
c0 -3 -2 -6 -6 -6z" />
    <glyph glyph-name="Hbar" unicode="&#x126;" horiz-adv-x="669" 
d="M481 380v86h-286v-86h286zM601 548h48c5 0 7 -2 7 -6v-70c0 -5 -2 -6 -7 -6h-48v-458c0 -6 -1 -8 -7 -8h-105c-7 0 -8 2 -8 8v263h-286v-262c0 -6 -2 -9 -8 -9h-103c-7 0 -9 3 -9 9v457h-51c-5 0 -7 2 -7 7v69c0 5 2 6 6 6h52v100c0 7 2 9 8 9h104c6 0 8 -2 8 -8v-101
h286v102c0 4 1 7 7 7h107c4 0 6 -2 6 -7v-102z" />
    <glyph glyph-name="Hcircumflex" unicode="&#x124;" horiz-adv-x="669" 
d="M587 0h-105c-6 0 -8 2 -8 8v279h-279v-278c0 -6 -2 -9 -8 -9h-103c-7 0 -9 3 -9 9v639c0 7 2 9 8 9h104c6 0 8 -2 8 -8v-253h279v254c0 4 2 7 7 7h107c5 0 7 -2 7 -7v-642c0 -6 -2 -8 -8 -8zM395 717l-63 65l-62 -65c-3 -4 -6 -6 -10 -6h-91c-4 0 -5 6 -2 9l112 116
c3 2 5 4 10 4h91c6 0 10 -2 12 -5l116 -117c3 -4 1 -7 -4 -7h-96c-7 0 -9 2 -13 6z" />
    <glyph glyph-name="Idotaccent" unicode="&#x130;" horiz-adv-x="270" 
d="M195 649v-640c0 -7 -2 -9 -8 -9h-105c-6 0 -8 3 -8 9v640c0 7 3 8 8 8h105c6 0 8 -2 8 -8zM133 720c-40 0 -67 25 -67 60c0 36 28 60 69 60s66 -24 66 -60s-25 -60 -68 -60z" />
    <glyph glyph-name="Imacron" unicode="&#x12a;" horiz-adv-x="270" 
d="M195 649v-640c0 -7 -2 -9 -8 -9h-105c-6 0 -8 3 -8 9v640c0 7 3 8 8 8h105c6 0 8 -2 8 -8zM-6 817h283c5 0 7 -2 7 -7v-76c0 -6 -3 -7 -7 -7h-281c-7 0 -9 1 -9 7v76c0 6 2 7 7 7z" />
    <glyph glyph-name="Iogonek" unicode="&#x12e;" horiz-adv-x="270" 
d="M74 14v636c0 4 2 7 7 7h108c4 0 6 -1 6 -6v-641c0 -5 0 -7 -4 -10c-46 -32 -69 -65 -69 -95c0 -33 25 -51 58 -51c18 0 38 2 51 7c4 1 5 0 5 -5v-66c0 -6 -1 -10 -5 -12c-12 -6 -45 -14 -86 -14c-67 0 -132 30 -132 109c0 54 36 97 69 129c-5 2 -8 5 -8 12z" />
    <glyph glyph-name="Itilde" unicode="&#x128;" horiz-adv-x="270" 
d="M195 649v-640c0 -7 -2 -9 -8 -9h-105c-6 0 -8 3 -8 9v640c0 7 3 8 8 8h105c6 0 8 -2 8 -8zM40 715h-67c-5 0 -7 3 -7 7c0 86 47 126 101 126c64 0 96 -50 130 -50c18 0 27 17 29 41c1 4 2 6 7 6h66c5 0 6 -1 6 -6c-3 -96 -46 -125 -97 -125c-60 0 -92 49 -129 49
c-15 0 -30 -14 -33 -42c0 -3 -1 -6 -6 -6z" />
    <glyph glyph-name="Jcircumflex" unicode="&#x134;" horiz-adv-x="322" 
d="M131 178v472c0 4 2 7 8 7h106c5 0 7 -1 7 -7v-460c0 -33 -2 -67 -8 -93c-23 -105 -99 -150 -201 -150c-17 0 -33 1 -45 4c-6 2 -7 5 -7 11v92c0 5 2 7 9 6c14 -2 22 -2 31 -2c62 0 100 25 100 120zM248 715l-63 65l-62 -65c-3 -4 -6 -5 -10 -5h-90c-5 0 -6 5 -3 8
l112 116c4 2 5 4 10 4h91c6 0 10 -2 12 -5l117 -117c2 -3 1 -6 -5 -6h-96c-6 0 -9 2 -13 5z" />
    <glyph glyph-name="uni0136" unicode="&#x136;" horiz-adv-x="584" 
d="M249 -39h99c4 0 7 -2 10 -6c8 -12 15 -36 15 -57c0 -51 -16 -85 -45 -120c-1 -2 -5 -3 -10 -3h-91c-5 0 -6 4 -4 7c28 43 37 76 37 110c0 19 -6 39 -15 63c-2 4 1 6 4 6zM317 338l288 -327c4 -5 1 -11 -5 -11h-127c-8 0 -11 1 -17 8l-261 297v-296c0 -7 -2 -9 -8 -9h-104
c-6 0 -9 2 -9 9v641c0 5 2 7 8 7h105c6 0 8 -2 8 -8v-294l257 296c3 4 6 6 12 6h115c9 0 10 -6 6 -10l-268 -300c-2 -3 -2 -5 0 -9z" />
    <glyph glyph-name="Lacute" unicode="&#x139;" horiz-adv-x="501" 
d="M470 0h-386c-8 0 -10 3 -10 10v638c0 5 2 9 8 9h107c4 0 6 -3 6 -7v-541h294c6 0 8 -3 7 -7l-17 -94c-1 -7 -4 -8 -9 -8zM72 728l119 112c5 4 7 4 12 4h126c5 0 6 -4 3 -8l-137 -109c-4 -5 -8 -7 -14 -7h-105c-5 0 -7 5 -4 8z" />
    <glyph glyph-name="Lcaron" unicode="&#x13d;" horiz-adv-x="501" 
d="M470 0h-386c-8 0 -10 3 -10 10v638c0 5 2 9 8 9h107c4 0 6 -3 6 -7v-541h294c6 0 8 -3 7 -7l-17 -94c-1 -7 -4 -8 -9 -8zM333 422l-1 229c0 6 3 7 7 7h89c5 0 7 -2 6 -7l-18 -230c-1 -4 -4 -5 -7 -5h-69c-4 0 -7 1 -7 6z" />
    <glyph glyph-name="uni013B" unicode="&#x13b;" horiz-adv-x="501" 
d="M470 0h-386c-8 0 -10 3 -10 10v638c0 5 2 9 8 9h107c4 0 6 -3 6 -7v-541h294c6 0 8 -3 7 -7l-17 -94c-1 -7 -4 -8 -9 -8zM293 -237h-91c-5 0 -6 4 -4 7c28 43 37 76 37 110c0 19 -6 39 -15 63c-2 4 1 6 4 6h99c4 0 7 -2 10 -6c8 -12 15 -36 15 -57
c0 -50 -16 -85 -45 -120c-1 -2 -5 -3 -10 -3z" />
    <glyph glyph-name="Ldot" unicode="&#x13f;" horiz-adv-x="501" 
d="M470 0h-386c-8 0 -10 3 -10 10v638c0 5 2 9 8 9h107c4 0 6 -3 6 -7v-541h294c6 0 8 -3 7 -7l-17 -94c-1 -7 -4 -8 -9 -8zM388 309c-41 0 -67 25 -67 60c0 36 28 60 69 60s66 -24 66 -60s-26 -60 -68 -60z" />
    <glyph glyph-name="Nacute" unicode="&#x143;" horiz-adv-x="683" 
d="M180 0h-97c-6 0 -9 1 -9 9v641c0 5 2 7 7 7h141c8 0 9 -2 12 -7c74 -132 227 -414 262 -489h1c-1 28 -3 61 -3 155v333c0 5 3 8 9 8h96c7 0 9 -3 9 -9v-639c0 -7 -3 -9 -10 -9h-127c-7 0 -10 2 -13 7c-52 102 -235 425 -274 522h-1c4 -51 5 -95 5 -186v-334
c0 -6 -2 -9 -8 -9zM271 724l120 112c4 4 7 5 12 5h126c5 0 6 -5 3 -9l-137 -109c-5 -5 -8 -7 -14 -7h-106c-5 0 -6 5 -4 8z" />
    <glyph glyph-name="Ncaron" unicode="&#x147;" horiz-adv-x="683" 
d="M180 0h-97c-6 0 -9 1 -9 9v641c0 5 2 7 7 7h141c8 0 9 -2 12 -7c74 -132 227 -414 262 -489h1c-1 28 -3 61 -3 155v333c0 5 3 8 9 8h96c7 0 9 -3 9 -9v-639c0 -7 -3 -9 -10 -9h-127c-7 0 -10 2 -13 7c-52 102 -235 425 -274 522h-1c4 -51 5 -95 5 -186v-334
c0 -6 -2 -9 -8 -9zM285 830l63 -65l62 65c3 3 6 5 10 5h90c5 0 6 -5 3 -8l-112 -116c-4 -3 -5 -4 -10 -4h-91c-6 0 -10 2 -12 5l-117 117c-2 3 -1 6 4 6h97c6 0 9 -2 13 -5z" />
    <glyph glyph-name="uni0145" unicode="&#x145;" horiz-adv-x="683" 
d="M180 0h-97c-6 0 -9 1 -9 9v641c0 5 2 7 7 7h141c8 0 9 -2 12 -7c74 -132 227 -414 262 -489h1c-1 28 -3 61 -3 155v333c0 5 3 8 9 8h96c7 0 9 -3 9 -9v-639c0 -7 -3 -9 -10 -9h-127c-7 0 -10 2 -13 7c-52 102 -235 425 -274 522h-1c4 -51 5 -95 5 -186v-334
c0 -6 -2 -9 -8 -9zM357 -228h-91c-5 0 -6 5 -4 8c28 43 37 76 37 110c0 19 -6 39 -15 62c-2 4 0 7 4 7h98c5 0 8 -2 11 -6c7 -12 15 -37 15 -57c0 -51 -16 -85 -45 -120c-2 -2 -5 -4 -10 -4z" />
    <glyph glyph-name="Ohungarumlaut" unicode="&#x150;" horiz-adv-x="692" 
d="M346 667c196 0 308 -150 309 -335c1 -207 -127 -342 -309 -342c-194 0 -310 144 -310 339c0 192 126 338 310 338zM161 329c0 -129 66 -232 189 -232c113 0 181 93 180 232c0 140 -69 231 -186 231c-106 0 -183 -83 -183 -231zM187 736l72 110c2 5 5 6 10 6h100
c4 0 6 -4 3 -8l-87 -111c-4 -3 -6 -5 -11 -5h-83c-4 0 -6 3 -4 8zM374 737l70 109c4 5 7 6 13 6h99c5 0 7 -4 4 -9l-86 -108c-4 -5 -8 -6 -13 -6h-83c-4 0 -7 3 -4 8z" />
    <glyph glyph-name="Omacron" unicode="&#x14c;" horiz-adv-x="692" 
d="M346 667c196 0 308 -150 309 -335c1 -207 -127 -342 -309 -342c-194 0 -310 144 -310 339c0 192 126 338 310 338zM161 329c0 -129 66 -232 189 -232c113 0 181 93 180 232c0 140 -69 231 -186 231c-106 0 -183 -83 -183 -231zM207 828h283c5 0 7 -2 7 -7v-76
c0 -6 -2 -8 -7 -8h-281c-6 0 -9 1 -9 8v76c0 5 2 7 7 7z" />
    <glyph glyph-name="Racute" unicode="&#x154;" horiz-adv-x="587" 
d="M185 0h-103c-6 0 -8 2 -8 8v639c0 5 1 9 7 9c79 2 121 3 198 3c160 0 254 -69 254 -197c0 -87 -56 -149 -129 -176c33 -46 153 -225 182 -275c3 -6 4 -11 -2 -11h-125c-8 0 -11 2 -14 5c-29 45 -99 160 -143 230c-7 12 -12 17 -23 17h-86v-244c0 -6 -3 -8 -8 -8zM193 355
h87c81 0 133 36 133 100c0 66 -53 99 -138 99c-34 0 -66 -1 -82 -2v-197zM195 730l119 112c5 5 7 5 12 5h127c4 0 5 -5 2 -8l-137 -110c-4 -5 -8 -6 -14 -6h-105c-5 0 -7 4 -4 7z" />
    <glyph glyph-name="Rcaron" unicode="&#x158;" horiz-adv-x="587" 
d="M185 0h-103c-6 0 -8 2 -8 8v639c0 5 1 9 7 9c79 2 121 3 198 3c160 0 254 -69 254 -197c0 -87 -56 -149 -129 -176c33 -46 153 -225 182 -275c3 -6 4 -11 -2 -11h-125c-8 0 -11 2 -14 5c-29 45 -99 160 -143 230c-7 12 -12 17 -23 17h-86v-244c0 -6 -3 -8 -8 -8zM193 355
h87c81 0 133 36 133 100c0 66 -53 99 -138 99c-34 0 -66 -1 -82 -2v-197zM211 836l63 -65l62 65c4 3 7 5 11 5h90c4 0 6 -5 3 -8l-113 -117c-3 -2 -5 -3 -10 -3h-91c-5 0 -9 2 -11 5l-117 117c-3 3 -1 6 4 6h97c6 0 9 -2 12 -5z" />
    <glyph glyph-name="uni0156" unicode="&#x156;" horiz-adv-x="587" 
d="M185 0h-103c-6 0 -8 2 -8 8v639c0 5 1 9 7 9c79 2 121 3 198 3c160 0 254 -69 254 -197c0 -87 -56 -149 -129 -176c33 -46 153 -225 182 -275c3 -6 4 -11 -2 -11h-125c-8 0 -11 2 -14 5c-29 45 -99 160 -143 230c-7 12 -12 17 -23 17h-86v-244c0 -6 -3 -8 -8 -8zM193 355
h87c81 0 133 36 133 100c0 66 -53 99 -138 99c-34 0 -66 -1 -82 -2v-197zM316 -220h-91c-5 0 -6 4 -4 7c28 44 37 76 37 110c0 19 -6 39 -15 63c-2 4 1 6 4 6h99c4 0 7 -2 10 -5c8 -13 15 -37 15 -58c0 -50 -16 -85 -45 -120c-1 -2 -5 -3 -10 -3z" />
    <glyph glyph-name="Sacute" unicode="&#x15a;" horiz-adv-x="496" 
d="M218 -10c-73 0 -134 14 -175 36c-5 3 -7 7 -7 15v104c0 4 4 6 8 4c54 -35 120 -52 178 -52c82 0 117 32 117 75c0 37 -24 65 -100 97l-48 20c-123 52 -155 114 -155 189c0 107 81 189 232 189c63 0 120 -9 153 -26c5 -3 6 -6 6 -13v-97c0 -4 -3 -8 -9 -4
c-38 22 -93 33 -151 33c-86 0 -113 -36 -113 -71c0 -36 23 -61 102 -94l38 -16c130 -54 167 -117 167 -196c0 -117 -92 -193 -243 -193zM171 736l120 112c4 4 7 5 12 5h126c5 0 6 -5 3 -9l-137 -109c-4 -5 -8 -7 -14 -7h-105c-6 0 -7 5 -5 8z" />
    <glyph glyph-name="uni015E" unicode="&#x15e;" horiz-adv-x="496" 
d="M256 395l38 -16c130 -54 167 -117 167 -196c0 -100 -68 -171 -183 -189l-25 -34c55 -17 85 -46 85 -96c0 -56 -49 -95 -119 -95c-28 0 -58 5 -74 13c-4 2 -5 5 -5 8v52c0 4 1 6 6 5c18 -9 46 -14 65 -14c25 0 42 9 42 30c0 22 -29 39 -94 47c-2 4 -3 22 0 26l43 54
c-66 2 -121 16 -159 36c-5 3 -7 7 -7 15v104c0 4 4 6 8 4c54 -35 120 -52 178 -52c82 0 117 32 117 75c0 37 -24 65 -100 97l-48 20c-123 52 -155 114 -155 189c0 107 81 189 232 189c63 0 120 -9 153 -26c5 -3 6 -6 6 -13v-97c0 -4 -3 -8 -9 -4c-38 22 -93 33 -151 33
c-86 0 -113 -36 -113 -71c0 -36 23 -61 102 -94z" />
    <glyph glyph-name="Scircumflex" unicode="&#x15c;" horiz-adv-x="496" 
d="M218 -10c-73 0 -134 14 -175 36c-5 3 -7 7 -7 15v104c0 4 4 6 8 4c54 -35 120 -52 178 -52c82 0 117 32 117 75c0 37 -24 65 -100 97l-48 20c-123 52 -155 114 -155 189c0 107 81 189 232 189c63 0 120 -9 153 -26c5 -3 6 -6 6 -13v-97c0 -4 -3 -8 -9 -4
c-38 22 -93 33 -151 33c-86 0 -113 -36 -113 -71c0 -36 23 -61 102 -94l38 -16c130 -54 167 -117 167 -196c0 -117 -92 -193 -243 -193zM304 724l-63 65l-62 -65c-3 -5 -6 -6 -10 -6h-91c-4 0 -5 6 -2 9l112 116c4 2 5 4 10 4h91c6 0 10 -2 12 -5l117 -117c2 -4 0 -7 -5 -7
h-96c-7 0 -9 2 -13 6z" />
    <glyph glyph-name="uni0218" unicode="&#x218;" horiz-adv-x="496" 
d="M218 -10c-73 0 -134 14 -175 36c-5 3 -7 7 -7 15v104c0 4 4 6 8 4c54 -35 120 -52 178 -52c82 0 117 32 117 75c0 37 -24 65 -100 97l-48 20c-123 52 -155 114 -155 189c0 107 81 189 232 189c63 0 120 -9 153 -26c5 -3 6 -6 6 -13v-97c0 -4 -3 -8 -9 -4
c-38 22 -93 33 -151 33c-86 0 -113 -36 -113 -71c0 -36 23 -61 102 -94l38 -16c130 -54 167 -117 167 -196c0 -117 -92 -193 -243 -193zM253 -240h-91c-5 0 -6 4 -4 7c28 44 37 76 37 110c0 19 -6 39 -15 63c-2 4 1 6 4 6h99c4 0 7 -2 10 -6c8 -12 15 -36 15 -57
c0 -50 -16 -85 -45 -120c-2 -2 -5 -3 -10 -3z" />
    <glyph glyph-name="Tcaron" unicode="&#x164;" horiz-adv-x="540" 
d="M210 9v539h-203c-5 0 -7 3 -6 8l13 93c1 6 3 8 9 8h497c6 0 9 -2 10 -9l9 -91c1 -6 -2 -9 -7 -9h-202v-539c0 -6 -3 -9 -8 -9h-103c-7 -1 -9 2 -9 9zM211 835l63 -65l62 65c4 4 6 6 11 6h90c4 0 5 -6 3 -9l-113 -116c-3 -3 -5 -3 -10 -3h-91c-5 0 -10 1 -11 4l-117 117
c-3 4 -1 7 3 7h98c6 0 9 -3 12 -6z" />
    <glyph glyph-name="uni0162" unicode="&#x162;" horiz-adv-x="545" 
d="M531 648l10 -91c1 -6 -2 -9 -8 -9h-201v-539c0 -6 -3 -9 -9 -9h-12l-28 -38c54 -16 86 -47 86 -96c0 -56 -48 -94 -119 -94c-30 0 -59 5 -74 13c-5 3 -6 5 -6 11v47c0 6 3 8 8 6c18 -8 44 -13 63 -13c25 0 43 9 43 29c0 22 -29 40 -94 48c-3 3 -3 22 0 25l47 62h-17
c-6 -1 -9 2 -9 9v539h-202c-6 0 -7 3 -6 8l12 93c1 6 4 8 10 8h496c7 0 9 -2 10 -9z" />
    <glyph glyph-name="uni021A" unicode="&#x21a;" horiz-adv-x="540" 
d="M210 9v539h-203c-5 0 -7 3 -6 8l13 93c1 6 3 8 9 8h497c6 0 9 -2 10 -9l9 -91c1 -6 -2 -9 -7 -9h-202v-539c0 -6 -3 -9 -8 -9h-103c-7 -1 -9 2 -9 9zM281 -233h-92c-4 0 -5 4 -3 7c28 44 37 76 37 110c0 19 -6 39 -16 63c-1 4 1 6 4 6h99c4 0 8 -2 10 -6
c8 -12 16 -36 16 -57c0 -50 -17 -85 -45 -120c-2 -2 -6 -3 -10 -3z" />
    <glyph glyph-name="Ubreve" unicode="&#x16c;" horiz-adv-x="652" 
d="M186 649v-394c0 -95 46 -158 142 -158c79 0 138 38 138 160v391c0 6 2 9 8 9h105c6 0 8 -3 8 -8v-398c0 -187 -115 -261 -263 -261c-158 0 -259 84 -259 256v402c0 6 1 9 8 9h105c6 0 8 -2 8 -8zM164 840h83c4 0 5 -2 7 -7c12 -30 36 -49 71 -49c33 0 60 14 72 50
c2 3 4 6 8 6h82c7 0 7 -5 6 -8c-16 -90 -84 -138 -168 -138c-85 0 -152 44 -167 138c-1 4 1 8 6 8z" />
    <glyph glyph-name="Uhungarumlaut" unicode="&#x170;" horiz-adv-x="652" 
d="M186 649v-394c0 -95 46 -158 142 -158c79 0 138 38 138 160v391c0 6 2 9 8 9h105c6 0 8 -3 8 -8v-398c0 -187 -115 -261 -263 -261c-158 0 -259 84 -259 256v402c0 6 1 9 8 9h105c6 0 8 -2 8 -8zM175 724l71 110c3 5 5 6 10 6h100c5 0 6 -4 3 -8l-87 -111
c-4 -3 -5 -4 -11 -4h-83c-4 0 -6 2 -3 7zM362 725l70 109c3 5 6 7 12 7h99c5 0 8 -5 4 -10l-86 -107c-4 -6 -8 -7 -13 -7h-83c-4 0 -6 3 -3 8z" />
    <glyph glyph-name="Umacron" unicode="&#x16a;" horiz-adv-x="652" 
d="M186 649v-394c0 -95 46 -158 142 -158c79 0 138 38 138 160v391c0 6 2 9 8 9h105c6 0 8 -3 8 -8v-398c0 -187 -115 -261 -263 -261c-158 0 -259 84 -259 256v402c0 6 1 9 8 9h105c6 0 8 -2 8 -8zM186 821h284c4 0 6 -3 6 -7v-77c0 -5 -2 -7 -7 -7h-281c-6 0 -9 1 -9 7v76
c0 6 2 8 7 8z" />
    <glyph glyph-name="Uogonek" unicode="&#x172;" horiz-adv-x="652" 
d="M486 28c-75 -47 -96 -83 -96 -114c0 -27 21 -47 56 -47c19 0 35 3 47 7c6 1 8 -1 8 -6v-62c0 -8 -2 -11 -7 -14c-17 -9 -47 -16 -81 -16c-59 0 -127 26 -127 105c0 37 22 76 65 111c-6 -1 -10 -2 -25 -2c-158 0 -261 81 -261 250v408c0 6 1 9 8 9h105c6 0 8 -2 8 -8v-398
c0 -95 48 -154 144 -154c79 0 140 34 140 156v395c0 6 2 9 8 9h105c6 0 8 -3 8 -8v-403c0 -110 -43 -178 -105 -218z" />
    <glyph glyph-name="Uring" unicode="&#x16e;" horiz-adv-x="652" 
d="M186 649v-394c0 -95 46 -158 142 -158c79 0 138 38 138 160v391c0 6 2 9 8 9h105c6 0 8 -3 8 -8v-398c0 -187 -115 -261 -263 -261c-158 0 -259 84 -259 256v402c0 6 1 9 8 9h105c6 0 8 -2 8 -8zM215 780c0 57 47 90 109 90c63 0 109 -35 109 -90c0 -58 -47 -92 -109 -92
c-63 0 -109 34 -109 92zM279 780c0 -24 19 -40 45 -40s45 15 45 40c0 24 -19 40 -45 40c-27 0 -45 -17 -45 -40z" />
    <glyph glyph-name="Utilde" unicode="&#x168;" horiz-adv-x="652" 
d="M186 649v-394c0 -95 46 -158 142 -158c79 0 138 38 138 160v391c0 6 2 9 8 9h105c6 0 8 -3 8 -8v-398c0 -187 -115 -261 -263 -261c-158 0 -259 84 -259 256v402c0 6 1 9 8 9h105c6 0 8 -2 8 -8zM240 722h-68c-5 0 -7 2 -7 6c1 86 47 127 102 127c63 0 95 -51 129 -51
c18 0 27 17 30 42c0 3 1 6 6 6h66c5 0 7 -1 7 -6c-4 -96 -46 -126 -97 -126c-61 0 -93 49 -130 49c-15 0 -30 -13 -32 -42c0 -2 -2 -5 -6 -5z" />
    <glyph glyph-name="Wacute" unicode="&#x1e82;" horiz-adv-x="855" 
d="M503 649c39 -165 87 -366 114 -503h1c10 56 36 189 106 503c1 5 4 8 10 8h105c6 0 8 -3 7 -9l-169 -642c-2 -5 -4 -6 -10 -6h-108c-7 0 -8 2 -10 6c-30 130 -97 416 -117 515h-1c-18 -101 -96 -390 -128 -512c-1 -5 -3 -9 -10 -9h-106c-6 0 -8 3 -11 8l-167 641
c-1 6 1 8 6 8h113c5 0 9 0 10 -7c85 -357 103 -448 111 -503h1c12 65 42 175 119 502c1 6 5 8 10 8h116c5 0 6 -2 8 -8zM371 729l120 112c4 4 6 4 11 4h127c4 0 5 -4 2 -8l-137 -109c-4 -5 -8 -7 -14 -7h-105c-5 0 -7 5 -4 8z" />
    <glyph glyph-name="Wcircumflex" unicode="&#x174;" horiz-adv-x="855" 
d="M503 649c39 -165 87 -366 114 -503h1c10 56 36 189 106 503c1 5 4 8 10 8h105c6 0 8 -3 7 -9l-169 -642c-2 -5 -4 -6 -10 -6h-108c-7 0 -8 2 -10 6c-30 130 -97 416 -117 515h-1c-18 -101 -96 -390 -128 -512c-1 -5 -3 -9 -10 -9h-106c-6 0 -8 3 -11 8l-167 641
c-1 6 1 8 6 8h113c5 0 9 0 10 -7c85 -357 103 -448 111 -503h1c12 65 42 175 119 502c1 6 5 8 10 8h116c5 0 6 -2 8 -8zM492 720l-63 65l-62 -64c-3 -5 -6 -6 -10 -6h-90c-5 0 -6 5 -3 8l112 117c4 2 5 3 10 3h91c6 0 10 -2 12 -4l117 -118c2 -3 1 -6 -5 -6h-96
c-6 0 -9 2 -13 5z" />
    <glyph glyph-name="Wdieresis" unicode="&#x1e84;" horiz-adv-x="855" 
d="M503 649c39 -165 87 -366 114 -503h1c10 56 36 189 106 503c1 5 4 8 10 8h105c6 0 8 -3 7 -9l-169 -642c-2 -5 -4 -6 -10 -6h-108c-7 0 -8 2 -10 6c-30 130 -97 416 -117 515h-1c-18 -101 -96 -390 -128 -512c-1 -5 -3 -9 -10 -9h-106c-6 0 -8 3 -11 8l-167 641
c-1 6 1 8 6 8h113c5 0 9 0 10 -7c85 -357 103 -448 111 -503h1c12 65 42 175 119 502c1 6 5 8 10 8h116c5 0 6 -2 8 -8zM330 718c-38 0 -64 23 -64 59c0 35 28 60 66 60c39 0 64 -26 64 -60c0 -36 -27 -59 -66 -59zM538 718c-37 0 -64 23 -64 59c0 35 28 60 66 60
c37 0 64 -25 64 -60c0 -36 -27 -59 -66 -59z" />
    <glyph glyph-name="Wgrave" unicode="&#x1e80;" horiz-adv-x="855" 
d="M503 649c39 -165 87 -366 114 -503h1c10 56 36 189 106 503c1 5 4 8 10 8h105c6 0 8 -3 7 -9l-169 -642c-2 -5 -4 -6 -10 -6h-108c-7 0 -8 2 -10 6c-30 130 -97 416 -117 515h-1c-18 -101 -96 -390 -128 -512c-1 -5 -3 -9 -10 -9h-106c-6 0 -8 3 -11 8l-167 641
c-1 6 1 8 6 8h113c5 0 9 0 10 -7c85 -357 103 -448 111 -503h1c12 65 42 175 119 502c1 6 5 8 10 8h116c5 0 6 -2 8 -8zM380 844l116 -110c3 -5 1 -8 -5 -8h-100c-6 0 -9 0 -14 4l-138 110c-3 5 -1 9 4 9h124c6 0 9 -1 13 -5z" />
    <glyph glyph-name="Ycircumflex" unicode="&#x176;" horiz-adv-x="538" 
d="M200 265l-214 383c-4 6 1 9 5 9h121c6 0 7 -2 9 -5c106 -206 140 -269 154 -303c16 35 48 101 149 302c1 5 3 6 8 6h117c5 0 6 -3 4 -8l-217 -387c-6 -10 -8 -18 -8 -30v-223c0 -7 -2 -9 -9 -9h-102c-8 0 -10 3 -10 9v227c0 13 -1 18 -7 29zM328 722l-63 65l-62 -65
c-4 -4 -7 -5 -11 -5h-90c-4 0 -6 5 -3 8l113 116c3 2 5 4 10 4h91c5 0 9 -2 11 -5l117 -117c3 -4 1 -6 -4 -6h-97c-6 0 -9 1 -12 5z" />
    <glyph glyph-name="Ygrave" unicode="&#x1ef2;" horiz-adv-x="538" 
d="M200 265l-214 383c-4 6 1 9 5 9h121c6 0 7 -2 9 -5c106 -206 140 -269 154 -303c16 35 48 101 149 302c1 5 3 6 8 6h117c5 0 6 -3 4 -8l-217 -387c-6 -10 -8 -18 -8 -30v-223c0 -7 -2 -9 -9 -9h-102c-8 0 -10 3 -10 9v227c0 13 -1 18 -7 29zM224 837l115 -109
c4 -6 1 -9 -5 -9h-99c-6 0 -10 1 -14 5l-138 110c-3 4 -1 8 4 8h124c6 0 9 0 13 -5z" />
    <glyph glyph-name="Zacute" unicode="&#x179;" horiz-adv-x="547" 
d="M510 0h-487c-4 0 -8 1 -8 8v67c0 6 1 8 3 12l347 462h-335c-5 0 -8 1 -7 7l15 93c1 6 4 8 9 8h465c5 0 6 -2 6 -6v-72c0 -5 -1 -9 -5 -14l-341 -456h358c5 0 7 -3 5 -9l-16 -92c-1 -6 -3 -8 -9 -8zM198 734l120 112c4 4 7 4 12 4h126c5 0 6 -5 3 -8l-137 -110
c-5 -5 -8 -6 -14 -6h-106c-5 0 -6 4 -4 8z" />
    <glyph glyph-name="Zdotaccent" unicode="&#x17b;" horiz-adv-x="547" 
d="M510 0h-487c-4 0 -8 1 -8 8v67c0 6 1 8 3 12l347 462h-335c-5 0 -8 1 -7 7l15 93c1 6 4 8 9 8h465c5 0 6 -2 6 -6v-72c0 -5 -1 -9 -5 -14l-341 -456h358c5 0 7 -3 5 -9l-16 -92c-1 -6 -3 -8 -9 -8zM269 724c-41 0 -68 24 -68 60s28 60 70 60c40 0 66 -25 66 -60
c0 -36 -26 -60 -68 -60z" />
    <glyph glyph-name="uni018F" unicode="&#x18f;" horiz-adv-x="657" 
d="M203 369h294v6c-4 88 -51 184 -204 184c-75 0 -147 -20 -211 -61c-4 -3 -7 -1 -7 5v96c0 5 1 9 4 11c52 30 131 57 228 57c230 0 314 -168 314 -334c0 -201 -110 -343 -305 -343c-203 0 -283 150 -283 292c0 41 2 78 7 82c9 5 99 5 163 5zM493 266h-250
c-66 0 -78 -1 -81 -3c0 -4 -1 -11 -1 -15c0 -60 44 -151 163 -151c100 0 158 58 169 169z" />
    <glyph glyph-name="ampersand.alt" horiz-adv-x="694" 
d="M260 98c41 0 73 14 105 47c-46 39 -100 94 -144 145c-48 -31 -65 -62 -65 -99c0 -55 48 -93 104 -93zM557 393h115c5 0 6 -4 3 -9c-38 -48 -117 -151 -156 -208c52 -43 94 -63 125 -75c6 -2 7 -4 7 -12v-94c0 -7 -4 -8 -10 -8c-58 8 -133 46 -196 95
c-64 -67 -121 -92 -201 -92c-139 0 -206 94 -206 186c0 74 36 125 129 183c-37 44 -56 88 -56 140c0 97 73 168 179 168c103 0 166 -63 166 -150c0 -64 -36 -112 -130 -169c28 -31 82 -84 116 -113c35 54 83 125 103 151c4 5 7 7 12 7zM350 514c0 35 -21 68 -63 68
c-41 0 -65 -32 -65 -74c0 -31 14 -63 50 -97c61 40 78 70 78 103z" />
    <glyph glyph-name="ampersand.alt2" horiz-adv-x="694" 
d="M260 98c41 0 73 14 105 47c-46 39 -100 94 -144 145c-48 -31 -65 -62 -65 -99c0 -55 48 -93 104 -93zM476 208c94 -77 137 -95 168 -107c6 -2 7 -4 7 -12v-94c0 -7 -4 -8 -10 -8c-58 8 -133 46 -196 95c-64 -67 -121 -92 -201 -92c-139 0 -206 94 -206 186
c0 74 36 125 129 183c-37 44 -56 88 -56 140c0 97 73 168 179 168c103 0 166 -63 166 -150c0 -64 -36 -112 -130 -169c28 -31 82 -85 150 -140zM350 514c0 35 -21 68 -63 68c-41 0 -65 -32 -65 -74c0 -31 14 -63 50 -97c61 40 78 70 78 103z" />
    <glyph glyph-name="abreve" unicode="&#x103;" horiz-adv-x="496" 
d="M316 97v123c-15 2 -32 3 -55 3c-79 0 -114 -26 -114 -69c0 -37 26 -69 98 -69c26 0 49 3 71 12zM433 305v-203c0 -22 0 -42 2 -63c0 -2 0 -3 -2 -4c-82 -35 -140 -45 -208 -45c-109 0 -196 51 -196 164c0 106 95 159 225 159c30 0 53 -1 62 -2v12c0 23 -13 75 -101 75
c-50 0 -94 -10 -131 -28c-3 -1 -8 0 -8 6v87c0 5 1 7 6 10c43 20 98 30 152 30c139 0 199 -87 199 -198zM84 694h80c4 0 6 -1 6 -4c12 -32 35 -51 73 -51c35 0 63 15 74 50c1 4 2 5 5 5h82c4 0 5 -3 4 -6c-16 -84 -75 -136 -166 -136c-85 0 -148 44 -164 136c-1 5 2 6 6 6z
" />
    <glyph glyph-name="amacron" unicode="&#x101;" horiz-adv-x="496" 
d="M316 97v123c-15 2 -32 3 -55 3c-79 0 -114 -26 -114 -69c0 -37 26 -69 98 -69c26 0 49 3 71 12zM433 305v-203c0 -22 0 -42 2 -63c0 -2 0 -3 -2 -4c-82 -35 -140 -45 -208 -45c-109 0 -196 51 -196 164c0 106 95 159 225 159c30 0 53 -1 62 -2v12c0 23 -13 75 -101 75
c-50 0 -94 -10 -131 -28c-3 -1 -8 0 -8 6v87c0 5 1 7 6 10c43 20 98 30 152 30c139 0 199 -87 199 -198zM109 670h279c4 0 6 -2 6 -7v-72c0 -4 -2 -6 -6 -6h-280c-5 0 -6 2 -6 7v71c0 6 3 7 7 7z" />
    <glyph glyph-name="aogonek" unicode="&#x105;" horiz-adv-x="496" 
d="M322 100v122c-9 2 -33 4 -57 4c-76 0 -118 -27 -118 -72c0 -38 30 -69 102 -69c26 0 53 6 73 15zM228 -10c-111 0 -199 48 -199 161c0 106 97 162 229 162c31 0 54 -1 64 -2v11c0 24 -12 77 -100 77c-49 0 -96 -12 -137 -34c-4 -2 -8 0 -8 5v88c0 5 1 7 6 9
c44 23 106 36 161 36c135 0 195 -87 195 -198v-200c0 -22 1 -45 3 -67c0 -5 0 -7 -6 -9c-83 -44 -115 -81 -115 -114c0 -29 22 -47 58 -47c20 0 38 3 50 7c6 2 8 -1 8 -6v-63c0 -8 -2 -11 -7 -14c-17 -9 -50 -15 -85 -15c-60 0 -132 26 -132 103c0 46 35 87 82 115
c-24 -4 -45 -5 -67 -5z" />
    <glyph glyph-name="cacute" unicode="&#x107;" horiz-adv-x="431" 
d="M406 103v-89c0 -5 -1 -7 -5 -8c-32 -13 -72 -16 -111 -16c-162 0 -258 111 -258 255c0 148 110 258 275 258c50 0 77 -5 94 -11c4 -2 5 -5 5 -11l-1 -89c0 -7 -4 -7 -8 -6c-21 8 -47 13 -86 13c-91 0 -155 -54 -155 -150c0 -109 79 -151 156 -151c36 0 67 3 87 10
c5 2 7 -1 7 -5zM191 562l99 141c3 6 7 9 11 9h115c7 0 9 -3 6 -9l-122 -142c-4 -4 -8 -6 -13 -6h-93c-4 0 -5 4 -3 7z" />
    <glyph glyph-name="ccaron" unicode="&#x10d;" horiz-adv-x="431" 
d="M406 103v-89c0 -5 -1 -7 -5 -8c-32 -13 -72 -16 -111 -16c-162 0 -258 111 -258 255c0 148 110 258 275 258c50 0 77 -5 94 -11c4 -2 5 -5 5 -11l-1 -89c0 -7 -4 -7 -8 -6c-21 8 -47 13 -86 13c-91 0 -155 -54 -155 -150c0 -109 79 -151 156 -151c36 0 67 3 87 10
c5 2 7 -1 7 -5zM200 704l63 -90l63 91c1 2 3 3 8 3h76c5 0 7 -4 4 -8l-101 -140c-2 -4 -4 -5 -8 -5h-89c-5 0 -7 2 -9 5l-103 141c-3 4 -1 7 3 7h84c5 0 7 -1 9 -4z" />
    <glyph glyph-name="ccircumflex" unicode="&#x109;" horiz-adv-x="431" 
d="M406 103v-89c0 -5 -1 -7 -5 -8c-32 -13 -72 -16 -111 -16c-162 0 -258 111 -258 255c0 148 110 258 275 258c50 0 77 -5 94 -11c4 -2 5 -5 5 -11l-1 -89c0 -7 -4 -7 -8 -6c-21 8 -47 13 -86 13c-91 0 -155 -54 -155 -150c0 -109 79 -151 156 -151c36 0 67 3 87 10
c5 2 7 -1 7 -5zM313 561l-63 90l-63 -91c-1 -2 -3 -3 -8 -3h-76c-5 0 -7 4 -4 8l101 140c2 4 4 5 8 5h89c5 0 7 -2 9 -5l104 -141c2 -4 0 -7 -4 -7h-83c-6 0 -8 1 -10 4z" />
    <glyph glyph-name="cdotaccent" unicode="&#x10b;" horiz-adv-x="431" 
d="M406 103v-89c0 -5 -1 -7 -5 -8c-32 -13 -72 -16 -111 -16c-162 0 -258 111 -258 255c0 148 110 258 275 258c50 0 77 -5 94 -11c4 -2 5 -5 5 -11l-1 -89c0 -7 -4 -7 -8 -6c-21 8 -47 13 -86 13c-91 0 -155 -54 -155 -150c0 -109 79 -151 156 -151c36 0 67 3 87 10
c5 2 7 -1 7 -5zM264 565c-42 0 -69 28 -69 69s30 69 70 69c42 0 68 -29 68 -69c0 -41 -28 -69 -69 -69z" />
    <glyph glyph-name="dcaron" unicode="&#x10f;" horiz-adv-x="609" 
d="M539 477l-1 228c0 5 1 7 6 7h77c6 0 7 -2 6 -8l-14 -226c0 -5 -4 -8 -7 -8h-60c-6 0 -7 1 -7 7zM289 -10c-145 0 -256 84 -256 252c0 145 108 261 284 261c14 0 26 -1 42 -3v205c0 5 3 7 7 7h108c5 0 6 -2 6 -6v-604c0 -20 1 -46 3 -64c0 -5 -1 -7 -6 -9
c-65 -28 -128 -39 -188 -39zM359 102v293c-12 5 -28 7 -46 7c-89 0 -156 -57 -156 -154c0 -109 65 -154 144 -154c20 0 41 2 58 8z" />
    <glyph glyph-name="dcroat" unicode="&#x111;" horiz-adv-x="543" 
d="M359 105v264c-12 6 -27 10 -53 10c-88 0 -150 -52 -150 -142c0 -105 70 -143 145 -143c23 0 41 3 58 11zM480 636h69c5 0 6 0 6 -5v-75c0 -4 -2 -6 -7 -6h-68v-444c0 -21 2 -48 3 -64c0 -5 0 -7 -6 -9c-61 -30 -123 -43 -188 -43c-145 0 -257 80 -257 242
c0 142 102 248 277 248c29 0 40 -2 50 -4v74h-156c-5 0 -7 3 -7 7v74c0 4 2 5 6 5h157v69c0 5 3 7 7 7h109c4 0 5 -2 5 -6v-70z" />
    <glyph glyph-name="ebreve" unicode="&#x115;" horiz-adv-x="502" 
d="M357 219h-203c3 -70 49 -126 151 -126c45 0 86 8 124 24c3 2 6 1 6 -4v-83c0 -6 -2 -9 -6 -11c-38 -18 -82 -29 -150 -29c-182 0 -247 128 -247 251c0 139 84 262 235 262c148 0 205 -116 205 -211c0 -28 -1 -51 -4 -62c-1 -4 -3 -6 -8 -7c-14 -3 -54 -4 -103 -4z
M154 305h149c38 0 51 0 55 1v8c0 29 -20 93 -96 93c-69 0 -100 -53 -108 -102zM100 694h80c4 0 6 -1 6 -4c12 -32 35 -51 73 -51c35 0 63 15 74 50c1 4 2 5 5 5h82c4 0 5 -3 4 -6c-16 -84 -75 -136 -166 -136c-85 0 -148 44 -164 136c-1 5 2 6 6 6z" />
    <glyph glyph-name="ecaron" unicode="&#x11b;" horiz-adv-x="502" 
d="M357 219h-203c3 -70 49 -126 151 -126c45 0 86 8 124 24c3 2 6 1 6 -4v-83c0 -6 -2 -9 -6 -11c-38 -18 -82 -29 -150 -29c-182 0 -247 128 -247 251c0 139 84 262 235 262c148 0 205 -116 205 -211c0 -28 -1 -51 -4 -62c-1 -4 -3 -6 -8 -7c-14 -3 -54 -4 -103 -4z
M154 305h149c38 0 51 0 55 1v8c0 29 -20 93 -96 93c-69 0 -100 -53 -108 -102zM194 704l63 -90l62 91c2 2 4 3 9 3h76c5 0 7 -4 3 -8l-100 -140c-3 -4 -4 -5 -8 -5h-89c-5 0 -7 2 -9 5l-104 141c-2 4 0 7 4 7h83c6 0 8 -1 10 -4z" />
    <glyph glyph-name="edotaccent" unicode="&#x117;" horiz-adv-x="502" 
d="M357 219h-203c3 -70 49 -126 151 -126c45 0 86 8 124 24c3 2 6 1 6 -4v-83c0 -6 -2 -9 -6 -11c-38 -18 -82 -29 -150 -29c-182 0 -247 128 -247 251c0 139 84 262 235 262c148 0 205 -116 205 -211c0 -28 -1 -51 -4 -62c-1 -4 -3 -6 -8 -7c-14 -3 -54 -4 -103 -4z
M154 305h149c38 0 51 0 55 1v8c0 29 -20 93 -96 93c-69 0 -100 -53 -108 -102zM260 564c-42 0 -69 28 -69 69s29 69 69 69c43 0 69 -29 69 -69c0 -41 -28 -69 -69 -69z" />
    <glyph glyph-name="emacron" unicode="&#x113;" horiz-adv-x="502" 
d="M357 219h-203c3 -70 49 -126 151 -126c45 0 86 8 124 24c3 2 6 1 6 -4v-83c0 -6 -2 -9 -6 -11c-38 -18 -82 -29 -150 -29c-182 0 -247 128 -247 251c0 139 84 262 235 262c148 0 205 -116 205 -211c0 -28 -1 -51 -4 -62c-1 -4 -3 -6 -8 -7c-14 -3 -54 -4 -103 -4z
M154 305h149c38 0 51 0 55 1v8c0 29 -20 93 -96 93c-69 0 -100 -53 -108 -102zM122 670h279c5 0 6 -2 6 -7v-72c0 -4 -2 -6 -6 -6h-280c-5 0 -6 2 -6 7v71c0 6 3 7 7 7z" />
    <glyph glyph-name="eogonek" unicode="&#x119;" horiz-adv-x="502" 
d="M154 305h149c37 0 51 0 55 1v9c0 30 -21 92 -96 92c-69 0 -100 -53 -108 -102zM278 -9c-184 -1 -246 127 -246 250c0 139 83 262 235 262c149 0 205 -115 205 -210c0 -29 -2 -50 -4 -60c-1 -4 -3 -7 -8 -7c-14 -3 -54 -5 -103 -5h-203c2 -72 48 -128 151 -128
c45 0 85 8 124 25c3 2 5 1 5 -5v-82c0 -8 -1 -11 -7 -14c-85 -34 -127 -69 -127 -104c0 -28 22 -47 59 -47c20 0 35 3 47 7c7 2 9 0 9 -6v-62c0 -7 -2 -11 -7 -13c-18 -10 -49 -16 -84 -16c-61 0 -129 26 -129 104c0 43 33 84 83 111z" />
    <glyph glyph-name="gbreve" unicode="&#x11f;" horiz-adv-x="514" 
d="M322 691h82c4 0 5 -3 4 -6c-16 -84 -75 -136 -166 -136c-85 0 -148 44 -164 136c-1 5 2 6 6 6h80c4 0 6 -1 6 -4c12 -32 35 -51 73 -51c35 0 63 15 74 50c1 4 2 5 5 5zM291 3l-109 5c-29 -20 -48 -52 -48 -67c0 -35 48 -74 131 -74c95 0 137 39 137 77
c0 44 -50 56 -111 59zM243 416c-50 0 -81 -31 -81 -82c0 -46 28 -80 81 -80c50 0 80 29 80 78c0 47 -24 84 -80 84zM215 109l102 -4c137 -7 196 -61 196 -143c0 -102 -100 -184 -256 -184c-161 0 -234 81 -234 154c0 32 27 73 93 130c-15 22 -22 48 -21 75c0 23 6 45 18 65
c-41 26 -69 69 -69 130c0 96 73 171 199 171c35 0 67 -3 88 -7c9 -2 17 -3 23 -3h139c5 0 6 -2 6 -6v-82c0 -4 -1 -6 -6 -6c-19 0 -55 2 -77 5c11 -16 22 -40 22 -76c0 -107 -85 -161 -193 -161c-13 0 -27 1 -40 3c-3 -10 -5 -20 -3 -30c1 -11 5 -21 13 -31z" />
    <glyph glyph-name="gcircumflex" unicode="&#x11d;" horiz-adv-x="514" 
d="M176 555h-76c-5 0 -7 4 -3 8l100 140c3 4 4 5 8 5h89c5 0 7 -2 9 -5l104 -141c2 -4 0 -7 -4 -7h-83c-6 0 -8 1 -10 4l-63 90l-62 -91c-2 -2 -4 -3 -9 -3zM291 3l-109 5c-29 -20 -48 -52 -48 -67c0 -35 48 -74 131 -74c95 0 137 39 137 77c0 44 -50 56 -111 59zM243 416
c-50 0 -81 -31 -81 -82c0 -46 28 -80 81 -80c50 0 80 29 80 78c0 47 -24 84 -80 84zM215 109l102 -4c137 -7 196 -61 196 -143c0 -102 -100 -184 -256 -184c-161 0 -234 81 -234 154c0 32 27 73 93 130c-15 22 -22 48 -21 75c0 23 6 45 18 65c-41 26 -69 69 -69 130
c0 96 73 171 199 171c35 0 67 -3 88 -7c9 -2 17 -3 23 -3h139c5 0 6 -2 6 -6v-82c0 -4 -1 -6 -6 -6c-19 0 -55 2 -77 5c11 -16 22 -40 22 -76c0 -107 -85 -161 -193 -161c-13 0 -27 1 -40 3c-3 -10 -5 -20 -3 -30c1 -11 5 -21 13 -31z" />
    <glyph glyph-name="uni0123" unicode="&#x123;" horiz-adv-x="514" 
d="M303 547h-99c-4 0 -7 2 -10 6c-8 12 -15 36 -15 57c0 50 16 85 45 120c1 2 5 3 10 3h91c5 0 6 -4 4 -7c-28 -43 -37 -76 -37 -110c0 -19 6 -39 15 -63c2 -4 -1 -6 -4 -6zM291 3l-109 5c-29 -20 -48 -52 -48 -67c0 -35 48 -74 131 -74c95 0 137 39 137 77
c0 44 -50 56 -111 59zM243 416c-50 0 -81 -31 -81 -82c0 -46 28 -80 81 -80c50 0 80 29 80 78c0 47 -24 84 -80 84zM215 109l102 -4c137 -7 196 -61 196 -143c0 -102 -100 -184 -256 -184c-161 0 -234 81 -234 154c0 32 27 73 93 130c-15 22 -22 48 -21 75c0 23 6 45 18 65
c-41 26 -69 69 -69 130c0 96 73 171 199 171c35 0 67 -3 88 -7c9 -2 17 -3 23 -3h139c5 0 6 -2 6 -6v-82c0 -4 -1 -6 -6 -6c-19 0 -55 2 -77 5c11 -16 22 -40 22 -76c0 -107 -85 -161 -193 -161c-13 0 -27 1 -40 3c-3 -10 -5 -20 -3 -30c1 -11 5 -21 13 -31z" />
    <glyph glyph-name="gdotaccent" unicode="&#x121;" horiz-adv-x="514" 
d="M249 564c-42 0 -69 28 -69 69s29 69 69 69c43 0 69 -29 69 -69c0 -41 -28 -69 -69 -69zM291 3l-109 5c-29 -20 -48 -52 -48 -67c0 -35 48 -74 131 -74c95 0 137 39 137 77c0 44 -50 56 -111 59zM243 416c-50 0 -81 -31 -81 -82c0 -46 28 -80 81 -80c50 0 80 29 80 78
c0 47 -24 84 -80 84zM215 109l102 -4c137 -7 196 -61 196 -143c0 -102 -100 -184 -256 -184c-161 0 -234 81 -234 154c0 32 27 73 93 130c-15 22 -22 48 -21 75c0 23 6 45 18 65c-41 26 -69 69 -69 130c0 96 73 171 199 171c35 0 67 -3 88 -7c9 -2 17 -3 23 -3h139
c5 0 6 -2 6 -6v-82c0 -4 -1 -6 -6 -6c-19 0 -55 2 -77 5c11 -16 22 -40 22 -76c0 -107 -85 -161 -193 -161c-13 0 -27 1 -40 3c-3 -10 -5 -20 -3 -30c1 -11 5 -21 13 -31z" />
    <glyph glyph-name="uni00670303" horiz-adv-x="514" 
d="M159 558h-66c-6 0 -7 3 -7 8c0 89 47 131 103 131c62 0 106 -51 137 -51c21 0 29 18 30 43c0 4 2 6 7 6h65c6 0 7 -1 7 -5c-1 -98 -43 -134 -98 -134c-58 0 -98 50 -138 50c-18 0 -32 -12 -35 -42c0 -2 -1 -6 -5 -6zM291 3l-109 5c-29 -20 -48 -52 -48 -67
c0 -35 48 -74 131 -74c95 0 137 39 137 77c0 44 -50 56 -111 59zM243 416c-50 0 -81 -31 -81 -82c0 -46 28 -80 81 -80c50 0 80 29 80 78c0 47 -24 84 -80 84zM215 109l102 -4c137 -7 196 -61 196 -143c0 -102 -100 -184 -256 -184c-161 0 -234 81 -234 154
c0 32 27 73 93 130c-15 22 -22 48 -21 75c0 23 6 45 18 65c-41 26 -69 69 -69 130c0 96 73 171 199 171c35 0 67 -3 88 -7c9 -2 17 -3 23 -3h139c5 0 6 -2 6 -6v-82c0 -4 -1 -6 -6 -6c-19 0 -55 2 -77 5c11 -16 22 -40 22 -76c0 -107 -85 -161 -193 -161c-13 0 -27 1 -40 3
c-3 -10 -5 -20 -3 -30c1 -11 5 -21 13 -31z" />
    <glyph glyph-name="hbar" unicode="&#x127;" horiz-adv-x="552" 
d="M184 550v-114c39 33 84 46 139 46c75 0 168 -38 168 -198v-275c0 -7 -3 -9 -9 -9h-104c-6 0 -9 3 -9 9v267c0 67 -28 105 -85 105c-40 0 -73 -12 -100 -41v-333c0 -5 -1 -7 -7 -7h-106c-6 0 -8 3 -8 8v542h-65c-6 0 -7 3 -7 7v74c0 4 1 5 5 5h67v69c0 4 2 7 8 7h106
c6 0 7 -2 7 -7v-69h160c4 0 5 0 5 -5v-75c0 -4 -2 -6 -6 -6h-159z" />
    <glyph glyph-name="hcircumflex" unicode="&#x125;" horiz-adv-x="552" 
d="M186 747l-63 46l-58 -46c-3 -3 -6 -4 -12 -4h-91c-5 0 -8 3 -4 7l116 99c3 3 5 3 9 3h85c6 0 9 -2 12 -5l118 -98c4 -2 2 -6 -3 -6h-96c-5 0 -12 3 -13 4zM184 363v-356c0 -5 -1 -7 -7 -7h-106c-6 0 -8 3 -8 8v697c0 4 2 7 8 7h106c6 0 7 -2 7 -7v-248
c38 28 80 46 137 46c76 0 167 -38 167 -198v-296c0 -7 -3 -9 -8 -9h-104c-6 0 -9 3 -9 9v284c0 67 -29 105 -87 105c-37 0 -70 -12 -96 -35z" />
    <glyph glyph-name="i.dot" horiz-adv-x="248" 
d="M63 9v477c0 5 3 7 8 7h106c6 0 8 -1 8 -7v-478c0 -6 -2 -8 -9 -8h-103c-7 0 -10 3 -10 9zM124 560c-41 0 -68 28 -68 69s29 69 69 69c43 0 68 -29 68 -69c0 -41 -27 -69 -69 -69z" />
    <glyph glyph-name="imacron" unicode="&#x12b;" horiz-adv-x="248" 
d="M63 9v477c0 5 3 7 8 7h106c6 0 8 -1 8 -7v-478c0 -6 -2 -8 -9 -8h-103c-7 0 -10 3 -10 9zM-13 670h279c4 0 6 -2 6 -7v-72c0 -4 -2 -6 -6 -6h-280c-5 0 -6 2 -6 7v71c0 6 3 7 7 7z" />
    <glyph glyph-name="iogonek" unicode="&#x12f;" horiz-adv-x="248" 
d="M185 486v-477c0 -5 -2 -6 -7 -9c-37 -28 -54 -55 -54 -81c0 -30 21 -51 58 -51c22 0 37 3 47 7c7 1 9 -1 9 -6v-67c0 -6 -2 -7 -7 -11c-17 -8 -46 -14 -85 -14c-63 0 -132 28 -132 106c0 46 27 85 58 116c-7 1 -9 4 -9 12v475c0 5 3 7 8 7h106c6 0 8 -1 8 -7zM124 573
c-38 0 -64 26 -64 65c0 38 27 65 65 65c40 0 64 -27 64 -65c0 -39 -26 -65 -65 -65z" />
    <glyph glyph-name="itilde" unicode="&#x129;" horiz-adv-x="248" 
d="M63 9v477c0 5 3 7 8 7h106c6 0 8 -1 8 -7v-478c0 -6 -2 -8 -9 -8h-103c-7 0 -10 3 -10 9zM25 558h-66c-6 0 -8 3 -8 8c1 89 47 131 103 131c63 0 107 -51 138 -51c21 0 28 18 30 43c0 4 2 6 6 6h66c5 0 7 -1 7 -5c-1 -98 -43 -134 -98 -134c-58 0 -98 50 -138 50
c-18 0 -32 -12 -35 -42c0 -2 -1 -6 -5 -6z" />
    <glyph glyph-name="uni0237" unicode="&#x237;" horiz-adv-x="248" 
d="M72 493h105c5 0 8 -2 8 -7v-460c0 -110 -18 -151 -50 -191c-33 -39 -92 -52 -133 -52c-7 0 -15 0 -23 1c-6 1 -8 4 -8 9v88c0 5 2 8 7 8c52 0 85 19 86 105v492c0 5 2 7 8 7z" />
    <glyph glyph-name="jcircumflex" unicode="&#x135;" horiz-adv-x="248" 
d="M72 493h105c5 0 8 -2 8 -7v-460c0 -110 -18 -151 -50 -191c-33 -39 -92 -52 -133 -52c-7 0 -15 0 -23 1c-6 1 -8 4 -8 9v88c0 5 2 8 7 8c52 0 85 19 86 105v492c0 5 2 7 8 7zM183 559l-62 90l-63 -91c-1 -2 -3 -3 -8 -3h-76c-5 0 -7 4 -4 8l100 140c3 4 5 5 9 5h89
c5 0 7 -2 9 -5l103 -141c3 -4 1 -7 -3 -7h-84c-5 0 -7 1 -10 4z" />
    <glyph glyph-name="uni0137" unicode="&#x137;" horiz-adv-x="499" 
d="M198 -41h99c4 0 7 -2 10 -6c8 -12 15 -36 15 -57c0 -50 -16 -85 -45 -120c-1 -2 -5 -3 -10 -3h-91c-5 0 -6 4 -4 7c28 43 37 76 37 110c0 19 -6 39 -15 63c-2 4 1 6 4 6zM377 493h113c7 0 9 -4 5 -9c-30 -35 -160 -172 -198 -212c-1 -1 0 -2 0 -4
c61 -70 160 -185 226 -259c3 -4 1 -9 -5 -9h-137c-7 0 -9 2 -13 7c-37 42 -135 162 -184 221v-219c0 -7 -2 -9 -8 -9h-105c-7 0 -9 2 -9 9v695c0 5 2 8 9 8h105c5 0 8 -2 8 -8v-423c53 59 158 180 181 206c4 5 7 6 12 6z" />
    <glyph glyph-name="kgreenlandic" unicode="&#x138;" horiz-adv-x="499" 
d="M377 493h113c7 0 9 -4 5 -9c-30 -35 -160 -172 -198 -212c-1 -1 0 -2 0 -4c61 -70 160 -185 226 -259c4 -4 1 -9 -4 -9h-138c-7 0 -9 2 -12 7c-38 42 -136 162 -185 221v-219c0 -7 -2 -9 -8 -9h-105c-7 0 -9 2 -9 9v477c0 4 2 7 9 7h105c5 0 8 -2 8 -7v-205
c53 59 158 180 181 206c4 5 7 6 12 6z" />
    <glyph glyph-name="lacute" unicode="&#x13a;" horiz-adv-x="265" 
d="M65 761l92 84c5 5 10 6 16 6h113c6 0 8 -6 3 -10l-107 -84c-6 -4 -9 -5 -17 -5h-95c-6 0 -10 3 -5 9zM63 119v585c0 5 3 8 9 8h103c6 0 9 -3 9 -8v-574c0 -31 11 -41 35 -41c8 0 10 0 19 1c3 1 4 -1 4 -6v-75c0 -7 -1 -8 -6 -11c-11 -5 -29 -8 -57 -8
c-64 0 -116 24 -116 129z" />
    <glyph glyph-name="lcaron" unicode="&#x13e;" horiz-adv-x="314" 
d="M245 477l-2 227c0 5 1 8 7 8h77c6 0 7 -2 6 -8l-14 -227c-1 -5 -4 -7 -8 -7h-59c-5 0 -7 1 -7 7zM63 119v585c0 5 3 8 9 8h103c6 0 9 -3 9 -8v-574c0 -31 11 -41 35 -41c8 0 10 0 19 1c3 1 4 -1 4 -6v-75c0 -7 -1 -8 -6 -11c-11 -5 -29 -8 -57 -8c-64 0 -116 24 -116 129
z" />
    <glyph glyph-name="uni013C" unicode="&#x13c;" horiz-adv-x="265" 
d="M63 119v585c0 5 3 8 9 8h103c6 0 9 -3 9 -8v-574c0 -31 11 -41 35 -41c8 0 10 0 19 1c3 1 4 -1 4 -6v-75c0 -7 -1 -8 -6 -11c-11 -5 -29 -8 -57 -8c-64 0 -116 24 -116 129zM161 -233h-91c-5 0 -6 5 -4 8c28 43 37 75 37 109c0 19 -6 40 -15 63c-2 4 0 7 3 7h99
c5 0 8 -3 10 -6c8 -12 16 -37 16 -58c0 -50 -16 -84 -45 -120c-2 -2 -5 -3 -10 -3z" />
    <glyph glyph-name="ldot" unicode="&#x140;" horiz-adv-x="294" 
d="M272 339c-34 0 -54 24 -54 68c0 42 20 67 54 67c37 0 55 -26 55 -67c0 -44 -19 -68 -55 -68zM63 119v585c0 5 3 8 9 8h103c6 0 9 -3 9 -8v-574c0 -31 11 -41 35 -41c8 0 10 0 19 1c3 1 4 -1 4 -6v-75c0 -7 -1 -8 -6 -11c-11 -5 -29 -8 -57 -8c-64 0 -116 24 -116 129z
" />
    <glyph glyph-name="nacute" unicode="&#x144;" horiz-adv-x="551" 
d="M63 8v370c0 34 -2 88 -4 108c0 5 1 7 7 7h91c7 0 10 -2 12 -7c3 -9 5 -22 7 -38c43 36 91 55 145 55c75 0 167 -38 167 -198v-296c0 -7 -3 -9 -8 -9h-104c-6 0 -9 3 -9 9v285c0 66 -28 104 -86 104c-40 0 -73 -15 -97 -41v-349c0 -5 -3 -8 -8 -8h-105c-6 0 -8 3 -8 8z
M217 562l99 141c3 6 7 9 11 9h115c7 0 9 -3 6 -9l-122 -142c-4 -4 -8 -6 -13 -6h-93c-4 0 -5 4 -3 7z" />
    <glyph glyph-name="ncaron" unicode="&#x148;" horiz-adv-x="551" 
d="M63 8v370c0 34 -2 88 -4 108c0 5 1 7 7 7h91c7 0 10 -2 12 -7c3 -9 5 -22 7 -38c43 36 91 55 145 55c75 0 167 -38 167 -198v-296c0 -7 -3 -9 -8 -9h-104c-6 0 -9 3 -9 9v285c0 66 -28 104 -86 104c-40 0 -73 -15 -97 -41v-349c0 -5 -3 -8 -8 -8h-105c-6 0 -8 3 -8 8z
M209 704l63 -90l63 91c1 2 3 3 8 3h76c5 0 7 -4 4 -8l-101 -140c-2 -4 -4 -5 -8 -5h-89c-5 0 -7 2 -9 5l-103 141c-3 4 -1 7 3 7h83c6 0 8 -1 10 -4z" />
    <glyph glyph-name="uni0146" unicode="&#x146;" horiz-adv-x="551" 
d="M63 8v370c0 34 -2 88 -4 108c0 5 1 7 7 7h91c7 0 10 -2 12 -7c3 -9 5 -22 7 -38c43 36 91 55 145 55c75 0 167 -38 167 -198v-296c0 -7 -3 -9 -8 -9h-104c-6 0 -9 3 -9 9v285c0 66 -28 104 -86 104c-40 0 -73 -15 -97 -41v-349c0 -5 -3 -8 -8 -8h-105c-6 0 -8 3 -8 8z
M290 -231h-91c-5 0 -6 4 -4 7c28 44 37 76 37 110c0 19 -6 39 -15 63c-2 4 0 6 3 6h99c5 0 8 -2 10 -6c8 -12 16 -36 16 -57c0 -50 -16 -85 -45 -120c-2 -2 -5 -3 -10 -3z" />
    <glyph glyph-name="napostrophe" unicode="&#x149;" horiz-adv-x="554" 
d="M18 554l-1 182c0 6 3 7 7 7h95c5 0 8 -1 7 -6l-18 -185c-1 -4 -4 -5 -7 -5h-76c-5 0 -7 1 -7 7zM63 8v370c0 34 -2 88 -4 108c0 5 1 7 7 7h91c7 0 10 -2 12 -7c3 -9 5 -22 7 -38c43 36 91 55 145 55c75 0 167 -38 167 -198v-296c0 -7 -3 -9 -8 -9h-104c-6 0 -9 3 -9 9
v285c0 66 -28 104 -86 104c-40 0 -73 -15 -97 -41v-349c0 -5 -3 -8 -8 -8h-105c-6 0 -8 3 -8 8z" />
    <glyph glyph-name="ohungarumlaut" unicode="&#x151;" horiz-adv-x="544" 
d="M275 503c154 0 238 -117 238 -254c0 -155 -99 -259 -240 -259c-167 0 -241 129 -241 256c0 142 93 257 243 257zM269 402c-67 0 -115 -59 -115 -154c0 -92 45 -156 121 -156c62 0 115 51 115 154c0 83 -36 156 -121 156zM129 567l71 136c3 6 6 8 15 8h87c6 0 8 -6 4 -10
l-86 -139c-4 -5 -4 -8 -15 -8h-70c-8 0 -9 8 -6 13zM311 568l72 136c3 6 5 8 12 8h89c7 0 9 -7 6 -11l-88 -138c-3 -5 -6 -8 -17 -8h-67c-9 0 -10 7 -7 13z" />
    <glyph glyph-name="omacron" unicode="&#x14d;" horiz-adv-x="544" 
d="M275 503c154 0 238 -117 238 -254c0 -155 -99 -259 -240 -259c-167 0 -241 129 -241 256c0 142 93 257 243 257zM269 402c-67 0 -115 -59 -115 -154c0 -92 45 -156 121 -156c62 0 115 51 115 154c0 83 -36 156 -121 156zM134 670h279c4 0 6 -2 6 -7v-72c0 -4 -2 -6 -6 -6
h-280c-5 0 -6 2 -6 7v71c0 6 3 7 7 7z" />
    <glyph glyph-name="racute" unicode="&#x155;" horiz-adv-x="348" 
d="M64 493h94c6 0 9 -2 11 -8c5 -13 9 -38 10 -60c34 42 91 78 160 78c6 0 8 -1 8 -7v-106c0 -5 -2 -7 -9 -7c-71 2 -130 -23 -153 -53v-322c0 -6 -3 -8 -9 -8h-104c-7 0 -9 3 -9 8v345c0 43 -1 101 -5 134c0 5 1 6 6 6zM115 562l99 141c3 6 7 9 11 9h115c7 0 9 -3 6 -9
l-122 -142c-4 -4 -8 -6 -13 -6h-93c-4 0 -5 4 -3 7z" />
    <glyph glyph-name="rcaron" unicode="&#x159;" horiz-adv-x="348" 
d="M64 493h94c6 0 9 -2 11 -8c5 -13 9 -38 10 -60c34 42 91 78 160 78c6 0 8 -1 8 -7v-106c0 -5 -2 -7 -9 -7c-71 2 -130 -23 -153 -53v-322c0 -6 -3 -8 -9 -8h-104c-7 0 -9 3 -9 8v345c0 43 -1 101 -5 134c0 5 1 6 6 6zM133 704l63 -90l63 91c1 2 3 3 8 3h76c5 0 7 -4 4 -8
l-101 -140c-2 -4 -4 -5 -8 -5h-89c-5 0 -7 1 -9 4l-104 142c-2 3 0 7 4 7h83c6 0 8 -1 10 -4z" />
    <glyph glyph-name="uni0157" unicode="&#x157;" horiz-adv-x="348" 
d="M64 493h94c6 0 9 -2 11 -8c5 -13 9 -38 10 -60c34 42 91 78 160 78c6 0 8 -1 8 -7v-106c0 -5 -2 -7 -9 -7c-71 2 -130 -23 -153 -53v-322c0 -6 -3 -8 -9 -8h-104c-7 0 -9 3 -9 8v345c0 43 -1 101 -5 134c0 5 1 6 6 6zM133 -230h-91c-5 0 -6 4 -4 7c28 43 37 76 37 110
c0 19 -6 39 -15 62c-2 4 0 7 3 7h99c5 0 8 -2 10 -6c8 -12 16 -37 16 -57c0 -51 -16 -85 -45 -120c-2 -2 -5 -3 -10 -3z" />
    <glyph glyph-name="sacute" unicode="&#x15b;" horiz-adv-x="400" 
d="M338 377c-31 17 -81 29 -125 29c-53 0 -71 -22 -71 -43c0 -22 15 -37 79 -62c114 -42 153 -87 153 -158c0 -94 -74 -153 -197 -153c-59 0 -111 11 -141 28c-5 3 -7 5 -7 11v95c0 5 4 7 8 5c43 -28 98 -40 143 -40c52 0 77 18 77 44c0 25 -19 41 -81 66
c-109 40 -148 85 -148 157c0 76 62 147 187 147c58 0 102 -8 126 -20c5 -3 6 -7 6 -12v-88c0 -5 -3 -8 -9 -6zM128 562l99 141c3 6 7 9 11 9h115c7 0 9 -3 6 -9l-122 -142c-4 -4 -8 -6 -13 -6h-93c-4 0 -5 4 -3 7z" />
    <glyph glyph-name="uni015F" unicode="&#x15f;" horiz-adv-x="400" 
d="M347 471v-88c0 -5 -3 -8 -9 -6c-31 17 -81 29 -125 29c-53 0 -71 -22 -71 -43c0 -22 15 -37 79 -62c114 -42 153 -87 153 -158c0 -78 -51 -132 -138 -148l-27 -35c58 -17 86 -46 86 -96c0 -54 -49 -95 -120 -95c-27 0 -57 5 -73 13c-5 3 -6 5 -6 12v47c0 5 3 7 8 6
c19 -9 45 -14 64 -14c25 0 42 9 42 30c0 22 -29 39 -94 47c-3 4 -3 22 0 26l43 54c-52 2 -96 13 -123 28c-5 3 -7 5 -7 11v95c0 5 4 7 8 5c43 -28 98 -40 143 -40c52 0 77 18 77 44c0 25 -19 41 -81 66c-109 40 -148 85 -148 157c0 76 62 147 187 147c58 0 102 -8 126 -20
c5 -3 6 -7 6 -12z" />
    <glyph glyph-name="scircumflex" unicode="&#x15d;" horiz-adv-x="400" 
d="M338 377c-31 17 -81 29 -125 29c-53 0 -71 -22 -71 -43c0 -22 15 -37 79 -62c114 -42 153 -87 153 -158c0 -94 -74 -153 -197 -153c-59 0 -111 11 -141 28c-5 3 -7 5 -7 11v95c0 5 4 7 8 5c43 -28 98 -40 143 -40c52 0 77 18 77 44c0 25 -19 41 -81 66
c-109 40 -148 85 -148 157c0 76 62 147 187 147c58 0 102 -8 126 -20c5 -3 6 -7 6 -12v-88c0 -5 -3 -8 -9 -6zM259 559l-63 90l-63 -91c-1 -2 -3 -3 -8 -3h-76c-5 0 -7 4 -4 8l101 140c2 4 4 5 8 5h89c5 0 7 -2 9 -5l104 -141c2 -4 0 -7 -4 -7h-83c-6 0 -8 1 -10 4z" />
    <glyph glyph-name="uni0219" unicode="&#x219;" horiz-adv-x="400" 
d="M338 377c-31 17 -81 29 -125 29c-53 0 -71 -22 -71 -43c0 -22 15 -37 79 -62c114 -42 153 -87 153 -158c0 -94 -74 -153 -197 -153c-59 0 -111 11 -141 28c-5 3 -7 5 -7 11v95c0 5 4 7 8 5c43 -28 98 -40 143 -40c52 0 77 18 77 44c0 25 -19 41 -81 66
c-109 40 -148 85 -148 157c0 76 62 147 187 147c58 0 102 -8 126 -20c5 -3 6 -7 6 -12v-88c0 -5 -3 -8 -9 -6zM204 -234h-91c-5 0 -6 4 -4 7c28 44 37 76 37 110c0 19 -6 39 -15 63c-2 4 1 6 4 6h99c4 0 7 -2 10 -6c8 -12 15 -36 15 -57c0 -50 -16 -85 -45 -120
c-2 -2 -5 -3 -10 -3z" />
    <glyph glyph-name="tcaron" unicode="&#x165;" horiz-adv-x="315" 
d="M254 589l-1 176c0 6 2 8 7 8h80c7 0 10 -3 9 -8l-18 -176c-1 -5 -3 -8 -9 -8h-61c-6 0 -7 2 -7 8zM296 88v-72c0 -6 -1 -10 -6 -12c-27 -10 -52 -14 -85 -14c-82 0 -131 40 -131 139v263h-63c-5 1 -7 3 -7 9v84c0 6 2 8 8 8h63c1 35 5 98 10 123c1 5 3 8 8 9l101 14
c5 1 7 0 7 -5c-3 -33 -5 -92 -5 -141h97c5 0 7 -2 7 -7v-87c0 -5 -2 -7 -7 -7h-98v-237c0 -44 14 -65 57 -65c13 0 24 1 38 4c3 1 6 0 6 -6z" />
    <glyph glyph-name="uni0163" unicode="&#x163;" horiz-adv-x="315" 
d="M196 493h97c5 0 7 -2 7 -7v-87c0 -5 -2 -7 -7 -7h-98v-237c0 -44 14 -65 57 -65c13 0 24 1 38 4c3 1 6 0 6 -6v-72c0 -6 -1 -10 -6 -12c-22 -8 -42 -12 -66 -14l-23 -30c57 -17 85 -46 85 -96c0 -54 -49 -95 -119 -95c-28 0 -58 5 -73 13c-5 3 -6 5 -6 12v47c0 5 2 7 7 6
c19 -9 45 -14 64 -14c25 0 43 9 43 30c0 22 -30 39 -94 47c-3 4 -4 22 -1 26l47 60c-51 15 -80 56 -80 133v263h-63c-5 1 -7 3 -7 9v84c0 6 2 8 8 8h63c1 35 5 98 10 123c1 5 3 8 8 9l101 14c5 1 7 0 7 -5c-3 -33 -5 -92 -5 -141z" />
    <glyph glyph-name="uni021B" unicode="&#x21b;" horiz-adv-x="315" 
d="M296 88v-72c0 -6 -1 -10 -6 -12c-27 -10 -52 -14 -85 -14c-82 0 -131 40 -131 139v263h-63c-5 1 -7 3 -7 9v84c0 6 2 8 8 8h63c1 35 5 98 10 123c1 5 3 8 8 9l101 14c5 1 7 0 7 -5c-3 -33 -5 -92 -5 -141h97c5 0 7 -2 7 -7v-87c0 -5 -2 -7 -7 -7h-98v-237
c0 -44 14 -65 57 -65c13 0 24 1 38 4c3 1 6 0 6 -6zM190 -239h-92c-4 0 -5 5 -3 8c28 43 37 75 37 109c0 19 -6 40 -16 63c-1 4 1 7 4 7h99c5 0 8 -3 10 -6c8 -13 16 -37 16 -58c0 -50 -16 -84 -45 -120c-2 -2 -5 -3 -10 -3z" />
    <glyph glyph-name="ubreve" unicode="&#x16d;" horiz-adv-x="545" 
d="M481 486v-376c0 -52 4 -82 6 -103c1 -5 -2 -7 -8 -7h-92c-7 0 -9 2 -10 6c-3 10 -6 25 -7 35c-43 -40 -94 -51 -139 -51c-95 0 -168 51 -168 191v305c0 6 2 7 8 7h105c6 0 7 -2 7 -7v-291c0 -62 27 -100 87 -100c38 0 66 13 91 36v355c0 5 2 7 8 7h105c6 0 7 -2 7 -7z
M115 694h80c4 0 6 -1 6 -4c12 -32 35 -51 73 -51c35 0 63 15 74 50c1 4 2 5 5 5h82c4 0 5 -3 4 -6c-16 -84 -75 -136 -166 -136c-85 0 -148 44 -164 136c-1 5 2 6 6 6z" />
    <glyph glyph-name="uhungarumlaut" unicode="&#x171;" horiz-adv-x="545" 
d="M481 486v-376c0 -52 4 -82 6 -103c1 -5 -2 -7 -8 -7h-92c-7 0 -9 2 -10 6c-3 10 -6 25 -7 35c-43 -40 -94 -51 -139 -51c-95 0 -168 51 -168 191v305c0 6 2 7 8 7h105c6 0 7 -2 7 -7v-291c0 -62 27 -100 87 -100c38 0 66 13 91 36v355c0 5 2 7 8 7h105c6 0 7 -2 7 -7z
M130 567l71 136c3 6 6 8 15 8h87c7 0 8 -6 5 -10l-87 -139c-3 -5 -4 -8 -14 -8h-71c-8 0 -8 8 -6 13zM312 568l72 136c3 6 6 8 12 8h89c8 0 9 -7 6 -11l-88 -138c-3 -5 -6 -8 -16 -8h-68c-9 0 -10 7 -7 13z" />
    <glyph glyph-name="umacron" unicode="&#x16b;" horiz-adv-x="545" 
d="M481 486v-376c0 -52 4 -82 6 -103c1 -5 -2 -7 -8 -7h-92c-7 0 -9 2 -10 6c-3 10 -6 25 -7 35c-43 -40 -94 -51 -139 -51c-95 0 -168 51 -168 191v305c0 6 2 7 8 7h105c6 0 7 -2 7 -7v-291c0 -62 27 -100 87 -100c38 0 66 13 91 36v355c0 5 2 7 8 7h105c6 0 7 -2 7 -7z
M136 670h279c4 0 6 -2 6 -7v-72c0 -4 -2 -6 -6 -6h-280c-5 0 -6 2 -6 7v71c0 6 3 7 7 7z" />
    <glyph glyph-name="uogonek" unicode="&#x173;" horiz-adv-x="545" 
d="M513 -131v-63c0 -8 -3 -11 -8 -14c-18 -9 -45 -15 -80 -15c-60 0 -126 28 -126 106c0 55 38 97 77 133c-1 5 -3 16 -3 26c-41 -38 -92 -52 -141 -52c-89 0 -169 42 -169 190v306c0 6 2 7 8 7h105c6 0 7 -2 7 -7v-289c0 -65 27 -105 87 -105c38 0 69 14 93 41v353
c0 5 3 7 9 7h105c6 0 7 -2 7 -7v-376c0 -41 1 -74 6 -98c1 -5 -1 -10 -5 -11c-46 -26 -76 -60 -76 -90c0 -27 18 -43 51 -43c19 0 32 3 43 7c7 2 10 -1 10 -6z" />
    <glyph glyph-name="uring" unicode="&#x16f;" horiz-adv-x="545" 
d="M481 486v-376c0 -52 4 -82 6 -103c1 -5 -2 -7 -8 -7h-92c-7 0 -9 2 -10 6c-3 10 -6 25 -7 35c-43 -40 -94 -51 -139 -51c-95 0 -168 51 -168 191v305c0 6 2 7 8 7h105c6 0 7 -2 7 -7v-291c0 -62 27 -100 87 -100c38 0 66 13 91 36v355c0 5 2 7 8 7h105c6 0 7 -2 7 -7z
M167 639c0 56 42 97 107 97s109 -40 109 -97c0 -58 -45 -97 -109 -97c-65 0 -107 37 -107 97zM230 639c0 -26 19 -43 44 -43s45 17 45 43s-20 43 -45 43s-44 -16 -44 -43z" />
    <glyph glyph-name="utilde" unicode="&#x169;" horiz-adv-x="545" 
d="M481 486v-376c0 -52 4 -82 6 -103c1 -5 -2 -7 -8 -7h-92c-7 0 -9 2 -10 6c-3 10 -6 25 -7 35c-43 -40 -94 -51 -139 -51c-95 0 -168 51 -168 191v305c0 6 2 7 8 7h105c6 0 7 -2 7 -7v-291c0 -62 27 -100 87 -100c38 0 66 13 91 36v355c0 5 2 7 8 7h105c6 0 7 -2 7 -7z
M173 558h-66c-6 0 -7 3 -8 8c1 89 47 131 103 131c63 0 107 -51 138 -51c21 0 28 18 30 43c0 4 2 6 6 6h66c5 0 7 -1 7 -5c-1 -98 -43 -134 -98 -134c-58 0 -98 50 -138 50c-18 0 -32 -12 -35 -42c0 -2 -1 -6 -5 -6z" />
    <glyph glyph-name="wacute" unicode="&#x1e83;" horiz-adv-x="739" 
d="M575 0h-110c-7 0 -9 3 -11 9c-58 223 -75 312 -85 361h-1c-23 -100 -48 -196 -95 -362c-2 -6 -5 -8 -11 -8h-109c-10 0 -11 2 -13 8l-130 477c-2 5 1 8 7 8h110c5 0 7 -1 8 -6c60 -235 75 -330 82 -370h2c8 35 25 126 91 368c1 6 2 8 9 8h115c5 0 7 -2 8 -6
c62 -244 76 -333 84 -373h2c12 60 27 160 85 373c1 4 4 6 9 6h101c4 0 8 -2 6 -7l-143 -478c-3 -6 -4 -8 -11 -8zM311 562l99 141c3 6 7 9 11 9h115c7 0 9 -3 6 -9l-122 -142c-4 -4 -8 -6 -13 -6h-93c-4 0 -5 4 -3 7z" />
    <glyph glyph-name="wcircumflex" unicode="&#x175;" horiz-adv-x="739" 
d="M575 0h-110c-7 0 -9 3 -11 9c-58 223 -75 312 -85 361h-1c-23 -100 -48 -196 -95 -362c-2 -6 -5 -8 -11 -8h-109c-10 0 -11 2 -13 8l-130 477c-2 5 1 8 7 8h110c5 0 7 -1 8 -6c60 -235 75 -330 82 -370h2c8 35 25 126 91 368c1 6 2 8 9 8h115c5 0 7 -2 8 -6
c62 -244 76 -333 84 -373h2c12 60 27 160 85 373c1 4 4 6 9 6h101c4 0 8 -2 6 -7l-143 -478c-3 -6 -4 -8 -11 -8zM432 559l-63 90l-62 -91c-2 -2 -4 -3 -9 -3h-76c-5 0 -6 4 -3 8l100 140c3 4 5 5 9 5h88c6 0 8 -2 9 -5l104 -141c3 -4 0 -7 -4 -7h-83c-5 0 -7 1 -10 4z" />
    <glyph glyph-name="wdieresis" unicode="&#x1e85;" horiz-adv-x="739" 
d="M575 0h-110c-7 0 -9 3 -11 9c-58 223 -75 312 -85 361h-1c-23 -100 -48 -196 -95 -362c-2 -6 -5 -8 -11 -8h-109c-10 0 -11 2 -13 8l-130 477c-2 5 1 8 7 8h110c5 0 7 -1 8 -6c60 -235 75 -330 82 -370h2c8 35 25 126 91 368c1 6 2 8 9 8h115c5 0 7 -2 8 -6
c62 -244 76 -333 84 -373h2c12 60 27 160 85 373c1 4 4 6 9 6h101c4 0 8 -2 6 -7l-143 -478c-3 -6 -4 -8 -11 -8zM280 568c-35 0 -60 24 -60 61c0 38 26 63 62 63c35 0 59 -26 59 -63c0 -38 -26 -61 -61 -61zM474 568c-34 0 -59 24 -59 61c0 38 27 63 61 63
c36 0 59 -26 59 -63s-25 -61 -61 -61z" />
    <glyph glyph-name="wgrave" unicode="&#x1e81;" horiz-adv-x="739" 
d="M575 0h-110c-7 0 -9 3 -11 9c-58 223 -75 312 -85 361h-1c-23 -100 -48 -196 -95 -362c-2 -6 -5 -8 -11 -8h-109c-10 0 -11 2 -13 8l-130 477c-2 5 1 8 7 8h110c5 0 7 -1 8 -6c60 -235 75 -330 82 -370h2c8 35 25 126 91 368c1 6 2 8 9 8h115c5 0 7 -2 8 -6
c62 -244 76 -333 84 -373h2c12 60 27 160 85 373c1 4 4 6 9 6h101c4 0 8 -2 6 -7l-143 -478c-3 -6 -4 -8 -11 -8zM339 706l102 -143c2 -4 0 -8 -5 -8h-95c-5 0 -8 3 -10 6l-125 141c-3 5 -1 9 3 9h119c5 0 8 -1 11 -5z" />
    <glyph glyph-name="ycircumflex" unicode="&#x177;" horiz-adv-x="478" 
d="M7 493h117c4 0 7 -1 9 -6c65 -187 99 -295 112 -344c33 101 68 204 113 344c2 4 5 6 11 6h103c6 0 7 -3 6 -8c-72 -221 -181 -491 -262 -676c-2 -4 -5 -7 -13 -7l-109 -8c-6 0 -7 2 -5 8c30 60 62 131 94 207c2 6 3 9 1 16c-27 66 -123 304 -183 461c-2 4 1 7 6 7z
M299 559l-63 90l-63 -91c-1 -2 -3 -3 -8 -3h-76c-5 0 -7 4 -4 8l101 140c2 4 4 5 8 5h89c5 0 7 -2 9 -5l104 -141c2 -4 0 -7 -4 -7h-83c-6 0 -8 1 -10 4z" />
    <glyph glyph-name="ygrave" unicode="&#x1ef3;" horiz-adv-x="478" 
d="M7 493h117c4 0 7 -1 9 -6c65 -187 99 -295 112 -344c33 101 68 204 113 344c2 4 5 6 11 6h103c6 0 7 -3 6 -8c-72 -221 -181 -491 -262 -676c-2 -4 -5 -7 -13 -7l-109 -8c-6 0 -7 2 -5 8c30 60 62 131 94 207c2 6 3 9 1 16c-27 66 -123 304 -183 461c-2 4 1 7 6 7z
M216 706l102 -143c2 -4 1 -8 -5 -8h-95c-4 0 -8 3 -9 6l-126 141c-2 5 -1 9 4 9h119c4 0 7 -1 10 -5z" />
    <glyph glyph-name="zacute" unicode="&#x17a;" horiz-adv-x="421" 
d="M393 0h-376c-5 0 -6 2 -6 7v60c0 4 1 7 3 10c64 91 214 275 244 316c-19 -1 -52 -1 -95 -1h-140c-7 0 -9 3 -7 9l14 85c1 5 3 7 9 7h354c5 0 6 -1 7 -6v-62c0 -6 -1 -9 -5 -14c-81 -118 -210 -277 -236 -310c27 1 65 0 115 0h137c5 0 8 -1 6 -8l-16 -86
c-1 -5 -4 -7 -8 -7zM146 562l99 141c3 6 7 9 11 9h115c7 0 9 -3 6 -9l-122 -142c-4 -4 -8 -6 -13 -6h-93c-4 0 -5 4 -3 7z" />
    <glyph glyph-name="zdotaccent" unicode="&#x17c;" horiz-adv-x="421" 
d="M393 0h-376c-5 0 -6 2 -6 7v60c0 4 1 7 3 10c64 91 214 275 244 316c-19 -1 -52 -1 -95 -1h-140c-7 0 -9 3 -7 9l14 85c1 5 3 7 9 7h354c5 0 6 -1 7 -6v-62c0 -6 -1 -9 -5 -14c-81 -118 -210 -277 -236 -310c27 1 65 0 115 0h137c5 0 8 -1 6 -8l-16 -86
c-1 -5 -4 -7 -8 -7zM212 560c-42 0 -69 28 -69 69s29 69 70 69c42 0 68 -29 68 -69c0 -41 -28 -69 -69 -69z" />
    <glyph glyph-name="uni0259" unicode="&#x259;" horiz-adv-x="506" 
d="M146 275h203c-2 66 -44 124 -140 124c-47 0 -96 -9 -134 -28c-3 -1 -6 -1 -6 5v83c0 6 2 8 6 11c38 18 91 32 160 32c172 0 237 -128 237 -251c0 -145 -81 -261 -232 -261c-149 0 -209 118 -209 213c0 29 2 50 5 60c1 5 3 7 8 8c14 2 54 4 102 4zM349 192h-148
c-38 0 -52 -1 -55 -2c-1 -2 -1 -8 -1 -9c0 -30 24 -94 100 -94c69 0 98 52 104 105z" />
    <glyph glyph-name="g.alt" horiz-adv-x="543" 
d="M357 111v283c-15 6 -36 8 -57 8c-91 0 -143 -68 -143 -153c0 -102 68 -149 137 -149c27 0 47 3 63 11zM477 405v-333c0 -52 -4 -91 -11 -122c-32 -133 -135 -172 -255 -172c-45 0 -105 7 -146 27c-5 2 -6 6 -6 10v104c0 4 2 6 7 4c47 -26 101 -34 147 -34
c112 0 141 50 143 114v5c-22 -8 -47 -11 -76 -11c-138 0 -247 88 -247 246c0 141 99 260 281 260c66 0 125 -12 165 -27c2 -1 2 -3 2 -7c-2 -17 -4 -51 -4 -64z" />
    <glyph glyph-name="gbreve.alt" horiz-adv-x="543" 
d="M357 111v283c-15 6 -36 8 -57 8c-91 0 -143 -68 -143 -153c0 -102 68 -149 137 -149c27 0 47 3 63 11zM477 405v-333c0 -52 -4 -91 -11 -122c-32 -133 -135 -172 -255 -172c-45 0 -105 7 -146 27c-5 2 -6 6 -6 10v104c0 4 2 6 7 4c47 -26 101 -34 147 -34
c112 0 141 50 143 114v5c-22 -8 -47 -11 -76 -11c-138 0 -247 88 -247 246c0 141 99 260 281 260c66 0 125 -12 165 -27c2 -1 2 -3 2 -7c-2 -17 -4 -51 -4 -64zM123 694h80c4 0 6 -1 7 -4c11 -32 34 -51 72 -51c35 0 63 15 74 50c1 4 2 5 5 5h82c4 0 5 -3 4 -6
c-16 -84 -75 -136 -166 -136c-85 0 -147 44 -164 136c0 5 2 6 6 6z" />
    <glyph glyph-name="gcircumflex.alt" horiz-adv-x="543" 
d="M357 111v283c-15 6 -36 8 -57 8c-91 0 -143 -68 -143 -153c0 -102 68 -149 137 -149c27 0 47 3 63 11zM477 405v-333c0 -52 -4 -91 -11 -122c-32 -133 -135 -172 -255 -172c-45 0 -105 7 -146 27c-5 2 -6 6 -6 10v104c0 4 2 6 7 4c47 -26 101 -34 147 -34
c112 0 141 50 143 114v5c-22 -8 -47 -11 -76 -11c-138 0 -247 88 -247 246c0 141 99 260 281 260c66 0 125 -12 165 -27c2 -1 2 -3 2 -7c-2 -17 -4 -51 -4 -64zM344 559l-63 90l-63 -91c-1 -2 -3 -3 -8 -3h-76c-5 0 -7 4 -4 8l101 140c2 4 4 5 8 5h89c5 0 7 -2 9 -5
l103 -141c3 -4 1 -7 -3 -7h-84c-5 0 -7 1 -9 4z" />
    <glyph glyph-name="uni0123.alt" horiz-adv-x="543" 
d="M357 111v283c-15 6 -36 8 -57 8c-91 0 -143 -68 -143 -153c0 -102 68 -149 137 -149c27 0 47 3 63 11zM477 405v-333c0 -52 -4 -91 -11 -122c-32 -133 -135 -172 -255 -172c-45 0 -105 7 -146 27c-5 2 -6 6 -6 10v104c0 4 2 6 7 4c47 -26 101 -34 147 -34
c112 0 141 50 143 114v5c-22 -8 -47 -11 -76 -11c-138 0 -247 88 -247 246c0 141 99 260 281 260c66 0 125 -12 165 -27c2 -1 2 -3 2 -7c-2 -17 -4 -51 -4 -64zM278 739h91c5 0 6 -5 4 -8c-28 -43 -37 -75 -37 -109c0 -19 6 -40 15 -63c2 -4 0 -6 -4 -6h-98c-5 0 -8 2 -11 5
c-7 13 -15 37 -15 58c0 50 16 84 45 120c2 2 5 3 10 3z" />
    <glyph glyph-name="gdotaccent.alt" horiz-adv-x="543" 
d="M357 111v283c-15 6 -36 8 -57 8c-91 0 -143 -68 -143 -153c0 -102 68 -149 137 -149c27 0 47 3 63 11zM477 405v-333c0 -52 -4 -91 -11 -122c-32 -133 -135 -172 -255 -172c-45 0 -105 7 -146 27c-5 2 -6 6 -6 10v104c0 4 2 6 7 4c47 -26 101 -34 147 -34
c112 0 141 50 143 114v5c-22 -8 -47 -11 -76 -11c-138 0 -247 88 -247 246c0 141 99 260 281 260c66 0 125 -12 165 -27c2 -1 2 -3 2 -7c-2 -17 -4 -51 -4 -64zM302 568c-42 0 -69 28 -69 69s29 69 70 69c42 0 68 -29 68 -69c0 -41 -28 -69 -69 -69z" />
    <glyph glyph-name="uni00670303.alt" horiz-adv-x="543" 
d="M357 111v283c-15 6 -36 8 -57 8c-91 0 -143 -68 -143 -153c0 -102 68 -149 137 -149c27 0 47 3 63 11zM477 405v-333c0 -52 -4 -91 -11 -122c-32 -133 -135 -172 -255 -172c-45 0 -105 7 -146 27c-5 2 -6 6 -6 10v104c0 4 2 6 7 4c47 -26 101 -34 147 -34
c112 0 141 50 143 114v5c-22 -8 -47 -11 -76 -11c-138 0 -247 88 -247 246c0 141 99 260 281 260c66 0 125 -12 165 -27c2 -1 2 -3 2 -7c-2 -17 -4 -51 -4 -64zM185 567h-67c-6 0 -7 3 -7 8c0 89 47 131 103 131c62 0 106 -51 137 -51c21 0 29 18 31 43c0 4 1 6 6 6h66
c5 0 6 -1 6 -5c0 -98 -42 -134 -98 -134c-57 0 -98 50 -137 50c-19 0 -33 -12 -35 -42c0 -2 -2 -6 -5 -6z" />
    <glyph glyph-name="uni0251" unicode="&#x251;" horiz-adv-x="546" 
d="M289 -10c-145 0 -257 84 -257 253c0 144 102 260 278 260c56 0 118 -9 163 -24c4 -1 7 -4 7 -9v-364c0 -21 2 -48 3 -64c0 -5 0 -7 -6 -9c-61 -30 -123 -43 -188 -43zM359 105v290c-10 3 -27 7 -53 7c-88 0 -150 -58 -150 -155c0 -108 70 -153 145 -153c23 0 41 3 58 11z
" />
    <glyph glyph-name="uni0261" unicode="&#x261;" horiz-adv-x="543" 
d="M357 111v283c-15 6 -36 8 -57 8c-91 0 -143 -68 -143 -153c0 -102 68 -149 137 -149c27 0 47 3 63 11zM477 405v-333c0 -52 -4 -91 -11 -122c-32 -133 -135 -172 -255 -172c-45 0 -105 7 -146 27c-5 2 -6 6 -6 10v104c0 4 2 6 7 4c47 -26 101 -34 147 -34
c112 0 141 50 143 114v5c-22 -8 -47 -11 -76 -11c-138 0 -247 88 -247 246c0 141 99 260 281 260c66 0 125 -12 165 -27c2 -1 2 -3 2 -7c-2 -17 -4 -51 -4 -64z" />
    <glyph glyph-name="caron.alt" 
d="M146 422l-1 228c0 6 3 7 7 7h88c6 0 8 -2 7 -7l-18 -230c-1 -4 -4 -5 -7 -5h-69c-5 0 -7 1 -7 7z" />
    <glyph glyph-name="uni00200326" 
d="M220 -226h-91c-5 0 -6 5 -4 8c28 43 37 76 37 109c0 20 -6 40 -15 63c-2 4 1 7 4 7h99c4 0 7 -3 10 -6c8 -12 15 -37 15 -57c0 -51 -16 -85 -45 -120c-2 -2 -5 -4 -10 -4z" />
    <glyph glyph-name="uni0020030F" 
d="M265 703l71 -136c2 -6 2 -13 -6 -13h-71c-10 0 -11 3 -14 8l-87 139c-3 4 -2 10 5 10h87c9 0 12 -2 15 -8zM82 704l71 -136c4 -6 2 -13 -7 -13h-67c-10 0 -13 3 -17 8l-88 138c-3 4 -1 11 7 11h88c7 0 10 -2 13 -8z" />
    <glyph glyph-name="grave.cap" 
d="M157 836l115 -110c4 -5 1 -8 -5 -8h-99c-6 0 -10 0 -15 4l-137 110c-4 5 -2 9 3 9h125c6 0 9 -1 13 -5z" />
    <glyph glyph-name="acute.cap" 
d="M129 725l120 112c4 4 6 5 11 5h127c4 0 5 -5 2 -9l-137 -109c-4 -5 -8 -6 -14 -6h-105c-5 0 -7 4 -4 7z" />
    <glyph glyph-name="circumflex.cap" 
d="M253 715l-63 65l-63 -65c-3 -4 -6 -6 -10 -6h-90c-4 0 -6 6 -3 9l113 116c3 2 5 4 9 4h92c5 0 9 -2 11 -5l117 -117c3 -4 1 -7 -4 -7h-97c-6 0 -9 2 -12 6z" />
    <glyph glyph-name="tilde.cap" 
d="M100 714h-67c-5 0 -8 3 -8 7c1 86 48 126 102 126c64 0 96 -50 130 -50c18 0 27 17 29 41c0 4 1 6 6 6h66c5 0 7 -1 7 -6c-3 -96 -46 -125 -97 -125c-61 0 -93 49 -130 49c-15 0 -29 -13 -32 -42c0 -3 -2 -6 -6 -6z" />
    <glyph glyph-name="macron.cap" 
d="M54 823h283c5 0 6 -2 6 -7v-77c0 -5 -2 -7 -6 -7h-281c-7 0 -9 1 -9 7v76c0 6 2 8 7 8z" />
    <glyph glyph-name="breve.cap" 
d="M33 857h82c5 0 6 -2 8 -7c12 -30 36 -50 71 -50c33 0 60 15 72 51c2 3 4 6 8 6h82c7 0 7 -6 6 -9c-16 -89 -84 -138 -168 -138c-85 0 -152 44 -167 139c-1 4 1 8 6 8z" />
    <glyph glyph-name="dotaccent.cap" 
d="M193 718c-41 0 -67 24 -67 60c0 35 28 59 69 59s66 -24 66 -60c0 -35 -25 -59 -68 -59z" />
    <glyph glyph-name="dieresis.cap" 
d="M89 718c-38 0 -63 23 -63 59c0 35 27 60 66 60c38 0 63 -26 63 -60c0 -36 -26 -59 -66 -59zM297 718c-37 0 -63 23 -63 59c0 35 28 60 66 60c37 0 63 -25 63 -60c0 -37 -26 -59 -66 -59z" />
    <glyph glyph-name="ring.cap" 
d="M85 785c0 57 47 91 109 91c63 0 109 -36 109 -91c0 -58 -47 -92 -109 -92c-64 0 -109 34 -109 92zM149 785c0 -24 19 -40 45 -40s45 15 45 40c0 24 -19 40 -45 40c-27 0 -45 -16 -45 -40z" />
    <glyph glyph-name="cedilla.cap" 
d="M170 6h73l-34 -46c56 -17 85 -46 85 -96c0 -56 -49 -95 -119 -95c-28 0 -58 5 -74 13c-4 2 -5 5 -5 8v52c0 4 2 6 6 5c18 -9 46 -14 65 -14c25 0 43 9 43 30c0 22 -30 39 -94 47c-3 4 -4 22 -1 26z" />
    <glyph glyph-name="hungarumlaut.cap" 
d="M44 725l72 110c2 5 5 6 10 6h100c4 0 5 -4 3 -8l-88 -111c-3 -3 -5 -4 -10 -4h-83c-5 0 -7 2 -4 7zM231 726l70 109c4 5 7 7 12 7h99c6 0 8 -5 5 -10l-87 -107c-4 -6 -8 -7 -12 -7h-83c-5 0 -7 3 -4 8z" />
    <glyph glyph-name="ogonek.cap" 
d="M164 6h92c-50 -31 -73 -63 -73 -92c0 -28 21 -46 58 -46c20 0 37 3 51 7c4 1 6 -2 6 -5v-68c0 -5 -1 -7 -5 -10c-18 -9 -51 -16 -86 -16c-62 0 -132 26 -132 105c0 45 33 89 89 125z" />
    <glyph glyph-name="caron.cap" 
d="M137 834l63 -65l62 64c3 4 6 6 10 6h91c4 0 5 -6 2 -8l-112 -117c-4 -3 -5 -3 -10 -3h-91c-6 0 -10 1 -12 4l-117 118c-2 3 -1 6 4 6h97c6 0 9 -3 13 -5z" />
    <glyph glyph-name="uni00200326.cap" horiz-adv-x="246" 
d="M129 -241h-95c-3 0 -5 3 -3 6c37 42 54 70 54 114c0 26 -10 51 -26 75c-2 3 -1 7 4 7h101c5 0 9 -1 12 -5c12 -14 22 -43 22 -74c0 -56 -27 -98 -57 -120c-2 -2 -7 -3 -12 -3z" />
    <glyph glyph-name="uni0020030F.cap" 
d="M277 833l68 -106c4 -6 0 -9 -6 -9h-79c-6 0 -9 1 -13 6l-85 108c-4 5 -1 9 4 9h99c6 0 9 -3 12 -8zM90 833l69 -106c4 -6 0 -8 -6 -8h-78c-6 0 -11 0 -15 6l-86 107c-5 5 -2 10 4 10h99c6 0 10 -2 13 -9z" />
    <glyph glyph-name="Ohorn" unicode="&#x1a0;" horiz-adv-x="692" 
d="M351 97c113 0 181 93 180 232c0 140 -69 231 -186 231c-106 0 -183 -83 -183 -231c0 -129 66 -232 189 -232zM547 737h90c6 0 9 -2 11 -8c3 -13 5 -28 5 -47c0 -51 -28 -95 -81 -110c54 -61 83 -146 84 -240c1 -207 -127 -342 -309 -342c-194 0 -310 144 -310 339
c0 192 126 338 310 338c58 0 109 -13 152 -37h2c40 0 48 22 48 51c0 13 -3 32 -6 48c-1 5 0 8 4 8z" />
    <glyph glyph-name="Uhorn" unicode="&#x1af;" horiz-adv-x="667" 
d="M581 764h91c6 0 8 -2 10 -9c4 -12 6 -27 6 -46c0 -54 -32 -100 -91 -112l-8 7v-353c0 -187 -115 -261 -262 -261c-159 0 -260 84 -260 256v402c0 6 1 9 8 9h105c6 0 8 -2 8 -8v-394c0 -95 46 -158 143 -158c78 0 137 38 137 160v391c0 6 2 9 8 9h52h7c40 0 48 22 48 51
c0 13 -3 32 -6 48c-1 5 0 8 4 8z" />
    <glyph glyph-name="ohorn" unicode="&#x1a1;" horiz-adv-x="544" 
d="M275 92c62 0 115 51 115 154c0 83 -36 156 -121 156c-67 0 -115 -59 -115 -154c0 -92 45 -156 121 -156zM446 568h90c6 0 9 -2 11 -9c3 -12 5 -28 5 -46c0 -51 -29 -96 -82 -110c28 -43 43 -97 43 -154c0 -155 -99 -259 -240 -259c-167 0 -241 129 -241 256
c0 142 93 257 243 257c55 0 102 -15 138 -41c28 5 35 25 35 50c0 13 -3 32 -7 48c-1 5 1 8 5 8z" />
    <glyph glyph-name="uhorn" unicode="&#x1b0;" horiz-adv-x="545" 
d="M455 601h91c6 0 8 -3 10 -9c4 -13 6 -28 6 -46c0 -52 -28 -97 -81 -111v-325c0 -52 4 -82 6 -103c1 -5 -2 -7 -8 -7h-92c-7 0 -9 2 -10 6c-3 10 -6 25 -7 35c-43 -40 -94 -51 -139 -51c-95 0 -168 51 -168 191v305c0 6 2 7 8 7h105c6 0 7 -2 7 -7v-291
c0 -62 27 -100 87 -100c38 0 66 13 91 36v355c0 5 2 7 8 7h35h7c37 0 46 21 46 51c0 14 -3 32 -6 48c-1 5 0 9 4 9z" />
    <glyph glyph-name="uni01CD" unicode="&#x1cd;" horiz-adv-x="606" 
d="M416 173h-239l-55 -165c-2 -6 -5 -8 -11 -8h-100c-6 0 -8 3 -7 10l206 586c4 10 7 20 9 54c0 4 2 7 6 7h139c5 0 6 -1 7 -6l231 -642c1 -6 0 -9 -6 -9h-112c-5 0 -8 2 -10 6zM209 282h175c-21 66 -68 205 -88 275h-1c-16 -67 -56 -184 -86 -275zM239 834l63 -65l62 65
c3 4 6 6 10 6h91c4 0 5 -6 2 -9l-112 -116c-4 -3 -5 -4 -10 -4h-91c-6 0 -10 2 -12 5l-117 117c-2 4 -1 7 4 7h97c6 0 9 -3 13 -6z" />
    <glyph glyph-name="uni1E0C" unicode="&#x1e0c;" horiz-adv-x="660" 
d="M74 9v639c0 5 1 7 7 8c29 1 97 3 189 3c235 0 353 -133 353 -319c0 -244 -186 -342 -355 -342c-63 0 -155 0 -187 2c-4 0 -7 3 -7 9zM195 552v-448c20 -1 42 -1 68 -1c141 0 236 82 236 234c0 145 -95 217 -230 217c-28 0 -50 -1 -74 -2zM287 -196c-40 0 -68 27 -68 66
c0 40 30 67 70 67c41 0 67 -28 67 -67s-27 -66 -69 -66z" />
    <glyph glyph-name="uni1E0E" unicode="&#x1e0e;" horiz-adv-x="660" 
d="M74 9v639c0 5 1 7 7 8c29 1 97 3 189 3c235 0 353 -133 353 -319c0 -244 -186 -342 -355 -342c-63 0 -155 0 -187 2c-4 0 -7 3 -7 9zM195 552v-448c20 -1 42 -1 68 -1c141 0 236 82 236 234c0 145 -95 217 -230 217c-28 0 -50 -1 -74 -2zM170 -81h254c4 0 6 -2 6 -7v-71
c0 -5 -3 -7 -7 -7h-254c-5 0 -6 3 -6 7v72c0 5 3 6 7 6z" />
    <glyph glyph-name="Gcaron" unicode="&#x1e6;" horiz-adv-x="646" 
d="M469 260l-112 3c-7 1 -8 3 -8 9v89c0 5 3 6 7 6h226c7 0 8 -2 8 -8v-326c1 -5 -1 -8 -6 -9c-70 -27 -139 -34 -197 -34c-234 0 -351 149 -351 334c0 208 148 343 369 343c67 0 126 -7 162 -24c4 -2 6 -6 6 -12v-96c0 -6 -4 -7 -8 -5c-45 23 -97 29 -156 29
c-161 2 -248 -86 -248 -231c0 -130 80 -232 232 -232c34 0 56 3 76 9v155zM305 845l63 -65l62 65c3 4 6 6 10 6h91c4 0 5 -6 2 -9l-112 -116c-4 -3 -5 -3 -10 -3h-91c-6 0 -10 1 -12 4l-117 117c-2 4 -1 7 4 7h97c6 0 9 -3 13 -6z" />
    <glyph glyph-name="uni1E20" unicode="&#x1e20;" horiz-adv-x="646" 
d="M469 260l-112 3c-7 1 -8 3 -8 9v89c0 5 3 6 7 6h226c7 0 8 -2 8 -8v-326c1 -5 -1 -8 -6 -9c-70 -27 -139 -34 -197 -34c-234 0 -351 149 -351 334c0 208 148 343 369 343c67 0 126 -7 162 -24c4 -2 6 -6 6 -12v-96c0 -6 -4 -7 -8 -5c-45 23 -97 29 -156 29
c-161 2 -248 -86 -248 -231c0 -130 80 -232 232 -232c34 0 56 3 76 9v155zM219 830h284c5 0 6 -3 6 -7v-77c0 -5 -2 -7 -6 -7h-282c-6 0 -8 1 -8 7v76c0 6 2 8 6 8z" />
    <glyph glyph-name="uni1E2A" unicode="&#x1e2a;" horiz-adv-x="669" 
d="M587 0h-105c-6 0 -8 2 -8 8v279h-279v-278c0 -6 -2 -9 -8 -9h-103c-7 0 -9 3 -9 9v639c0 7 2 9 8 9h104c6 0 8 -2 8 -8v-253h279v254c0 4 2 7 7 7h107c5 0 7 -2 7 -7v-642c0 -6 -2 -8 -8 -8zM175 -63h82c4 0 6 -2 7 -7c12 -29 36 -49 71 -49c33 0 60 15 73 50
c1 3 3 6 7 6h83c6 0 5 -5 5 -8c-10 -87 -85 -139 -168 -139c-84 0 -159 44 -167 140c0 3 1 7 7 7z" />
    <glyph glyph-name="uni1E24" unicode="&#x1e24;" horiz-adv-x="669" 
d="M587 0h-105c-6 0 -8 2 -8 8v279h-279v-278c0 -6 -2 -9 -8 -9h-103c-7 0 -9 3 -9 9v639c0 7 2 9 8 9h104c6 0 8 -2 8 -8v-253h279v254c0 4 2 7 7 7h107c5 0 7 -2 7 -7v-642c0 -6 -2 -8 -8 -8zM333 -193c-40 0 -68 27 -68 66s30 67 70 67c41 0 67 -28 67 -67
s-27 -66 -69 -66z" />
    <glyph glyph-name="uni01CF" unicode="&#x1cf;" horiz-adv-x="270" 
d="M195 649v-640c0 -7 -2 -9 -8 -9h-105c-6 0 -8 3 -8 9v640c0 7 3 8 8 8h105c6 0 8 -2 8 -8zM77 831l63 -65l62 65c3 3 6 5 10 5h90c5 0 6 -5 3 -8l-112 -116c-4 -3 -5 -4 -10 -4h-91c-6 0 -10 2 -12 5l-117 117c-2 3 -1 6 4 6h97c6 0 9 -2 13 -5z" />
    <glyph glyph-name="uni1E36" unicode="&#x1e36;" horiz-adv-x="501" 
d="M470 0h-386c-8 0 -10 3 -10 10v638c0 5 2 9 8 9h107c4 0 6 -3 6 -7v-541h294c6 0 8 -3 7 -7l-17 -94c-1 -7 -4 -8 -9 -8zM272 -194c-40 0 -68 26 -68 66c0 39 29 67 70 67c40 0 66 -28 66 -67c0 -40 -27 -66 -68 -66z" />
    <glyph glyph-name="uni1E38" unicode="&#x1e38;" horiz-adv-x="501" 
d="M470 0h-386c-8 0 -10 3 -10 10v638c0 5 2 9 8 9h107c4 0 6 -3 6 -7v-541h294c6 0 8 -3 7 -7l-17 -94c-1 -7 -4 -8 -9 -8zM263 -198c-40 0 -67 27 -67 67c0 39 29 67 69 67c41 0 67 -29 67 -67c0 -40 -27 -67 -69 -67zM-3 817h284c4 0 6 -2 6 -7v-76c0 -6 -2 -8 -7 -8
h-281c-6 0 -9 1 -9 8v76c0 5 2 7 7 7z" />
    <glyph glyph-name="uni1E3A" unicode="&#x1e3a;" horiz-adv-x="501" 
d="M470 0h-386c-8 0 -10 3 -10 10v638c0 5 2 9 8 9h107c4 0 6 -3 6 -7v-541h294c6 0 8 -3 7 -7l-17 -94c-1 -7 -4 -8 -9 -8zM143 -81h254c4 0 6 -3 6 -7v-72c0 -5 -3 -7 -7 -7h-253c-6 0 -7 3 -7 7v72c0 5 3 7 7 7z" />
    <glyph glyph-name="uni1E42" unicode="&#x1e42;" horiz-adv-x="831" 
d="M101 651c1 6 3 6 8 6h160c6 0 8 -2 10 -7c30 -101 117 -398 137 -491h1c21 85 120 388 151 491c2 4 3 7 9 7h156c5 0 7 -1 8 -6l27 -643c1 -6 -2 -8 -7 -8h-111c-5 0 -8 1 -8 7c-5 213 -7 501 -6 564h-1c-23 -96 -126 -430 -166 -563c-1 -7 -5 -8 -9 -8h-100
c-7 0 -9 1 -10 7c-43 152 -123 443 -151 565h-2c-1 -101 -9 -355 -19 -565c0 -6 -2 -7 -8 -7h-100c-6 0 -8 1 -7 8zM411 -190c-40 0 -68 27 -68 66c0 40 29 67 69 67c41 0 67 -28 67 -67s-27 -66 -68 -66z" />
    <glyph glyph-name="uni1E44" unicode="&#x1e44;" horiz-adv-x="683" 
d="M180 0h-97c-6 0 -9 1 -9 9v641c0 5 2 7 7 7h141c8 0 9 -2 12 -7c74 -132 227 -414 262 -489h1c-1 28 -3 61 -3 155v333c0 5 3 8 9 8h96c7 0 9 -3 9 -9v-639c0 -7 -3 -9 -10 -9h-127c-7 0 -10 2 -13 7c-52 102 -235 425 -274 522h-1c4 -51 5 -95 5 -186v-334
c0 -6 -2 -9 -8 -9zM343 712c-41 0 -68 25 -68 60c0 36 28 60 70 60c40 0 66 -24 66 -60s-26 -60 -68 -60z" />
    <glyph glyph-name="uni1E46" unicode="&#x1e46;" horiz-adv-x="683" 
d="M180 0h-97c-6 0 -9 1 -9 9v641c0 5 2 7 7 7h141c8 0 9 -2 12 -7c74 -132 227 -414 262 -489h1c-1 28 -3 61 -3 155v333c0 5 3 8 9 8h96c7 0 9 -3 9 -9v-639c0 -7 -3 -9 -10 -9h-127c-7 0 -10 2 -13 7c-52 102 -235 425 -274 522h-1c4 -51 5 -95 5 -186v-334
c0 -6 -2 -9 -8 -9zM344 -192c-40 0 -68 27 -68 67c0 39 30 67 70 67c41 0 67 -29 67 -68s-27 -66 -69 -66z" />
    <glyph glyph-name="uni1E48" unicode="&#x1e48;" horiz-adv-x="683" 
d="M180 0h-97c-6 0 -9 1 -9 9v641c0 5 2 7 7 7h141c8 0 9 -2 12 -7c74 -132 227 -414 262 -489h1c-1 28 -3 61 -3 155v333c0 5 3 8 9 8h96c7 0 9 -3 9 -9v-639c0 -7 -3 -9 -10 -9h-127c-7 0 -10 2 -13 7c-52 102 -235 425 -274 522h-1c4 -51 5 -95 5 -186v-334
c0 -6 -2 -9 -8 -9zM219 -77h253c5 0 6 -2 6 -7v-72c0 -5 -2 -7 -6 -7h-254c-5 0 -6 3 -6 7v72c0 5 3 7 7 7z" />
    <glyph glyph-name="uni01D1" unicode="&#x1d1;" horiz-adv-x="692" 
d="M346 667c196 0 308 -150 309 -335c1 -207 -127 -342 -309 -342c-194 0 -310 144 -310 339c0 192 126 338 310 338zM161 329c0 -129 66 -232 189 -232c113 0 181 93 180 232c0 140 -69 231 -186 231c-106 0 -183 -83 -183 -231zM280 840l63 -65l62 65c4 4 7 5 11 5h90
c4 0 6 -5 3 -8l-113 -116c-3 -3 -5 -4 -10 -4h-91c-5 0 -9 2 -11 5l-117 117c-3 4 -1 6 4 6h97c6 0 9 -2 12 -5z" />
    <glyph glyph-name="uni1E5A" unicode="&#x1e5a;" horiz-adv-x="587" 
d="M185 0h-103c-6 0 -8 2 -8 8v639c0 5 1 9 7 9c79 2 121 3 198 3c160 0 254 -69 254 -197c0 -87 -56 -149 -129 -176c33 -46 153 -225 182 -275c3 -6 4 -11 -2 -11h-125c-8 0 -11 2 -14 5c-29 45 -99 160 -143 230c-7 12 -12 17 -23 17h-86v-244c0 -6 -3 -8 -8 -8zM193 355
h87c81 0 133 36 133 100c0 66 -53 99 -138 99c-34 0 -66 -1 -82 -2v-197zM292 -193c-40 0 -67 27 -67 66s29 67 69 67c41 0 67 -28 67 -67s-27 -66 -69 -66z" />
    <glyph glyph-name="uni1E5C" unicode="&#x1e5c;" horiz-adv-x="587" 
d="M185 0h-103c-6 0 -8 2 -8 8v639c0 5 1 9 7 9c79 2 121 3 198 3c160 0 254 -69 254 -197c0 -87 -56 -149 -129 -176c33 -46 153 -225 182 -275c3 -6 4 -11 -2 -11h-125c-8 0 -11 2 -14 5c-29 45 -99 160 -143 230c-7 12 -12 17 -23 17h-86v-244c0 -6 -3 -8 -8 -8zM193 355
h87c81 0 133 36 133 100c0 66 -53 99 -138 99c-34 0 -66 -1 -82 -2v-197zM299 -189c-40 0 -68 27 -68 67c0 39 30 67 70 67c41 0 67 -28 67 -67c0 -40 -27 -67 -69 -67zM126 827h284c5 0 6 -3 6 -7v-77c0 -5 -2 -7 -6 -7h-281c-7 0 -9 1 -9 7v76c0 6 2 8 6 8z" />
    <glyph glyph-name="uni1E5E" unicode="&#x1e5e;" horiz-adv-x="587" 
d="M185 0h-103c-6 0 -8 2 -8 8v639c0 5 1 9 7 9c79 2 121 3 198 3c160 0 254 -69 254 -197c0 -87 -56 -149 -129 -176c33 -46 153 -225 182 -275c3 -6 4 -11 -2 -11h-125c-8 0 -11 2 -14 5c-29 45 -99 160 -143 230c-7 12 -12 17 -23 17h-86v-244c0 -6 -3 -8 -8 -8zM193 355
h87c81 0 133 36 133 100c0 66 -53 99 -138 99c-34 0 -66 -1 -82 -2v-197zM175 -68h254c4 0 6 -2 6 -7v-72c0 -5 -3 -7 -7 -7h-253c-5 0 -7 3 -7 7v72c0 5 3 7 7 7z" />
    <glyph glyph-name="uni1E60" unicode="&#x1e60;" horiz-adv-x="496" 
d="M218 -10c-73 0 -134 14 -175 36c-5 3 -7 7 -7 15v104c0 4 4 6 8 4c54 -35 120 -52 178 -52c82 0 117 32 117 75c0 37 -24 65 -100 97l-48 20c-123 52 -155 114 -155 189c0 107 81 189 232 189c63 0 120 -9 153 -26c5 -3 6 -6 6 -13v-97c0 -4 -3 -8 -9 -4
c-38 22 -93 33 -151 33c-86 0 -113 -36 -113 -71c0 -36 23 -61 102 -94l38 -16c130 -54 167 -117 167 -196c0 -117 -92 -193 -243 -193zM243 730c-41 0 -68 25 -68 60c0 36 28 60 69 60s67 -24 67 -60c0 -35 -26 -60 -68 -60z" />
    <glyph glyph-name="uni1E62" unicode="&#x1e62;" horiz-adv-x="496" 
d="M218 -10c-73 0 -134 14 -175 36c-5 3 -7 7 -7 15v104c0 4 4 6 8 4c54 -35 120 -52 178 -52c82 0 117 32 117 75c0 37 -24 65 -100 97l-48 20c-123 52 -155 114 -155 189c0 107 81 189 232 189c63 0 120 -9 153 -26c5 -3 6 -6 6 -13v-97c0 -4 -3 -8 -9 -4
c-38 22 -93 33 -151 33c-86 0 -113 -36 -113 -71c0 -36 23 -61 102 -94l38 -16c130 -54 167 -117 167 -196c0 -117 -92 -193 -243 -193zM235 -198c-40 0 -67 27 -67 67c0 39 29 67 69 67c41 0 67 -29 67 -67c0 -40 -27 -67 -69 -67z" />
    <glyph glyph-name="uni1E6C" unicode="&#x1e6c;" horiz-adv-x="540" 
d="M210 9v539h-203c-5 0 -7 3 -6 8l13 93c1 6 3 8 9 8h497c6 0 9 -2 10 -9l9 -91c1 -6 -2 -9 -7 -9h-202v-539c0 -6 -3 -9 -8 -9h-103c-7 -1 -9 2 -9 9zM269 -193c-40 0 -68 26 -68 66c0 39 29 67 69 67c41 0 67 -28 67 -67c0 -40 -27 -66 -68 -66z" />
    <glyph glyph-name="uni1E6E" unicode="&#x1e6e;" horiz-adv-x="540" 
d="M210 9v539h-203c-5 0 -7 3 -6 8l13 93c1 6 3 8 9 8h497c6 0 9 -2 10 -9l9 -91c1 -6 -2 -9 -7 -9h-202v-539c0 -6 -3 -9 -8 -9h-103c-7 -1 -9 2 -9 9zM144 -77h254c4 0 6 -2 6 -7v-72c0 -5 -3 -7 -7 -7h-253c-6 0 -7 3 -7 7v72c0 5 3 7 7 7z" />
    <glyph glyph-name="uni01D3" unicode="&#x1d3;" horiz-adv-x="652" 
d="M186 649v-394c0 -95 46 -158 142 -158c79 0 138 38 138 160v391c0 6 2 9 8 9h105c6 0 8 -3 8 -8v-398c0 -187 -115 -261 -263 -261c-158 0 -259 84 -259 256v402c0 6 1 9 8 9h105c6 0 8 -2 8 -8zM268 828l63 -65l62 65c4 3 7 5 11 5h90c4 0 6 -5 3 -8l-113 -116
c-3 -3 -5 -4 -10 -4h-91c-5 0 -9 2 -11 5l-117 117c-3 3 -1 6 4 6h97c6 0 9 -2 12 -5z" />
    <glyph glyph-name="uni01D5" unicode="&#x1d5;" horiz-adv-x="652" 
d="M186 649v-394c0 -95 46 -158 142 -158c79 0 138 38 138 160v391c0 6 2 9 8 9h105c6 0 8 -3 8 -8v-398c0 -187 -115 -261 -263 -261c-158 0 -259 84 -259 256v402c0 6 1 9 8 9h105c6 0 8 -2 8 -8zM190 897h277c5 0 7 -2 7 -7v-60c0 -5 -3 -7 -7 -7h-278c-6 0 -6 3 -6 7v60
c0 5 3 7 7 7zM226 698c-30 0 -51 17 -51 42c0 27 22 44 52 44c29 0 49 -18 49 -44c0 -25 -22 -42 -50 -42zM431 698c-29 0 -49 17 -49 42c0 27 21 44 50 44c30 0 50 -18 50 -44c0 -25 -21 -42 -51 -42z" />
    <glyph glyph-name="uni01D7" unicode="&#x1d7;" horiz-adv-x="652" 
d="M186 649v-394c0 -95 46 -158 142 -158c79 0 138 38 138 160v391c0 6 2 9 8 9h105c6 0 8 -3 8 -8v-398c0 -187 -115 -261 -263 -261c-158 0 -259 84 -259 256v402c0 6 1 9 8 9h105c6 0 8 -2 8 -8zM271 813l70 85c2 4 5 5 8 5h103c3 0 4 -3 3 -6l-80 -86
c-2 -3 -5 -4 -10 -4h-89c-5 0 -6 2 -5 6zM223 702c-30 0 -51 17 -51 42c0 26 23 44 52 44s49 -19 49 -44c0 -26 -22 -42 -50 -42zM428 702c-29 0 -49 16 -49 42s21 44 50 44c30 0 50 -18 50 -44c0 -25 -21 -42 -51 -42z" />
    <glyph glyph-name="uni01D9" unicode="&#x1d9;" horiz-adv-x="652" 
d="M186 649v-394c0 -95 46 -158 142 -158c79 0 138 38 138 160v391c0 6 2 9 8 9h105c6 0 8 -3 8 -8v-398c0 -187 -115 -261 -263 -261c-158 0 -259 84 -259 256v402c0 6 1 9 8 9h105c6 0 8 -2 8 -8zM328 848c12 11 39 34 51 44c2 3 5 4 10 4h83c5 0 6 -5 4 -8l-90 -75
c-2 -3 -6 -4 -10 -4h-104c-5 0 -8 1 -10 4l-94 75c-2 4 -1 8 4 8h92c5 0 7 -2 11 -5c13 -11 38 -32 53 -43zM223 700c-30 0 -51 16 -51 42s22 44 52 44c29 0 49 -19 49 -44c0 -26 -22 -42 -50 -42zM428 700c-28 0 -49 16 -49 42s21 44 50 44c30 0 50 -18 50 -44
c0 -25 -21 -42 -51 -42z" />
    <glyph glyph-name="uni01DB" unicode="&#x1db;" horiz-adv-x="652" 
d="M186 649v-394c0 -95 46 -158 142 -158c79 0 138 38 138 160v391c0 6 2 9 8 9h105c6 0 8 -3 8 -8v-398c0 -187 -115 -261 -263 -261c-158 0 -259 84 -259 256v402c0 6 1 9 8 9h105c6 0 8 -2 8 -8zM319 895l68 -85c3 -4 0 -6 -4 -6h-90c-5 0 -7 1 -9 4l-80 86c-2 3 0 6 3 6
h102c4 0 7 -1 10 -5zM223 698c-30 0 -51 17 -51 43s23 44 52 44s49 -19 49 -44c0 -26 -22 -43 -50 -43zM428 698c-29 0 -49 17 -49 43s21 44 50 44c30 0 50 -18 50 -44c0 -25 -21 -43 -51 -43z" />
    <glyph glyph-name="uni1E8E" unicode="&#x1e8e;" horiz-adv-x="538" 
d="M200 265l-214 383c-4 6 1 9 5 9h121c6 0 7 -2 9 -5c106 -206 140 -269 154 -303c16 35 48 101 149 302c1 5 3 6 8 6h117c5 0 6 -3 4 -8l-217 -387c-6 -10 -8 -18 -8 -30v-223c0 -7 -2 -9 -9 -9h-102c-8 0 -10 3 -10 9v227c0 13 -1 18 -7 29zM267 718c-40 0 -67 24 -67 60
c0 35 28 59 69 59s66 -24 66 -60c0 -35 -25 -59 -68 -59z" />
    <glyph glyph-name="uni1E92" unicode="&#x1e92;" horiz-adv-x="547" 
d="M510 0h-487c-4 0 -8 1 -8 8v67c0 6 1 8 3 12l347 462h-335c-5 0 -8 1 -7 7l15 93c1 6 4 8 9 8h465c5 0 6 -2 6 -6v-72c0 -5 -1 -9 -5 -14l-341 -456h358c5 0 7 -3 5 -9l-16 -92c-1 -6 -3 -8 -9 -8zM272 -193c-40 0 -68 27 -68 66s29 67 70 67c40 0 66 -28 66 -67
s-26 -66 -68 -66z" />
    <glyph glyph-name="uni01CE" unicode="&#x1ce;" horiz-adv-x="496" 
d="M316 97v123c-15 2 -32 3 -55 3c-79 0 -114 -26 -114 -69c0 -37 26 -69 98 -69c26 0 49 3 71 12zM433 305v-203c0 -22 0 -42 2 -63c0 -2 0 -3 -2 -4c-82 -35 -140 -45 -208 -45c-109 0 -196 51 -196 164c0 106 95 159 225 159c30 0 53 -1 62 -2v12c0 23 -13 75 -101 75
c-50 0 -94 -10 -131 -28c-3 -1 -8 0 -8 6v87c0 5 1 7 6 10c43 20 98 30 152 30c139 0 199 -87 199 -198zM190 704l63 -90l62 91c2 2 4 3 8 3h77c5 0 6 -4 3 -8l-100 -140c-3 -4 -5 -5 -9 -5h-88c-6 0 -8 2 -10 5l-103 141c-3 4 0 7 4 7h83c5 0 7 -1 10 -4z" />
    <glyph glyph-name="uni1E0D" unicode="&#x1e0d;" horiz-adv-x="543" 
d="M288 -10c-145 0 -256 84 -256 252c0 145 108 261 284 261c14 0 26 -1 43 -3v205c0 5 2 7 6 7h109c5 0 5 -2 5 -6v-604c0 -20 2 -46 4 -64c0 -5 -1 -7 -6 -9c-65 -28 -129 -39 -189 -39zM359 102v293c-13 5 -29 7 -47 7c-89 0 -156 -57 -156 -154c0 -109 65 -154 145 -154
c20 0 40 2 58 8zM281 -196c-40 0 -68 26 -68 66c0 39 29 67 69 67c41 0 67 -28 67 -67c0 -40 -27 -66 -68 -66z" />
    <glyph glyph-name="uni1E0F" unicode="&#x1e0f;" horiz-adv-x="543" 
d="M288 -10c-145 0 -256 84 -256 252c0 145 108 261 284 261c14 0 26 -1 43 -3v205c0 5 2 7 6 7h109c5 0 5 -2 5 -6v-604c0 -20 2 -46 4 -64c0 -5 -1 -7 -6 -9c-65 -28 -129 -39 -189 -39zM359 102v293c-13 5 -29 7 -47 7c-89 0 -156 -57 -156 -154c0 -109 65 -154 145 -154
c20 0 40 2 58 8zM154 -91h254c4 0 6 -2 6 -7v-72c0 -4 -3 -6 -7 -6h-253c-5 0 -7 2 -7 7v71c0 5 3 7 7 7z" />
    <glyph glyph-name="gcaron" unicode="&#x1e7;" horiz-adv-x="514" 
d="M195 560l-103 141c-3 4 0 7 4 7h83c5 0 7 -1 10 -4l63 -90l62 91c2 2 4 3 8 3h77c5 0 6 -4 3 -8l-100 -140c-3 -4 -5 -5 -9 -5h-88c-6 0 -8 2 -10 5zM291 3l-109 5c-29 -20 -48 -52 -48 -67c0 -35 48 -74 131 -74c95 0 137 39 137 77c0 44 -50 56 -111 59zM243 416
c-50 0 -81 -31 -81 -82c0 -46 28 -80 81 -80c50 0 80 29 80 78c0 47 -24 84 -80 84zM215 109l102 -4c137 -7 196 -61 196 -143c0 -102 -100 -184 -256 -184c-161 0 -234 81 -234 154c0 32 27 73 93 130c-15 22 -22 48 -21 75c0 23 6 45 18 65c-41 26 -69 69 -69 130
c0 96 73 171 199 171c35 0 67 -3 88 -7c9 -2 17 -3 23 -3h139c5 0 6 -2 6 -6v-82c0 -4 -1 -6 -6 -6c-19 0 -55 2 -77 5c11 -16 22 -40 22 -76c0 -107 -85 -161 -193 -161c-13 0 -27 1 -40 3c-3 -10 -5 -20 -3 -30c1 -11 5 -21 13 -31z" />
    <glyph glyph-name="uni1E21" unicode="&#x1e21;" horiz-adv-x="514" 
d="M398 585h-280c-5 0 -6 2 -6 7v71c0 6 3 7 7 7h279c5 0 6 -2 6 -7v-72c0 -4 -2 -6 -6 -6zM291 3l-109 5c-29 -20 -48 -52 -48 -67c0 -35 48 -74 131 -74c95 0 137 39 137 77c0 44 -50 56 -111 59zM243 416c-50 0 -81 -31 -81 -82c0 -46 28 -80 81 -80c50 0 80 29 80 78
c0 47 -24 84 -80 84zM215 109l102 -4c137 -7 196 -61 196 -143c0 -102 -100 -184 -256 -184c-161 0 -234 81 -234 154c0 32 27 73 93 130c-15 22 -22 48 -21 75c0 23 6 45 18 65c-41 26 -69 69 -69 130c0 96 73 171 199 171c35 0 67 -3 88 -7c9 -2 17 -3 23 -3h139
c5 0 6 -2 6 -6v-82c0 -4 -1 -6 -6 -6c-19 0 -55 2 -77 5c11 -16 22 -40 22 -76c0 -107 -85 -161 -193 -161c-13 0 -27 1 -40 3c-3 -10 -5 -20 -3 -30c1 -11 5 -21 13 -31z" />
    <glyph glyph-name="uni1E2B" unicode="&#x1e2b;" horiz-adv-x="552" 
d="M184 363v-356c0 -5 -1 -7 -7 -7h-106c-6 0 -8 3 -8 8v697c0 4 2 7 8 7h106c6 0 7 -2 7 -7v-248c38 28 80 46 137 46c76 0 167 -38 167 -198v-296c0 -7 -3 -9 -8 -9h-104c-6 0 -9 3 -9 9v284c0 67 -29 105 -87 105c-37 0 -70 -12 -96 -35zM115 -73h82c5 0 6 -2 8 -7
c11 -29 35 -49 70 -49c34 0 60 15 73 50c2 3 4 6 8 6h82c7 0 6 -5 6 -8c-11 -87 -85 -139 -169 -139s-159 44 -167 140c0 3 2 7 7 7z" />
    <glyph glyph-name="uni1E25" unicode="&#x1e25;" horiz-adv-x="552" 
d="M184 363v-356c0 -5 -1 -7 -7 -7h-106c-6 0 -8 3 -8 8v697c0 4 2 7 8 7h106c6 0 7 -2 7 -7v-248c38 28 80 46 137 46c76 0 167 -38 167 -198v-296c0 -7 -3 -9 -8 -9h-104c-6 0 -9 3 -9 9v284c0 67 -29 105 -87 105c-37 0 -70 -12 -96 -35zM275 -193c-40 0 -68 27 -68 66
s30 67 70 67c41 0 67 -28 67 -67s-27 -66 -69 -66z" />
    <glyph glyph-name="uni01D0" unicode="&#x1d0;" horiz-adv-x="248" 
d="M63 9v477c0 5 3 7 8 7h106c6 0 8 -1 8 -7v-478c0 -6 -2 -8 -9 -8h-103c-7 0 -10 3 -10 9zM67 704l63 -90l62 91c2 2 4 3 8 3h77c5 0 6 -4 3 -8l-100 -140c-3 -4 -5 -5 -9 -5h-88c-6 0 -8 2 -10 5l-103 141c-3 4 0 7 4 7h83c5 0 7 -1 10 -4z" />
    <glyph glyph-name="uni1E37" unicode="&#x1e37;" horiz-adv-x="265" 
d="M63 119v585c0 5 3 8 9 8h103c6 0 9 -3 9 -8v-574c0 -31 11 -41 35 -41c8 0 10 0 19 1c3 1 4 -1 4 -6v-75c0 -7 -1 -8 -6 -11c-11 -5 -29 -8 -57 -8c-64 0 -116 24 -116 129zM146 -193c-40 0 -68 27 -68 66s29 67 70 67c40 0 66 -28 66 -67s-26 -66 -68 -66z" />
    <glyph glyph-name="uni1E39" unicode="&#x1e39;" horiz-adv-x="265" 
d="M3 846h248c4 0 6 -1 6 -7v-70c0 -5 -2 -7 -6 -7h-250c-5 0 -6 3 -6 7v71c0 5 3 6 8 6zM148 -196c-38 0 -65 26 -65 63s28 64 67 64c38 0 63 -27 63 -64s-26 -63 -65 -63zM63 119v585c0 5 3 8 9 8h103c6 0 9 -3 9 -8v-574c0 -31 11 -41 35 -41c8 0 10 0 19 1
c3 1 4 -1 4 -6v-75c0 -7 -1 -8 -6 -11c-11 -5 -29 -8 -57 -8c-64 0 -116 24 -116 129z" />
    <glyph glyph-name="uni1E3B" unicode="&#x1e3b;" horiz-adv-x="265" 
d="M63 119v585c0 5 3 8 9 8h103c6 0 9 -3 9 -8v-574c0 -31 11 -41 35 -41c8 0 10 0 19 1c3 1 4 -1 4 -6v-75c0 -7 -1 -8 -6 -11c-11 -5 -29 -8 -57 -8c-64 0 -116 24 -116 129zM24 -81h253c5 0 6 -3 6 -7v-72c0 -5 -2 -7 -6 -7h-254c-5 0 -6 3 -6 7v72c0 5 3 7 7 7z" />
    <glyph glyph-name="uni1E43" unicode="&#x1e43;" horiz-adv-x="846" 
d="M176 0h-105c-6 0 -8 3 -8 9v378c0 39 -2 80 -4 99c-1 5 2 7 8 7h92c5 0 7 -1 10 -6c3 -8 5 -24 6 -40c47 40 93 56 146 56c59 0 102 -22 129 -66c43 37 96 66 164 66c83 0 169 -44 169 -195v-300c0 -6 -4 -8 -9 -8h-103c-7 0 -9 3 -9 9v288c0 57 -23 102 -84 102
c-39 0 -73 -17 -98 -41c2 -11 3 -38 3 -59v-291c0 -5 -1 -8 -7 -8h-104c-6 0 -9 2 -9 9v291c0 66 -30 98 -84 98c-36 0 -65 -12 -95 -37v-353c0 -6 -2 -8 -8 -8zM422 -198c-40 0 -68 27 -68 67c0 39 29 67 70 67c40 0 66 -28 66 -67c0 -40 -26 -67 -68 -67z" />
    <glyph glyph-name="uni1E45" unicode="&#x1e45;" horiz-adv-x="551" 
d="M63 8v370c0 34 -2 88 -4 108c0 5 1 7 7 7h91c7 0 10 -2 12 -7c3 -9 5 -22 7 -38c43 36 91 55 145 55c75 0 167 -38 167 -198v-296c0 -7 -3 -9 -8 -9h-104c-6 0 -9 3 -9 9v285c0 66 -28 104 -86 104c-40 0 -73 -15 -97 -41v-349c0 -5 -3 -8 -8 -8h-105c-6 0 -8 3 -8 8z
M276 560c-42 0 -69 28 -69 69s29 69 69 69c43 0 69 -29 69 -69c0 -41 -28 -69 -69 -69z" />
    <glyph glyph-name="uni1E47" unicode="&#x1e47;" horiz-adv-x="551" 
d="M63 8v370c0 34 -2 88 -4 108c0 5 1 7 7 7h91c7 0 10 -2 12 -7c3 -9 5 -22 7 -38c43 36 91 55 145 55c75 0 167 -38 167 -198v-296c0 -7 -3 -9 -8 -9h-104c-6 0 -9 3 -9 9v285c0 66 -28 104 -86 104c-40 0 -73 -15 -97 -41v-349c0 -5 -3 -8 -8 -8h-105c-6 0 -8 3 -8 8z
M274 -193c-40 0 -68 27 -68 66s30 67 70 67c41 0 67 -28 67 -67s-27 -66 -69 -66z" />
    <glyph glyph-name="uni1E49" unicode="&#x1e49;" horiz-adv-x="551" 
d="M63 8v370c0 34 -2 88 -4 108c0 5 1 7 7 7h91c7 0 10 -2 12 -7c3 -9 5 -22 7 -38c43 36 91 55 145 55c75 0 167 -38 167 -198v-296c0 -7 -3 -9 -8 -9h-104c-6 0 -9 3 -9 9v285c0 66 -28 104 -86 104c-40 0 -73 -15 -97 -41v-349c0 -5 -3 -8 -8 -8h-105c-6 0 -8 3 -8 8z
M150 -88h253c4 0 6 -3 6 -7v-72c0 -5 -2 -7 -6 -7h-254c-5 0 -6 3 -6 7v72c0 5 3 7 7 7z" />
    <glyph glyph-name="uni01D2" unicode="&#x1d2;" horiz-adv-x="544" 
d="M275 503c154 0 238 -117 238 -254c0 -155 -99 -259 -240 -259c-167 0 -241 129 -241 256c0 142 93 257 243 257zM269 402c-67 0 -115 -59 -115 -154c0 -92 45 -156 121 -156c62 0 115 51 115 154c0 83 -36 156 -121 156zM211 704l63 -90l62 91c2 2 4 3 8 3h77
c5 0 6 -4 3 -8l-100 -140c-3 -4 -5 -5 -9 -5h-88c-6 0 -8 2 -10 5l-103 141c-3 4 0 7 4 7h83c5 0 7 -1 10 -4z" />
    <glyph glyph-name="uni1E5B" unicode="&#x1e5b;" horiz-adv-x="348" 
d="M64 493h94c6 0 9 -2 11 -8c5 -13 9 -38 10 -60c34 42 91 78 160 78c6 0 8 -1 8 -7v-106c0 -5 -2 -7 -9 -7c-71 2 -130 -23 -153 -53v-322c0 -6 -3 -8 -9 -8h-104c-7 0 -9 3 -9 8v345c0 43 -1 101 -5 134c0 5 1 6 6 6zM119 -193c-40 0 -68 27 -68 66s30 67 70 67
c41 0 67 -28 67 -67s-27 -66 -69 -66z" />
    <glyph glyph-name="uni1E5D" unicode="&#x1e5d;" horiz-adv-x="348" 
d="M64 493h94c6 0 9 -2 11 -8c5 -13 9 -38 10 -60c34 42 91 78 160 78c6 0 8 -1 8 -7v-106c0 -5 -2 -7 -9 -7c-71 2 -130 -23 -153 -53v-322c0 -6 -3 -8 -9 -8h-104c-7 0 -9 3 -9 8v345c0 43 -1 101 -5 134c0 5 1 6 6 6zM123 -193c-40 0 -68 27 -68 66s30 67 70 67
c41 0 67 -28 67 -67s-27 -66 -69 -66zM52 670h279c4 0 6 -2 6 -7v-72c0 -4 -2 -6 -6 -6h-280c-5 0 -6 2 -6 7v71c0 6 3 7 7 7z" />
    <glyph glyph-name="uni1E5F" unicode="&#x1e5f;" horiz-adv-x="348" 
d="M64 493h94c6 0 9 -2 11 -8c5 -13 9 -38 10 -60c34 42 91 78 160 78c6 0 8 -1 8 -7v-106c0 -5 -2 -7 -9 -7c-71 2 -130 -23 -153 -53v-322c0 -6 -3 -8 -9 -8h-104c-7 0 -9 3 -9 8v345c0 43 -1 101 -5 134c0 5 1 6 6 6zM-1 -77h254c4 0 6 -2 6 -7v-72c0 -5 -2 -7 -7 -7
h-253c-5 0 -7 3 -7 7v72c0 5 3 7 7 7z" />
    <glyph glyph-name="uni1E61" unicode="&#x1e61;" horiz-adv-x="400" 
d="M338 377c-31 17 -81 29 -125 29c-53 0 -71 -22 -71 -43c0 -22 15 -37 79 -62c114 -42 153 -87 153 -158c0 -94 -74 -153 -197 -153c-59 0 -111 11 -141 28c-5 3 -7 5 -7 11v95c0 5 4 7 8 5c43 -28 98 -40 143 -40c52 0 77 18 77 44c0 25 -19 41 -81 66
c-109 40 -148 85 -148 157c0 76 62 147 187 147c58 0 102 -8 126 -20c5 -3 6 -7 6 -12v-88c0 -5 -3 -8 -9 -6zM201 565c-42 0 -69 28 -69 69s29 69 69 69c43 0 69 -29 69 -69c0 -41 -28 -69 -69 -69z" />
    <glyph glyph-name="uni1E63" unicode="&#x1e63;" horiz-adv-x="400" 
d="M338 377c-31 17 -81 29 -125 29c-53 0 -71 -22 -71 -43c0 -22 15 -37 79 -62c114 -42 153 -87 153 -158c0 -94 -74 -153 -197 -153c-59 0 -111 11 -141 28c-5 3 -7 5 -7 11v95c0 5 4 7 8 5c43 -28 98 -40 143 -40c52 0 77 18 77 44c0 25 -19 41 -81 66
c-109 40 -148 85 -148 157c0 76 62 147 187 147c58 0 102 -8 126 -20c5 -3 6 -7 6 -12v-88c0 -5 -3 -8 -9 -6zM193 -196c-41 0 -68 27 -68 67c0 39 29 67 69 67c41 0 67 -28 67 -67c0 -40 -27 -67 -68 -67z" />
    <glyph glyph-name="uni1E97" unicode="&#x1e97;" horiz-adv-x="315" 
d="M296 88v-72c0 -6 -1 -10 -6 -12c-27 -10 -52 -14 -85 -14c-82 0 -131 40 -131 139v263h-63c-5 1 -7 3 -7 9v84c0 6 2 8 8 8h63c1 35 5 98 10 123c1 5 3 8 8 9l101 14c5 1 7 0 7 -5c-3 -33 -5 -92 -5 -141h97c5 0 7 -2 7 -7v-87c0 -5 -2 -7 -7 -7h-98v-237
c0 -44 14 -65 57 -65c13 0 24 1 38 4c3 1 6 0 6 -6zM52 665c-35 0 -60 24 -60 61c0 38 26 63 62 63c35 0 59 -26 59 -63c0 -38 -26 -61 -61 -61zM246 665c-34 0 -59 24 -59 61c0 38 27 63 61 63c36 0 59 -26 59 -63s-25 -61 -61 -61z" />
    <glyph glyph-name="uni1E6D" unicode="&#x1e6d;" horiz-adv-x="315" 
d="M296 88v-72c0 -6 -1 -10 -6 -12c-27 -10 -52 -14 -85 -14c-82 0 -131 40 -131 139v263h-63c-5 1 -7 3 -7 9v84c0 6 2 8 8 8h63c1 35 5 98 10 123c1 5 3 8 8 9l101 14c5 1 7 0 7 -5c-3 -33 -5 -92 -5 -141h97c5 0 7 -2 7 -7v-87c0 -5 -2 -7 -7 -7h-98v-237
c0 -44 14 -65 57 -65c13 0 24 1 38 4c3 1 6 0 6 -6zM174 -198c-40 0 -68 26 -68 66c0 39 29 67 70 67s67 -28 67 -67c0 -40 -27 -66 -69 -66z" />
    <glyph glyph-name="uni1E6F" unicode="&#x1e6f;" horiz-adv-x="315" 
d="M296 88v-72c0 -6 -1 -10 -6 -12c-27 -10 -52 -14 -85 -14c-82 0 -131 40 -131 139v263h-63c-5 1 -7 3 -7 9v84c0 6 2 8 8 8h63c1 35 5 98 10 123c1 5 3 8 8 9l101 14c5 1 7 0 7 -5c-3 -33 -5 -92 -5 -141h97c5 0 7 -2 7 -7v-87c0 -5 -2 -7 -7 -7h-98v-237
c0 -44 14 -65 57 -65c13 0 24 1 38 4c3 1 6 0 6 -6zM50 -84h254c4 0 6 -2 6 -7v-72c0 -4 -3 -6 -7 -6h-253c-6 0 -7 2 -7 7v71c0 5 3 7 7 7z" />
    <glyph glyph-name="uni01D4" unicode="&#x1d4;" horiz-adv-x="545" 
d="M481 486v-376c0 -52 4 -82 6 -103c1 -5 -2 -7 -8 -7h-92c-7 0 -9 2 -10 6c-3 10 -6 25 -7 35c-43 -40 -94 -51 -139 -51c-95 0 -168 51 -168 191v305c0 6 2 7 8 7h105c6 0 7 -2 7 -7v-291c0 -62 27 -100 87 -100c38 0 66 13 91 36v355c0 5 2 7 8 7h105c6 0 7 -2 7 -7z
M214 704l63 -90l62 91c2 2 4 3 8 3h77c5 0 6 -4 3 -8l-100 -140c-3 -4 -5 -5 -9 -5h-88c-6 0 -8 2 -10 5l-103 141c-3 4 0 7 4 7h83c5 0 7 -1 10 -4z" />
    <glyph glyph-name="uni01D6" unicode="&#x1d6;" horiz-adv-x="545" 
d="M481 486v-376c0 -52 4 -82 6 -103c1 -5 -2 -7 -8 -7h-92c-7 0 -9 2 -10 6c-3 10 -6 25 -7 35c-43 -40 -94 -51 -139 -51c-95 0 -168 51 -168 191v305c0 6 2 7 8 7h105c6 0 7 -2 7 -7v-291c0 -62 27 -100 87 -100c38 0 66 13 91 36v355c0 5 2 7 8 7h105c6 0 7 -2 7 -7z
M182 541c-31 0 -53 19 -53 48s24 49 54 49c32 0 53 -20 53 -49s-24 -48 -54 -48zM361 541c-30 0 -52 19 -52 48s23 49 53 49c32 0 52 -20 52 -49s-22 -48 -53 -48zM139 750h269c4 0 6 -2 6 -7v-56c0 -5 -3 -6 -7 -6h-268c-6 0 -7 2 -7 7v55c0 5 3 7 7 7z" />
    <glyph glyph-name="uni01D8" unicode="&#x1d8;" horiz-adv-x="545" 
d="M481 486v-376c0 -52 4 -82 6 -103c1 -5 -2 -7 -8 -7h-92c-7 0 -9 2 -10 6c-3 10 -6 25 -7 35c-43 -40 -94 -51 -139 -51c-95 0 -168 51 -168 191v305c0 6 2 7 8 7h105c6 0 7 -2 7 -7v-291c0 -62 27 -100 87 -100c38 0 66 13 91 36v355c0 5 2 7 8 7h105c6 0 7 -2 7 -7z
M215 672l70 93c3 4 6 5 10 5h101c4 0 5 -2 3 -6l-82 -94c-1 -3 -4 -4 -9 -4h-90c-3 0 -6 2 -3 6zM183 547c-30 0 -51 18 -51 45c0 28 23 46 52 46s49 -18 49 -46s-22 -45 -50 -45zM361 547c-29 0 -49 17 -49 45s22 46 51 46s49 -18 49 -46c0 -27 -21 -45 -51 -45z" />
    <glyph glyph-name="uni01DA" unicode="&#x1da;" horiz-adv-x="545" 
d="M481 486v-376c0 -52 4 -82 6 -103c1 -5 -2 -7 -8 -7h-92c-7 0 -9 2 -10 6c-3 10 -6 25 -7 35c-43 -40 -94 -51 -139 -51c-95 0 -168 51 -168 191v305c0 6 2 7 8 7h105c6 0 7 -2 7 -7v-291c0 -62 27 -100 87 -100c38 0 66 13 91 36v355c0 5 2 7 8 7h105c6 0 7 -2 7 -7z
M183 543c-30 0 -51 18 -51 46s23 46 52 46s49 -19 49 -46c0 -29 -22 -46 -50 -46zM361 543c-29 0 -49 17 -49 46c0 28 22 46 51 46s49 -19 49 -46c0 -28 -21 -46 -51 -46zM272 708c13 14 37 37 51 50c2 2 5 3 10 3h83c5 0 7 -4 3 -8l-91 -86c-3 -4 -7 -5 -10 -5h-99
c-5 0 -8 1 -11 4l-94 88c-2 4 0 7 4 7h92c5 0 7 -2 10 -4c15 -14 37 -34 52 -49z" />
    <glyph glyph-name="uni01DC" unicode="&#x1dc;" horiz-adv-x="545" 
d="M481 486v-376c0 -52 4 -82 6 -103c1 -5 -2 -7 -8 -7h-92c-7 0 -9 2 -10 6c-3 10 -6 25 -7 35c-43 -40 -94 -51 -139 -51c-95 0 -168 51 -168 191v305c0 6 2 7 8 7h105c6 0 7 -2 7 -7v-291c0 -62 27 -100 87 -100c38 0 66 13 91 36v355c0 5 2 7 8 7h105c6 0 7 -2 7 -7z
M258 765l73 -93c2 -4 0 -6 -4 -6h-89c-6 0 -8 1 -11 4l-84 94c-2 3 -1 6 3 6h103c4 0 7 -1 9 -5zM183 547c-30 0 -51 18 -51 45c0 28 23 46 52 46s49 -18 49 -46s-22 -45 -50 -45zM361 547c-29 0 -49 17 -49 45s22 46 51 46s49 -18 49 -46c0 -27 -21 -45 -51 -45z" />
    <glyph glyph-name="uni1E8F" unicode="&#x1e8f;" horiz-adv-x="478" 
d="M7 493h117c4 0 7 -1 9 -6c65 -187 99 -295 112 -344c33 101 68 204 113 344c2 4 5 6 11 6h103c6 0 7 -3 6 -8c-72 -221 -181 -491 -262 -676c-2 -4 -5 -7 -13 -7l-109 -8c-6 0 -7 2 -5 8c30 60 62 131 94 207c2 6 3 9 1 16c-27 66 -123 304 -183 461c-2 4 1 7 6 7z
M244 560c-42 0 -69 28 -69 69s29 69 69 69c43 0 69 -29 69 -69c0 -41 -28 -69 -69 -69z" />
    <glyph glyph-name="uni1E93" unicode="&#x1e93;" horiz-adv-x="421" 
d="M393 0h-376c-5 0 -6 2 -6 7v60c0 4 1 7 3 10c64 91 214 275 244 316c-19 -1 -52 -1 -95 -1h-140c-7 0 -9 3 -7 9l14 85c1 5 3 7 9 7h354c5 0 6 -1 7 -6v-62c0 -6 -1 -9 -5 -14c-81 -118 -210 -277 -236 -310c27 1 65 0 115 0h137c5 0 8 -1 6 -8l-16 -86
c-1 -5 -4 -7 -8 -7zM209 -193c-40 0 -67 27 -67 66s29 67 69 67c41 0 67 -28 67 -67s-27 -66 -69 -66z" />
    <glyph glyph-name="uni00A80300" horiz-adv-x="0" 
d="M-15 765l73 -93c3 -4 0 -6 -3 -6h-90c-5 0 -8 1 -10 4l-85 94c-1 3 0 6 4 6h103c3 0 6 -1 8 -5zM-89 547c-30 0 -51 18 -51 45c0 28 22 46 52 46c29 0 48 -18 48 -46s-21 -45 -49 -45zM89 547c-29 0 -50 17 -50 45s22 46 51 46c30 0 50 -18 50 -46c0 -27 -21 -45 -51 -45
z" />
    <glyph glyph-name="uni00A80301" horiz-adv-x="0" 
d="M-58 672l71 93c3 4 5 5 9 5h102c4 0 5 -2 3 -6l-82 -94c-2 -3 -5 -4 -10 -4h-89c-4 0 -6 2 -4 6zM-89 547c-30 0 -51 18 -51 45c0 28 22 46 52 46c29 0 48 -18 48 -46s-21 -45 -49 -45zM89 547c-29 0 -50 17 -50 45s22 46 51 46c30 0 50 -18 50 -46
c0 -27 -21 -45 -51 -45z" />
    <glyph glyph-name="uni00A8030C" horiz-adv-x="0" 
d="M-89 543c-30 0 -51 18 -51 46s22 46 52 46c29 0 48 -19 48 -46c0 -29 -21 -46 -49 -46zM89 543c-29 0 -50 17 -50 46c0 28 22 46 51 46c30 0 50 -19 50 -46c0 -28 -21 -46 -51 -46zM-1 708c13 14 38 37 51 50c3 2 5 3 10 3h83c5 0 7 -4 4 -8l-91 -86c-4 -4 -7 -5 -11 -5
h-98c-6 0 -9 1 -11 4l-94 88c-3 4 -1 7 4 7h92c4 0 6 -2 10 -4c14 -14 37 -34 51 -49z" />
    <glyph glyph-name="uni00A80304" horiz-adv-x="0" 
d="M-90 541c-32 0 -53 19 -53 48s23 49 54 49s52 -20 52 -49s-23 -48 -53 -48zM88 541c-30 0 -52 19 -52 48s23 49 54 49c32 0 52 -20 52 -49s-23 -48 -54 -48zM-133 750h268c5 0 6 -2 6 -7v-56c0 -5 -2 -6 -6 -6h-269c-5 0 -6 2 -6 7v55c0 5 2 7 7 7z" />
    <glyph glyph-name="uni00A80300.cap" horiz-adv-x="0" 
d="M-7 895l69 -85c2 -4 -1 -6 -5 -6h-90c-5 0 -7 1 -9 4l-80 86c-1 3 0 6 3 6h102c4 0 7 -1 10 -5zM-103 698c-30 0 -51 17 -51 43s23 44 52 44c30 0 49 -19 49 -44c0 -26 -21 -43 -50 -43zM102 698c-28 0 -49 17 -49 43s21 44 51 44s49 -18 49 -44c0 -25 -21 -43 -51 -43z
" />
    <glyph glyph-name="uni00A80301.cap" horiz-adv-x="0" 
d="M-54 810l69 85c2 4 5 5 9 5h102c3 0 5 -3 3 -6l-80 -86c-1 -3 -5 -4 -10 -4h-89c-4 0 -6 2 -4 6zM-103 698c-30 0 -51 17 -51 43s23 44 52 44c30 0 49 -19 49 -44c0 -26 -21 -43 -50 -43zM102 698c-28 0 -49 17 -49 43s21 44 51 44s49 -18 49 -44c0 -25 -21 -43 -51 -43z
" />
    <glyph glyph-name="uni00A8030C.cap" horiz-adv-x="0" 
d="M2 848c12 11 39 34 51 44c2 3 5 4 10 4h83c6 0 6 -5 4 -8l-90 -75c-2 -3 -6 -4 -10 -4h-104c-5 0 -8 1 -10 4l-93 75c-3 4 -1 8 3 8h92c5 0 7 -2 11 -5c13 -11 38 -32 53 -43zM-103 700c-30 0 -51 16 -51 42s23 44 52 44s49 -19 49 -44c0 -26 -22 -42 -50 -42zM102 700
c-28 0 -49 16 -49 42s22 44 51 44c30 0 49 -18 49 -44c0 -25 -21 -42 -51 -42z" />
    <glyph glyph-name="uni00A80304.cap" horiz-adv-x="0" 
d="M-139 897h278c4 0 6 -2 6 -7v-60c0 -5 -2 -7 -7 -7h-278c-5 0 -6 3 -6 7v60c0 5 3 7 7 7zM-103 698c-30 0 -51 17 -51 42c0 26 23 44 52 44c30 0 49 -18 49 -44c0 -25 -21 -42 -50 -42zM102 698c-28 0 -49 17 -49 42c0 26 21 44 51 44s49 -18 49 -44
c0 -25 -21 -42 -51 -42z" />
    <glyph glyph-name="uni1E9E" unicode="&#x1e9e;" horiz-adv-x="612" 
d="M520 449c-92 -19 -116 -44 -116 -68c0 -19 19 -33 61 -60c90 -58 112 -105 112 -165c0 -93 -68 -166 -204 -166c-48 0 -92 11 -119 26c-6 3 -7 6 -7 13v94c0 5 3 6 7 4c34 -21 77 -33 125 -33c46 0 80 17 80 51c1 23 -12 47 -81 91c-68 42 -98 75 -98 126
c0 62 48 107 124 135c-2 27 -26 67 -99 67c-77 0 -109 -44 -109 -117v-439c0 -5 -2 -8 -7 -8h-107c-6 0 -8 2 -8 8v455c0 140 96 204 231 204c155 0 218 -92 218 -181c0 -12 -2 -24 -3 -37z" />
    <glyph glyph-name="uni1EA0" unicode="&#x1ea0;" horiz-adv-x="606" 
d="M416 173h-239l-55 -165c-2 -6 -5 -8 -11 -8h-100c-6 0 -8 3 -7 10l206 586c4 10 7 20 9 54c0 4 2 7 6 7h139c5 0 6 -1 7 -6l231 -642c1 -6 0 -9 -6 -9h-112c-5 0 -8 2 -10 6zM209 282h175c-21 66 -68 205 -88 275h-1c-16 -67 -56 -184 -86 -275zM301 -176
c-38 0 -65 25 -65 64c0 37 28 63 67 63s63 -26 63 -64s-25 -63 -65 -63z" />
    <glyph glyph-name="uni1EA2" unicode="&#x1ea2;" horiz-adv-x="606" 
d="M416 173h-239l-55 -165c-2 -6 -5 -8 -11 -8h-100c-6 0 -8 3 -7 10l206 586c4 10 7 20 9 54c0 4 2 7 6 7h139c5 0 6 -1 7 -6l231 -642c1 -6 0 -9 -6 -9h-112c-5 0 -8 2 -10 6zM209 282h175c-21 66 -68 205 -88 275h-1c-16 -67 -56 -184 -86 -275zM196 804v52c0 3 0 5 4 7
c20 10 56 20 92 20c70 0 112 -32 112 -80c0 -58 -72 -96 -138 -108c-4 -1 -6 0 -6 4v51c0 5 3 6 5 7c25 12 41 21 41 36c0 13 -11 23 -32 23c-26 0 -48 -6 -71 -16c-4 -2 -7 0 -7 4z" />
    <glyph glyph-name="uni1EA4" unicode="&#x1ea4;" horiz-adv-x="606" 
d="M416 173h-239l-55 -165c-2 -6 -5 -8 -11 -8h-100c-6 0 -8 3 -7 10l206 586c4 10 7 20 9 54c0 4 2 7 6 7h139c5 0 6 -1 7 -6l231 -642c1 -6 0 -9 -6 -9h-112c-5 0 -8 2 -10 6zM209 282h175c-21 66 -68 205 -88 275h-1c-16 -67 -56 -184 -86 -275zM420 807l78 93
c3 4 5 5 10 5h100c4 0 6 -4 3 -8l-100 -93c-4 -4 -5 -5 -12 -5h-74c-6 0 -8 3 -5 8zM225 708h-83c-9 0 -10 3 -5 8l105 112c3 3 6 4 10 4h88c7 0 10 -2 12 -6l110 -110c5 -5 0 -8 -7 -8h-90c-8 0 -12 4 -13 6l-58 59l-56 -60c-5 -4 -7 -5 -13 -5z" />
    <glyph glyph-name="uni1EA6" unicode="&#x1ea6;" horiz-adv-x="606" 
d="M416 173h-239l-55 -165c-2 -6 -5 -8 -11 -8h-100c-6 0 -8 3 -7 10l206 586c4 10 7 20 9 54c0 4 2 7 6 7h139c5 0 6 -1 7 -6l231 -642c1 -6 0 -9 -6 -9h-112c-5 0 -8 2 -10 6zM209 282h175c-21 66 -68 205 -88 275h-1c-16 -67 -56 -184 -86 -275zM503 895l85 -102
c2 -4 1 -7 -4 -7h-79c-6 0 -9 1 -12 6l-103 101c-2 4 -2 7 3 7h99c5 0 8 -1 11 -5zM223 709h-83c-9 0 -10 3 -6 8l106 111c3 3 6 4 10 4h88c7 0 9 -2 12 -5l110 -111c4 -4 0 -7 -7 -7h-90c-9 0 -12 4 -14 5l-57 59l-57 -59c-4 -4 -6 -5 -12 -5z" />
    </font>
</defs>
</svg>
